<?xml version="1.0" standalone="no"?>
<!DOCTYPE svg PUBLIC "-//W3C//DTD SVG 1.1//EN" "http://www.w3.org/Graphics/SVG/1.1/DTD/svg11.dtd" >
<svg>
<metadata>
Created by FontForge 20090914 at Tue Dec  1 16:38:46 2020
 By www-data
Copyright (c) 2005 by Lanston Type Co.- P22 type foundry. All rights reserved.
</metadata>
<defs>
<font id="LTCCaslonPro-BoldItalic" horiz-adv-x="500" >
  <font-face 
    font-family="LTCCaslonPro-BoldItalic"
    font-weight="400"
    font-style="italic"
    font-stretch="normal"
    units-per-em="1000"
    panose-1="2 0 6 3 8 0 0 2 0 4"
    ascent="758"
    descent="-242"
    x-height="442.001"
    cap-height="700"
    bbox="-216 -296 1080 1155"
    underline-thickness="20"
    underline-position="-130"
    slope="-16"
    unicode-range="U+0020-U+FB06"
  />
<missing-glyph horiz-adv-x="301" 
 />
    <glyph glyph-name=".notdef" horiz-adv-x="301" 
 />
    <glyph glyph-name="space" unicode=" " horiz-adv-x="269" 
 />
    <glyph glyph-name="exclam" unicode="!" horiz-adv-x="386" 
d="M172 178l19 64.998c19.333 66.667 32.333 135.334 39 206.001l8 71c6.66699 64.667 17.334 111.334 32.001 140.001s35.667 43 63 43c17.333 0 31.5 -6.5 42.5 -19.5s16.5 -29.167 16.5 -48.5c0 -36.667 -21 -90.667 -63 -162
c-32.667 -55.333 -55.334 -97.333 -68.001 -126c-24 -58 -43.667 -116.333 -59 -175zM91 56.998c0 18.667 6.16699 34.5 18.5 47.5s27.833 19.5 46.5 19.5s34.334 -6.5 47.001 -19.5s19 -28.833 19 -47.5s-6.33301 -34.334 -19 -47.001s-28.334 -19 -47.001 -19
s-34.167 6.33301 -46.5 19s-18.5 28.334 -18.5 47.001z" />
    <glyph glyph-name="quotedbl" unicode="&#x22;" horiz-adv-x="455" 
d="M100 444c-8.66699 0 -12.998 5.66699 -12.998 17c0 5.33301 2 23.166 6 53.499s6 53.5 6 69.5c1.33301 16 2.83301 28.5 4.5 37.5s4.66699 20.167 9 33.5s11.166 23.333 20.499 30s21 10 35 10c11.333 0 20.666 -3.5 27.999 -10.5s11 -17.167 11 -30.5
c0 -12.667 -12 -43 -36 -91c-16.667 -33.333 -33 -68.666 -49 -105.999c-4 -8.66699 -11.333 -13 -22 -13zM280.002 444c-8.66699 0 -12.998 5.66699 -12.998 17c0 5.33301 2 23.166 6 53.499s6 53.5 6 69.5c1.33301 16 2.83301 28.5 4.5 37.5s4.66699 20.167 9 33.5
s11.166 23.333 20.499 30s21 10 35 10c11.333 0 20.666 -3.5 27.999 -10.5s11 -17.167 11 -30.5c0 -12.667 -12 -43 -36 -91c-16.667 -33.333 -33 -68.666 -49 -105.999c-4 -8.66699 -11.333 -13 -22 -13z" />
    <glyph glyph-name="numbersign" unicode="#" horiz-adv-x="696" 
d="M63 467l18 66h137l19 182h70l-19 -182h134l19 182h70l-19 -182h152l-18 -66h-142l-21 -204h179l-17 -66h-170l-22 -200h-69l21 200h-134l-21 -200h-70l21 200h-146l17 66h137l22 204h-148zM280 467l-21 -204h134l21 204h-134z" />
    <glyph glyph-name="dollar" unicode="$" 
d="M138 -77l18.9971 66c-30 6 -54.667 19.833 -74 41.5s-29 46.5 -29 74.5c0 19.333 6 36.333 18 51s26 22 42 22c13.333 0 24.5 -4.33301 33.5 -13s13.5 -19.667 13.5 -33c0 -23.333 -12 -43.333 -36 -60c-8.66699 -5.33301 -13 -12.666 -13 -21.999
c0 -6 4.5 -12.333 13.5 -19s22.167 -11.667 39.5 -15l83 291c-16 24.667 -28.333 44.834 -37 60.501s-17.167 35.667 -25.5 60s-12.5 48.166 -12.5 71.499c0 47.333 17.333 87.666 52 120.999s77.334 50 128.001 50l7 24c0.666992 4 3.66699 6 9 6h28c6 0 9 -2.66699 9 -8
l-9 -29c29.333 -7.33301 53.333 -21 72 -41s28 -42.667 28 -68c0 -20 -5.66699 -37 -17 -51s-25 -21 -41 -21c-13.333 0 -24.666 4.5 -33.999 13.5s-14 20.5 -14 34.5c0 21.333 9.66699 41 29 59c6.66699 4.66699 10 10 10 16c0 13.333 -13.667 23.333 -41 30l-67 -233
c52 -82.667 78 -150.667 78 -204c0 -56 -19.167 -104.5 -57.5 -145.5s-85.166 -63.167 -140.499 -66.5l-18 -65c-0.666992 -4 -3.66699 -6 -9 -6h-28c-6 0 -9 2.66699 -9 8zM316.997 147c0 30.667 -12.333 66.999 -37 108.999l-70 -243c30 3.33301 55.333 17.833 76 43.5
s31 55.834 31 90.501zM250.997 555.999c0 -24 13 -58.333 39 -103l53 188c-20.667 0 -41.167 -8.83301 -61.5 -26.5s-30.5 -37.167 -30.5 -58.5z" />
    <glyph glyph-name="percent" unicode="%" horiz-adv-x="690" 
d="M212 678c33.333 0 58.001 -14.6689 74.001 -44.002s24 -62.666 24 -99.999c0 -23.333 -3.83301 -49.666 -11.5 -78.999s-18.5 -58.5 -32.5 -87.5s-33 -53.167 -57 -72.5s-50.333 -29 -79 -29c-28 0 -51.333 13.833 -70 41.5s-28 61.5 -28 101.5c0 38.667 8 78.667 24 120
s38.167 76.5 66.5 105.5s58.166 43.5 89.499 43.5zM87.001 340.998c0 -35.333 14.001 -52.999 42.001 -52.999c30 0 58.5 41 85.5 123s40.5 141 40.5 177c0 46 -13.333 69 -40 69c-17.333 0 -32.333 -9.83301 -45 -29.5s-27.334 -54.834 -44.001 -105.501
c-26 -76.667 -39 -137 -39 -181zM592.002 402.999c33.333 0 58.001 -14.6689 74.001 -44.002s24 -62.666 24 -99.999c0 -23.333 -3.83301 -49.666 -11.5 -78.999s-18.5 -58.5 -32.5 -87.5s-33 -53.167 -57 -72.5s-50.333 -29 -79 -29c-28 0 -51.333 13.833 -70 41.5
s-28 61.5 -28 101.5c0 38.667 8 78.667 24 120s38.167 76.5 66.5 105.5s58.166 43.5 89.499 43.5zM467.003 65.9971c0 -35.333 14.001 -52.999 42.001 -52.999c30 0 58.5 41 85.5 123s40.5 141 40.5 177c0 46 -13.333 69 -40 69c-17.333 0 -32.333 -9.83301 -45 -29.5
s-27.334 -54.834 -44.001 -105.501c-26 -76.667 -39 -137 -39 -181zM98.0039 -5.00195l446.999 666c4.66699 7.33301 12.334 11 23.001 11h18c5.33301 0 8 -2 8 -6s-1.33301 -8 -4 -12l-446 -662c-5.33301 -8 -11.333 -12 -18 -12h-24c-5.33301 0 -8 1.66699 -8 5
c0 2.66699 1.33301 6 4 10z" />
    <glyph glyph-name="ampersand" unicode="&#x26;" horiz-adv-x="900" 
d="M387 335c-46.667 0 -87.3301 16.666 -121.997 49.999c-22.667 -13.333 -40.5 -30.5 -53.5 -51.5s-19.5 -43.5 -19.5 -67.5c0 -48.667 27 -90 81 -124s119 -51 195 -51c61.333 0 113.833 16.5 157.5 49.5s65.5 72.833 65.5 119.5c0 27.333 -8 59 -24 95
c-8 0.666992 -21.5 3 -40.5 7s-33.833 6 -44.5 6c-20.667 0 -31 -6.66699 -31 -20c0 -2.66699 3 -7.66699 9 -15c20.667 -18 31 -37.333 31 -58c0 -13.333 -5 -24.666 -15 -33.999s-22.333 -14 -37 -14c-19.333 0 -34.5 6 -45.5 18s-16.5 28.667 -16.5 50
c0 28.667 12.167 53.834 36.5 75.501s52.5 37.5 84.5 47.5c6.66699 2 20 5.5 40 10.5s36.667 9.33301 50 13s29.5 9.5 48.5 17.5s34.333 16.167 46 24.5s21.834 19.166 30.501 32.499s13 27.666 13 42.999c0 22 -5 39.5 -15 52.5s-23.333 19.5 -40 19.5
c-14 0 -21 -5.66699 -21 -17c0 -5.33301 0.833008 -13.5 2.5 -24.5s2.5 -19.833 2.5 -26.5c0 -15.333 -5.33301 -28.5 -16 -39.5s-23.334 -16.5 -38.001 -16.5c-16.667 0 -30.834 6.33301 -42.501 19s-17.5 27.667 -17.5 45c0 26 9.66699 48 29 66s42.666 27 69.999 27
c36.667 0 67.667 -13 93 -39s38 -57.667 38 -95c0 -47.333 -16.667 -86.5 -50 -117.5s-76.333 -50.167 -129 -57.5c20.667 -41.333 31 -78.333 31 -111c0 -71.333 -32.5 -132.333 -97.5 -183s-143.167 -76 -234.5 -76c-75.333 0 -139.666 20.833 -192.999 62.5
s-80 91.834 -80 150.501c0 42 12 81.667 36 119s55.333 66.666 94 87.999c-25.333 34 -38 72.333 -38 115c0 54.667 20.667 100.167 62 136.5s93.333 54.5 156 54.5c39.333 0 73.5 -11.667 102.5 -35s43.5 -51.333 43.5 -84c0 -23.333 -7.16699 -42.666 -21.5 -57.999
s-32.166 -23 -53.499 -23c-18.667 0 -34.667 6.33301 -48 19s-20 27.667 -20 45c0 10 3.66699 20.167 11 30.5s16.666 18.5 27.999 24.5c17.333 8.66699 26 16.667 26 24c0 8 -5.5 14.5 -16.5 19.5s-25.833 7.5 -44.5 7.5c-40.667 0 -74.334 -18.833 -101.001 -56.5
s-40 -84.834 -40 -141.501c0 -18 3.33301 -36 10 -54c20.667 6 42 9 64 9c24.667 0 44 -5.16699 58 -15.5s21 -23.5 21 -39.5c0 -13.333 -5.83301 -24.666 -17.5 -33.999s-25.834 -14 -42.501 -14zM369.004 412.999c-16 0 -34 -2.33301 -54 -7c18 -30 42.333 -45 73 -45
c8 0 15.167 2.33301 21.5 7s9.5 9.66699 9.5 15c0 20 -16.667 30 -50 30z" />
    <glyph glyph-name="quotesingle" unicode="'" horiz-adv-x="275" 
d="M100 444c-8.66699 0 -12.998 5.66699 -12.998 17c0 5.33301 2 23.166 6 53.499s6 53.5 6 69.5c1.33301 16 2.83301 28.5 4.5 37.5s4.66699 20.167 9 33.5s11.166 23.333 20.499 30s21 10 35 10c11.333 0 20.666 -3.5 27.999 -10.5s11 -17.167 11 -30.5
c0 -12.667 -12 -43 -36 -91c-16.667 -33.333 -33 -68.666 -49 -105.999c-4 -8.66699 -11.333 -13 -22 -13z" />
    <glyph glyph-name="parenleft" unicode="(" horiz-adv-x="290" 
d="M115 225c-32 -112 -48 -204.332 -48 -276.999c0 -78.667 13.667 -141 41 -187c2.66699 -4 5.33398 -7.66699 8.00098 -11l6 -7.5c1.33301 -1.66699 2.33301 -3.33398 3 -5.00098s1 -3.16699 1 -4.5c0 -2 -2.33301 -5 -7 -9s-8.33398 -6 -11.001 -6
c-10 0 -25.333 14 -46 42c-63.333 88 -95 183.667 -95 287c0 56.667 9 116 27 178c50 176.667 161.667 331.667 335 465c34.667 27.333 58 41 70 41c3.33301 0 6.33301 -1.83301 9 -5.5s4 -6.83398 4 -9.50098c0 -2 -1.33301 -4.16699 -4 -6.5s-7.5 -6.16602 -14.5 -11.499
s-13.167 -10.333 -18.5 -15c-66.667 -58.667 -120 -126.167 -160 -202.5s-73.333 -161.5 -100 -255.5z" />
    <glyph glyph-name="parenright" unicode=")" horiz-adv-x="347" 
d="M151 225c17.333 60.667 30.001 115.169 38.001 163.502s10 100.166 6 155.499s-17.333 103 -40 143c-12 18.667 -17.333 29.667 -16 33c2.66699 7.33301 8 11 16 11c12 0 28 -13.667 48 -41c96 -132 119 -287 69 -465c-50.667 -176.667 -162.334 -331.667 -335.001 -465
c-34.667 -27.333 -58.667 -41 -72 -41c-8 0 -10.667 3.66699 -8 11c0.666992 3.33301 12 14.333 34 33c66 58 119 125.667 159 203s73.667 163.666 101 258.999z" />
    <glyph glyph-name="asterisk" unicode="*" horiz-adv-x="345" 
d="M306 716c10.667 0 18.833 -3.33496 24.5 -10.002s8.5 -14.334 8.5 -23.001c0 -14.667 -6.5 -31.167 -19.5 -49.5s-21.167 -32.166 -24.5 -41.499c-1.33301 -2 -2 -3.66699 -2 -5c0 -2 2.33301 -3 7 -3c13.333 2 28.833 6.83301 46.5 14.5s32.167 11.5 43.5 11.5
c24 0 36 -12 36 -36c0 -18.667 -13 -28 -39 -28c-9.33301 0 -22.666 2.33301 -39.999 7s-32.333 7.66699 -45 9c-4 0 -6 -0.666992 -6 -2s0.333008 -3 1 -5c4.66699 -8.66699 12 -19 22 -31s17.833 -22.667 23.5 -32s8.5 -19 8.5 -29c0 -8.66699 -2.83301 -16.5 -8.5 -23.5
s-13.834 -10.5 -24.501 -10.5c-12.667 0 -21.167 4.83301 -25.5 14.5s-7.33301 25.834 -9 48.501s-3.83398 40 -6.50098 52c-0.666992 4 -2 6 -4 6c-0.666992 0 -2.66699 -1.66699 -6 -5c-8 -8.66699 -17.167 -20.834 -27.5 -36.501s-19.166 -27.167 -26.499 -34.5
s-16 -11 -26 -11c-8.66699 0 -16.167 3 -22.5 9s-9.5 14 -9.5 24c0 11.333 3.5 20 10.5 26s20 12.833 39 20.5s34.167 14.834 45.5 21.501c1.33301 1.33301 2.66602 2.33301 3.99902 3s2 1.33398 2 2.00098c0 2 -2 3.66699 -6 5c-10 4.66699 -25.167 9.33398 -45.5 14.001
s-35.333 10.167 -45 16.5s-14.5 15.833 -14.5 28.5c0 8 3.33301 15.5 10 22.5s14.334 10.5 23.001 10.5c9.33301 0 17.833 -2.83301 25.5 -8.5s17.5 -15.667 29.5 -30s21.667 -25.166 29 -32.499c2.66699 -2 4.66699 -3 6 -3c2 0 3 2 3 6c0.666992 8 1 22 1 42
c0 15.333 0.5 27.666 1.5 36.999s4.16699 18.166 9.5 26.499s13 12.5 23 12.5z" />
    <glyph glyph-name="plus" unicode="+" horiz-adv-x="538" 
d="M38 329v62h199v198h64v-198h200v-62h-200v-202h-64v202h-199z" />
    <glyph glyph-name="comma" unicode="," horiz-adv-x="250" 
d="M88 -32c0 8 -5.66602 17.666 -16.999 28.999c-22 20.667 -33 41.334 -33 62.001c0 18.667 6.66699 34.5 20 47.5s29.333 19.5 48 19.5c19.333 0 35.666 -7.66699 48.999 -23s20 -34 20 -56c0 -46.667 -20 -88.667 -60 -126s-77.333 -56 -112 -56
c-3.33301 0 -5.33301 3 -6 9l-2 12c0 4 2.66699 6.66699 8 8c21.333 6 40.833 15.667 58.5 29s26.5 28.333 26.5 45z" />
    <glyph glyph-name="hyphen" unicode="-" horiz-adv-x="357" 
d="M309 303v-84h-262v84h262z" />
    <glyph glyph-name="hyphen" unicode="&#x2011;" horiz-adv-x="357" 
d="M309 303v-84h-262v84h262z" />
    <glyph glyph-name="hyphen" unicode="&#x2010;" horiz-adv-x="357" 
d="M309 303v-84h-262v84h262z" />
    <glyph glyph-name="hyphen" unicode="&#xad;" horiz-adv-x="357" 
d="M309 303v-84h-262v84h262z" />
    <glyph glyph-name="period" unicode="." horiz-adv-x="250" 
d="M29 57c0 19.333 6.5 35.5 19.5 48.5s28.833 19.5 47.5 19.5s34.667 -6.5 48 -19.5s20 -29.167 20 -48.5c0 -18.667 -6.5 -34.5 -19.5 -47.5s-29.167 -19.5 -48.5 -19.5c-18.667 0 -34.5 6.33301 -47.5 19s-19.5 28.667 -19.5 48z" />
    <glyph glyph-name="slash" unicode="/" horiz-adv-x="350" 
d="M2 -107l301.001 832.001c1.33301 5.33301 3.66602 8 6.99902 8l35 -14c2.66699 -0.666992 4 -2 4 -4c0 -1.33301 -0.666992 -3.33301 -2 -6l-300 -832c-1.33301 -4 -3.33301 -6 -6 -6c-4 0 -16.333 4.33301 -37 13c-2 1.33301 -3 3 -3 5
c0 1.33301 0.333008 2.66602 1 3.99902z" />
    <glyph glyph-name="zero" unicode="0" 
d="M345 671c36 0 66.168 -13.168 90.501 -39.501s41.166 -56.666 50.499 -90.999s14 -70.5 14 -108.5c0 -39.333 -6.16699 -83.5 -18.5 -132.5s-29.833 -97.5 -52.5 -145.5s-53.167 -88.167 -91.5 -120.5s-80.5 -48.5 -126.5 -48.5c-44 0 -81.167 23 -111.5 69
s-45.5 101.667 -45.5 167s12.833 132.5 38.5 201.5s61.5 127.667 107.5 176s94.333 72.5 145 72.5zM135.001 106.999c0 -63.333 25.001 -95.001 75.001 -95.001c34.667 0 69.167 38.167 103.5 114.5s60.5 153.833 78.5 232.5s27 133.667 27 165
c0 81.333 -23.333 122 -70 122c-28.667 0 -53.834 -16.667 -75.501 -50s-46.5 -93.666 -74.5 -180.999c-42.667 -133.333 -64 -236 -64 -308z" />
    <glyph glyph-name="one" unicode="1" 
d="M461 675l-159 -557.001c-6.66699 -23.333 -10 -39.666 -10 -48.999c0 -13.333 4.16699 -22.333 12.5 -27s22.5 -7 42.5 -7h13c4 0 6 -1.66699 6 -5l-1 -26c0 -2.66699 -1.33301 -4 -4 -4h-286c-4 -0 -6 1.33301 -6 4l1 26c0 3.33301 1.33301 5 4 5h13
c29.333 0 51.833 5.66699 67.5 17s28.167 33.333 37.5 66l117 408c4 14 6 25 6 33c0 11.333 -5.5 18.833 -16.5 22.5s-31.833 5.5 -62.5 5.5c-2.66699 0 -4 1.66699 -4 5v16c0 4 2 6 6 6c22.667 0 53.5 5.83301 92.5 17.5s73.833 25.5 104.5 41.5
c9.33301 4.66699 16.333 7 21 7c3.33301 0 5 -1.66699 5 -5z" />
    <glyph glyph-name="two" unicode="2" 
d="M325 672c42 0 77.002 -15.001 105.002 -45.001s42 -67.667 42 -113c0 -39.333 -11.5 -76 -34.5 -110s-67.833 -83 -134.5 -147l-182 -174h240c17.333 0 38 16.333 62 49c4 4 6.66699 6 8 6c8 0 12 -3 12 -9c0 -4 -0.666992 -7.33301 -2 -10l-75 -145
c-4 -7.33301 -9.33301 -11 -16 -11c-4 0 -6.5 0.5 -7.5 1.5s-1.83301 3.83301 -2.5 8.5c-0.666992 10.667 -4.33398 17.834 -11.001 21.501s-19.334 5.5 -38.001 5.5h-255c-6.66699 0 -10 3 -10 9c0 5.33301 2 10.333 6 15l170 197
c59.333 68.667 102.166 122.5 128.499 161.5s39.5 75.167 39.5 108.5c0 30.667 -9.66699 55.5 -29 74.5s-44.666 28.5 -75.999 28.5c-42 0 -83.333 -20.333 -124 -61l-22 -22c-5.33301 -5.33301 -9.66602 -8 -12.999 -8c-8 0 -12 3.33301 -12 10c0 4 1.33301 7.33301 4 10
c11.333 15.333 24.666 30.333 39.999 45c35.333 36 67.5 62.333 96.5 79s59.167 25 90.5 25z" />
    <glyph glyph-name="three" unicode="3" 
d="M332 383c29.333 -13.333 52.335 -34.502 69.002 -63.502s25 -61.833 25 -98.5c0 -62.667 -25 -117.667 -75 -165s-107.667 -71 -173 -71c-46 0 -84.333 12.833 -115 38.5s-46 58.167 -46 97.5c0 36 19 54 57 54c11.333 0 20.833 -3.83301 28.5 -11.5
s11.5 -17.5 11.5 -29.5c0 -8 -3 -19.667 -9 -35s-9 -27.333 -9 -36c0 -15.333 8.83301 -28.333 26.5 -39s39.5 -16 65.5 -16c39.333 0 74 17.833 104 53.5s45 76.834 45 123.501c0 33.333 -11 62.833 -33 88.5s-51.667 44.834 -89 57.501
c-4.66699 1.33301 -7 3.66602 -7 6.99902c0 4 5.33301 8.33301 16 13c31.333 16.667 53.666 29 66.999 37s28.666 19.167 45.999 33.5s29.166 29.333 35.499 45s9.5 34.167 9.5 55.5c0 26.667 -8.33301 47.834 -25 63.501s-38.667 23.5 -66 23.5c-38 0 -73.667 -19 -107 -57
c-7.33301 -8 -13.666 -12 -18.999 -12c-8 0 -12 4.33301 -12 13c0 6 8.66699 19.333 26 40c47.333 53.333 101.333 80 162 80c38 0 69.5 -10.667 94.5 -32s37.5 -47.333 37.5 -78c0 -30 -12.5 -61 -37.5 -93s-59.5 -61 -103.5 -87z" />
    <glyph glyph-name="four" unicode="4" 
d="M37 250l8 37.998c2.66699 8.66699 6.66699 15.334 12 20.001l350 337c8.66699 8 17.667 13.667 27 17l61 15c4 0 6 -1.33301 6 -4l-101 -352h70c4.66699 0 7 -1.33301 7 -4c0 -1.33301 -0.333008 -2.66602 -1 -3.99902l-18 -58c-4 -6.66699 -9.66699 -10 -17 -10h-62
l-71 -247c-2.66699 -8 -7.66699 -12 -15 -12h-76c-5.33301 0 -8 2.66699 -8 8l71 250h-236c-4.66699 0 -7 2 -7 6zM302 320.998l74 249l-258 -249h184z" />
    <glyph glyph-name="five" unicode="5" 
d="M529 704c6.66699 0 9.99707 -3.66602 9.99707 -10.999c0 -2.66699 -3 -11.334 -9 -26.001l-29 -75c-4.66699 -12.667 -14.667 -19 -30 -19h-235l-34 -101c74 -12 131.333 -37.333 172 -76s61 -86.667 61 -144c0 -72 -27.667 -134.333 -83 -187s-120.666 -79 -195.999 -79
c-40 0 -74.167 8 -102.5 24s-42.5 35.333 -42.5 58c0 12.667 4.5 24 13.5 34s19.5 15 31.5 15c22.667 0 44.667 -15.333 66 -46c18.667 -37.333 44.667 -56 78 -56c42 0 77.833 20.667 107.5 62s44.5 84.333 44.5 129c0 95.333 -67 151 -201 167
c-7.33301 1.33301 -11 4.33301 -11 9l98 272c2.66699 7.33301 8.33398 11 17.001 11h202c26.667 0 45.334 8 56.001 24c6.66699 10 12 15 16 15z" />
    <glyph glyph-name="six" unicode="6" 
d="M256 418c24 10 45.3359 15.001 64.0029 15.001c44 0 80 -14.667 108 -44s42 -67 42 -113c0 -43.333 -11 -87.333 -33 -132s-52.833 -82.334 -92.5 -113.001s-81.5 -46 -125.5 -46c-50 0 -89.333 16.667 -118 50s-43 78.666 -43 135.999c0 68 17.667 135.833 53 203.5
s82.333 123.5 141 167.5c43.333 32.667 99.666 62.667 168.999 90s117.333 41 144 41c8.66699 0 13 -3.66699 13 -11s-8 -12.666 -24 -15.999c-48.667 -10.667 -106.834 -40.5 -174.501 -89.5s-108.834 -95.167 -123.501 -138.5zM217.003 11.001
c28 0 54.668 18.5 80.001 55.5s44.666 79.167 57.999 126.5s20 89.333 20 126c0 56.667 -23.333 85 -70 85c-32 0 -61 -18.667 -87 -56s-44.833 -78.5 -56.5 -123.5s-17.5 -85.833 -17.5 -122.5c0 -60.667 24.333 -91 73 -91z" />
    <glyph glyph-name="seven" unicode="7" 
d="M146 530l86.998 165.999c0.666992 2.66699 2.33398 4 5.00098 4c2 0 4 -1.33301 6 -4l8 -12c6.66699 -12 26.667 -18 60 -18h230h10h8.5h6.5c2 0 3.66699 -0.166992 5 -0.5s2.5 -0.5 3.5 -0.5h2.5h1c3.33301 -0.666992 5 -3 5 -7c0 -2 -4.66699 -9 -14 -21
c-166 -205.333 -308 -418.666 -426 -639.999c-4 -6.66699 -9.33301 -10 -16 -10h-67c-4 0 -6 1.33301 -6 4s0.666992 4.66699 2 6c98.667 153.333 241.334 345.333 428.001 576h-193c-33.333 0 -59 -3.33301 -77 -10s-34.333 -21.334 -49 -44.001c-2.66699 -4 -5 -6 -7 -6
c-3.33301 0 -6.83301 1 -10.5 3s-5.5 4 -5.5 6c0 2.66699 1 5.33398 3 8.00098z" />
    <glyph glyph-name="eight" unicode="8" 
d="M205 333c-44 40.667 -66.001 87.333 -66.001 140c0 56 21.333 103.333 64 142s95.334 58 158.001 58c41.333 0 76.833 -13.833 106.5 -41.5s44.5 -61.167 44.5 -100.5c0 -67.333 -42 -121.333 -126 -162l-35 -17c24.667 -16.667 44.667 -38.667 60 -66s23 -56 23 -86
c0 -60 -21.333 -110.667 -64 -152s-95 -62 -157 -62c-52 0 -97.5 15.5 -136.5 46.5s-58.5 67.833 -58.5 110.5c0 37.333 15.5 72.5 46.5 105.5s77.833 61.167 140.5 84.5zM225.999 314.999c-81.333 -33.333 -122 -91.666 -122 -174.999c0 -37.333 9.5 -67.833 28.5 -91.5
s43.833 -35.5 74.5 -35.5c38.667 0 71.667 14.167 99 42.5s41 62.833 41 103.5c0 43.333 -24.667 83.666 -74 120.999zM345.999 645.999c-37.333 0 -67.666 -12.668 -90.999 -38.001s-35 -58.333 -35 -99c0 -39.333 21 -74.666 63 -105.999l41 -31l29 14
c33.333 16 58.666 39 75.999 69s26 58.333 26 85c0 30 -10.5 55.167 -31.5 75.5s-46.833 30.5 -77.5 30.5z" />
    <glyph glyph-name="nine" unicode="9" 
d="M303 240c-24 -10 -45.3359 -15.001 -64.0029 -15.001c-44 0 -80 14.667 -108 44s-42 67 -42 113c0 43.333 11 87.333 33 132s52.833 82.334 92.5 113.001s81.5 46 125.5 46c50 0 89.333 -16.667 118 -50s43 -78.666 43 -135.999c0 -68 -17.667 -135.833 -53 -203.5
s-82.333 -123.5 -141 -167.5c-43.333 -32.667 -99.666 -62.667 -168.999 -90s-117.333 -41 -144 -41c-8.66699 0 -13 3.66699 -13 11s8 12.666 24 15.999c48.667 10.667 106.834 40.5 174.501 89.5s108.834 95.167 123.501 138.5zM341.997 646.999
c-28 0 -54.668 -18.5 -80.001 -55.5s-44.666 -79.167 -57.999 -126.5s-20 -89.333 -20 -126c0 -56.667 23.333 -85 70 -85c32 0 61 18.667 87 56s44.833 78.5 56.5 123.5s17.5 85.833 17.5 122.5c0 60.667 -24.333 91 -73 91z" />
    <glyph glyph-name="colon" unicode=":" horiz-adv-x="250" 
d="M105 367c0 19.333 6.5 35.5 19.5 48.5s28.833 19.5 47.5 19.5s34.667 -6.5 48 -19.5s20 -29.167 20 -48.5c0 -18.667 -6.5 -34.5 -19.5 -47.5s-29.167 -19.5 -48.5 -19.5c-18.667 0 -34.5 6.33301 -47.5 19s-19.5 28.667 -19.5 48zM10 57c0 19.333 6.5 35.5 19.5 48.5
s28.833 19.5 47.5 19.5c19.333 0 35.5 -6.5 48.5 -19.5s19.5 -29.167 19.5 -48.5c0 -18.667 -6.5 -34.5 -19.5 -47.5s-29.167 -19.5 -48.5 -19.5s-35.333 6.33301 -48 19s-19 28.667 -19 48z" />
    <glyph glyph-name="semicolon" unicode=";" horiz-adv-x="250" 
d="M58 -32c0 8 -5.66602 17.666 -16.999 28.999c-22 20.667 -33 41.334 -33 62.001c0 18.667 6.66699 34.5 20 47.5s29.333 19.5 48 19.5c19.333 0 35.666 -7.66699 48.999 -23s20 -34 20 -56c0 -46.667 -20 -88.667 -60 -126s-77.333 -56 -112 -56
c-3.33301 0 -5.33301 3 -6 9l-2 12c0 4 2.66699 6.66699 8 8c21.333 6 40.833 15.667 58.5 29s26.5 28.333 26.5 45zM105.001 366.999c0 19.333 6.5 35.5 19.5 48.5s28.833 19.5 47.5 19.5s34.667 -6.5 48 -19.5s20 -29.167 20 -48.5c0 -18.667 -6.5 -34.5 -19.5 -47.5
s-29.167 -19.5 -48.5 -19.5c-18.667 0 -34.5 6.33301 -47.5 19s-19.5 28.667 -19.5 48z" />
    <glyph glyph-name="semicolon" unicode="&#x37e;" horiz-adv-x="250" 
d="M58 -32c0 8 -5.66602 17.666 -16.999 28.999c-22 20.667 -33 41.334 -33 62.001c0 18.667 6.66699 34.5 20 47.5s29.333 19.5 48 19.5c19.333 0 35.666 -7.66699 48.999 -23s20 -34 20 -56c0 -46.667 -20 -88.667 -60 -126s-77.333 -56 -112 -56
c-3.33301 0 -5.33301 3 -6 9l-2 12c0 4 2.66699 6.66699 8 8c21.333 6 40.833 15.667 58.5 29s26.5 28.333 26.5 45zM105.001 366.999c0 19.333 6.5 35.5 19.5 48.5s28.833 19.5 47.5 19.5s34.667 -6.5 48 -19.5s20 -29.167 20 -48.5c0 -18.667 -6.5 -34.5 -19.5 -47.5
s-29.167 -19.5 -48.5 -19.5c-18.667 0 -34.5 6.33301 -47.5 19s-19.5 28.667 -19.5 48z" />
    <glyph glyph-name="less" unicode="&#x3c;" horiz-adv-x="538" 
d="M24 297v78l7 -2l483 194v-76l-388 -156l388 -152v-78l-484 193h-4z" />
    <glyph glyph-name="equal" unicode="=" horiz-adv-x="538" 
d="M38 243v66h463v-66h-463zM38 404v66h463v-66h-463z" />
    <glyph glyph-name="greater" unicode="&#x3e;" horiz-adv-x="538" 
d="M514 375v-78l-3 1h-5l-482 -193v78l388 152l-388 156v76l481 -194z" />
    <glyph glyph-name="question" unicode="?" horiz-adv-x="515" 
d="M226 562c0.666992 18.667 5.99902 33.668 15.999 45.001s23.333 17 40 17s30.667 -5.83301 42 -17.5s17 -26.5 17 -44.5c0 -22.667 -10.833 -42.667 -32.5 -60s-46.5 -26 -74.5 -26c-26 0 -47.167 8.66699 -63.5 26s-24.5 40.333 -24.5 69c0 38.667 17.5 72 52.5 100
s76.833 42 125.5 42c47.333 0 88.5 -17.167 123.5 -51.5s52.5 -74.833 52.5 -121.5c0 -50.667 -18 -90.667 -54 -120s-90.333 -54 -163 -74c-52 -14 -88.5 -27.833 -109.5 -41.5s-31.5 -31.5 -31.5 -53.5c0 -11.333 3 -20.5 9 -27.5s13.333 -10.5 22 -10.5c8 0 13 5 15 15
c4 18 8.83301 30.167 14.5 36.5s14.834 9.5 27.501 9.5c22.667 0 34 -11.333 34 -34c0 -18.667 -7.83301 -35 -23.5 -49s-33.834 -21 -54.501 -21c-19.333 0 -35.833 7.66699 -49.5 23s-20.5 33.333 -20.5 54c0 30 11 55.5 33 76.5s62.333 45.833 121 74.5
c49.333 24 85.333 50 108 78s34 61.333 34 100c0 32.667 -9.16699 58.5 -27.5 77.5s-43.166 28.5 -74.499 28.5c-37.333 0 -69.333 -10.833 -96 -32.5s-40 -47.167 -40 -76.5c0 -14.667 3.66699 -27.334 11 -38.001s15 -16 23 -16c12 0 18 7 18 21v22zM72.999 57.001
c0 19.333 6.66699 35.668 20 49.001s29.333 20 48 20s34.834 -6.83301 48.501 -20.5s20.5 -29.834 20.5 -48.501s-6.83301 -34.667 -20.5 -48s-29.834 -20 -48.501 -20c-19.333 0 -35.5 6.5 -48.5 19.5s-19.5 29.167 -19.5 48.5z" />
    <glyph glyph-name="at" unicode="@" horiz-adv-x="767" 
d="M482 487c-14 0 -32.333 -8.66699 -55 -26s-44.667 -39.333 -66 -66c-18.667 -22.667 -35.667 -49.167 -51 -79.5s-23 -56.5 -23 -78.5c0 -9.33301 2.33301 -17.833 7 -25.5s11.334 -11.5 20.001 -11.5c19.333 0 48.166 20.333 86.499 61s68.833 84 91.5 130
c14 28 21 51.333 21 70c0 17.333 -10.333 26 -31 26zM515 52c-59.333 -38.667 -134.334 -58 -225.001 -58c-74 0 -135 24.833 -183 74.5s-72 111.834 -72 186.501c0 110.667 44.5 206.834 133.5 288.501s192.5 122.5 310.5 122.5c73.333 0 133.833 -22.5 181.5 -67.5
s71.5 -101.5 71.5 -169.5c0 -75.333 -29.333 -142.5 -88 -201.5s-127.667 -88.5 -207 -88.5c-8.66699 0 -15.667 3 -21 9s-8 13.333 -8 22c0 7.33301 2.16699 16.666 6.5 27.999s10.5 24.833 18.5 40.5s13 26.167 15 31.5l-19.5 -20c-11 -11.333 -18.667 -19 -23 -23
l-22.5 -20.5c-10.667 -9.66699 -19.5 -16.667 -26.5 -21s-15.667 -9.33301 -26 -15s-20.333 -9.66699 -30 -12s-19.5 -3.5 -29.5 -3.5c-42.667 0 -64 21.333 -64 64c0 44 19 90.667 57 140s81.333 89.5 130 120.5s89.334 46.5 122.001 46.5c14 0 25.333 -3.33301 34 -10
c0.666992 0 1.66699 -0.5 3 -1.5s2.5 -1.83301 3.5 -2.5s1.83301 -1 2.5 -1l12 4c12 5.33301 21 8 27 8c10.667 0 16 -5 16 -15c0 -6.66699 -3.66699 -17.334 -11 -32.001c-48.667 -98 -85.334 -176 -110.001 -234c-5.33301 -12 -8 -20.333 -8 -25
c0 -12.667 4.33301 -19 13 -19c52 0 96.333 24 133 72s55 100.333 55 157c0 58 -22.167 106.833 -66.5 146.5s-99.5 59.5 -165.5 59.5c-60.667 0 -117 -19.167 -169 -57.5s-92.333 -87 -121 -146s-43 -119.833 -43 -182.5c0 -62 18.667 -114 56 -156s84 -63 140 -63
c68.667 0 128.667 16 180 48c6.66699 4.66699 12.334 7 17.001 7c2.66699 0 5.5 -2.16699 8.5 -6.5s4.5 -7.5 4.5 -9.5c0 -5.33301 -4 -10.333 -12 -15z" />
    <glyph glyph-name="A" unicode="A" horiz-adv-x="694" 
d="M590 714c6 0 9 -3.66602 9 -10.999l-33 -602c0 -24.667 4.5 -41.834 13.5 -51.501s26.167 -14.5 51.5 -14.5h7c4 0 6 -1.66699 6 -5l-1 -26c0 -2.66699 -1.33301 -4 -4 -4h-271c-4 -0 -6 1.33301 -6 4l1 26c0 3.33301 1.33301 5 4 5h9c25.333 0 42.833 6.66699 52.5 20
s15.5 34.333 17.5 63l5 71h-252l-37 -55c-16.667 -24 -25 -43.333 -25 -58c0 -11.333 5 -21 15 -29s20.667 -12 32 -12h7c4 0 6 -1.66699 6 -5l-1 -26c0 -2.66699 -1.33301 -4 -4 -4h-206c-4 -0 -6 1.33301 -6 4v26c0 3.33301 1.33301 5 4 5h9c22 0 44 9.66699 66 29
s51 57 87 113l313 480c6 9.33301 13.667 15 23 17c40.667 6 73.667 18 99 36c5.33301 2.66699 8.33301 4 9 4zM479 621.001l-252 -392h225z" />
    <glyph glyph-name="B" unicode="B" horiz-adv-x="707" 
d="M197 700l279 1c58.667 0 107.667 -14.167 147 -42.5s59 -63.5 59 -105.5c0 -25.333 -6 -48 -18 -68s-30.167 -37.5 -54.5 -52.5s-44.5 -26.167 -60.5 -33.5s-38.333 -16.333 -67 -27c100 -29.333 150 -90.333 150 -183c0 -126 -97.333 -189 -292 -189h-322
c-4 -0 -6 1.33301 -6 4l1 26c0 3.33301 1.33301 5 4 5h9c28 0 48.833 5.5 62.5 16.5s25.5 33.167 35.5 66.5l133 464c5.33301 20 8 35 8 45c0 14.667 -4.5 24.667 -13.5 30s-23.833 8 -44.5 8h-8c-4 0 -6 1.66699 -6 5v26c0 2.66699 1.33301 4 4 4zM402 614
l-62.002 -206.001c0 -10.667 13.667 -16 41 -16c54.667 0 98.5 18.167 131.5 54.5s49.5 83.5 49.5 141.5c0 26.667 -8.66699 47.834 -26 63.501s-40.666 23.5 -69.999 23.5c-18.667 0 -32.167 -4 -40.5 -12s-16.166 -24.333 -23.499 -49zM240.998 57.999
c0 -20.667 24 -31.002 72 -31.002c51.333 0 95.333 21.333 132 64s55 94.334 55 155.001c0 42.667 -10.833 73.834 -32.5 93.501s-56.167 29.5 -103.5 29.5c-14.667 0 -24.5 -2.33301 -29.5 -7s-10.167 -15.667 -15.5 -33z" />
    <glyph glyph-name="C" unicode="C" horiz-adv-x="707" 
d="M707 659c1.33301 0.666992 5.16602 2.16895 11.499 4.50195s11.166 4.16602 14.499 5.49902c8.66699 3.33301 15.667 5 21 5c4.66699 0 7 -2 7 -6c0 -2.66699 -1.66699 -9.66699 -5 -21l-48 -181c-2 -7.33301 -6 -11 -12 -11c-6.66699 0 -11.167 0.5 -13.5 1.5
s-3.5 4.16699 -3.5 9.5c0 30 -0.5 53.5 -1.5 70.5s-4.33301 36.167 -10 57.5s-14.167 39 -25.5 53c-20 25.333 -50.333 38 -91 38c-36 0 -70.833 -11 -104.5 -33s-62.667 -50.5 -87 -85.5s-45.666 -73.5 -63.999 -115.5s-32 -83.5 -41 -124.5s-13.5 -78.167 -13.5 -111.5
c0 -62 13 -111.333 39 -148s60.667 -55 104 -55c42.667 0 80.834 14.667 114.501 44s69.834 70.666 108.501 123.999c9.33301 12 14.666 18 15.999 18c3.33301 0 8.33301 -2.66699 15 -8c2 -2 3 -3.66699 3 -5s-0.666992 -4 -2 -8l-65 -186
c-1.33301 -4 -4.66602 -6 -9.99902 -6c-4 0 -10.667 4.33301 -20 13l-10 10c-2.66699 2.66699 -5 4 -7 4s-4.33301 -0.666992 -7 -2c-32 -16 -78 -24 -138 -24c-82 0 -147.5 23.5 -196.5 70.5s-73.5 109.833 -73.5 188.5c0 58.667 12.5 116.667 37.5 174
s57.667 107.333 98 150s87.833 77 142.5 103s110 39 166 39c47.333 0 97.666 -17.333 150.999 -52z" />
    <glyph glyph-name="D" unicode="D" horiz-adv-x="837" 
d="M214 700c102.667 2.66699 162.667 3.99902 180 3.99902c82.667 0 144 -5.33301 184 -16s77.333 -31.667 112 -63c66.667 -60.667 100 -138.667 100 -234c0 -55.333 -11.333 -110.166 -34 -164.499s-52.667 -98.5 -90 -132.5c-38.667 -36 -83.5 -60.667 -134.5 -74
s-110.167 -20 -177.5 -20h-319c-4 -0 -6 1.33301 -6 4l1 26c0 3.33301 1.33301 5 4 5h9c28 0 48.833 5.5 62.5 16.5s25.5 33.167 35.5 66.5l133 464c5.33301 20 8 35 8 45c0 14.667 -4.5 24.667 -13.5 30s-23.833 8 -44.5 8h-8c-4 0 -6 1.66699 -6 5v26
c0 2.66699 1.33301 4 4 4zM420 613.999l-152.001 -522.001c-2.66699 -10.667 -4 -18.667 -4 -24c0 -15.333 7.33301 -26.166 22 -32.499s40.667 -9.5 78 -9.5c64 0 116.167 15.5 156.5 46.5s73.5 78.833 99.5 143.5c36.667 88.667 55 170.334 55 245.001
c0 63.333 -17.333 115.166 -52 155.499s-79 60.5 -133 60.5c-17.333 0 -30.333 -2.66699 -39 -8c-11.333 -6.66699 -21.666 -25 -30.999 -55z" />
    <glyph glyph-name="E" unicode="E" horiz-adv-x="707" 
d="M191 700l479.004 0.00195312c8.66699 0 14.167 -0.833008 16.5 -2.5s4.16602 -7.16699 5.49902 -16.5l19 -128c0 -7.33301 -3.33301 -11 -10 -11c-4.66699 0 -10 5 -16 15l-24 42c-14.667 26 -33.667 43.833 -57 53.5s-54.333 14.5 -93 14.5
c-40.667 0 -68.167 -3.5 -82.5 -10.5s-25.5 -24.167 -33.5 -51.5l-66 -225h65c45.333 0 78 5.66699 98 17c24 13.333 46 44.333 66 93c1.33301 4.66699 3.33301 7 6 7c16 0 24 -2 24 -6c0 -3.33301 -1.33301 -9.33301 -4 -18l-71 -254c-0.666992 -4 -2.33398 -6 -5.00098 -6
c-16.667 0 -25 1.66699 -25 5v2.5c0 1 0.166992 1.83301 0.5 2.5s0.666016 1.66699 0.999023 3s0.5 2.66602 0.5 3.99902c3.33301 19.333 5 37 5 53c0 12.667 -1.33301 22.667 -4 30s-8 12.5 -16 15.5s-15.167 4.83301 -21.5 5.5s-16.833 1 -31.5 1h-102l-57 -193
c-8.66699 -29.333 -13 -48 -13 -56c0 -18.667 7 -31.334 21 -38.001s40.333 -10 79 -10c62 0 110.5 7.66699 145.5 23s63.833 41.666 86.5 78.999l18 29c6 10 11.333 15 16 15c8 0 12 -4 12 -12c0 -0.666992 -0.166992 -1.66699 -0.5 -3s-0.833008 -3.16602 -1.5 -5.49902
s-1.33398 -4.5 -2.00098 -6.5l-43 -146c-2 -7.33301 -7.66699 -11 -17 -11h-547c-4 -0 -6 1.33301 -6 4l1 26c0 3.33301 1.33301 5 4 5h9c28 0 48.833 5.5 62.5 16.5s25.5 33.167 35.5 66.5l133 464c5.33301 20 8 35 8 45c0 14.667 -4.5 24.667 -13.5 30s-23.833 8 -44.5 8
h-8c-4 0 -6 1.66699 -6 5v26c0 2.66699 1.33301 4 4 4z" />
    <glyph glyph-name="F" unicode="F" horiz-adv-x="643" 
d="M178 700l479.003 0.000976562c8.66699 0 14.167 -0.833008 16.5 -2.5s4.16602 -7.16699 5.49902 -16.5l19 -128c0 -7.33301 -3.33301 -11 -10 -11c-4.66699 0 -10 5 -16 15l-24 42c-14.667 26 -33.667 43.833 -57 53.5s-54.333 14.5 -93 14.5
c-40.667 0 -68.167 -3.5 -82.5 -10.5s-25.5 -24.167 -33.5 -51.5l-66 -225h65c45.333 0 78 5.66699 98 17c24 13.333 46 44.333 66 93c1.33301 4.66699 3.33301 7 6 7c16 0 24 -2 24 -6c0 -3.33301 -1.33301 -9.33301 -4 -18l-71 -254c-0.666992 -4 -2.33398 -6 -5.00098 -6
c-16.667 0 -25 1.66699 -25 5v2.5c0 1 0.166992 1.83301 0.5 2.5s0.666016 1.66699 0.999023 3s0.5 2.66602 0.5 3.99902c3.33301 19.333 5 37 5 53c0 12.667 -1.33301 22.667 -4 30s-8 12.5 -16 15.5s-15.167 4.83301 -21.5 5.5s-16.833 1 -31.5 1h-102l-62 -217
c-5.33301 -20 -8 -35 -8 -45c0 -14.667 4.66699 -24.667 14 -30s24.333 -8 45 -8h7c4 0 6 -1.66699 6 -5l-1 -26c0 -2.66699 -1.33301 -4 -4 -4h-299c-4 -0 -6 1.33301 -6 4v26c0 3.33301 1.33301 5 4 5h9c28 0 48.833 5.5 62.5 16.5s25.5 33.167 35.5 66.5l133 464
c5.33301 20 8 35 8 45c0 14.667 -4.5 24.667 -13.5 30s-23.833 8 -44.5 8h-8c-4 0 -6 1.66699 -6 5v26c0 2.66699 1.33301 4 4 4z" />
    <glyph glyph-name="G" unicode="G" horiz-adv-x="772" 
d="M546 711c69.333 0 129.994 -18.666 181.994 -55.999l20 15c4 2.66699 6.33301 4 7 4c2 0 4.83301 -0.833008 8.5 -2.5s5.5 -3.16699 5.5 -4.5c0 -4 -1 -9 -3 -15l-42 -152c-1.33301 -6 -2.66602 -9.66699 -3.99902 -11s-4.33301 -2 -9 -2c-8 0 -12.333 3.66699 -13 11
c-4 59.333 -17.667 105.5 -41 138.5s-56.666 49.5 -99.999 49.5c-122.667 0 -213.667 -86.667 -273 -260c-36.667 -104.667 -55 -191 -55 -259c0 -46 11.333 -83.833 34 -113.5s51.334 -44.5 86.001 -44.5c16.667 0 34.334 2.83301 53.001 8.5s32.667 12.5 42 20.5
c22 16 43.667 66.667 65 152c5.33301 20 8 35 8 45c0 14.667 -4.5 24.667 -13.5 30s-23.833 8 -44.5 8h-8c-4 0 -6 1.66699 -6 5v26c0 2.66699 1.33301 4 4 4h300c4 0 6 -1.33301 6 -4v-26c0 -3.33301 -1.33301 -5 -4 -5h-8c-28.667 0 -49.834 -5.5 -63.501 -16.5
s-25.5 -33.167 -35.5 -66.5l-40 -141c-3.33301 -12 -10 -18.667 -20 -20c-18.667 -2 -44.167 -7.16699 -76.5 -15.5l-56.5 -14.5c-39.333 -9.33301 -70.333 -14 -93 -14c-73.333 0 -133.166 25.167 -179.499 75.5s-69.5 115.5 -69.5 195.5
c0 77.333 20.333 151.166 61 221.499s94.834 126.833 162.501 169.5s138.834 64 213.501 64z" />
    <glyph glyph-name="H" unicode="H" horiz-adv-x="900" 
d="M652 375l59.002 207c5.33301 20 8 35 8 45c0 14.667 -4.5 24.667 -13.5 30s-23.833 8 -44.5 8h-8c-4 0 -6 1.66699 -6 5v26c0 2.66699 1.33301 4 4 4h300c4 0 6 -1.33301 6 -4v-26c0 -3.33301 -1.33301 -5 -4 -5h-8c-28.667 0 -49.834 -5.5 -63.501 -16.5
s-25.5 -33.167 -35.5 -66.5l-133 -464c-5.33301 -20 -8 -35 -8 -45c0 -14.667 4.66699 -24.667 14 -30s24.333 -8 45 -8h7c4 0 6 -1.66699 6 -5l-1 -26c0 -2.66699 -1.33301 -4 -4 -4h-300c-4 -0 -6 1.33301 -6 4l1 26c0 3.33301 1.33301 5 4 5h9c28 0 48.833 5.5 62.5 16.5
s25.5 33.167 35.5 66.5l61 212h-291l-61 -212c-5.33301 -20 -8 -35 -8 -45c0 -14.667 4.66699 -24.667 14 -30s24.333 -8 45 -8h7c4 0 6 -1.66699 6 -5l-1 -26c0 -2.66699 -1.33301 -4 -4 -4h-300c-4 -0 -6 1.33301 -6 4l1 26c0 3.33301 1.33301 5 4 5h9
c28 0 48.833 5.5 62.5 16.5s25.5 33.167 35.5 66.5l133 464c5.33301 20 8 35 8 45c0 14.667 -4.5 24.667 -13.5 30s-23.833 8 -44.5 8h-8c-4 0 -6 1.66699 -6 5v26c0 2.66699 1.33301 4 4 4h300c4 0 6 -1.33301 6 -4v-26c0 -3.33301 -1.33301 -5 -4 -5h-8
c-28.667 0 -49.834 -5.5 -63.501 -16.5s-25.5 -33.167 -35.5 -66.5l-59 -207h291z" />
    <glyph glyph-name="I" unicode="I" horiz-adv-x="451" 
d="M125 118l132.999 464c5.33301 20 8 35 8 45c0 14.667 -4.5 24.667 -13.5 30s-23.833 8 -44.5 8h-8c-4 0 -6 1.66699 -6 5v26c0 2.66699 1.33301 4 4 4h301c4 0 6 -1.33301 6 -4v-26c0 -3.33301 -1.33301 -5 -4 -5h-8c-28.667 0 -50.167 -5.5 -64.5 -16.5
s-26.166 -33.167 -35.499 -66.5l-133 -464c-5.33301 -20 -8 -35 -8 -45c0 -14.667 4.66699 -24.667 14 -30s24.333 -8 45 -8h7c4 0 6 -1.66699 6 -5l-1 -26c0 -2.66699 -1.33301 -4 -4 -4h-299c-4 -0 -6 1.33301 -6 4v26c0 3.33301 1.33301 5 4 5h9
c28 0 48.833 5.5 62.5 16.5s25.5 33.167 35.5 66.5z" />
    <glyph glyph-name="J" unicode="J" horiz-adv-x="451" 
d="M403 582l-132.997 -463.999c-10.667 -38 -22.667 -74.167 -36 -108.5s-30.5 -70.333 -51.5 -108s-43.5 -70 -67.5 -97s-52.5 -49.333 -85.5 -67s-67.5 -26.5 -103.5 -26.5c-35.333 0 -64.333 8.33301 -87 25s-34 38 -34 64c0 19.333 5.66699 35.166 17 47.499
s26.333 18.5 45 18.5c19.333 0 33.833 -6.83301 43.5 -20.5s18.5 -32.5 26.5 -56.5c6 -19.333 15.667 -29 29 -29c25.333 0 46.666 15.667 63.999 47s34.666 76.333 51.999 135l186 640c5.33301 20 8 35 8 45c0 14.667 -4.5 24.667 -13.5 30s-23.833 8 -44.5 8h-8
c-4 0 -6 1.66699 -6 5v26c0 2.66699 1.33301 4 4 4h300c4 0 6 -1.33301 6 -4v-26c0 -3.33301 -1.33301 -5 -4 -5h-8c-28.667 0 -49.834 -5.5 -63.501 -16.5s-25.5 -33.167 -35.5 -66.5z" />
    <glyph glyph-name="K" unicode="K" horiz-adv-x="772" 
d="M353 362l241.001 226c26.667 26 40 45.667 40 59c0 12 -8 18 -24 18h-8c-4 0 -6 1.66699 -6 5v26c0 2.66699 1.33301 4 4 4h178c4 0 6 -1.33301 6 -4v-26c0 -3.33301 -1.33301 -5 -4 -5h-8c-33.333 0 -71.333 -19.333 -114 -58l-209 -192l111 -302
c11.333 -30.667 22.166 -51 32.499 -61s27.5 -15.667 51.5 -17h7c4 0 6 -1.66699 6 -5l-1 -26c0 -2.66699 -1.33301 -4 -4 -4h-253c-4 -0 -6 1.33301 -6 4l1 26c0 3.33301 1.33301 5 4 5h9c21.333 0 35 2.5 41 7.5s9 14.833 9 29.5c0 10 -5 28 -15 54zM140.001 118
l133.001 464c5.33301 20 8 35 8 45c0 14.667 -4.5 24.667 -13.5 30s-23.833 8 -44.5 8h-8c-4 0 -6 1.66699 -6 5v26c0 2.66699 1.33301 4 4 4h300c4 0 6 -1.33301 6 -4v-26c0 -3.33301 -1.33301 -5 -4 -5h-8c-28.667 0 -49.834 -5.5 -63.501 -16.5
s-25.5 -33.167 -35.5 -66.5l-133 -464c-5.33301 -20 -8 -35 -8 -45c0 -14.667 4.66699 -24.667 14 -30s24.333 -8 45 -8h7c4 0 6 -1.66699 6 -5l-1 -26c0 -2.66699 -1.33301 -4 -4 -4h-300c-4 -0 -6 1.33301 -6 4l1 26c0 3.33301 1.33301 5 4 5h9c28 0 48.833 5.5 62.5 16.5
s25.5 33.167 35.5 66.5z" />
    <glyph glyph-name="L" unicode="L" horiz-adv-x="707" 
d="M275 73c0 -16 6.00293 -25.668 18.0029 -29.001s42.667 -5 92 -5c39.333 0 65.5 0.833008 78.5 2.5s27.167 5.83398 42.5 12.501c24.667 10.667 49.667 28.167 75 52.5s45.666 49.5 60.999 75.5c2.66699 6 7.66699 9 15 9s11 -3.33301 11 -10
c0 -2.66699 -0.666992 -6 -2 -10l-8 -27l-39 -132c-2.66699 -8 -8.33398 -12 -17.001 -12h-560c-4 -0 -6 1.33301 -6 4l1 26c0 3.33301 1.33301 5 4 5h9c28 0 48.833 5.5 62.5 16.5s25.5 33.167 35.5 66.5l133 464c5.33301 20 8 35 8 45c0 14.667 -4.5 24.667 -13.5 30
s-23.833 8 -44.5 8h-8c-4 0 -6 1.66699 -6 5v26c0 2.66699 1.33301 4 4 4h300c4 0 6 -1.33301 6 -4v-26c0 -3.33301 -1.33301 -5 -4 -5h-8c-28.667 0 -49.834 -5.5 -63.501 -16.5s-25.5 -33.167 -35.5 -66.5l-133 -464c-5.33301 -20 -8 -35 -8 -45z" />
    <glyph glyph-name="M" unicode="M" horiz-adv-x="964" 
d="M640 118l136 477l2 10c0 2.66699 -0.666992 4 -2 4c-2.66699 0 -6.33398 -3.66699 -11.001 -11l-393 -597h-17l-33 602c-0.666992 12 -2.66699 18 -6 18s-6.33301 -5.33301 -9 -16l-143 -487c-5.33301 -20 -8 -35 -8 -45c0 -14.667 4.66699 -24.667 14 -30
s24.333 -8 45 -8h8c4 0 6 -1.66699 6 -5l-1 -26c0 -2.66699 -1.33301 -4 -4 -4h-201c-4 -0 -6 1.33301 -6 4l1 26c0 3.33301 1.33301 5 4 5h8c28.667 0 49.834 5.5 63.501 16.5s25.5 33.167 35.5 66.5l138 464c5.33301 20 8 35 8 45c0 14.667 -4.5 24.667 -13.5 30
s-23.833 8 -44.5 8h-8c-4 0 -6 1.66699 -6 5v26c0 2.66699 1.33301 4 4 4h214c12.667 0 19.334 -7 20.001 -21l27 -477l318 486c4.66699 8 11.667 12 21 12h206c4 0 6 -1.33301 6 -4v-26c0 -3.33301 -1.33301 -5 -4 -5h-8c-28.667 0 -49.834 -5.5 -63.501 -16.5
s-25.5 -33.167 -35.5 -66.5l-133 -464c-5.33301 -20 -8 -35 -8 -45c0 -14.667 4.66699 -24.667 14 -30s24.333 -8 45 -8h7c4 0 6 -1.66699 6 -5l-1 -26c0 -2.66699 -1.33301 -4 -4 -4h-299c-4 -0 -6 1.33301 -6 4v26c0 3.33301 1.33301 5 4 5h9c28 0 48.833 5.5 62.5 16.5
s25.5 33.167 35.5 66.5z" />
    <glyph glyph-name="N" unicode="N" horiz-adv-x="837" 
d="M183 696c0 2.66699 1.33398 4 4.00098 4h189c8 0 13.667 -1.16699 17 -3.5s6.66602 -6.83301 9.99902 -13.5l225 -468c2 -4 3.66699 -6 5 -6c2.66699 0 4.66699 2.66699 6 8l105 365c5.33301 20 8 35 8 45c0 14.667 -4.5 24.667 -13.5 30s-23.833 8 -44.5 8h-8
c-4 0 -6 1.66699 -6 5v26c0 2.66699 1.33301 4 4 4h200c4 0 6 -1.33301 6 -4v-26c0 -3.33301 -1.33301 -5 -4 -5h-8c-28.667 0 -49.834 -5.5 -63.501 -16.5s-25.5 -33.167 -35.5 -66.5l-170 -580h-12l-291 601c-5.33301 10.667 -9.33301 16 -12 16s-5 -4.66699 -7 -14
l-143 -487c-5.33301 -20 -8 -35 -8 -45c0 -14.667 4.66699 -24.667 14 -30s24.333 -8 45 -8h8c4 0 6 -1.66699 6 -5l-1 -26c0 -2.66699 -1.33301 -4 -4 -4h-201c-4 -0 -6 1.33301 -6 4l1 26c0 3.33301 1.33301 5 4 5h8c28.667 0 49.834 5.5 63.501 16.5
s25.5 33.167 35.5 66.5l138 464c5.33301 20 8 35 8 45c0 14.667 -4.66699 24.667 -14 30s-24.333 8 -45 8h-8c-4 0 -6 1.66699 -6 5z" />
    <glyph glyph-name="O" unicode="O" horiz-adv-x="676" 
d="M321 -15c-73.333 0 -134.331 28.332 -182.998 84.999s-73 127.667 -73 213c0 116.667 38.167 217.834 114.5 303.501s166.166 128.5 269.499 128.5c71.333 0 131.166 -28 179.499 -84s72.5 -125 72.5 -207c0 -73.333 -18 -144 -54 -212s-83.5 -122.833 -142.5 -164.5
s-120.167 -62.5 -183.5 -62.5zM450.002 684.999c-39.333 0 -77 -19.666 -113 -58.999s-65.5 -86.833 -88.5 -142.5s-41.333 -111.5 -55 -167.5s-20.5 -102.667 -20.5 -140c0 -47.333 12.833 -86.166 38.5 -116.499s58.167 -45.5 97.5 -45.5s77.333 20.167 114 60.5
s66.834 89.166 90.501 146.499s42.5 114.666 56.5 171.999s21 105.333 21 144c0 40 -13.833 74.667 -41.5 104s-60.834 44 -99.501 44z" />
    <glyph glyph-name="P" unicode="P" horiz-adv-x="707" 
d="M148 118l133 464c5.33301 20 8 35 8 45c0 14.667 -4.5 24.667 -13.5 30s-23.833 8 -44.5 8h-8c-4 0 -6 1.66699 -6 5v26c0 2.66699 1.33301 4 4 4h259c30.667 0 59.667 -2.5 87 -7.5s54 -13.333 80 -25s46.667 -29 62 -52s23 -50.167 23 -81.5
c0 -58 -30.167 -103.5 -90.5 -136.5s-143.833 -49.5 -250.5 -49.5h-42l-66 -230c-5.33301 -20 -8 -35 -8 -45c0 -14.667 4.66699 -24.667 14 -30s24.333 -8 45 -8h7c4 0 6 -1.66699 6 -5l-1 -26c0 -2.66699 -1.33301 -4 -4 -4h-300c-4 -0 -6 1.33301 -6 4l1 26
c0 3.33301 1.33301 5 4 5h9c28 0 48.833 5.5 62.5 16.5s25.5 33.167 35.5 66.5zM498 664l-6 0.00195312c-20 -2.66699 -35.5 -9.83398 -46.5 -21.501s-20.833 -31.834 -29.5 -60.501l-59 -205c25.333 -1.33301 40.333 -2 45 -2c64.667 0 114.667 15.833 150 47.5
s53 76.5 53 134.5c0 71.333 -35.667 107 -107 107z" />
    <glyph glyph-name="Q" unicode="Q" horiz-adv-x="772" 
d="M616 -162l11.999 -26.001c-77.333 -61.333 -145.666 -92 -204.999 -92c-40 0 -102.333 16.167 -187 48.5s-134.334 48.5 -149.001 48.5c-12.667 0 -23.5 -3.33301 -32.5 -10s-13.5 -15 -13.5 -25l2 -24c0 -22 -9 -33 -27 -33c-14.667 0 -22 9.33301 -22 28
c0 10.667 3.16699 21.667 9.5 33s12.666 20.333 18.999 27s15.833 16 28.5 28c22.667 21.333 69.334 50.333 140.001 87l77 39.5c24.667 13 39.334 20.5 44.001 22.5c-61.333 12.667 -111.166 45.834 -149.499 99.501s-57.5 118.167 -57.5 193.5
c0 116.667 38.167 217.834 114.5 303.501s166.166 128.5 269.499 128.5c71.333 0 131.166 -28 179.499 -84s72.5 -125 72.5 -207c0 -110 -37.833 -209.5 -113.5 -298.5s-160.834 -135.5 -255.501 -139.5c-106 -50.667 -199.667 -97.334 -281 -140.001
c58 11.333 109.667 17 155 17c48.667 0 115.334 -17 200.001 -51c34 -14.667 58 -22 72 -22c20.667 0 53.334 16 98.001 48zM489.999 684.999c-39.333 0 -77 -19.666 -113 -58.999s-65.5 -86.833 -88.5 -142.5s-41.333 -111.5 -55 -167.5s-20.5 -102.667 -20.5 -140
c0 -47.333 12.833 -86.166 38.5 -116.499s58.167 -45.5 97.5 -45.5s77.333 20.167 114 60.5s66.834 89.166 90.501 146.499s42.5 114.666 56.5 171.999s21 105.333 21 144c0 40 -13.833 74.667 -41.5 104s-60.834 44 -99.501 44z" />
    <glyph glyph-name="R" unicode="R" horiz-adv-x="772" 
d="M145 118l132.998 464c5.33301 20 8 35 8 45c0 14.667 -4.5 24.667 -13.5 30s-23.833 8 -44.5 8h-8c-4 0 -6 1.66699 -6 5v26c0 2.66699 1.33301 4 4 4h281c34 0 67.833 -5.33301 101.5 -16s63.667 -29 90 -55s39.5 -57.333 39.5 -94c0 -48 -22.333 -88.5 -67 -121.5
s-99.667 -53.167 -165 -60.5c27.333 -14.667 45 -43.334 53 -86.001c2 -11.333 4.5 -27.666 7.5 -48.999s5.66699 -38.666 8 -51.999s6.16602 -29.166 11.499 -47.499s12 -34.833 20 -49.5c6.66699 -12.667 13.834 -21.334 21.501 -26.001s20.834 -7.33398 39.501 -8.00098
h7c4 0 6 -1.66699 6 -5l-1 -26c0 -2.66699 -1.33301 -4 -4 -4h-178c-5.33301 0 -8.66602 3 -9.99902 9l-32 185c-10.667 60 -18.5 98 -23.5 114s-12.167 29.333 -21.5 40h-56l-66 -230c-5.33301 -20 -8 -35 -8 -45c0 -14.667 4.66699 -24.667 14 -30s24.333 -8 45 -8h7
c4 0 6 -1.66699 6 -5l-1 -26c0 -2.66699 -1.33301 -4 -4 -4h-300c-4 -0 -6 1.33301 -6 4l1 26c0 3.33301 1.33301 5 4 5h9c28 0 48.833 5.5 62.5 16.5s25.5 33.167 35.5 66.5zM602.998 559c0 33.333 -9.83203 59.167 -29.499 77.5s-45.834 27.5 -78.501 27.5
c-22 -1.33301 -39 -7.83301 -51 -19.5s-22.333 -32.5 -31 -62.5l-58 -204c14.667 -2 30.667 -3 48 -3c60 0 108.333 16.333 145 49s55 77.667 55 135z" />
    <glyph glyph-name="S" unicode="S" horiz-adv-x="578" 
d="M565 665l45 23.9951l17 -6l-64 -206c-0.666992 -2.66699 -3.33398 -4 -8.00098 -4c-8.66699 0 -13 4.66699 -13 14c0 60 -13.167 107.667 -39.5 143s-65.166 53 -116.499 53c-29.333 0 -54.666 -10.5 -75.999 -31.5s-32 -45.833 -32 -74.5c0 -20 8.5 -43.5 25.5 -70.5
s32.667 -48.167 47 -63.5s34.166 -35.333 59.499 -60c34 -34 61 -67 81 -99s30 -66.667 30 -104c0 -55.333 -23 -101.833 -69 -139.5s-103 -56.5 -171 -56.5c-22.667 0 -45.167 2.33301 -67.5 7s-40 9.5 -53 14.5s-33.167 13.5 -60.5 25.5c-12 -5.33301 -25 -14 -39 -26
l-22 9l61 211c1.33301 5.33301 4.66602 8 9.99902 8c10 0 15 -4 15 -12c0 -4 -0.166992 -8.66699 -0.5 -14s-0.5 -9 -0.5 -11c0 -124.667 54 -187 162 -187c36.667 0 66.667 9.83301 90 29.5s35 44.834 35 75.501c0 19.333 -5.16699 39.333 -15.5 60
s-20.666 37.167 -30.999 49.5s-26.5 30 -48.5 53l-45 47.5c-22 24.667 -38.167 43.834 -48.5 57.501s-21 32.834 -32 57.501s-16.5 49.334 -16.5 74.001c0 58.667 20.333 106.334 61 143.001s93.667 55 159 55c58 0 115 -15.333 171 -46z" />
    <glyph glyph-name="T" unicode="T" horiz-adv-x="707" 
d="M380 653c0 7.33301 -1.83203 12.6689 -5.49902 16.002s-10.834 5 -21.501 5c-35.333 0 -71.833 -12.5 -109.5 -37.5s-69.834 -59.5 -96.501 -103.5c-4 -6 -9 -9 -15 -9c-8 0 -12 3.66699 -12 11c0 0.666992 2 7.66699 6 21l40 130c3.33301 9.33301 9.33301 14 18 14h566
c8 0 12 -2 12 -6c0 -2.66699 -1 -6.33398 -3 -11.001l-47 -151c-5.33301 -18 -11.666 -27 -18.999 -27c-8 0 -12 5.66699 -12 17c1.33301 13.333 2 23.666 2 30.999c0 81.333 -37 122 -111 122c-20 0 -34 -4.66699 -42 -14s-16.333 -28.333 -25 -57l-139 -486
c-5.33301 -20 -8 -35 -8 -45c0 -14.667 4.66699 -24.667 14 -30s24.333 -8 45 -8h7c4 0 6 -1.66699 6 -5l-1 -26c0 -2.66699 -1.33301 -4 -4 -4h-300c-4 -0 -6 1.33301 -6 4l1 26c0 3.33301 1.33301 5 4 5h9c28 0 48.833 5.5 62.5 16.5s25.5 33.167 35.5 66.5l141 490
c5.33301 20 8 35 8 45z" />
    <glyph glyph-name="U" unicode="U" horiz-adv-x="837" 
d="M162 700l300.002 -0.000976562c4 0 6 -1.33301 6 -4v-26c0 -3.33301 -1.33301 -5 -4 -5h-8c-28.667 0 -49.834 -5.5 -63.501 -16.5s-25.5 -33.167 -35.5 -66.5l-120 -395c-7.33301 -24 -11 -46.667 -11 -68c0 -31.333 15.5 -56.333 46.5 -75s72.833 -28 125.5 -28
c128.667 0 210.667 60.667 246 182l112 384c5.33301 20 8 35 8 45c0 14.667 -4.5 24.667 -13.5 30s-23.833 8 -44.5 8h-8c-4 0 -6 1.66699 -6 5v26c0 2.66699 1.33301 4 4 4h200c4 0 6 -1.33301 6 -4v-26c0 -3.33301 -1.33301 -5 -4 -5h-8
c-28.667 0 -49.834 -5.5 -63.501 -16.5s-25.5 -33.167 -35.5 -66.5l-117 -395c-20.667 -71.333 -55.167 -123.166 -103.5 -155.499s-114.833 -48.5 -199.5 -48.5c-82.667 0 -146.5 16.5 -191.5 49.5s-67.5 79.833 -67.5 140.5c0 21.333 2.33301 40.333 7 57l103 352
c5.33301 20 8 35 8 45c0 14.667 -4.5 24.667 -13.5 30s-23.833 8 -44.5 8h-8c-4 0 -6 1.66699 -6 5v26c0 2.66699 1.33301 4 4 4z" />
    <glyph glyph-name="V" unicode="V" horiz-adv-x="701" 
d="M169 696c0 2.66699 1.33203 3.99805 3.99902 3.99805h291c4 0 6 -1.33301 6 -4v-26c0 -3.33301 -1.33301 -5 -4 -5h-9c-34.667 0 -58.167 -6.66699 -70.5 -20s-19.166 -34.333 -20.499 -63l-24 -376l289 361c26 32.667 39 55.334 39 68.001c0 20.667 -11.333 31 -34 31
h-8c-4 0 -6 1.66699 -6 5v26c0 2.66699 1.33301 4 4 4h194c4 0 6 -1.33301 6 -4v-26c0 -3.33301 -1.33301 -5 -4 -5h-9c-20.667 0 -42.5 -9.83301 -65.5 -29.5s-56.5 -57.167 -100.5 -112.5l-433 -539h-9l41 614c0 24.667 -4.33301 41.834 -13 51.501s-25.667 14.5 -51 14.5
h-7c-4 0 -6 1.66699 -6 5v26z" />
    <glyph glyph-name="W" unicode="W" horiz-adv-x="892" 
d="M140 700h262.997c4 0 6 -1.33301 6 -4v-26c0 -3.33301 -1.33301 -5 -4 -5h-8c-28 0 -47.167 -4.33301 -57.5 -13s-17.166 -25.334 -20.499 -50.001l-43 -370l231 303l9 91c0 26 -15 39 -45 39h-8c-4 0 -6 1.66699 -6 5v26c0 2.66699 1.33301 4 4 4h262
c4 0 6 -1.33301 6 -4v-26c0 -3.33301 -1.33301 -5 -4 -5h-8c-25.333 0 -43.666 -4 -54.999 -12s-18 -21.667 -20 -41l-44 -375l256 339c18 24 27 41.333 27 52c0 24.667 -12 37 -36 37h-8c-4 0 -6 1.66699 -6 5v26c0 2.66699 1.33301 4 4 4h176c4 0 6 -1.33301 6 -4v-26
c0 -3.33301 -1.33301 -5 -4 -5h-8c-14.667 0 -30 -6.33301 -46 -19s-30.167 -26.5 -42.5 -41.5s-32.833 -41.5 -61.5 -79.5l-398 -528c-5.33301 -8 -9.66602 -12 -12.999 -12c-2 0 -3 3 -3 9l57 473l-363 -476c-4 -6 -7.66699 -9 -11 -9c-2.66699 0 -4 1.33301 -4 4l74 600
c2 14.667 3 25.334 3 32.001c0 29.333 -15.667 45 -47 47h-8c-4 0 -6 1.66699 -6 5v26c0 2.66699 1.33301 4 4 4z" />
    <glyph glyph-name="X" unicode="X" horiz-adv-x="699" 
d="M159 696c0 2.66699 1.33691 4.00098 4.00391 4.00098h277c4 0 6 -1.33301 6 -4v-26c0 -3.33301 -1.33301 -5 -4 -5h-8c-18.667 0 -32.167 -3.16699 -40.5 -9.5s-12.5 -16.833 -12.5 -31.5c0 -2 2.33301 -11 7 -27l53 -176l178 171c20.667 19.333 31 34 31 44
c0 8.66699 -2.5 15.667 -7.5 21s-11.5 8 -19.5 8h-8c-4 0 -6 1.66699 -6 5v26c0 2.66699 1.33301 4 4 4h180c4 0 6 -1.33301 6 -4v-26c0 -3.33301 -1.33301 -5 -4 -5h-8c-14.667 0 -29.834 -4 -45.501 -12s-28.334 -16 -38.001 -24s-22.834 -20 -39.501 -36l-214 -204
l84 -292c7.33301 -24.667 15.666 -40.834 24.999 -48.501s27.333 -12.167 54 -13.5h7c4 0 6 -1.66699 6 -5l-1 -26c0 -2.66699 -1.33301 -4 -4 -4h-280c-4 -0 -6 1.33301 -6 4v26c0 3.33301 1.33301 5 4 5h9c21.333 0 36.5 3.5 45.5 10.5s13.5 20.167 13.5 39.5
c0 7.33301 -1 14.333 -3 21l-53 185l-193 -182c-16.667 -13.333 -25 -28 -25 -44c0 -18 9.66699 -28 29 -30h7c4 0 6 -1.66699 6 -5l-1 -26c0 -2.66699 -1.33301 -4 -4 -4h-189c-4 -0 -6 1.33301 -6 4v26c0 3.33301 1.33301 5 4 5h9c34 2 64.333 16.333 91 43l261 251
l-85 277c-10.667 37.333 -38 57 -82 59h-8c-4 0 -6 1.66699 -6 5v26z" />
    <glyph glyph-name="Y" unicode="Y" horiz-adv-x="660" 
d="M442 386l178.999 202.999c17.333 20 26 36 26 48c0 9.33301 -2.83301 16.5 -8.5 21.5s-12.167 7.5 -19.5 7.5h-8c-4 0 -6 1.66699 -6 5v26c0 2.66699 1.33301 4 4 4h170c4 0 6 -1.33301 6 -4v-26c0 -3.33301 -1.33301 -5 -4 -5h-8
c-16.667 -0.666992 -31 -4.66699 -43 -12s-26.333 -20.333 -43 -39l-245 -278l-63 -219c-5.33301 -20 -8 -35 -8 -45c0 -25.333 22 -38 66 -38h7c4 0 6 -1.66699 6 -5l-1 -26c0 -2.66699 -1.33301 -4 -4 -4h-309c-4 0 -6 1.33301 -6 4v26c0 3.33301 1.33301 5 4 5h9
c28.667 0 50.334 5.5 65.001 16.5s26.667 33.167 36 66.5l72 249l-91 239c-8 20.667 -17.667 35.834 -29 45.501s-27 14.5 -47 14.5h-8c-4 0 -6 1.66699 -6 5v26c0 2.66699 1.33301 4 4 4h277c4 0 6 -1.33301 6 -4v-26c0 -3.33301 -1.33301 -5 -4 -5h-8
c-39.333 0 -59 -12.667 -59 -38c0 -2.66699 0.666992 -6.66699 2 -12z" />
    <glyph glyph-name="Z" unicode="Z" horiz-adv-x="643" 
d="M695 700l-0.00390625 -16l-497 -649h150c81.333 0 148.333 39.667 201 119l24 36c2.66699 5.33301 6.33398 8 11.001 8c9.33301 0 14 -3 14 -9c0 -2 -0.666992 -5 -2 -9l-47 -162c-2 -7.33301 -4.66699 -12.166 -8 -14.499s-9 -3.5 -17 -3.5h-496v15l496 650h-90
c-52 0 -91 -4.33301 -117 -13s-49.667 -25.667 -71 -51l-48 -59c-5.33301 -7.33301 -10.666 -11 -15.999 -11c-6 0 -9 3.33301 -9 10c0 3.33301 1 8.66602 3 15.999l36 123c2.66699 8.66699 5.83398 14.167 9.50098 16.5s10.834 3.5 21.501 3.5h452z" />
    <glyph glyph-name="bracketleft" unicode="[" horiz-adv-x="262" 
d="M258 668l-255 -891c-1.33301 -6.66699 -2 -10.667 -2 -12c0 -9.33301 8.33301 -14 25 -14h65c6.66699 0 10 -4.33301 10 -13s-3.66699 -13 -11 -13h-187c-4.66699 0 -7 2.33301 -7 7c0 2.66699 0.333008 4.66699 1 6l280 980c2.66699 8.66699 7.33398 13 14.001 13h181
c6.66699 0 10 -4.33301 10 -13c-0.666992 -8.66699 -4.33398 -13 -11.001 -13h-63c-14.667 0 -25.5 -2.16699 -32.5 -6.5s-12.833 -14.5 -17.5 -30.5z" />
    <glyph glyph-name="backslash" unicode="\" horiz-adv-x="350" 
d="M268 -132l-231.001 854c-0.666992 2 -1 4 -1 6s0.666992 3.33301 2 4l37 9c2 0.666992 3.33301 0.5 4 -0.5s1.66699 -3.16699 3 -6.5l233 -857c0 -2 -1 -3.66699 -3 -5l-37 -10c-3.33301 -0.666992 -5.66602 1.33301 -6.99902 6z" />
    <glyph glyph-name="bracketright" unicode="]" horiz-adv-x="262" 
d="M-12 -223l255.001 890.999c2 6.66699 3 12.667 3 18c0 6 -1.5 10.333 -4.5 13s-6.5 4.33398 -10.5 5.00098s-10 1 -18 1h-57c-6 0 -9 4.33301 -9 13s3.33301 13 10 13h189c4.66699 0 7 -2 7 -6c0 -2.66699 -0.333008 -5 -1 -7l-281 -980
c-2.66699 -8.66699 -7.33398 -13 -14.001 -13h-180c-6 0 -9.33301 4.33301 -10 13c0.666992 8.66699 4.33398 13 11.001 13h73c11.333 0 19.666 1.83301 24.999 5.5s9.33301 10.5 12 20.5z" />
    <glyph glyph-name="asciicircum" unicode="^" 
d="M215 682h53l135 -373l-55 -20l-107 292l-106 -292l-55 20z" />
    <glyph glyph-name="underscore" unicode="_" 
d="M500 -93h-500v43h500v-43z" />
    <glyph glyph-name="grave" unicode="`" horiz-adv-x="451" 
d="M260 719c18.667 0 31.333 -8.99902 38 -26.999l46 -128c1.33301 -4 2 -7.33301 2 -10c0 -3.33301 -2.5 -6.83301 -7.5 -10.5s-9.83301 -5.5 -14.5 -5.5c-2.66699 0 -6.66699 2.66699 -12 8l-89 105c-6 9.33301 -9 18.666 -9 27.999c0 10.667 4.5 20 13.5 28
s19.833 12 32.5 12z" />
    <glyph glyph-name="a" unicode="a" horiz-adv-x="515" 
d="M500 463l-106.001 -348.001c-4 -12 -6 -22.667 -6 -32c0 -10.667 4.66699 -16 14 -16c7.33301 0 18.333 8.83301 33 26.5s27.334 34.5 38.001 50.5c4.66699 7.33301 8.66699 11 12 11c0.666992 0 2.33398 -0.666992 5.00098 -2c6.66699 -4 10 -8.33301 10 -13
s-14 -25.667 -42 -63c-17.333 -22.667 -37.833 -42.667 -61.5 -60s-42.5 -26 -56.5 -26c-13.333 0 -23.833 4.66699 -31.5 14s-11.5 22 -11.5 38c0 35.333 7.33301 76.333 22 123l-42 -60c-21.333 -30.667 -48.333 -57.5 -81 -80.5s-60 -34.5 -82 -34.5
c-28.667 0 -51.834 10.667 -69.501 32s-26.5 49 -26.5 83c0 40 10.667 82.833 32 128.5s51.333 88.834 90 129.501c56 60.667 115 91 177 91c21.333 0 40 -2.83301 56 -8.5s35.333 -16.5 58 -32.5l36 49h33zM373.999 391.999c-5.33301 12 -10.666 20.333 -15.999 25
s-13 7 -23 7c-24.667 0 -58.667 -27.667 -102 -83c-29.333 -38 -55.333 -80.833 -78 -128.5s-34 -83.5 -34 -107.5c0 -12.667 4.16699 -23.667 12.5 -33s18.166 -14 29.499 -14c20 0 45.833 16.833 77.5 50.5s63.167 79.167 94.5 136.5z" />
    <glyph glyph-name="b" unicode="b" horiz-adv-x="503" 
d="M392 457c28 0 50.833 -10.998 68.5 -32.998s26.5 -50.333 26.5 -85c0 -54 -16.333 -108.5 -49 -163.5s-72.667 -99.667 -120 -134s-92 -51.5 -134 -51.5s-74.167 9.66699 -96.5 29s-33.5 47 -33.5 83c0 27.333 6.66699 62.666 20 105.999l128 426
c3.33301 13.333 5 22.666 5 27.999c0 14 -14 21 -42 21h-8c-4 0 -6 1.66699 -6 5v26c0 2.66699 1.33301 4 4 4c62 0 113.667 2.33301 155 7c7.33301 0 11 -3 11 -9c0 -3.33301 -0.333008 -6 -1 -8l-118 -392c76 94 139.333 141 190 141zM127 67.002
c4.66699 -28 18.667 -42.001 42 -42.001c27.333 0 62.333 30 105 90c30.667 42 56.5 84.833 77.5 128.5s31.5 76.167 31.5 97.5c0 14.667 -3.5 26.834 -10.5 36.501s-16.167 14.5 -27.5 14.5c-18.667 0 -45 -16.667 -79 -50c-37.333 -37.333 -70.333 -84.333 -99 -141z" />
    <glyph glyph-name="c" unicode="c" horiz-adv-x="429" 
d="M341 163c4.66699 0 9.33008 -2.16699 13.9971 -6.5s7 -8.83301 7 -13.5c0 -1.33301 -0.5 -2.83301 -1.5 -4.5l-4 -6.5l-4.5 -7c-22 -36.667 -50.667 -68.5 -86 -95.5s-73 -40.5 -113 -40.5c-34 0 -63 12.5 -87 37.5s-36 55.167 -36 90.5c0 38.667 8.33301 78.667 25 120
s37.834 77.666 63.501 108.999s54.167 57 85.5 77s60.666 30 87.999 30c33.333 0 62.666 -8.66699 87.999 -26s38 -37.666 38 -60.999c0 -14 -4.5 -25.5 -13.5 -34.5s-19.833 -13.5 -32.5 -13.5c-26.667 0 -46.667 21.333 -60 64
c-5.33301 17.333 -9.66602 28.333 -12.999 33s-9.66602 7 -18.999 7c-14 0 -31.667 -17.333 -53 -52s-40 -76.667 -56 -126s-24 -92.333 -24 -129c0 -42 21 -63 63 -63c12.667 0 26.334 5.5 41.001 16.5s26.834 22.333 36.501 34s23.167 29.167 40.5 52.5
c4 5.33301 8.33301 8 13 8z" />
    <glyph glyph-name="d" unicode="d" horiz-adv-x="541" 
d="M407 151c-10 -30.667 -14.999 -52.999 -14.999 -66.999c0 -11.333 4 -17 12 -17c13.333 0 28.666 12.333 45.999 37l28 39c4.66699 6.66699 7.66699 10 9 10c2.66699 0 6.83398 -1.5 12.501 -4.5s8.5 -5.5 8.5 -7.5c0 -3.33301 -1 -6.33301 -3 -9l-39 -50
c-20 -26.667 -41.167 -48 -63.5 -64s-41.833 -24 -58.5 -24c-30 0 -45 22.333 -45 67c0 11.333 10 49.333 30 114c-16 -27.333 -34 -53.666 -54 -78.999s-45.333 -49.166 -76 -71.499s-60 -33.5 -88 -33.5c-26.667 0 -48.834 10.5 -66.501 31.5s-26.5 47.167 -26.5 78.5
c0 45.333 14.333 95.666 43 150.999s67 103.166 115 143.499s96 60.5 144 60.5c21.333 0 47 -6 77 -18l60 196c3.33301 13.333 5 22.666 5 27.999c0 14 -14 21 -42 21h-8c-4 0 -6 1.66699 -6 5v26c0 2.66699 1.33301 4 4 4c62 0 113.667 2.33301 155 7
c7.33301 0 11 -3 11 -9c0 -3.33301 -0.333008 -6 -1 -8zM384.001 390.001c-10 18.667 -24.002 28 -42.002 28c-26 0 -57.333 -22.333 -94 -67c-33.333 -40 -61.666 -83.833 -84.999 -131.5s-35 -84.5 -35 -110.5c0 -35.333 11.667 -53 35 -53c26.667 0 54.334 16 83.001 48
s52 65 70 99c24 44.667 46.667 107 68 187z" />
    <glyph glyph-name="e" unicode="e" horiz-adv-x="400" 
d="M153 194c-8 -24 -12.001 -53.998 -12.001 -89.998c0 -19.333 4 -34.5 12 -45.5s19 -16.5 33 -16.5c28 0 74 32.667 138 98c6.66699 6.66699 11.334 10 14.001 10s6.5 -2.5 11.5 -7.5s7.5 -9.83301 7.5 -14.5c0 -4 -8.33301 -14.333 -25 -31
c-36.667 -36.667 -70 -64.5 -100 -83.5s-64 -28.5 -102 -28.5c-30 0 -55 12 -75 36s-30 53.667 -30 89c0 51.333 14.5 103.666 43.5 156.999s65.833 97.166 110.5 131.499s88 51.5 130 51.5c60.667 0 91 -28.333 91 -85c0 -39.333 -25 -76.333 -75 -111
s-107.333 -54.667 -172 -60zM160.999 222.002c52 13.333 91.501 35.167 118.501 65.5s40.5 60.5 40.5 90.5c0 11.333 -3.83301 21.166 -11.5 29.499s-16.834 12.5 -27.501 12.5c-20.667 0 -42.167 -18.667 -64.5 -56s-40.833 -84.666 -55.5 -141.999z" />
    <glyph glyph-name="f" unicode="f" horiz-adv-x="301" 
d="M262 450l80.9951 -0.00195312c5.33301 0 8 -2.33301 8 -7l-6 -27c-0.666992 -4.66699 -2 -7.66699 -4 -9s-5.66699 -2 -11 -2h-78l-49 -183c-40 -148.667 -80.333 -253.667 -121 -315c-26 -38.667 -54.5 -69.5 -85.5 -92.5s-59.5 -34.5 -85.5 -34.5
c-13.333 0 -24.666 4.33301 -33.999 13s-14 19.334 -14 32.001c0 11.333 3.83301 21.333 11.5 30s16.834 13 27.501 13s26.667 -4.33301 48 -13c14 -6 25 -9 33 -9c20 0 34.333 12 43 36c4.66699 12 8.83398 25 12.501 39l9.5 37c2.66699 10.667 6.33398 27 11.001 49
s9 41.333 13 58l78 340h-64c-5.33301 0 -8 2.33301 -8 7l6 27c0.666992 4.66699 2 7.66699 4 9s5.66699 2 11 2h58c68 182.667 158.333 274 271 274c32.667 0 60.167 -7.5 82.5 -22.5s33.5 -33.167 33.5 -54.5c0 -22.667 -13.333 -34 -40 -34c-23.333 0 -42.333 13 -57 39
c-10 16.667 -18 27.834 -24 33.501s-13.333 8.5 -22 8.5c-27.333 0 -51.666 -20.167 -72.999 -60.5s-43.333 -101.5 -66 -183.5z" />
    <glyph glyph-name="g" unicode="g" horiz-adv-x="375" 
d="M179 165c28 0 50.833 23.5 68.5 70.5s26.5 89.5 26.5 127.5c0 36.667 -12 55 -36 55c-17.333 0 -33.5 -13.833 -48.5 -41.5s-26.167 -57.5 -33.5 -89.5s-11 -58.333 -11 -79c0 -12.667 3.33301 -23 10 -31s14.667 -12 24 -12zM305 -78
c0 -38.667 -21.665 -71.9971 -64.998 -99.9971s-94 -42 -152 -42c-55.333 0 -99.333 10.167 -132 30.5s-49 47.833 -49 82.5c0 34 14.667 63.5 44 88.5s69 41.5 119 49.5c-27.333 17.333 -41 38 -41 62c0 17.333 7.33301 33.166 22 47.499s33 24.166 55 29.499
c-26.667 29.333 -40 65 -40 107c0 44.667 15.5 83.334 46.5 116.001s67.833 49 110.5 49c5.33301 0 15 -1 29 -3c26 41.333 61.667 62 107 62c28 0 42 -12.333 42 -37c0 -8.66699 -3.16699 -15.667 -9.5 -21s-14.833 -8 -25.5 -8c-6 0 -18.667 3.33301 -38 10
c-13.333 4 -21 6 -23 6c-6.66699 0 -14.667 -2.66699 -24 -8c-4.66699 -2 -7 -4.66699 -7 -8c0 -2 3.33301 -4 10 -6c19.333 -6 35.5 -21 48.5 -45s19.5 -50 19.5 -78c0 -46.667 -16.333 -86.5 -49 -119.5s-72 -49.5 -118 -49.5c-18 0 -39.667 7 -65 21
c-12.667 -12 -19 -24.667 -19 -38c0 -8.66699 10.667 -19.334 32 -32.001s44.666 -25.334 69.999 -38.001s48.666 -30.667 69.999 -54s32 -48 32 -74zM92.002 16.0029c-34 -9.33301 -61.166 -25 -81.499 -47s-30.5 -46.333 -30.5 -73s10.833 -48.167 32.5 -64.5
s50.167 -24.5 85.5 -24.5c31.333 0 59.666 8.5 84.999 25.5s38 36.167 38 57.5c0 18 -6.16699 33.833 -18.5 47.5s-32 28.667 -59 45s-44.167 27.5 -51.5 33.5z" />
    <glyph glyph-name="h" unicode="h" horiz-adv-x="515" 
d="M398 450c20 0 35.667 -6.16699 47 -18.5s17 -29.166 17 -50.499c0 -28.667 -17.167 -83.5 -51.5 -164.5s-51.5 -123.167 -51.5 -126.5c0 -4 1.33301 -7.5 4 -10.5s6 -4.5 10 -4.5c11.333 0 37.666 24.333 78.999 73c8.66699 11.333 14 17 16 17
c2.66699 0 6.33398 -1.5 11.001 -4.5s7 -5.83301 7 -8.5c0 -5.33301 -10.667 -21 -32 -47c-30 -37.333 -58.667 -65 -86 -83s-50.333 -27 -69 -27c-12.667 0 -23.334 5 -32.001 15s-13 22.333 -13 37c0 24.667 17 78.334 51 161.001l16 39l16.5 39.5l13 32.5
c4.33301 11.333 7.5 20.666 9.5 27.999s3 13 3 17c0 14 -5 21 -15 21c-12 0 -31.667 -14 -59 -42s-52.666 -60 -75.999 -96c-8 -12 -15.5 -25 -22.5 -39s-12.833 -26.167 -17.5 -36.5s-10.167 -24.5 -16.5 -42.5s-10.833 -31.167 -13.5 -39.5l-14.5 -45.5
c-7 -22 -11.5 -36.667 -13.5 -44h-96l189 634c3.33301 13.333 5 22.666 5 27.999c0 14 -14 21 -42 21h-8c-4 0 -6 1.66699 -6 5v26c0 2.66699 1.33301 4 4 4c62 0 113.667 2.33301 155 7c7.33301 0 11 -3 11 -9c0 -3.33301 -0.333008 -6 -1 -8l-121 -413
c49.333 60 87.833 100.833 115.5 122.5s53.5 32.5 77.5 32.5z" />
    <glyph glyph-name="i" unicode="i" horiz-adv-x="320" 
d="M97 324l-26.999 -29c-2 -2.66699 -4.33301 -4 -7 -4c-2.66699 0.666992 -6 2.5 -10 5.5s-6 5.83301 -6 8.5c0 8.66699 20.333 32.334 61 71.001c46 44 82.667 66 110 66c15.333 0 27.5 -4.5 36.5 -13.5s13.5 -21.833 13.5 -38.5c0 -6 -1.33301 -14.167 -4 -24.5
s-6.83398 -22.833 -12.501 -37.5l-15 -38l-18 -43.5l-15.5 -36.5c-27.333 -65.333 -41 -105.333 -41 -120c0 -8.66699 3.66699 -13 11 -13s20.666 9.66699 39.999 29c2.66699 3.33301 5.5 6.5 8.5 9.5s5.5 5.66699 7.5 8s3.83301 4.66602 5.5 6.99902s3.16699 4.33301 4.5 6
s2.5 3 3.5 4s2 1.83301 3 2.5s1.83301 1 2.5 1c2.66699 0 5.33398 -2 8.00098 -6s4 -8 4 -12c0 -6.66699 -14.333 -23.667 -43 -51c-56.667 -56.667 -100.667 -85 -132 -85c-12 0 -22.167 5 -30.5 15s-12.5 21.667 -12.5 35c0 18.667 22.333 76 67 172
c33.333 71.333 50 113.666 50 126.999c0 14 -4.66699 21 -14 21c-7.33301 0 -14 -2.66699 -20 -8s-15.333 -14.666 -28 -27.999zM197.001 589c0 17.333 6 32 18 44s26.333 18 43 18c17.333 0 32 -6.16699 44 -18.5s18 -26.833 18 -43.5s-6 -31 -18 -43s-26.667 -18 -44 -18
s-31.833 6 -43.5 18s-17.5 26.333 -17.5 43z" />
    <glyph glyph-name="j" unicode="j" horiz-adv-x="320" 
d="M100 378c46 52 85.332 78 117.999 78s49 -20.667 49 -62c0 -40 -11 -93 -33 -159l-33.5 -96c-9 -25.333 -20.667 -55.666 -35 -90.999s-27.5 -64.333 -39.5 -87s-26.5 -46.5 -43.5 -71.5s-33.833 -44.667 -50.5 -59s-35.334 -26.333 -56.001 -36
s-42.334 -14.5 -65.001 -14.5c-20 0 -36.167 5.16699 -48.5 15.5s-18.5 23.166 -18.5 38.499c0 14 4.16699 25 12.5 33s19.833 12 34.5 12c10.667 0 24.667 -6.66699 42 -20c13.333 -11.333 26 -17 38 -17c8.66699 0 18.334 7 29.001 21
c16.667 24.667 46.334 105.334 89.001 242.001c5.33301 17.333 15.5 48.166 30.5 92.499s27 81 36 110s13.5 47.5 13.5 55.5c0 15.333 -4.66699 23 -14 23c-11.333 0 -33.333 -21.667 -66 -65c-8 -11.333 -14.333 -17 -19 -17c-3.33301 0 -6.66602 1.66699 -9.99902 5
s-5 7 -5 11c0 4.66699 3.66699 10.667 11 18zM196.999 589c0 17.333 6 32 18 44s26.333 18 43 18c17.333 0 32 -6.16699 44 -18.5s18 -26.833 18 -43.5s-6 -31 -18 -43s-26.667 -18 -44 -18s-31.833 6 -43.5 18s-17.5 26.333 -17.5 43z" />
    <glyph glyph-name="k" unicode="k" horiz-adv-x="455" 
d="M376 439c22.667 0 41.5 -6.66504 56.5 -19.998s22.5 -30 22.5 -50c0 -29.333 -15.333 -58.333 -46 -87c-22.667 -20.667 -57 -43.334 -103 -68.001c11.333 -30 17 -75.667 17 -137c0 -9.33301 2.66699 -14 8 -14c6.66699 0 13 4.66699 19 14l35 49c4 4.66699 7 7 9 7
c3.33301 0 7 -1.5 11 -4.5s6 -5.83301 6 -8.5c0 -2 -1 -4.33301 -3 -7l-33 -45c-34 -48 -66.333 -72 -97 -72c-27.333 0 -41 22 -41 66c0 50.667 -3 91.667 -9 123l-46 -4l-52 -181h-98l190 634c3.33301 13.333 5 22.666 5 27.999c0 14 -14 21 -42 21h-8
c-4 0 -6 1.66699 -6 5v26c0 2.66699 1.33301 4 4 4c62 0 113.667 2.33301 155 7c7.33301 0 11 -3 11 -9c0 -3.33301 -0.333008 -6 -1 -8l-96 -327c19.333 16 41.833 29.667 67.5 41s47.167 17 64.5 17zM191 209.002c49.333 4 91.832 19.668 127.499 47.001
s53.5 57.666 53.5 90.999c0 13.333 -3.83301 24.5 -11.5 33.5s-17.167 13.5 -28.5 13.5c-23.333 0 -58.666 -21.667 -105.999 -65z" />
    <glyph glyph-name="l" unicode="l" horiz-adv-x="319" 
d="M85 200l132.001 434.002c3.33301 13.333 5 22.666 5 27.999c0 14 -14 21 -42 21h-8c-4 0 -6 1.66699 -6 5v26c0 2.66699 1.33301 4 4 4c62 0 113.667 2.33301 155 7c7.33301 0 11 -3 11 -9c0 -3.33301 -0.333008 -6 -1 -8l-159 -531c-18 -60 -27 -93 -27 -99
c0 -10 4 -15 12 -15c7.33301 0 17.5 6.16699 30.5 18.5s24.833 27.833 35.5 46.5c12 19.333 19.333 29 22 29c11.333 0 17 -4 17 -12s-11 -26.333 -33 -55c-22.667 -30 -46.334 -54.167 -71.001 -72.5s-45.667 -27.5 -63 -27.5c-14.667 0 -26.667 5.16699 -36 15.5
s-14 24.166 -14 41.499c0 21.333 12 72.333 36 153z" />
    <glyph glyph-name="m" unicode="m" horiz-adv-x="821" 
d="M211 445c13.333 0 24.1621 -5.49609 32.4951 -16.4961s12.5 -25.167 12.5 -42.5c0 -28 -9.33301 -77 -28 -147c46 74 85.167 127.5 117.5 160.5s61.5 49.5 87.5 49.5c42 0 63 -21.333 63 -64c0 -28.667 -11.333 -77 -34 -145c46.667 70 87.167 122.333 121.5 157
s68.166 52 101.499 52c18 0 32.5 -6.33301 43.5 -19s16.5 -29.334 16.5 -50.001c0 -22 -15.333 -73.333 -46 -154s-46 -125.334 -46 -134.001c0 -7.33301 4.66699 -11 14 -11c10.667 0 27.667 15.667 51 47l23 31c3.33301 6 7 9 11 9
c3.33301 -0.666992 6.83301 -2.33398 10.5 -5.00098s5.5 -5.33398 5.5 -8.00098c0 -2 -0.666992 -4.33301 -2 -7c-15.333 -24.667 -29.666 -44.667 -42.999 -60c-23.333 -26.667 -47.833 -48.667 -73.5 -66s-47.167 -26 -64.5 -26c-12.667 0 -23 4.83301 -31 14.5
s-12 22.167 -12 37.5c0 19.333 17.667 74 53 164s53 142 53 156c0 10 -6 15 -18 15c-13.333 0 -31.666 -13 -54.999 -39s-43 -51.333 -59 -76c-53.333 -78 -92.666 -167.333 -117.999 -268h-98l94 325c4.66699 22 7 36 7 42c0 12.667 -5.66699 19 -17 19
c-17.333 0 -52.666 -38 -105.999 -114c-46.667 -67.333 -86 -158 -118 -272h-98c67.333 214 101 332.333 101 355c0 3.33301 -1.16699 6.5 -3.5 9.5s-5.16602 4.5 -8.49902 4.5c-7.33301 0 -16.5 -6.16699 -27.5 -18.5s-30.167 -37.5 -57.5 -75.5c-1.33301 -2 -3 -3 -5 -3
s-5.66699 1.66699 -11 5s-8 6 -8 8c0 3.33301 1.66699 7.33301 5 12c64.667 98.667 119.334 148 164.001 148z" />
    <glyph glyph-name="n" unicode="n" horiz-adv-x="578" 
d="M165 0l-97.999 -0.000976562c67.333 208 101 326 101 354c0 8.66699 -4.66699 13 -14 13c-8 0 -18.833 -7.33301 -32.5 -22s-27.5 -33.667 -41.5 -57c-4.66699 -6.66699 -8 -10 -10 -10c-2.66699 0 -5.66699 1 -9 3c-6 3.33301 -9 6.66602 -9 9.99902c0 4 6 14.667 18 32
l25 37c15.333 22.667 34.5 42 57.5 58s43.5 24 61.5 24c16.667 0 29.667 -5.66699 39 -17s14 -27 14 -47c0 -23.333 -8.33301 -67.666 -25 -132.999c48.667 71.333 88.834 122.666 120.501 153.999s59.167 47 82.5 47c17.333 0 31.833 -6.83301 43.5 -20.5
s17.5 -30.5 17.5 -50.5c0 -28.667 -16.167 -82.5 -48.5 -161.5s-48.5 -120.167 -48.5 -123.5c0 -4 1.33301 -7.5 4 -10.5s6 -4.5 10 -4.5c3.33301 0 6.66602 1 9.99902 3s9.5 8.16699 18.5 18.5l39.5 47.5c8.66699 11.333 14 17 16 17c2.66699 0 6.33398 -1.5 11.001 -4.5
s7 -5.83301 7 -8.5c0 -5.33301 -10.667 -21 -32 -47c-57.333 -70.667 -105.333 -106 -144 -106c-12.667 0 -23.334 5 -32.001 15s-13 22.333 -13 37c0 24.667 17 78.334 51 161.001c36.667 90.667 55 141.334 55 152.001s-5.33301 16 -16 16
c-22 0 -61.667 -45.333 -119 -136c-44.667 -68.667 -81.334 -148.667 -110.001 -240z" />
    <glyph glyph-name="o" unicode="o" horiz-adv-x="451" 
d="M406 272c0 -37.333 -9.16699 -77.333 -27.5 -120s-45.5 -80.167 -81.5 -112.5s-74.667 -48.5 -116 -48.5c-93.333 0 -140 62.333 -140 187c0 69.333 22.5 131 67.5 185s96.5 81 154.5 81c39.333 0 73 -16.833 101 -50.5s42 -74.167 42 -121.5zM121 74
c0 -34.667 13.6689 -52.001 41.002 -52.001c11.333 0 24.666 7.66699 39.999 23s28.666 34.333 39.999 57c21.333 42.667 39.5 89.667 54.5 141s22.5 90.333 22.5 117c0 20.667 -3.5 35.834 -10.5 45.501s-15.167 14.5 -24.5 14.5c-18 0 -34.5 -10 -49.5 -30
s-30.5 -49.333 -46.5 -88c-44.667 -107.333 -67 -183.333 -67 -228z" />
    <glyph glyph-name="p" unicode="p" horiz-adv-x="515" 
d="M457 303c0 -38.667 -8.33301 -80.333 -25 -125s-42.167 -84.667 -76.5 -120s-72.166 -53 -113.499 -53c-20 0 -47 6.66699 -81 20l-38 -122c-5.33301 -16.667 -8 -35 -8 -55c0 -18.667 11.333 -28 34 -28h7c4 0 6 -1.66699 6 -5l-1 -26c0 -2.66699 -1.33301 -4 -4 -4
h-225c-4 0 -6 1.33301 -6 4v26c0 3.33301 1.33301 5 4 5h9c22.667 0 39.667 5.33301 51 16s22 33 32 67l143 466c-5.33301 -2.66699 -10.5 -5.83398 -15.5 -9.50098s-10.667 -8.66699 -17 -15l-14 -14c-3 -3 -8.33301 -9 -16 -18s-11.834 -13.833 -12.501 -14.5
c-6 -6 -10.667 -9 -14 -9c-2.66699 0 -5.5 1.33301 -8.5 4s-4.5 5.33398 -4.5 8.00098c0 4.66699 3 11.334 9 20.001c28.667 37.333 64.667 70.666 108 99.999l27 94c2.66699 7.33301 7 12.666 13 15.999l81 26c4 2 6.66699 3 8 3c4 0 6 -2.66699 6 -8
c0 -3.33301 -0.333008 -5.66602 -1 -6.99902l-25 -89c54 -1.33301 95.5 -15.333 124.5 -42s43.5 -63.667 43.5 -111zM274 406.001l-104.001 -345.999c16 -18.667 33.333 -28 52 -28c28 0 53 16.167 75 48.5s37.667 67.166 47 104.499s14 70 14 98
c0 41.333 -6.16699 71 -18.5 89s-34.166 29.333 -65.499 34z" />
    <glyph glyph-name="q" unicode="q" horiz-adv-x="451" 
d="M376 399l22.001 30c4.66699 6 8.33398 9 11.001 9c5.33301 0 12.166 -2.66699 20.499 -8s12.5 -9 12.5 -11c0 -3.33301 -0.666992 -6.66602 -2 -9.99902l-179 -506c-5.33301 -14.667 -8 -33 -8 -55c0 -18.667 11.333 -28 34 -28h7c4 0 6 -1.66699 6 -5l-1 -26
c0 -2.66699 -1.33301 -4 -4 -4h-225c-4 0 -6 1.33301 -6 4v26c0 3.33301 1.33301 5 4 5h9c22 0 38.333 5.33301 49 16s22 33 34 67l54 152c-36.667 -34 -70 -51 -100 -51c-25.333 0 -47.333 12.667 -66 38s-28 55.333 -28 90c0 42.667 11.167 88.167 33.5 136.5
s54.166 90.166 95.499 125.499s85 53 131 53c40.667 0 72.667 -16 96 -48zM224.001 109c24.667 40.667 49 87.5 73 140.5s36 95.5 36 127.5c0 11.333 -2.5 20.833 -7.5 28.5s-11.5 11.5 -19.5 11.5c-28.667 0 -72.667 -55.333 -132 -166
c-28.667 -53.333 -48.334 -92.833 -59.001 -118.5s-16 -47.5 -16 -65.5c0 -25.333 11 -38 33 -38c28.667 0 59.334 26.667 92.001 80z" />
    <glyph glyph-name="r" unicode="r" horiz-adv-x="451" 
d="M212 450c30.667 0 45.9951 -25.667 45.9951 -77c0 -28 -6 -66 -18 -114c67.333 127.333 125 191 173 191c16.667 0 30.334 -4.66699 41.001 -14s16 -21.333 16 -36s-5.5 -27.667 -16.5 -39s-23.5 -17 -37.5 -17c-8.66699 0 -15.167 1 -19.5 3s-10.5 7 -18.5 15
c-7.33301 7.33301 -13 11 -17 11c-9.33301 0 -18.666 -5 -27.999 -15s-22.333 -28.333 -39 -55c-61.333 -98 -103.666 -199 -126.999 -303h-98l50 172c2.66699 10 8.83398 30.5 18.501 61.5s16.834 55.667 21.501 74s7 31.5 7 39.5c0 16 -5 24 -15 24
c-9.33301 0 -20.833 -7.5 -34.5 -22.5s-24.5 -29.5 -32.5 -43.5c-8.66699 -15.333 -14.667 -23 -18 -23c-11.333 0 -17 4.33301 -17 13c0 8 9.66699 26.333 29 55c45.333 64.667 90 98 134 100z" />
    <glyph glyph-name="s" unicode="s" horiz-adv-x="386" 
d="M235 444c35.333 0 66.332 -8.16699 92.999 -24.5s40 -35.166 40 -56.499c0 -12 -3.83301 -22 -11.5 -30s-17.5 -12 -29.5 -12c-28 0 -46 19 -54 57c-3.33301 13.333 -7.83301 23.666 -13.5 30.999s-15.167 11 -28.5 11c-16 0 -30.167 -5.66699 -42.5 -17
s-18.5 -24.666 -18.5 -39.999c0 -6 1.16699 -12 3.5 -18s6 -12.167 11 -18.5l13 -16c3.66699 -4.33301 9 -10 16 -17s11.5 -11.833 13.5 -14.5c40 -44 66 -75.667 78 -95s18 -41 18 -65c0 -32.667 -17 -62.167 -51 -88.5s-71.667 -39.5 -113 -39.5
c-36 0 -68.5 9.66699 -97.5 29s-43.5 40.666 -43.5 63.999c0 11.333 3.5 20.666 10.5 27.999s16.167 11 27.5 11c23.333 0 41.333 -15.667 54 -47c4.66699 -11.333 9.16699 -20.5 13.5 -27.5s10.833 -13.833 19.5 -20.5s18.334 -10 29.001 -10c16 0 29.667 6.16699 41 18.5
s17 27.166 17 44.499c0 28 -26.333 72 -79 132c-24 26.667 -39.833 47.334 -47.5 62.001s-11.5 31.334 -11.5 50.001c0 36 13 64.833 39 86.5s60.667 32.5 104 32.5z" />
    <glyph glyph-name="t" unicode="t" horiz-adv-x="310" 
d="M93 450l57.999 -0.000976562l22 69c2.66699 7.33301 7 12.666 13 15.999l91 45c4 2 6.66699 3 8 3c4 0 6 -2.66699 6 -8c0 -3.33301 -0.333008 -5.66602 -1 -6.99902l-35 -118h72c5.33301 0 8 -2.33301 8 -7l-6 -27c-0.666992 -4.66699 -2 -7.66699 -4 -9
s-5.66699 -2 -11 -2h-72l-71 -229c-16 -51.333 -24 -83 -24 -95c0 -4 1.5 -7.33301 4.5 -10s6.16699 -4 9.5 -4c9.33301 0 21.833 9.33301 37.5 28s29.5 38.667 41.5 60c2.66699 4.66699 5.33398 7 8.00098 7c12 0 18 -3.66699 18 -11c0 -3.33301 -11.333 -23 -34 -59
c-44.667 -68 -89.667 -102 -135 -102c-16 0 -28.667 5.5 -38 16.5s-14 25.167 -14 42.5c0 16.667 3.66699 38.334 11 65.001l83 291h-59c-5.33301 0 -8 2.33301 -8 7l6 27c0.666992 4.66699 2 7.66699 4 9s5.66699 2 11 2z" />
    <glyph glyph-name="u" unicode="u" horiz-adv-x="578" 
d="M519 432c-66.667 -201.333 -99.9961 -317.332 -99.9961 -347.999c0 -8.66699 4 -13 12 -13c13.333 0 37.666 26 72.999 78c5.33301 7.33301 9 11 11 11c3.33301 0 7.16602 -1.5 11.499 -4.5s6.5 -5.5 6.5 -7.5c0 -1.33301 -2 -5.66602 -6 -12.999
c-15.333 -28.667 -32.666 -54 -51.999 -76c-39.333 -44.667 -73.666 -67 -102.999 -67c-32 0 -48 23.333 -48 70c0 27.333 8 71.666 24 132.999c-46.667 -72 -85.834 -124.167 -117.501 -156.5s-63.5 -48.5 -95.5 -48.5c-19.333 0 -35 6.5 -47 19.5s-18 29.833 -18 50.5
c0 27.333 16.333 81 49 161s49 123.667 49 131c0 5.33301 -4.66699 8 -14 8c-6.66699 0 -14 -4 -22 -12s-23 -25.333 -45 -52c-7.33301 -9.33301 -12.333 -14 -15 -14s-6 2 -10 6s-6 7.33301 -6 10c0 6 18.667 29.667 56 71c17.333 20.667 37.666 38 60.999 52
s42.666 21 57.999 21c14 0 25 -5 33 -15s12 -23.333 12 -40c0 -20 -16.667 -72.667 -50 -158l-19.5 -49c-7.66699 -19.333 -13.834 -34.333 -18.501 -45s-8.66699 -21.5 -12 -32.5s-5 -19.167 -5 -24.5c0 -12.667 5.33301 -19 16 -19c12.667 0 27 7.16699 43 21.5
s29.833 29.666 41.5 45.999s26.167 37.833 43.5 64.5c42.667 66.667 78 147 106 241h98z" />
    <glyph glyph-name="v" unicode="v" horiz-adv-x="474" 
d="M278 442c-86.667 -137.333 -130.002 -235.001 -130.002 -293.001c0 -20 6.5 -37.167 19.5 -51.5s29.167 -21.5 48.5 -21.5c40.667 4.66699 79 30.167 115 76.5s54 91.166 54 134.499c0 18.667 -5.66699 37.334 -17 56.001l-14 19c-10 12.667 -15 28 -15 46
c0 14.667 4.33301 26.167 13 34.5s20.667 12.5 36 12.5c20.667 0 37.667 -9.16699 51 -27.5s20 -41.5 20 -69.5c0 -40 -17.167 -89.333 -51.5 -148s-76 -110 -125 -154s-92.167 -66 -129.5 -66c-29.333 0 -53.666 11.667 -72.999 35s-29 52.333 -29 87
c0 12 1.16699 23.833 3.5 35.5s6.66602 23.834 12.999 36.501l16.5 32.5c4.66699 9 12.334 20.5 23.001 34.5l23.5 31c5 6.66699 13.833 17.667 26.5 33l25 30c3.33301 3.33301 5 6 5 8c0 3.33301 -3.66699 5.33301 -11 6c-7.33301 1.33301 -20.333 8.33301 -39 21
c-16 11.333 -27.667 17 -35 17c-9.33301 0 -14 -6.33301 -14 -19c0 -4 1.66699 -10 5 -18c8.66699 -17.333 13 -28.333 13 -33c0 -10 -3 -18.667 -9 -26s-13.333 -11 -22 -11c-11.333 0 -20.833 5.5 -28.5 16.5s-11.5 24.5 -11.5 40.5c0 28 11.5 51.5 34.5 70.5
s51.5 28.5 85.5 28.5c8.66699 0 21.834 -0.833008 39.501 -2.5s30.167 -2.5 37.5 -2.5c20 0 35.333 0.333008 46 1z" />
    <glyph glyph-name="w" unicode="w" horiz-adv-x="732" 
d="M286 139c0 94 24.6689 174.332 74.002 240.999c33.333 44.667 68 67 104 67c38 0 57 -24.667 57 -74c0 -31.333 -12.333 -69.5 -37 -114.5s-56.334 -88.167 -95.001 -129.5c14 -42 40.667 -63 80 -63c18.667 0 38.834 6 60.501 18s39.5 27 53.5 45
c36.667 48 55 86.667 55 116c0 12 -4 29 -12 51l-17 42c-6.66699 18.667 -10 36.334 -10 53.001c0 18.667 4.83301 34.167 14.5 46.5s21.834 18.5 36.501 18.5c20.667 0 37 -8.16699 49 -24.5s18 -38.833 18 -67.5c0 -32 -8.83301 -69.5 -26.5 -112.5
s-40.334 -83.833 -68.001 -122.5s-60.5 -71.5 -98.5 -98.5s-75 -40.5 -111 -40.5c-50.667 0 -86.667 20.667 -108 62c-54.667 -41.333 -103.334 -62 -146.001 -62c-36.667 0 -65 9.83301 -85 29.5s-30 47.834 -30 84.501c0 28.667 7.5 56.334 22.5 83.001
s39.667 58.667 74 96s55.5 61.333 63.5 72c-19.333 4 -38 13.333 -56 28c-10.667 9.33301 -20.334 14 -29.001 14c-12 0 -18 -5.33301 -18 -16c0 -2.66699 1.66699 -7.33398 5 -14.001c9.33301 -14.667 14 -30.667 14 -48c0 -26 -13.667 -39 -41 -39
c-13.333 0 -24 4.16699 -32 12.5s-12 19.833 -12 34.5c0 34.667 12.333 63.5 37 86.5s55.334 34.5 92.001 34.5c10 0 25.5 -1.66699 46.5 -5s37.167 -5 48.5 -5c14 0 28.333 1.66699 43 5c-6.66699 -15.333 -23.834 -41.333 -51.501 -78s-51.334 -74.334 -71.001 -113.001
s-29.5 -76 -29.5 -112c0 -24.667 5.5 -44.667 16.5 -60s25.167 -23 42.5 -23c26.667 0 54.334 9 83.001 27c-4 16 -6 34.333 -6 55zM374.002 269.999c0 -41.333 2 -75.332 6 -101.999c46.667 60 70 116.667 70 170c0 11.333 -3.5 20.666 -10.5 27.999s-15.833 11 -26.5 11
c-26 0 -39 -35.667 -39 -107z" />
    <glyph glyph-name="x" unicode="x" horiz-adv-x="515" 
d="M311 248l18.002 -114c4 -25.333 8 -42.666 12 -51.999s9.33301 -14 16 -14c15.333 0 30 15 44 45l16 36c2.66699 6.66699 5.33398 10 8.00098 10c12.667 0 19 -4 19 -12c0 -18.667 -15.333 -51.334 -46 -98.001c-27.333 -39.333 -53.666 -59 -78.999 -59
s-44.333 12.167 -57 36.5s-22.334 60.5 -29.001 108.5l-48 -63c-28 -36.667 -47.667 -59.834 -59 -69.501s-26.333 -14.5 -45 -14.5c-16.667 0 -30.5 7 -41.5 21s-16.5 31.667 -16.5 53c0 16.667 5.33301 40 16 70c4.66699 14.667 9 22 13 22
c1.33301 0 4.66602 -1.16699 9.99902 -3.5s8 -3.83301 8 -4.5c0 -2 -0.666992 -5.33301 -2 -10s-2 -8 -2 -10c-3.33301 -21.333 -5 -34.666 -5 -39.999c0 -31.333 11.667 -47 35 -47c9.33301 0 19.333 5 30 15s26.334 29.333 47.001 58l51 69l-18 113
c-8.66699 53.333 -19.334 80 -32.001 80c-14.667 0 -33 -26.667 -55 -80c-2.66699 -7.33301 -5.33398 -11 -8.00098 -11c-14.667 0 -22 3.66699 -22 11c0 2 1.33301 5.33301 4 10s4 7.33398 4 8.00098c20 45.333 39.667 78.666 59 99.999s39.666 32 60.999 32
c22.667 0 42.5 -15.667 59.5 -47s25.5 -66 25.5 -104l51.5 73c11.667 16 27 32 46 48s36.167 24 51.5 24s27.333 -5.66699 36 -17s13 -26.333 13 -45c0 -10.667 -1.66699 -35 -5 -73c-0.666992 -6.66699 -1.66699 -11 -3 -13s-4.66602 -3 -9.99902 -3
c-6.66699 0 -10.834 1.5 -12.501 4.5s-2.5 11.167 -2.5 24.5v20c0 30.667 -9.66699 46 -29 46c-18 0 -35.5 -9.66699 -52.5 -29s-41.833 -54.333 -74.5 -105z" />
    <glyph glyph-name="y" unicode="y" horiz-adv-x="470" 
d="M200 -41c-8.66699 128 -34.667 260.669 -78 398.002c-4.66699 16 -9 26.833 -13 32.5s-9 8.5 -15 8.5c-12.667 0 -27 -17.333 -43 -52c-7.33301 -16.667 -13.333 -25 -18 -25c-3.33301 0 -6.83301 1.33301 -10.5 4s-5.5 5.66699 -5.5 9c0 20 12.667 47.667 38 83
c26 36 54.667 54 86 54c29.333 0 50.666 -12.333 63.999 -37c30 -58 57 -171 81 -339c20 34 37.667 71.167 53 111.5s23 72.166 23 95.499c0 12 -2 22.667 -6 32s-13 23.666 -27 42.999c-11.333 16 -17 32.333 -17 49c0 14.667 4.33301 26.834 13 36.501
s19.334 14.5 32.001 14.5c18.667 0 33.667 -7.83301 45 -23.5s17 -36.5 17 -62.5c0 -87.333 -48.667 -213.333 -146 -378c-42.667 -72.667 -89.667 -131.667 -141 -177s-99 -68 -143 -68c-18.667 0 -34 4.66699 -46 14s-18 21.666 -18 36.999s4.16699 27.5 12.5 36.5
s19.5 13.5 33.5 13.5c6.66699 0 27 -7.66699 61 -23c14.667 -6.66699 25 -10 31 -10c19.333 0 43 14 71 42s50 55 66 81z" />
    <glyph glyph-name="z" unicode="z" horiz-adv-x="515" 
d="M184 132c16.667 -5.33301 41.4951 -19.999 74.4951 -43.999s54.5 -36 64.5 -36s18 2.66699 24 8s9 12.333 9 21c0 13.333 -6.33301 25.333 -19 36c-21.333 18.667 -32 33.667 -32 45c0 10.667 3.83301 20 11.5 28s16.167 12 25.5 12c15.333 0 29.5 -8.16699 42.5 -24.5
s19.5 -34.166 19.5 -53.499c0 -38.667 -14 -69.667 -42 -93s-65 -35 -111 -35c-16 0 -33.833 5.16699 -53.5 15.5s-37.167 23.5 -52.5 39.5c-14 15.333 -24.333 23 -31 23c-6 0 -11 -2.83301 -15 -8.5s-9 -17.5 -15 -35.5c-10 -27.333 -23.333 -41 -40 -41
c-7.33301 0 -13.666 2.66699 -18.999 8s-8 12 -8 20c0 7.33301 2.33301 14.333 7 21s15 16.334 31 29.001l257 215c7.33301 6 11 10.667 11 14s-3 6.66602 -9 9.99902c-9.33301 6.66699 -22 18.334 -38 35.001s-30.667 29.667 -44 39s-26.666 14 -39.999 14
c-11.333 0 -20.333 -2.83301 -27 -8.5s-10 -12.834 -10 -21.501s6 -17.334 18 -26.001c16 -12 24 -23.333 24 -34c0 -11.333 -3.83301 -20.5 -11.5 -27.5s-17.834 -10.5 -30.501 -10.5s-22.667 5.33301 -30 16s-11 25 -11 43c0 34.667 11.333 63.167 34 85.5
s51.334 33.5 86.001 33.5c40.667 0 96.667 -22 168 -66c2.66699 -2 6.33398 -3 11.001 -3c4 0 6.83301 1 8.5 3s3.83398 6.66699 6.50098 14c12.667 36.667 26.667 55 42 55c6.66699 0 12.5 -2.5 17.5 -7.5s7.5 -11.167 7.5 -18.5c0 -10.667 -6.66699 -22.834 -20 -36.501
s-44.666 -41.5 -93.999 -83.5z" />
    <glyph glyph-name="braceleft" unicode="{" horiz-adv-x="290" 
d="M-16 218l-0.00585938 11.999c0 3.33301 3 5 9 5c20 0 40.333 10.333 61 31s35.334 45.334 44.001 74.001c12.667 43.333 19 100 19 170c0 24 3.66699 48.667 11 74c11.333 38 38.833 70.667 82.5 98s90.834 41 141.501 41h13c6 0 9 -1.66699 9 -5l-1 -13
c0 -3.33301 -2.66699 -5 -8 -5h-20c-23.333 0 -45.166 -10 -65.499 -30s-34.833 -45 -43.5 -75c-7.33301 -24.667 -11.166 -61.334 -11.499 -110.001s-6.5 -93.667 -18.5 -135c-7.33301 -26 -26.833 -51.167 -58.5 -75.5s-65.834 -41.166 -102.501 -50.499
c26.667 -7.33301 48.5 -20.833 65.5 -40.5s25.5 -40.834 25.5 -63.501c0 -8 -1 -15.333 -3 -22c-11.333 -40 -30.666 -84.333 -57.999 -133s-44.666 -86 -51.999 -112c-4 -14 -6 -27.333 -6 -40c0 -19.333 4.83301 -35 14.5 -47s23.167 -18 40.5 -18h12
c6.66699 0 10 -1.66699 10 -5v-13c0 -3.33301 -3 -5 -9 -5h-20c-43.333 0 -78.666 10.333 -105.999 31s-41 46.667 -41 78c0 11.333 1.33301 21.333 4 30c6.66699 23.333 23.5 59 50.5 107s46.5 93.667 58.5 137c4.66699 14.667 7 29.334 7 44.001
c0 18.667 -4 33.5 -12 44.5s-19 16.5 -33 16.5c-6 0 -9 1.66699 -9 5z" />
    <glyph glyph-name="bar" unicode="|" horiz-adv-x="538" 
d="M239 780h60v-1076h-60v1076z" />
    <glyph glyph-name="braceright" unicode="}" horiz-adv-x="290" 
d="M308 230l0.00585938 -11.999c0 -3.33301 -3 -5 -9 -5c-20 0 -40.333 -10.333 -61 -31s-35.334 -45.334 -44.001 -74.001c-12.667 -43.333 -19 -100 -19 -170c0 -24 -3.66699 -48.667 -11 -74c-11.333 -38 -38.833 -70.667 -82.5 -98s-90.834 -41 -141.501 -41h-13
c-6 0 -9 1.66699 -9 5l1 13c0 3.33301 2.66699 5 8 5h20c23.333 0 45.166 10 65.499 30s34.833 45 43.5 75c7.33301 24.667 11.166 61.334 11.499 110.001s6.5 93.667 18.5 135c7.33301 26 26.833 51.167 58.5 75.5s65.834 41.166 102.501 50.499
c-26.667 7.33301 -48.5 20.833 -65.5 40.5s-25.5 40.834 -25.5 63.501c0 8 1 15.333 3 22c11.333 40 30.666 84.333 57.999 133s44.666 86 51.999 112c4 14 6 27.333 6 40c0 19.333 -4.83301 35 -14.5 47s-23.167 18 -40.5 18h-12c-6.66699 0 -10 1.66699 -10 5v13
c0 3.33301 3 5 9 5h20c43.333 0 78.666 -10.333 105.999 -31s41 -46.667 41 -78c0 -11.333 -1.33301 -21.333 -4 -30c-6.66699 -23.333 -23.5 -59 -50.5 -107s-46.5 -93.667 -58.5 -137c-4.66699 -14.667 -7 -29.334 -7 -44.001c0 -18.667 4 -33.5 12 -44.5
s19 -16.5 33 -16.5c6 0 9 -1.66699 9 -5z" />
    <glyph glyph-name="asciitilde" unicode="~" horiz-adv-x="538" 
d="M71 291l-44.002 45.999c48 48 90.667 72 128 72c36 0 80 -12.667 132 -38c34.667 -18 61.334 -27 80.001 -27c20.667 0 48 17.667 82 53l46 -45c-49.333 -47.333 -92 -71 -128 -71c-38 0 -82.333 12 -133 36c-3.33301 1.33301 -8.66602 3.83301 -15.999 7.5
s-13 6.33398 -17 8.00098l-14.5 6c-5.66699 2.33301 -11.167 4 -16.5 5s-10.333 1.5 -15 1.5c-20 0 -48 -18 -84 -54z" />
    <glyph glyph-name="uni00A0" unicode="&#xa0;" horiz-adv-x="0" 
 />
    <glyph glyph-name="exclamdown" unicode="&#xa1;" horiz-adv-x="386" 
d="M255 259l-19 -64.998c-19.333 -66.667 -32.333 -135.334 -39 -206.001l-8 -71c-6.66699 -64.667 -17.334 -111.334 -32.001 -140.001s-35.667 -43 -63 -43c-17.333 0 -31.5 6.5 -42.5 19.5s-16.5 29.167 -16.5 48.5c0 36.667 21 90.667 63 162
c32.667 55.333 55.334 97.333 68.001 126c24 58 43.667 116.333 59 175zM336 380.002c0 -18.667 -6.16699 -34.5 -18.5 -47.5s-27.833 -19.5 -46.5 -19.5s-34.334 6.5 -47.001 19.5s-19 28.833 -19 47.5s6.33301 34.334 19 47.001s28.334 19 47.001 19
s34.167 -6.33301 46.5 -19s18.5 -28.334 18.5 -47.001z" />
    <glyph glyph-name="cent" unicode="&#xa2;" 
d="M148 -77l47.999 167c-30.667 3.33301 -56.334 17.166 -77.001 41.499s-31 52.833 -31 85.5c0 73.333 26 144.833 78 214.5s106.333 109.5 163 119.5l41 143c0.666992 4 3.66699 6 9 6h28c6 0 9 -2.66699 9 -8l-41 -141c28 -4.66699 51.833 -15 71.5 -31
s29.5 -34 29.5 -54c0 -14 -4.5 -25.5 -13.5 -34.5s-19.833 -13.5 -32.5 -13.5c-26.667 0 -46.667 21.333 -60 64c-4.66699 14 -7.33398 21.667 -8.00098 23l-102 -353h8c12.667 0 26.334 5.5 41.001 16.5s26.834 22.333 36.501 34s23.167 29.167 40.5 52.5
c4 5.33301 8.33301 8 13 8s9.33398 -2.16699 14.001 -6.5s7 -8.83301 7 -13.5l-10 -18c-18.667 -30.667 -42.667 -58.667 -72 -84s-61 -41.666 -95 -48.999l-49 -171c-0.666992 -4 -3.66699 -6 -9 -6h-28c-6 0 -9 2.66699 -9 8zM204.999 215
c0 -20.667 4.66699 -35.6689 14 -45.002l98 341c-24 -21.333 -48.667 -64.166 -74 -128.499s-38 -120.166 -38 -167.499z" />
    <glyph glyph-name="sterling" unicode="&#xa3;" 
d="M397 320l-113.999 0.000976562v-9c0 -78.667 -23.333 -148 -70 -208c36 -12 66.667 -18 92 -18c48 0 83.5 6.66699 106.5 20s39.833 38.333 50.5 75c2 6.66699 7 10 15 10c6 0 9 -3.33301 9 -10c-0.666992 -56.667 -20.334 -105 -59.001 -145s-85 -60 -139 -60
c-14.667 0 -30.834 4 -48.501 12s-31.834 15.833 -42.501 23.5s-25.667 19.167 -45 34.5c-43.333 -30 -91 -45 -143 -45c-16.667 0 -30.667 5 -42 15s-17 22.333 -17 37c0 25.333 10.333 47.166 31 65.499s45.334 27.5 74.001 27.5c24.667 0 58 -7 100 -21
c17.333 36 26 74.333 26 115c0 21.333 -3 48.333 -9 81h-90c-3.33301 0 -5 1.33301 -5 4v31c0 3.33301 1.66699 5 5 5h82c-11.333 58 -17 98 -17 120c0 50 21.667 94.167 65 132.5s91.666 57.5 144.999 57.5c40.667 0 75.334 -11.333 104.001 -34s43 -50 43 -82
c0 -20 -5.66699 -37 -17 -51s-25 -21 -41 -21c-13.333 0 -24.666 4.5 -33.999 13.5s-14 20.5 -14 34.5c0 21.333 9.66699 41 29 59c6.66699 4.66699 10 10 10 16c0 10 -8.5 18.5 -25.5 25.5s-37.5 10.5 -61.5 10.5c-30.667 0 -55.167 -12.5 -73.5 -37.5
s-27.5 -56.167 -27.5 -93.5c0 -15.333 4.33301 -40.833 13 -76.5s14 -60.167 16 -73.5h119c3.33301 0 5 -1.33301 5 -4v-31c0 -3.33301 -1.66699 -5 -5 -5zM21.001 25.001c37.333 0 70.3311 15.334 98.998 46.001c-32 22.667 -59 34 -81 34
c-17.333 0 -32.166 -4.33301 -44.499 -13s-18.5 -19.334 -18.5 -32.001c0 -9.33301 4.33301 -17.5 13 -24.5s19.334 -10.5 32.001 -10.5z" />
    <glyph glyph-name="currency" unicode="&#xa4;" 
d="M34 486l38 35l49 -49c27.333 16.667 49.5 27.667 66.5 33s37.833 8 62.5 8c25.333 0 46.5 -2.83301 63.5 -8.5s38.833 -16.834 65.5 -33.501l49 48l37 -37l-46 -45c16.667 -24.667 27.667 -45.667 33 -63s8 -39 8 -65c0 -26.667 -2.83301 -48.667 -8.5 -66
s-17.5 -39.666 -35.5 -66.999l47 -47l-36 -36l-47 47c-26 -19.333 -47.667 -32 -65 -38s-40.333 -9 -69 -9c-26.667 0 -48.667 3 -66 9s-39 18.667 -65 38l-46 -44l-35 35l44 45c-16 27.333 -26.667 49.5 -32 66.5s-8 36.833 -8 59.5c0 24 3.16699 45 9.5 63
s18.5 41.333 36.5 70zM408 309c0 42 -16.499 77.999 -49.499 107.999s-72.833 45 -119.5 45c-40.667 0 -75.334 -15.833 -104.001 -47.5s-43 -68.834 -43 -111.501c0 -43.333 14.833 -80.166 44.5 -110.499s65.5 -45.5 107.5 -45.5c45.333 0 84 15.833 116 47.5
s48 69.834 48 114.501z" />
    <glyph glyph-name="yen" unicode="&#xa5;" 
d="M464 335l-132.998 0.000976562c-11.333 -16 -19.333 -32.667 -24 -50l-3 -10h131c3.33301 0 5 -1.33301 5 -4v-31c0 -3.33301 -1.66699 -5 -5 -5h-142l-34 -117c-5.33301 -20 -8 -35 -8 -45c0 -14.667 4.66699 -24.667 14 -30s24.333 -8 45 -8h12c4 0 6 -1.66699 6 -5
v-26c0 -2.66699 -1.66699 -4 -5 -4h-286c-2.66699 0 -4.33398 1.33301 -5.00098 4v26c0 3.33301 1.33301 5 4 5h14c28.667 0 49.834 5.5 63.501 16.5s25.5 33.167 35.5 66.5l34 117h-133c-3.33301 0 -5 1.33301 -5 4v31c0 3.33301 1.66699 5 5 5h144l4 12
c3.33301 12.667 5.66602 28.667 6.99902 48h-126c-3.33301 0 -5 1.33301 -5 4v31c0 3.33301 1.66699 5 5 5h116l-85 225c-8.66699 23.333 -21 35 -37 35h-18c-4 0 -6 1.66699 -6 5v26c0 2.66699 1.66699 4 5 4h234c3.33301 0 5 -1.33301 5 -4v-26
c0 -3.33301 -1.33301 -5 -4 -5h-14c-8.66699 0 -15.5 -0.333008 -20.5 -1s-9.83301 -3.33398 -14.5 -8.00098s-7 -11.667 -7 -21c0 -6.66699 1.66699 -16.667 5 -30l76 -181c2 -4 4.66699 -6 8 -6s7 3 11 9l104 128c40 50 60 81.667 60 95c0 10 -11 15 -33 15h-18
c-4 0 -6 1.66699 -6 5v26c0 2.66699 1.66699 4 5 4h190c3.33301 0 5 -1.33301 5 -4v-26c0 -3.33301 -1.33301 -5 -4 -5c-26.667 0 -50.334 -8.16699 -71.001 -24.5s-45.667 -42.833 -75 -79.5l-127 -156h101c3.33301 0 5 -1.33301 5 -4v-31c0 -3.33301 -1.66699 -5 -5 -5z
" />
    <glyph glyph-name="brokenbar" unicode="&#xa6;" horiz-adv-x="538" 
d="M249 796h39v-506h-39v506zM249 247h39v-527h-39v527z" />
    <glyph glyph-name="section" unicode="&#xa7;" 
d="M455 270c0 -39.333 -12.1641 -72.333 -36.4971 -99s-56.5 -45.667 -96.5 -57l-3 -1l1 -1c0 -0.666992 0.333008 -1.5 1 -2.5s1.33398 -2.16699 2.00098 -3.5c12 -22.667 18 -48.667 18 -78c0 -39.333 -18.333 -72.833 -55 -100.5s-80.667 -41.5 -132 -41.5
c-46.667 0 -86.334 11.833 -119.001 35.5s-49 52.5 -49 86.5c0 17.333 4.66699 31.833 14 43.5s20.666 17.5 33.999 17.5c11.333 0 20.666 -3.33301 27.999 -10s11 -15 11 -25c0 -8 -2.33301 -16.667 -7 -26c-5.33301 -10.667 -8 -19 -8 -25c0 -18.667 9.16699 -35 27.5 -49
s40.5 -21 66.5 -21c30 0 54.5 9.5 73.5 28.5s28.5 42.167 28.5 69.5c0 23.333 -6 45 -18 65s-26.5 37.5 -43.5 52.5l-51.5 45.5c-17.333 15.333 -32 33.333 -44 54s-18 43.334 -18 68.001c0 38.667 14.5 72 43.5 100s64.833 43.333 107.5 46c-10.667 16 -18 27.5 -22 34.5
s-7.5 15.5 -10.5 25.5s-4.5 22 -4.5 36c0 35.333 15.167 65.666 45.5 90.999s67.5 38 111.5 38c42 0 77.833 -9.5 107.5 -28.5s44.5 -42.167 44.5 -69.5c0 -15.333 -4.16699 -28 -12.5 -38s-19.166 -15 -32.499 -15c-10.667 0 -19.667 3.16699 -27 9.5s-11 14.833 -11 25.5
c0 5.33301 1.83301 13.333 5.5 24s5.5 19 5.5 25c0 10.667 -7.66699 20 -23 28s-33.333 12 -54 12c-24.667 0 -44.834 -8.16699 -60.501 -24.5s-23.5 -35.5 -23.5 -57.5c0 -13.333 6.33301 -27.666 19 -42.999s28.167 -30.833 46.5 -46.5s36.666 -32.667 54.999 -51
s33.833 -40.333 46.5 -66s19 -52.834 19 -81.501zM378.003 244c0 14 -2.16699 27.168 -6.5 39.501s-11.333 24.666 -21 36.999s-18.167 22.333 -25.5 30s-18.5 18.334 -33.5 32.001l-31.5 28.5c-9.33301 1.33301 -17 2 -23 2c-24.667 0 -46.167 -9.16699 -64.5 -27.5
s-27.5 -38.833 -27.5 -61.5c0 -20.667 9.5 -41.334 28.5 -62.001s42.167 -42.334 69.5 -65.001s46 -41.334 56 -56.001c23.333 6.66699 42.333 19.834 57 39.501s22 40.834 22 63.501z" />
    <glyph glyph-name="dieresis" unicode="&#xa8;" horiz-adv-x="451" 
d="M170 627c0 18 6.16699 33.333 18.5 46s27.5 19 45.5 19s33.333 -6.33301 46 -19s19 -28 19 -46s-6.33301 -33.167 -19 -45.5s-28 -18.5 -46 -18.5s-33.167 6.16699 -45.5 18.5s-18.5 27.5 -18.5 45.5zM370 627c0 18 6.16699 33.333 18.5 46s27.5 19 45.5 19
s33.333 -6.33301 46 -19s19 -28 19 -46s-6.33301 -33.167 -19 -45.5s-28 -18.5 -46 -18.5s-33.167 6.16699 -45.5 18.5s-18.5 27.5 -18.5 45.5z" />
    <glyph glyph-name="copyright" unicode="&#xa9;" horiz-adv-x="816" 
d="M505 573c20 0 37.001 -3.16602 51.001 -9.49902s29.667 -16.5 47 -30.5c2 -2 4.66699 -3 8 -3c1.33301 0 5.33301 3.33301 12 10c5.33301 5.33301 10 8 14 8c4.66699 0 7 -4.33301 7 -13c0 -3.33301 -1.33301 -9 -4 -17l-24 -84c-4 -10 -8.33301 -15 -13 -15
c-6.66699 0 -10 5.66699 -10 17c0 31.333 -8.83301 57 -26.5 77s-38.834 30 -63.501 30c-39.333 0 -77.666 -26 -114.999 -78s-56 -107 -56 -165c0 -41.333 8.16699 -73.5 24.5 -96.5s36.5 -34.5 60.5 -34.5c26 0 52.833 10.667 80.5 32s48.834 46.666 63.501 75.999
c3.33301 8 7.66602 12 12.999 12s8 -4.33301 8 -13c0 -3.33301 -1 -8 -3 -14l-33 -93c-4 -11.333 -7.33301 -19 -10 -23s-6.33398 -6 -11.001 -6s-7 5 -7 15c0 6 -2 9 -6 9c-5.33301 0 -11 -1.66699 -17 -5c-29.333 -14.667 -62 -22 -98 -22c-43.333 0 -77 13.333 -101 40
s-36 63 -36 109c0 80 24.833 147.833 74.5 203.5s106.5 83.5 170.5 83.5zM367.001 -8.99902c-79.333 0 -146.834 30.168 -202.501 90.501s-83.5 133.166 -83.5 218.499c0 74 20 142.5 60 205.5s94.5 112.833 163.5 149.5s144.167 55 225.5 55
c82.667 0 153.167 -30 211.5 -90s87.5 -132.333 87.5 -217c0 -113.333 -45.167 -210.333 -135.5 -291s-199.166 -121 -326.499 -121zM529 686.002c-102 0 -188.999 -41.999 -260.999 -125.999s-108 -185.333 -108 -304c0 -66.667 20.667 -123.667 62 -171s91 -71 149 -71
c104 0 192.833 42.5 266.5 127.5s110.5 187.5 110.5 307.5c0 65.333 -21.333 121.166 -64 167.499s-94.334 69.5 -155.001 69.5z" />
    <glyph glyph-name="ordfeminine" unicode="&#xaa;" horiz-adv-x="345" 
d="M380 722c-2 -6.66699 -9.66504 -30.666 -22.998 -71.999l-35 -112.5c-10 -33.667 -15 -54.5 -15 -62.5c0 -3.33301 1.66699 -5.66602 5 -6.99902c7.33301 0.666992 21.666 17 42.999 49c3.33301 4.66699 7 7 11 7c8.66699 0 13 -4 13 -12
c0 -10.667 -14 -29.834 -42 -57.501s-49.333 -41.5 -64 -41.5c-20.667 0 -31 12.333 -31 37c0 19.333 2.66699 39.666 8 60.999c-15.333 -24 -34.333 -46.333 -57 -67s-44.334 -31 -65.001 -31c-20 0 -35.667 7.5 -47 22.5s-17 33.167 -17 54.5
c0 46.667 20.833 96.167 62.5 148.5s85.5 78.5 131.5 78.5c24 0 48 -8.66699 72 -26l24 31h26zM160.002 462.001c14.667 0 34.999 15.501 60.999 46.501s41.333 54.833 46 71.5l27 89c-5.33301 14.667 -13.333 22 -24 22c-22 0 -49.833 -27.333 -83.5 -82
s-50.5 -94.667 -50.5 -120c0 -6.66699 2.33301 -12.834 7 -18.501s10.334 -8.5 17.001 -8.5zM50.001 360.002v40h275v-40h-275z" />
    <glyph glyph-name="guillemotleft" unicode="&#xab;" horiz-adv-x="515" 
d="M291 256c-8.66699 -4 -13.001 -9 -13.001 -15c0 -4.66699 2 -9 6 -13l98 -94c11.333 -12 17 -26.333 17 -43c0 -15.333 -4.66699 -28.5 -14 -39.5s-20.666 -16.5 -33.999 -16.5c-15.333 0 -27.833 4.16699 -37.5 12.5s-16.167 19.166 -19.5 32.499l-35 141
c-1.33301 9.33301 -2 15.666 -2 18.999c0 8.66699 2.33301 15.334 7 20.001l125 142c17.333 24 38.333 36 63 36c12.667 0 23.5 -4.83301 32.5 -14.5s13.5 -21.167 13.5 -34.5c0 -21.333 -14.667 -40.666 -44 -57.999zM75.999 256c-8.66699 -4 -13 -9.00098 -13 -15.001
c0 -4.66699 2 -9 6 -13l98 -94c11.333 -12 17 -26.333 17 -43c0 -15.333 -4.83301 -28.5 -14.5 -39.5s-21.167 -16.5 -34.5 -16.5c-30 0 -49 15 -57 45l-34 141c-1.33301 9.33301 -2 15.666 -2 18.999c0 8.66699 2.33301 15.334 7 20.001l125 142c17.333 24 38.333 36 63 36
c12.667 0 23.5 -4.83301 32.5 -14.5s13.5 -21.167 13.5 -34.5c0 -21.333 -14.667 -40.666 -44 -57.999z" />
    <glyph glyph-name="logicalnot" unicode="&#xac;" horiz-adv-x="538" 
d="M38 329v62h463v-264h-64v202h-399z" />
    <glyph glyph-name="registered" unicode="&#xae;" horiz-adv-x="518" 
d="M244 397l56 197c0 5.33301 -3 8 -9 8h-11c-6 0 -9 3.33301 -9 10c0 6 3 9 9 9h91c26.667 0 47.5 -5.83301 62.5 -17.5s22.5 -26.834 22.5 -45.501s-7.33301 -34.167 -22 -46.5s-33.667 -20.166 -57 -23.499l18.5 -41.5c8.33301 -19 13.5 -30.5 15.5 -34.5
c9.33301 -18 21 -27 35 -27c6 0 9 -3 9 -9s-3 -9 -9 -9h-54c-6 0 -10.333 3.33301 -13 10l-46 102c-0.666992 2 -2 3 -4 3h-16l-25 -88l-1 -4c0 -3.33301 3 -5 9 -5h20c5.33301 0 8 -3 8 -9s-2.66699 -9 -8 -9h-96c-5.33301 0 -8 3 -8 9s3.66699 9 11 9
c10.667 0 17.667 4 21 12zM342 587l-24 -85h22c22 0 39.667 4.83301 53 14.5s20 22.167 20 37.5c0 32 -16 48 -48 48c-9.33301 0 -17 -5 -23 -15zM303 275c-47.333 0 -87.999 18.333 -121.999 55s-51 80.667 -51 132c0 67.333 26.667 124.833 80 172.5
s117.666 71.5 192.999 71.5c48.667 0 90 -17.667 124 -53s51 -78 51 -128c0 -69.333 -26.833 -128.333 -80.5 -177s-118.5 -73 -194.5 -73zM403.001 691c-62.667 0 -116 -25.001 -160 -75.001s-66 -110.667 -66 -182c0 -40 12.5 -74.167 37.5 -102.5
s55.167 -42.5 90.5 -42.5c62 0 115 25.833 159 77.5s66 113.834 66 186.501c0 38 -12.5 70.5 -37.5 97.5s-54.833 40.5 -89.5 40.5z" />
    <glyph glyph-name="macron" unicode="&#xaf;" horiz-adv-x="451" 
d="M191 609l5 48c2 9.33301 7.33301 14 16 14h242c8 0 12 -4 12 -12l-4 -46c-1.33301 -8.66699 -9 -13 -23 -13h-239c-6 0 -9 3 -9 9z" />
    <glyph glyph-name="macron" unicode="&#x2c9;" horiz-adv-x="451" 
d="M191 609l5 48c2 9.33301 7.33301 14 16 14h242c8 0 12 -4 12 -12l-4 -46c-1.33301 -8.66699 -9 -13 -23 -13h-239c-6 0 -9 3 -9 9z" />
    <glyph glyph-name="degree" unicode="&#xb0;" horiz-adv-x="271" 
d="M97 617c0 30.667 10.667 56.834 32 78.501s47.333 32.5 78 32.5s56.834 -10.833 78.501 -32.5s32.5 -47.834 32.5 -78.501s-10.833 -56.667 -32.5 -78s-47.834 -32 -78.501 -32s-56.667 10.667 -78 32s-32 47.333 -32 78zM133 617c0 -21.333 7.16699 -39.333 21.5 -54
s31.833 -22 52.5 -22s38.334 7.5 53.001 22.5s22 32.833 22 53.5c0 21.333 -7.33301 39.5 -22 54.5s-32.334 22.5 -53.001 22.5s-38.167 -7.5 -52.5 -22.5s-21.5 -33.167 -21.5 -54.5z" />
    <glyph glyph-name="plusminus" unicode="&#xb1;" horiz-adv-x="538" 
d="M38 329v62h199v198h64v-198h200v-62h-200v-202h-64v202h-199zM38 63v-63h463v63h-463z" />
    <glyph glyph-name="twosuperior" unicode="&#xb2;" horiz-adv-x="310" 
d="M200 678c26 0 47.9961 -9 65.9961 -27s27 -41 27 -69c0 -22.667 -7.66699 -45 -23 -67s-42.666 -51 -81.999 -87l-105 -98h139c10.667 0 23 9.66699 37 29c2.66699 2.66699 4.66699 4 6 4c6.66699 0 10 -3 10 -9c0 -2.66699 -0.333008 -5 -1 -7l-46 -86
c-3.33301 -5.33301 -7.66602 -8 -12.999 -8s-8.33301 2 -9 6v3c-1.33301 5.33301 -3.5 8.83301 -6.5 10.5s-9.5 2.5 -19.5 2.5h-157c-6 0 -9 2.66699 -9 8c0 4 1.66699 7.66699 5 11l104 117c26 29.333 44.5 50.666 55.5 63.999s21.5 29 31.5 47s15 33.667 15 47
c0 16.667 -5.83301 30.334 -17.5 41.001s-26.167 16 -43.5 16c-27.333 0 -56.666 -15.667 -87.999 -47c-4 -4 -7.33301 -6 -10 -6c-7.33301 0 -11 3 -11 9c0 2 1.33301 4.33301 4 7c6.66699 8 15 17 25 27c42.667 41.333 81.334 62 116.001 62z" />
    <glyph glyph-name="threesuperior" unicode="&#xb3;" horiz-adv-x="310" 
d="M294 611c0 -17.333 -7.50195 -35.5 -22.502 -54.5s-35.5 -36.167 -61.5 -51.5c16.667 -8.66699 30 -21.667 40 -39s15 -36.333 15 -57c0 -38 -15.5 -71.333 -46.5 -100s-66.833 -43 -107.5 -43c-30 0 -54.5 7.83301 -73.5 23.5s-28.5 35.834 -28.5 60.501
c0 22.667 12.333 34 37 34c8 0 14.667 -2.33301 20 -7s8 -11 8 -19c0 -6 -2 -13.667 -6 -23c-3.33301 -8 -5 -14.667 -5 -20c0 -8 5.16699 -14.833 15.5 -20.5s22.833 -8.5 37.5 -8.5c23.333 0 43.833 10.167 61.5 30.5s26.5 43.833 26.5 70.5
c0 39.333 -24.333 67.333 -73 84c-4 1.33301 -6 3.66602 -6 6.99902s4 7 12 11c19.333 10 32.833 17.167 40.5 21.5s16.834 10.666 27.501 18.999s17.834 17 21.501 26s5.5 19.5 5.5 31.5c0 14.667 -4.83301 26.5 -14.5 35.5s-22.167 13.5 -37.5 13.5
c-22.667 0 -44.334 -11 -65.001 -33c-4 -5.33301 -8.33301 -8 -13 -8c-6.66699 0 -10 3.33301 -10 10c0 4.66699 5.66699 13.334 17 26.001c30.667 32 64.334 48 101.001 48c24 0 44 -6.5 60 -19.5s24 -29.167 24 -48.5z" />
    <glyph glyph-name="acute" unicode="&#xb4;" horiz-adv-x="451" 
d="M487 718c11.333 0 20.835 -3.66602 28.502 -10.999s11.5 -16.333 11.5 -27c0 -8 -2.83301 -16.5 -8.5 -25.5s-12.834 -16.167 -21.501 -21.5l-135 -81c-6.66699 -3.33301 -11.334 -5 -14.001 -5c-4 0 -8 2.16699 -12 6.5s-6 8.16602 -6 11.499s2 7 6 11l106 120
c16.667 14.667 31.667 22 45 22z" />
    <glyph glyph-name="mu" unicode="&#xb5;" horiz-adv-x="578" 
d="M204 432l98.002 0.000976562c-8.66699 -25.333 -34 -93 -76 -203l-19.5 -49c-7.66699 -19.333 -13.834 -34.333 -18.501 -45s-8.66699 -21.5 -12 -32.5s-5 -19.167 -5 -24.5c0 -12.667 5.33301 -19 16 -19c12.667 0 27 7.16699 43 21.5s29.833 29.666 41.5 45.999
s26.167 37.833 43.5 64.5c42.667 66.667 78 147 106 241h98c-66.667 -201.333 -100 -317.333 -100 -348c0 -8.66699 4 -13 12 -13c13.333 0 37.666 26 72.999 78c5.33301 7.33301 9 11 11 11c3.33301 0 7.16602 -1.5 11.499 -4.5s6.5 -5.5 6.5 -7.5
c0 -1.33301 -2 -5.66602 -6 -12.999c-15.333 -28.667 -32.666 -54 -51.999 -76c-39.333 -44.667 -73.666 -67 -102.999 -67c-32 0 -48 23.333 -48 70c0 27.333 8 71.666 24 132.999c-46.667 -72 -85.834 -124.167 -117.501 -156.5s-63.5 -48.5 -95.5 -48.5
c-12.667 0 -24.834 3.66699 -36.501 11s-19.5 17.666 -23.5 30.999c-7.33301 -22 -11 -35.667 -11 -41c0 -27.333 8.16699 -56.833 24.5 -88.5s24.5 -54.167 24.5 -67.5c0 -15.333 -5 -28.333 -15 -39s-22 -16 -36 -16c-20.667 0 -37 8.16699 -49 24.5s-18 38.833 -18 67.5
c0 34 13.333 88.333 40 163s50.834 136.334 72.501 185.001z" />
    <glyph glyph-name="mu" unicode="&#x3bc;" horiz-adv-x="578" 
d="M204 432l98.002 0.000976562c-8.66699 -25.333 -34 -93 -76 -203l-19.5 -49c-7.66699 -19.333 -13.834 -34.333 -18.501 -45s-8.66699 -21.5 -12 -32.5s-5 -19.167 -5 -24.5c0 -12.667 5.33301 -19 16 -19c12.667 0 27 7.16699 43 21.5s29.833 29.666 41.5 45.999
s26.167 37.833 43.5 64.5c42.667 66.667 78 147 106 241h98c-66.667 -201.333 -100 -317.333 -100 -348c0 -8.66699 4 -13 12 -13c13.333 0 37.666 26 72.999 78c5.33301 7.33301 9 11 11 11c3.33301 0 7.16602 -1.5 11.499 -4.5s6.5 -5.5 6.5 -7.5
c0 -1.33301 -2 -5.66602 -6 -12.999c-15.333 -28.667 -32.666 -54 -51.999 -76c-39.333 -44.667 -73.666 -67 -102.999 -67c-32 0 -48 23.333 -48 70c0 27.333 8 71.666 24 132.999c-46.667 -72 -85.834 -124.167 -117.501 -156.5s-63.5 -48.5 -95.5 -48.5
c-12.667 0 -24.834 3.66699 -36.501 11s-19.5 17.666 -23.5 30.999c-7.33301 -22 -11 -35.667 -11 -41c0 -27.333 8.16699 -56.833 24.5 -88.5s24.5 -54.167 24.5 -67.5c0 -15.333 -5 -28.333 -15 -39s-22 -16 -36 -16c-20.667 0 -37 8.16699 -49 24.5s-18 38.833 -18 67.5
c0 34 13.333 88.333 40 163s50.834 136.334 72.501 185.001z" />
    <glyph glyph-name="paragraph" unicode="&#xb6;" horiz-adv-x="775" 
d="M430 25l38.999 -0.000976562c18.667 0 33.334 4.33301 44.001 13s16 19.334 16 32.001v550c0 16.667 -4.5 30 -13.5 40s-21.167 15 -36.5 15h-49c-34 0 -51 -38.333 -51 -115v-420c0 -76.667 17 -115 51 -115zM630.999 -0.000976562h-210.999
c-106.667 0 -197.5 34.167 -272.5 102.5s-112.5 150.833 -112.5 247.5s37.5 179.167 112.5 247.5s165.833 102.5 272.5 102.5h248c6.66699 0 10 -4 10 -12c0 -8.66699 -3.33301 -13 -10 -13h-29c-18.667 0 -33.334 -5 -44.001 -15s-16 -23.333 -16 -40v-550
c0 -14 4.5 -25 13.5 -33s21.167 -12 36.5 -12h22c25.333 0 46.833 -6.83301 64.5 -20.5s26.5 -30.167 26.5 -49.5c0 -15.333 -5.33301 -28.333 -16 -39s-23.667 -16 -39 -16s-28.333 4.33301 -39 13s-16 19.334 -16 32.001c0 10 3.33301 18.667 10 26s10 12.666 10 15.999
c0 8.66699 -7 13 -21 13z" />
    <glyph glyph-name="periodcentered" unicode="&#xb7;" horiz-adv-x="250" 
d="M91 347c0 18 6.16699 33.333 18.5 46s27.5 19 45.5 19s33.333 -6.33301 46 -19s19 -28 19 -46s-6.33301 -33.167 -19 -45.5s-28 -18.5 -46 -18.5s-33.167 6.16699 -45.5 18.5s-18.5 27.5 -18.5 45.5z" />
    <glyph glyph-name="periodcentered" unicode="&#x2219;" horiz-adv-x="250" 
d="M91 347c0 18 6.16699 33.333 18.5 46s27.5 19 45.5 19s33.333 -6.33301 46 -19s19 -28 19 -46s-6.33301 -33.167 -19 -45.5s-28 -18.5 -46 -18.5s-33.167 6.16699 -45.5 18.5s-18.5 27.5 -18.5 45.5z" />
    <glyph glyph-name="cedilla" unicode="&#xb8;" horiz-adv-x="429" 
d="M116 0l33 0.000976562l-28 -37c0 -4.66699 2 -7 6 -7c50 -2.66699 75 -21.667 75 -57c0 -28.667 -14.5 -51.5 -43.5 -68.5s-59.833 -25.5 -92.5 -25.5c-14.667 0 -27.167 2.5 -37.5 7.5s-15.5 10.833 -15.5 17.5c0 12 5.33301 18 16 18
c6.66699 0 14.5 -4.16699 23.5 -12.5s17.833 -12.5 26.5 -12.5c12 0 23.667 3.83301 35 11.5s17 18.5 17 32.5c0 11.333 -4.5 21 -13.5 29s-22.5 12.333 -40.5 13c-12 0 -18 3.66699 -18 11c0 3.33301 1.33301 6.66602 4 9.99902z" />
    <glyph glyph-name="onesuperior" unicode="&#xb9;" horiz-adv-x="310" 
d="M286 677l-98.001 -333.001c-3.33301 -12 -5 -20.667 -5 -26c0 -10.667 10 -16 30 -16h9c4 0 6 -2 6 -6v-16c0 -3.33301 -2 -5 -6 -5h-175c-4 0 -6 1.66699 -6 5v16c0 4 2 6 6 6h7c17.333 0 30.5 3.16699 39.5 9.5s16.5 18.833 22.5 37.5l71 241c1.33301 2.66699 2 5 2 7
c1.33301 5.33301 2 9.33301 2 12c0 6 -3.16699 9.83301 -9.5 11.5s-18.166 2.5 -35.499 2.5c-4 0 -6 2 -6 6v9c0 4.66699 2.33301 7 7 7c13.333 0 31.833 3.33301 55.5 10s44.5 14.334 62.5 23.001c5.33301 4 10.333 6 15 6c4 0 6 -2.33301 6 -7z" />
    <glyph glyph-name="ordmasculine" unicode="&#xba;" horiz-adv-x="295" 
d="M328 596c0 -39.333 -14.5 -79.665 -43.5 -120.998s-63.5 -62 -103.5 -62c-61.333 0 -92 41 -92 123c0 45.333 14.667 85.666 44 120.999s63 53 101 53c25.333 0 47.333 -11.333 66 -34s28 -49.334 28 -80.001zM249 689.001c-21.333 0 -41.667 -25 -61 -75
c-28 -71.333 -42 -117.333 -42 -138c0 -10 2.33301 -18.667 7 -26s10 -11 16 -11c6.66699 0 14.667 4.66699 24 14s17.333 21 24 35c13.333 28 24.833 58.333 34.5 91s14.5 57.334 14.5 74.001c0 9.33301 -1.66699 17.666 -5 24.999s-7.33301 11 -12 11zM49.999 360.001v40
h235v-40h-235z" />
    <glyph glyph-name="guillemotright" unicode="&#xbb;" horiz-adv-x="515" 
d="M223 217c8.66699 3.33301 13.001 8.33398 13.001 15.001c0 5.33301 -1.66699 9.66602 -5 12.999l-98 94c-11.333 12 -17 26.333 -17 43c0 15.333 4.66699 28.5 14 39.5s20.666 16.5 33.999 16.5c30.667 0 49.667 -14.667 57 -44l35 -142
c1.33301 -9.33301 2 -15.666 2 -18.999c0 -9.33301 -2.66699 -16 -8 -20l-124 -142c-19.333 -24 -40.333 -36 -63 -36c-12.667 0 -23.5 4.83301 -32.5 14.5s-13.5 21.167 -13.5 34.5c0 21.333 14.667 40.666 44 57.999zM438.001 217.001
c8.66699 3.33301 13.001 8.33398 13.001 15.001c0 5.33301 -1.66699 9.66602 -5 12.999l-98 94c-11.333 12 -17 26.333 -17 43c0 15.333 4.66699 28.5 14 39.5s20.666 16.5 33.999 16.5c30.667 0 49.667 -14.667 57 -44l35 -142c1.33301 -9.33301 2 -15.666 2 -18.999
c0 -9.33301 -2.66699 -16 -8 -20l-124 -142c-18 -24 -39 -36 -63 -36c-12.667 0 -23.5 4.83301 -32.5 14.5s-13.5 21.167 -13.5 34.5c0 21.333 14.667 40.666 44 57.999z" />
    <glyph glyph-name="onequarter" unicode="&#xbc;" horiz-adv-x="690" 
d="M401 152l4.99902 22.999c0.666992 3.33301 3.33398 7.33301 8.00098 12l215 200c6 4.66699 11.667 8.33398 17 11.001l37 9c5.33301 0 8 -2.33301 8 -7l-60 -204h38c4.66699 0 7 -3 7 -9l-13 -37c-2 -3.33301 -6 -5 -12 -5h-36l-43 -144c-2 -6 -5.66699 -9 -11 -9h-47
c-5.33301 0 -8 2.66699 -8 8l43 145h-141c-4.66699 0 -7 2.33301 -7 7zM563.999 195.999l41 135l-145 -135h104zM285.999 676.999l-98.001 -333.001c-3.33301 -12 -5 -20.667 -5 -26c0 -10.667 10 -16 30 -16h9c4 0 6 -2 6 -6v-16c0 -3.33301 -2 -5 -6 -5h-175
c-4 0 -6 1.66699 -6 5v16c0 4 2 6 6 6h7c17.333 0 30.5 3.16699 39.5 9.5s16.5 18.833 22.5 37.5l71 241c1.33301 2.66699 2 5 2 7c1.33301 5.33301 2 9.33301 2 12c0 6 -3.16699 9.83301 -9.5 11.5s-18.166 2.5 -35.499 2.5c-4 0 -6 2 -6 6v9c0 4.66699 2.33301 7 7 7
c13.333 0 31.833 3.33301 55.5 10s44.5 14.334 62.5 23.001c5.33301 4 10.333 6 15 6c4 0 6 -2.33301 6 -7zM97.998 -5.00195l446.999 666c4.66699 7.33301 12.334 11 23.001 11h18c5.33301 0 8 -2 8 -6s-1.33301 -8 -4 -12l-446 -662c-5.33301 -8 -11.333 -12 -18 -12h-24
c-5.33301 0 -8 1.66699 -8 5c0 2.66699 1.33301 6 4 10z" />
    <glyph glyph-name="onehalf" unicode="&#xbd;" horiz-adv-x="690" 
d="M580 403c26 0 47.9961 -9 65.9961 -27s27 -41 27 -69c0 -22.667 -7.66699 -45 -23 -67s-42.666 -51 -81.999 -87l-105 -98h139c10.667 0 23 9.66699 37 29c2.66699 2.66699 4.66699 4 6 4c6.66699 0 10 -3 10 -9c0 -2.66699 -0.333008 -5 -1 -7l-46 -86
c-3.33301 -5.33301 -7.66602 -8 -12.999 -8s-8.33301 2 -9 6v3c-1.33301 5.33301 -3.5 8.83301 -6.5 10.5s-9.5 2.5 -19.5 2.5h-157c-6 0 -9 2.66699 -9 8c0 4 1.66699 7.66699 5 11l104 117c26 29.333 44.5 50.666 55.5 63.999s21.5 29 31.5 47s15 33.667 15 47
c0 16.667 -5.83301 30.334 -17.5 41.001s-26.167 16 -43.5 16c-27.333 0 -56.666 -15.667 -87.999 -47c-4 -4 -7.33301 -6 -10 -6c-7.33301 0 -11 3 -11 9c0 2 1.33301 4.33301 4 7c6.66699 8 15 17 25 27c42.667 41.333 81.334 62 116.001 62zM285.996 677
l-98.001 -333.001c-3.33301 -12 -5 -20.667 -5 -26c0 -10.667 10 -16 30 -16h9c4 0 6 -2 6 -6v-16c0 -3.33301 -2 -5 -6 -5h-175c-4 0 -6 1.66699 -6 5v16c0 4 2 6 6 6h7c17.333 0 30.5 3.16699 39.5 9.5s16.5 18.833 22.5 37.5l71 241c1.33301 2.66699 2 5 2 7
c1.33301 5.33301 2 9.33301 2 12c0 6 -3.16699 9.83301 -9.5 11.5s-18.166 2.5 -35.499 2.5c-4 0 -6 2 -6 6v9c0 4.66699 2.33301 7 7 7c13.333 0 31.833 3.33301 55.5 10s44.5 14.334 62.5 23.001c5.33301 4 10.333 6 15 6c4 0 6 -2.33301 6 -7zM97.9951 -5.00098
l446.999 666c4.66699 7.33301 12.334 11 23.001 11h18c5.33301 0 8 -2 8 -6s-1.33301 -8 -4 -12l-446 -662c-5.33301 -8 -11.333 -12 -18 -12h-24c-5.33301 0 -8 1.66699 -8 5c0 2.66699 1.33301 6 4 10z" />
    <glyph glyph-name="threequarters" unicode="&#xbe;" horiz-adv-x="690" 
d="M294 611c0 -17.333 -7.50195 -35.5 -22.502 -54.5s-35.5 -36.167 -61.5 -51.5c16.667 -8.66699 30 -21.667 40 -39s15 -36.333 15 -57c0 -38 -15.5 -71.333 -46.5 -100s-66.833 -43 -107.5 -43c-30 0 -54.5 7.83301 -73.5 23.5s-28.5 35.834 -28.5 60.501
c0 22.667 12.333 34 37 34c8 0 14.667 -2.33301 20 -7s8 -11 8 -19c0 -6 -2 -13.667 -6 -23c-3.33301 -8 -5 -14.667 -5 -20c0 -8 5.16699 -14.833 15.5 -20.5s22.833 -8.5 37.5 -8.5c23.333 0 43.833 10.167 61.5 30.5s26.5 43.833 26.5 70.5
c0 39.333 -24.333 67.333 -73 84c-4 1.33301 -6 3.66602 -6 6.99902s4 7 12 11c19.333 10 32.833 17.167 40.5 21.5s16.834 10.666 27.501 18.999s17.834 17 21.501 26s5.5 19.5 5.5 31.5c0 14.667 -4.83301 26.5 -14.5 35.5s-22.167 13.5 -37.5 13.5
c-22.667 0 -44.334 -11 -65.001 -33c-4 -5.33301 -8.33301 -8 -13 -8c-6.66699 0 -10 3.33301 -10 10c0 4.66699 5.66699 13.334 17 26.001c30.667 32 64.334 48 101.001 48c24 0 44 -6.5 60 -19.5s24 -29.167 24 -48.5zM400.998 152l4.99902 22.999
c0.666992 3.33301 3.33398 7.33301 8.00098 12l215 200c6 4.66699 11.667 8.33398 17 11.001l37 9c5.33301 0 8 -2.33301 8 -7l-60 -204h38c4.66699 0 7 -3 7 -9l-13 -37c-2 -3.33301 -6 -5 -12 -5h-36l-43 -144c-2 -6 -5.66699 -9 -11 -9h-47c-5.33301 0 -8 2.66699 -8 8
l43 145h-141c-4.66699 0 -7 2.33301 -7 7zM563.997 195.999l41 135l-145 -135h104zM97.9971 -5.00098l446.999 666c4.66699 7.33301 12.334 11 23.001 11h18c5.33301 0 8 -2 8 -6s-1.33301 -8 -4 -12l-446 -662c-5.33301 -8 -11.333 -12 -18 -12h-24
c-5.33301 0 -8 1.66699 -8 5c0 2.66699 1.33301 6 4 10z" />
    <glyph glyph-name="questiondown" unicode="&#xbf;" horiz-adv-x="515" 
d="M337 -130c-0.666992 -18.667 -5.99902 -33.668 -15.999 -45.001s-23.333 -17 -40 -17s-30.667 5.83301 -42 17.5s-17 26.5 -17 44.5c0 22.667 10.833 42.667 32.5 60s46.5 26 74.5 26c26 0 47.167 -8.66699 63.5 -26s24.5 -40.333 24.5 -69
c0 -38.667 -17.5 -72 -52.5 -100s-76.833 -42 -125.5 -42c-47.333 0 -88.5 17.167 -123.5 51.5s-52.5 74.833 -52.5 121.5c0 50.667 18 90.667 54 120s90.333 54 163 74c52 14 88.5 27.833 109.5 41.5s31.5 31.5 31.5 53.5c0 11.333 -3 20.5 -9 27.5s-13.333 10.5 -22 10.5
c-8 0 -13 -5 -15 -15c-4 -18 -8.83301 -30.167 -14.5 -36.5s-14.834 -9.5 -27.501 -9.5c-22.667 0 -34 11.333 -34 34c0 18.667 7.83301 35 23.5 49s33.834 21 54.501 21c19.333 0 35.833 -7.66699 49.5 -23s20.5 -33.333 20.5 -54c0 -30 -11 -55.5 -33 -76.5
s-62.333 -45.833 -121 -74.5c-49.333 -24 -85.333 -50 -108 -78s-34 -61.333 -34 -100c0 -32.667 9.16699 -58.5 27.5 -77.5s43.166 -28.5 74.499 -28.5c37.333 0 69.333 10.833 96 32.5s40 47.167 40 76.5c0 14.667 -3.5 27.334 -10.5 38.001s-14.833 16 -23.5 16
c-12 0 -18 -7 -18 -21v-22zM490.001 374.999c0 -19.333 -6.66699 -35.668 -20 -49.001s-29.333 -20 -48 -20s-34.834 6.83301 -48.501 20.5s-20.5 29.834 -20.5 48.501s6.83301 34.667 20.5 48s29.834 20 48.501 20s34.667 -6.5 48 -19.5s20 -29.167 20 -48.5z" />
    <glyph glyph-name="Agrave" unicode="&#xc0;" horiz-adv-x="694" 
d="M590 714c6 0 9 -3.66602 9 -10.999l-33 -602c0 -24.667 4.5 -41.834 13.5 -51.501s26.167 -14.5 51.5 -14.5h7c4 0 6 -1.66699 6 -5l-1 -26c0 -2.66699 -1.33301 -4 -4 -4h-271c-4 -0 -6 1.33301 -6 4l1 26c0 3.33301 1.33301 5 4 5h9c25.333 0 42.833 6.66699 52.5 20
s15.5 34.333 17.5 63l5 71h-252l-37 -55c-16.667 -24 -25 -43.333 -25 -58c0 -11.333 5 -21 15 -29s20.667 -12 32 -12h7c4 0 6 -1.66699 6 -5l-1 -26c0 -2.66699 -1.33301 -4 -4 -4h-206c-4 -0 -6 1.33301 -6 4v26c0 3.33301 1.33301 5 4 5h9c22 0 44 9.66699 66 29
s51 57 87 113l313 480c6 9.33301 13.667 15 23 17c40.667 6 73.667 18 99 36c5.33301 2.66699 8.33301 4 9 4zM479 621.001l-252 -392h225zM543 743.001c0 -3.33301 -2 -7.33301 -6 -12s-7.66699 -7 -11 -7c-2.66699 0 -7 1.33301 -13 4l-117 60
c-14 6.66699 -21 18.667 -21 36c0 13.333 4.33301 24.333 13 33s19.667 13 33 13s25 -4.66699 35 -14l80 -101c4.66699 -4.66699 7 -8.66699 7 -12z" />
    <glyph glyph-name="Aacute" unicode="&#xc1;" horiz-adv-x="694" 
d="M590 714c6 0 9 -3.66602 9 -10.999l-33 -602c0 -24.667 4.5 -41.834 13.5 -51.501s26.167 -14.5 51.5 -14.5h7c4 0 6 -1.66699 6 -5l-1 -26c0 -2.66699 -1.33301 -4 -4 -4h-271c-4 -0 -6 1.33301 -6 4l1 26c0 3.33301 1.33301 5 4 5h9c25.333 0 42.833 6.66699 52.5 20
s15.5 34.333 17.5 63l5 71h-252l-37 -55c-16.667 -24 -25 -43.333 -25 -58c0 -11.333 5 -21 15 -29s20.667 -12 32 -12h7c4 0 6 -1.66699 6 -5l-1 -26c0 -2.66699 -1.33301 -4 -4 -4h-206c-4 -0 -6 1.33301 -6 4v26c0 3.33301 1.33301 5 4 5h9c22 0 44 9.66699 66 29
s51 57 87 113l313 480c6 9.33301 13.667 15 23 17c40.667 6 73.667 18 99 36c5.33301 2.66699 8.33301 4 9 4zM479 621.001l-252 -392h225zM681 870.001c10 0 18.833 -4.00098 26.5 -12.001s11.5 -17.667 11.5 -29c0 -22.667 -13.333 -39 -40 -49l-136 -44
c-4 -1.33301 -7.33301 -2 -10 -2s-5.66699 2.5 -9 7.5s-5 9.5 -5 13.5c0 2.66699 3 6.33398 9 11.001l118 93c9.33301 7.33301 21 11 35 11z" />
    <glyph glyph-name="Acircumflex" unicode="&#xc2;" horiz-adv-x="694" 
d="M590 714c6 0 9 -3.66602 9 -10.999l-33 -602c0 -24.667 4.5 -41.834 13.5 -51.501s26.167 -14.5 51.5 -14.5h7c4 0 6 -1.66699 6 -5l-1 -26c0 -2.66699 -1.33301 -4 -4 -4h-271c-4 -0 -6 1.33301 -6 4l1 26c0 3.33301 1.33301 5 4 5h9c25.333 0 42.833 6.66699 52.5 20
s15.5 34.333 17.5 63l5 71h-252l-37 -55c-16.667 -24 -25 -43.333 -25 -58c0 -11.333 5 -21 15 -29s20.667 -12 32 -12h7c4 0 6 -1.66699 6 -5l-1 -26c0 -2.66699 -1.33301 -4 -4 -4h-206c-4 -0 -6 1.33301 -6 4v26c0 3.33301 1.33301 5 4 5h9c22 0 44 9.66699 66 29
s51 57 87 113l313 480c6 9.33301 13.667 15 23 17c40.667 6 73.667 18 99 36c5.33301 2.66699 8.33301 4 9 4zM479 621.001l-252 -392h225zM697 743.001c0 -3.33301 -2 -7.33398 -6 -12.001s-7.66699 -7 -11 -7c-2.66699 0 -7 1.33301 -13 4l-96 49l-128 -41
c-4 -1.33301 -7.33301 -2 -10 -2s-5.66699 2.5 -9 7.5s-5 9.5 -5 13.5c0 2.66699 3 6.33398 9 11.001l118 93c9.33301 7.33301 19.333 11 30 11c12 0 23.333 -4.66699 34 -14l80 -101c4.66699 -4.66699 7 -8.66699 7 -12z" />
    <glyph glyph-name="Atilde" unicode="&#xc3;" horiz-adv-x="694" 
d="M590 714c6 0 9 -3.66602 9 -10.999l-33 -602c0 -24.667 4.5 -41.834 13.5 -51.501s26.167 -14.5 51.5 -14.5h7c4 0 6 -1.66699 6 -5l-1 -26c0 -2.66699 -1.33301 -4 -4 -4h-271c-4 -0 -6 1.33301 -6 4l1 26c0 3.33301 1.33301 5 4 5h9c25.333 0 42.833 6.66699 52.5 20
s15.5 34.333 17.5 63l5 71h-252l-37 -55c-16.667 -24 -25 -43.333 -25 -58c0 -11.333 5 -21 15 -29s20.667 -12 32 -12h7c4 0 6 -1.66699 6 -5l-1 -26c0 -2.66699 -1.33301 -4 -4 -4h-206c-4 -0 -6 1.33301 -6 4v26c0 3.33301 1.33301 5 4 5h9c22 0 44 9.66699 66 29
s51 57 87 113l313 480c6 9.33301 13.667 15 23 17c40.667 6 73.667 18 99 36c5.33301 2.66699 8.33301 4 9 4zM479 621.001l-252 -392h225zM643 806.001c20 0 37.668 9.66699 53.001 29c6 7.33301 10.667 11 14 11c2 0 5.16699 -1.5 9.5 -4.5s6.5 -6.16699 6.5 -9.5
c0 -13.333 -11 -32.666 -33 -57.999s-46.667 -38 -74 -38c-20 0 -44 9 -72 27s-50 27 -66 27c-20 0 -37.667 -9.66699 -53 -29c-6 -7.33301 -10.667 -11 -14 -11c-2 0 -5.16699 1.5 -9.5 4.5s-6.5 6.16699 -6.5 9.5c0 13.333 11 32.666 33 57.999s46.667 38 74 38
c19.333 0 43.166 -9 71.499 -27s50.5 -27 66.5 -27z" />
    <glyph glyph-name="Adieresis" unicode="&#xc4;" horiz-adv-x="694" 
d="M590 714c6 0 9 -3.66602 9 -10.999l-33 -602c0 -24.667 4.5 -41.834 13.5 -51.501s26.167 -14.5 51.5 -14.5h7c4 0 6 -1.66699 6 -5l-1 -26c0 -2.66699 -1.33301 -4 -4 -4h-271c-4 -0 -6 1.33301 -6 4l1 26c0 3.33301 1.33301 5 4 5h9c25.333 0 42.833 6.66699 52.5 20
s15.5 34.333 17.5 63l5 71h-252l-37 -55c-16.667 -24 -25 -43.333 -25 -58c0 -11.333 5 -21 15 -29s20.667 -12 32 -12h7c4 0 6 -1.66699 6 -5l-1 -26c0 -2.66699 -1.33301 -4 -4 -4h-206c-4 -0 -6 1.33301 -6 4v26c0 3.33301 1.33301 5 4 5h9c22 0 44 9.66699 66 29
s51 57 87 113l313 480c6 9.33301 13.667 15 23 17c40.667 6 73.667 18 99 36c5.33301 2.66699 8.33301 4 9 4zM479 621.001l-252 -392h225zM400 805.001c0 18 6.16699 33.333 18.5 46s27.5 19 45.5 19s33.333 -6.33301 46 -19s19 -28 19 -46s-6.33301 -33.167 -19 -45.5
s-28 -18.5 -46 -18.5s-33.167 6.16699 -45.5 18.5s-18.5 27.5 -18.5 45.5zM600 805.001c0 18 6.16699 33.333 18.5 46s27.5 19 45.5 19s33.333 -6.33301 46 -19s19 -28 19 -46s-6.33301 -33.167 -19 -45.5s-28 -18.5 -46 -18.5s-33.167 6.16699 -45.5 18.5
s-18.5 27.5 -18.5 45.5z" />
    <glyph glyph-name="Aring" unicode="&#xc5;" horiz-adv-x="772" 
d="M435 760c0 30.667 11.001 56.834 33.001 78.501s48.667 32.5 80 32.5c25.333 0 45.666 -7.5 60.999 -22.5s23 -35.5 23 -61.5c0 -30.667 -11 -56.334 -33 -77.001c0 -0.666992 0.166992 -1.66699 0.5 -3s0.5 -2.66602 0.5 -3.99902l-33 -602
c0 -24.667 4.5 -41.834 13.5 -51.501s26.167 -14.5 51.5 -14.5h7c4 0 6 -1.66699 6 -5l-1 -26c0 -2.66699 -1.33301 -4 -4 -4h-271c-4 -0 -6 1.33301 -6 4l1 26c0 3.33301 1.33301 5 4 5h9c25.333 0 42.833 6.66699 52.5 20s15.5 34.333 17.5 63l5 71h-252l-37 -55
c-16.667 -24 -25 -43.333 -25 -58c0 -11.333 5 -21 15 -29s20.667 -12 32 -12h7c4 0 6 -1.66699 6 -5l-1 -26c0 -2.66699 -1.33301 -4 -4 -4h-206c-4 -0 -6 1.33301 -6 4v26c0 3.33301 1.33301 5 4 5h9c22 0 44 9.66699 66 29s51 57 87 113l324 497
c4.66699 6.66699 8 10.667 10 12c-30.667 13.333 -46 38 -46 74zM480.001 621l-252 -392h225zM542.001 833c-18 0 -33.332 -6.66797 -45.999 -20.001s-19 -29.333 -19 -48c0 -14 4.5 -25.833 13.5 -35.5s20.833 -14.5 35.5 -14.5c17.333 0 32.333 6.66699 45 20s19 29 19 47
c0 14.667 -4.33301 26.834 -13 36.501s-20.334 14.5 -35.001 14.5z" />
    <glyph glyph-name="AE" unicode="&#xc6;" horiz-adv-x="964" 
d="M421 700l530.006 0.000976562c8.66699 0 14.167 -0.833008 16.5 -2.5s4.16602 -7.16699 5.49902 -16.5l19 -128c0 -7.33301 -3.33301 -11 -10 -11c-4.66699 0 -10 5 -16 15l-24 42c-14.667 26 -31.334 43.833 -50.001 53.5s-42 14.5 -70 14.5
c-40.667 0 -68.167 -3.5 -82.5 -10.5s-25.5 -24.167 -33.5 -51.5l-66 -225h35c45.333 0 78 5.66699 98 17c24 13.333 46 44.333 66 93c1.33301 4.66699 3.33301 7 6 7c16 0 24 -2 24 -6c0 -3.33301 -1.33301 -9.33301 -4 -18l-71 -254c-0.666992 -4 -2.33398 -6 -5.00098 -6
c-16.667 0 -25 1.66699 -25 5v2.5c0 1 0.166992 1.83301 0.5 2.5s0.666016 1.66699 0.999023 3s0.5 2.66602 0.5 3.99902c3.33301 19.333 5 37 5 53c0 12.667 -1.33301 22.667 -4 30s-8 12.5 -16 15.5s-15.167 4.83301 -21.5 5.5s-16.833 1 -31.5 1h-72l-57 -193
c-8.66699 -29.333 -13 -48 -13 -56c0 -18.667 7 -31.334 21 -38.001s40.333 -10 79 -10c48 0 88.167 8 120.5 24s59.5 42 81.5 78l18 29c6 10 11.333 15 16 15c8 0 12 -4 12 -12c0 -0.666992 -0.166992 -1.66699 -0.5 -3s-0.833008 -3.16602 -1.5 -5.49902
s-1.33398 -4.5 -2.00098 -6.5l-43 -146c-2 -7.33301 -7.66699 -11 -17 -11h-517c-4 -0 -6 1.33301 -6 4l1 26c0 3.33301 1.33301 5 4 5h9c28 0 48.833 5.5 62.5 16.5s25.5 33.167 35.5 66.5l47 157h-206l-109 -141c-26 -32.667 -39 -55.334 -39 -68.001
c0 -20.667 15.333 -31 46 -31h7c4 0 6 -1.66699 6 -5l-1 -26c0 -2.66699 -1.33301 -4 -4 -4h-204c-4 0 -6 1.33301 -6 4v26c0 3.33301 1.33301 5 4 5h9c21.333 0 43.666 10 66.999 30s56.333 57.333 99 112l336 429c12.667 16 19 29.667 19 41
c0 6.66699 -2.16699 11.334 -6.5 14.001s-12.5 4 -24.5 4h-47c-4 0 -6 1.66699 -6 5l1 26c0 2.66699 1.33301 4 4 4zM592.006 665.001h-25l-262 -350h183z" />
    <glyph glyph-name="Ccedilla" unicode="&#xc7;" horiz-adv-x="707" 
d="M707 659c1.33301 0.666992 5.16504 2.16992 11.498 4.50293s11.166 4.16602 14.499 5.49902c8.66699 3.33301 15.667 5 21 5c4.66699 0 7 -2 7 -6c0 -2.66699 -1.66699 -9.66699 -5 -21l-48 -181c-2 -7.33301 -6 -11 -12 -11c-6.66699 0 -11.167 0.5 -13.5 1.5
s-3.5 4.16699 -3.5 9.5c0 30 -0.5 53.5 -1.5 70.5s-4.33301 36.167 -10 57.5s-14.167 39 -25.5 53c-20 25.333 -50.333 38 -91 38c-36 0 -70.833 -11 -104.5 -33s-62.667 -50.5 -87 -85.5s-45.666 -73.5 -63.999 -115.5s-32 -83.5 -41 -124.5s-13.5 -78.167 -13.5 -111.5
c0 -62 13 -111.333 39 -148s60.667 -55 104 -55c42.667 0 80.834 14.667 114.501 44s69.834 70.666 108.501 123.999c9.33301 12 14.666 18 15.999 18c3.33301 0 8.33301 -2.66699 15 -8c2 -2 3 -3.66699 3 -5s-0.666992 -4 -2 -8l-65 -186
c-1.33301 -4 -4.66602 -6 -9.99902 -6c-4 0 -10.667 4.33301 -20 13l-10 10c-2.66699 2.66699 -5 4 -7 4s-4.33301 -0.666992 -7 -2c-32 -16 -78 -24 -138 -24h-14l-17 -23c0 -4.66699 2 -7 6 -7c50 -2.66699 75 -21.667 75 -57c0 -28.667 -14.5 -51.5 -43.5 -68.5
s-59.833 -25.5 -92.5 -25.5c-14.667 0 -27.167 2.5 -37.5 7.5s-15.5 10.833 -15.5 17.5c0 12 5.33301 18 16 18c6.66699 0 14.5 -4.16699 23.5 -12.5s17.833 -12.5 26.5 -12.5c12 0 23.667 3.83301 35 11.5s17 18.5 17 32.5c0 11.333 -4.5 21 -13.5 29
s-22.5 12.333 -40.5 13c-12 0 -18 3.66699 -18 11c0 3.33301 1.33301 6.66602 4 9.99902l44 59c-69.333 8 -124.166 34.833 -164.499 80.5s-60.5 104.167 -60.5 175.5c0 58.667 12.5 116.667 37.5 174s57.667 107.333 98 150s87.833 77 142.5 103s110 39 166 39
c47.333 0 97.666 -17.333 150.999 -52z" />
    <glyph glyph-name="Egrave" unicode="&#xc8;" horiz-adv-x="707" 
d="M191 700l479.004 0.00195312c8.66699 0 14.167 -0.833008 16.5 -2.5s4.16602 -7.16699 5.49902 -16.5l19 -128c0 -7.33301 -3.33301 -11 -10 -11c-4.66699 0 -10 5 -16 15l-24 42c-14.667 26 -33.667 43.833 -57 53.5s-54.333 14.5 -93 14.5
c-40.667 0 -68.167 -3.5 -82.5 -10.5s-25.5 -24.167 -33.5 -51.5l-66 -225h65c45.333 0 78 5.66699 98 17c24 13.333 46 44.333 66 93c1.33301 4.66699 3.33301 7 6 7c16 0 24 -2 24 -6c0 -3.33301 -1.33301 -9.33301 -4 -18l-71 -254c-0.666992 -4 -2.33398 -6 -5.00098 -6
c-16.667 0 -25 1.66699 -25 5v2.5c0 1 0.166992 1.83301 0.5 2.5s0.666016 1.66699 0.999023 3s0.5 2.66602 0.5 3.99902c3.33301 19.333 5 37 5 53c0 12.667 -1.33301 22.667 -4 30s-8 12.5 -16 15.5s-15.167 4.83301 -21.5 5.5s-16.833 1 -31.5 1h-102l-57 -193
c-8.66699 -29.333 -13 -48 -13 -56c0 -18.667 7 -31.334 21 -38.001s40.333 -10 79 -10c62 0 110.5 7.66699 145.5 23s63.833 41.666 86.5 78.999l18 29c6 10 11.333 15 16 15c8 0 12 -4 12 -12c0 -0.666992 -0.166992 -1.66699 -0.5 -3s-0.833008 -3.16602 -1.5 -5.49902
s-1.33398 -4.5 -2.00098 -6.5l-43 -146c-2 -7.33301 -7.66699 -11 -17 -11h-547c-4 -0 -6 1.33301 -6 4l1 26c0 3.33301 1.33301 5 4 5h9c28 0 48.833 5.5 62.5 16.5s25.5 33.167 35.5 66.5l133 464c5.33301 20 8 35 8 45c0 14.667 -4.5 24.667 -13.5 30s-23.833 8 -44.5 8
h-8c-4 0 -6 1.66699 -6 5v26c0 2.66699 1.33301 4 4 4zM513.004 743.002c0 -3.33301 -2 -7.33301 -6 -12s-7.66699 -7 -11 -7c-2.66699 0 -7 1.33301 -13 4l-117 60c-14 6.66699 -21 18.667 -21 36c0 13.333 4.33301 24.333 13 33s19.667 13 33 13s25 -4.66699 35 -14
l80 -101c4.66699 -4.66699 7 -8.66699 7 -12z" />
    <glyph glyph-name="Eacute" unicode="&#xc9;" horiz-adv-x="707" 
d="M191 700l479.004 0.00195312c8.66699 0 14.167 -0.833008 16.5 -2.5s4.16602 -7.16699 5.49902 -16.5l19 -128c0 -7.33301 -3.33301 -11 -10 -11c-4.66699 0 -10 5 -16 15l-24 42c-14.667 26 -33.667 43.833 -57 53.5s-54.333 14.5 -93 14.5
c-40.667 0 -68.167 -3.5 -82.5 -10.5s-25.5 -24.167 -33.5 -51.5l-66 -225h65c45.333 0 78 5.66699 98 17c24 13.333 46 44.333 66 93c1.33301 4.66699 3.33301 7 6 7c16 0 24 -2 24 -6c0 -3.33301 -1.33301 -9.33301 -4 -18l-71 -254c-0.666992 -4 -2.33398 -6 -5.00098 -6
c-16.667 0 -25 1.66699 -25 5v2.5c0 1 0.166992 1.83301 0.5 2.5s0.666016 1.66699 0.999023 3s0.5 2.66602 0.5 3.99902c3.33301 19.333 5 37 5 53c0 12.667 -1.33301 22.667 -4 30s-8 12.5 -16 15.5s-15.167 4.83301 -21.5 5.5s-16.833 1 -31.5 1h-102l-57 -193
c-8.66699 -29.333 -13 -48 -13 -56c0 -18.667 7 -31.334 21 -38.001s40.333 -10 79 -10c62 0 110.5 7.66699 145.5 23s63.833 41.666 86.5 78.999l18 29c6 10 11.333 15 16 15c8 0 12 -4 12 -12c0 -0.666992 -0.166992 -1.66699 -0.5 -3s-0.833008 -3.16602 -1.5 -5.49902
s-1.33398 -4.5 -2.00098 -6.5l-43 -146c-2 -7.33301 -7.66699 -11 -17 -11h-547c-4 -0 -6 1.33301 -6 4l1 26c0 3.33301 1.33301 5 4 5h9c28 0 48.833 5.5 62.5 16.5s25.5 33.167 35.5 66.5l133 464c5.33301 20 8 35 8 45c0 14.667 -4.5 24.667 -13.5 30s-23.833 8 -44.5 8
h-8c-4 0 -6 1.66699 -6 5v26c0 2.66699 1.33301 4 4 4zM581.004 870.002c10 0 18.833 -4.00098 26.5 -12.001s11.5 -17.667 11.5 -29c0 -22.667 -13.333 -39 -40 -49l-136 -44c-4 -1.33301 -7.33301 -2 -10 -2s-5.66699 2.5 -9 7.5s-5 9.5 -5 13.5
c0 2.66699 3 6.33398 9 11.001l118 93c9.33301 7.33301 21 11 35 11z" />
    <glyph glyph-name="Ecircumflex" unicode="&#xca;" horiz-adv-x="707" 
d="M191 700l479.004 0.00195312c8.66699 0 14.167 -0.833008 16.5 -2.5s4.16602 -7.16699 5.49902 -16.5l19 -128c0 -7.33301 -3.33301 -11 -10 -11c-4.66699 0 -10 5 -16 15l-24 42c-14.667 26 -33.667 43.833 -57 53.5s-54.333 14.5 -93 14.5
c-40.667 0 -68.167 -3.5 -82.5 -10.5s-25.5 -24.167 -33.5 -51.5l-66 -225h65c45.333 0 78 5.66699 98 17c24 13.333 46 44.333 66 93c1.33301 4.66699 3.33301 7 6 7c16 0 24 -2 24 -6c0 -3.33301 -1.33301 -9.33301 -4 -18l-71 -254c-0.666992 -4 -2.33398 -6 -5.00098 -6
c-16.667 0 -25 1.66699 -25 5v2.5c0 1 0.166992 1.83301 0.5 2.5s0.666016 1.66699 0.999023 3s0.5 2.66602 0.5 3.99902c3.33301 19.333 5 37 5 53c0 12.667 -1.33301 22.667 -4 30s-8 12.5 -16 15.5s-15.167 4.83301 -21.5 5.5s-16.833 1 -31.5 1h-102l-57 -193
c-8.66699 -29.333 -13 -48 -13 -56c0 -18.667 7 -31.334 21 -38.001s40.333 -10 79 -10c62 0 110.5 7.66699 145.5 23s63.833 41.666 86.5 78.999l18 29c6 10 11.333 15 16 15c8 0 12 -4 12 -12c0 -0.666992 -0.166992 -1.66699 -0.5 -3s-0.833008 -3.16602 -1.5 -5.49902
s-1.33398 -4.5 -2.00098 -6.5l-43 -146c-2 -7.33301 -7.66699 -11 -17 -11h-547c-4 -0 -6 1.33301 -6 4l1 26c0 3.33301 1.33301 5 4 5h9c28 0 48.833 5.5 62.5 16.5s25.5 33.167 35.5 66.5l133 464c5.33301 20 8 35 8 45c0 14.667 -4.5 24.667 -13.5 30s-23.833 8 -44.5 8
h-8c-4 0 -6 1.66699 -6 5v26c0 2.66699 1.33301 4 4 4zM607.004 743.002c0 -3.33301 -2 -7.33398 -6 -12.001s-7.66699 -7 -11 -7c-2.66699 0 -7 1.33301 -13 4l-96 49l-128 -41c-4 -1.33301 -7.33301 -2 -10 -2s-5.66699 2.5 -9 7.5s-5 9.5 -5 13.5
c0 2.66699 3 6.33398 9 11.001l118 93c9.33301 7.33301 19.333 11 30 11c12 0 23.333 -4.66699 34 -14l80 -101c4.66699 -4.66699 7 -8.66699 7 -12z" />
    <glyph glyph-name="Edieresis" unicode="&#xcb;" horiz-adv-x="707" 
d="M191 700l479.004 0.00195312c8.66699 0 14.167 -0.833008 16.5 -2.5s4.16602 -7.16699 5.49902 -16.5l19 -128c0 -7.33301 -3.33301 -11 -10 -11c-4.66699 0 -10 5 -16 15l-24 42c-14.667 26 -33.667 43.833 -57 53.5s-54.333 14.5 -93 14.5
c-40.667 0 -68.167 -3.5 -82.5 -10.5s-25.5 -24.167 -33.5 -51.5l-66 -225h65c45.333 0 78 5.66699 98 17c24 13.333 46 44.333 66 93c1.33301 4.66699 3.33301 7 6 7c16 0 24 -2 24 -6c0 -3.33301 -1.33301 -9.33301 -4 -18l-71 -254c-0.666992 -4 -2.33398 -6 -5.00098 -6
c-16.667 0 -25 1.66699 -25 5v2.5c0 1 0.166992 1.83301 0.5 2.5s0.666016 1.66699 0.999023 3s0.5 2.66602 0.5 3.99902c3.33301 19.333 5 37 5 53c0 12.667 -1.33301 22.667 -4 30s-8 12.5 -16 15.5s-15.167 4.83301 -21.5 5.5s-16.833 1 -31.5 1h-102l-57 -193
c-8.66699 -29.333 -13 -48 -13 -56c0 -18.667 7 -31.334 21 -38.001s40.333 -10 79 -10c62 0 110.5 7.66699 145.5 23s63.833 41.666 86.5 78.999l18 29c6 10 11.333 15 16 15c8 0 12 -4 12 -12c0 -0.666992 -0.166992 -1.66699 -0.5 -3s-0.833008 -3.16602 -1.5 -5.49902
s-1.33398 -4.5 -2.00098 -6.5l-43 -146c-2 -7.33301 -7.66699 -11 -17 -11h-547c-4 -0 -6 1.33301 -6 4l1 26c0 3.33301 1.33301 5 4 5h9c28 0 48.833 5.5 62.5 16.5s25.5 33.167 35.5 66.5l133 464c5.33301 20 8 35 8 45c0 14.667 -4.5 24.667 -13.5 30s-23.833 8 -44.5 8
h-8c-4 0 -6 1.66699 -6 5v26c0 2.66699 1.33301 4 4 4zM320.004 805.002c0 18 6.16699 33.333 18.5 46s27.5 19 45.5 19s33.333 -6.33301 46 -19s19 -28 19 -46s-6.33301 -33.167 -19 -45.5s-28 -18.5 -46 -18.5s-33.167 6.16699 -45.5 18.5s-18.5 27.5 -18.5 45.5z
M520.004 805.002c0 18 6.16699 33.333 18.5 46s27.5 19 45.5 19s33.333 -6.33301 46 -19s19 -28 19 -46s-6.33301 -33.167 -19 -45.5s-28 -18.5 -46 -18.5s-33.167 6.16699 -45.5 18.5s-18.5 27.5 -18.5 45.5z" />
    <glyph glyph-name="Igrave" unicode="&#xcc;" horiz-adv-x="451" 
d="M125 118l132.999 464c5.33301 20 8 35 8 45c0 14.667 -4.5 24.667 -13.5 30s-23.833 8 -44.5 8h-8c-4 0 -6 1.66699 -6 5v26c0 2.66699 1.33301 4 4 4h301c4 0 6 -1.33301 6 -4v-26c0 -3.33301 -1.33301 -5 -4 -5h-8c-28.667 0 -50.167 -5.5 -64.5 -16.5
s-26.166 -33.167 -35.499 -66.5l-133 -464c-5.33301 -20 -8 -35 -8 -45c0 -14.667 4.66699 -24.667 14 -30s24.333 -8 45 -8h7c4 0 6 -1.66699 6 -5l-1 -26c0 -2.66699 -1.33301 -4 -4 -4h-299c-4 -0 -6 1.33301 -6 4v26c0 3.33301 1.33301 5 4 5h9
c28 0 48.833 5.5 62.5 16.5s25.5 33.167 35.5 66.5zM392.999 743c0 -3.33301 -2 -7.33301 -6 -12s-7.66699 -7 -11 -7c-2.66699 0 -7 1.33301 -13 4l-117 60c-14 6.66699 -21 18.667 -21 36c0 13.333 4.33301 24.333 13 33s19.667 13 33 13s25 -4.66699 35 -14l80 -101
c4.66699 -4.66699 7 -8.66699 7 -12z" />
    <glyph glyph-name="Iacute" unicode="&#xcd;" horiz-adv-x="451" 
d="M125 118l132.999 464c5.33301 20 8 35 8 45c0 14.667 -4.5 24.667 -13.5 30s-23.833 8 -44.5 8h-8c-4 0 -6 1.66699 -6 5v26c0 2.66699 1.33301 4 4 4h301c4 0 6 -1.33301 6 -4v-26c0 -3.33301 -1.33301 -5 -4 -5h-8c-28.667 0 -50.167 -5.5 -64.5 -16.5
s-26.166 -33.167 -35.499 -66.5l-133 -464c-5.33301 -20 -8 -35 -8 -45c0 -14.667 4.66699 -24.667 14 -30s24.333 -8 45 -8h7c4 0 6 -1.66699 6 -5l-1 -26c0 -2.66699 -1.33301 -4 -4 -4h-299c-4 -0 -6 1.33301 -6 4v26c0 3.33301 1.33301 5 4 5h9
c28 0 48.833 5.5 62.5 16.5s25.5 33.167 35.5 66.5zM470.999 870c10 0 18.833 -4.00098 26.5 -12.001s11.5 -17.667 11.5 -29c0 -22.667 -13.333 -39 -40 -49l-136 -44c-4 -1.33301 -7.33301 -2 -10 -2s-5.66699 2.5 -9 7.5s-5 9.5 -5 13.5c0 2.66699 3 6.33398 9 11.001
l118 93c9.33301 7.33301 21 11 35 11z" />
    <glyph glyph-name="Icircumflex" unicode="&#xce;" horiz-adv-x="451" 
d="M125 118l132.999 464c5.33301 20 8 35 8 45c0 14.667 -4.5 24.667 -13.5 30s-23.833 8 -44.5 8h-8c-4 0 -6 1.66699 -6 5v26c0 2.66699 1.33301 4 4 4h301c4 0 6 -1.33301 6 -4v-26c0 -3.33301 -1.33301 -5 -4 -5h-8c-28.667 0 -50.167 -5.5 -64.5 -16.5
s-26.166 -33.167 -35.499 -66.5l-133 -464c-5.33301 -20 -8 -35 -8 -45c0 -14.667 4.66699 -24.667 14 -30s24.333 -8 45 -8h7c4 0 6 -1.66699 6 -5l-1 -26c0 -2.66699 -1.33301 -4 -4 -4h-299c-4 -0 -6 1.33301 -6 4v26c0 3.33301 1.33301 5 4 5h9
c28 0 48.833 5.5 62.5 16.5s25.5 33.167 35.5 66.5zM516.999 743c0 -3.33301 -2 -7.33398 -6 -12.001s-7.66699 -7 -11 -7c-2.66699 0 -7 1.33301 -13 4l-96 49l-128 -41c-4 -1.33301 -7.33301 -2 -10 -2s-5.66699 2.5 -9 7.5s-5 9.5 -5 13.5c0 2.66699 3 6.33398 9 11.001
l118 93c9.33301 7.33301 19.333 11 30 11c12 0 23.333 -4.66699 34 -14l80 -101c4.66699 -4.66699 7 -8.66699 7 -12z" />
    <glyph glyph-name="Idieresis" unicode="&#xcf;" horiz-adv-x="451" 
d="M125 118l132.999 464c5.33301 20 8 35 8 45c0 14.667 -4.5 24.667 -13.5 30s-23.833 8 -44.5 8h-8c-4 0 -6 1.66699 -6 5v26c0 2.66699 1.33301 4 4 4h301c4 0 6 -1.33301 6 -4v-26c0 -3.33301 -1.33301 -5 -4 -5h-8c-28.667 0 -50.167 -5.5 -64.5 -16.5
s-26.166 -33.167 -35.499 -66.5l-133 -464c-5.33301 -20 -8 -35 -8 -45c0 -14.667 4.66699 -24.667 14 -30s24.333 -8 45 -8h7c4 0 6 -1.66699 6 -5l-1 -26c0 -2.66699 -1.33301 -4 -4 -4h-299c-4 -0 -6 1.33301 -6 4v26c0 3.33301 1.33301 5 4 5h9
c28 0 48.833 5.5 62.5 16.5s25.5 33.167 35.5 66.5zM209.999 805c0 18 6.16699 33.333 18.5 46s27.5 19 45.5 19s33.333 -6.33301 46 -19s19 -28 19 -46s-6.33301 -33.167 -19 -45.5s-28 -18.5 -46 -18.5s-33.167 6.16699 -45.5 18.5s-18.5 27.5 -18.5 45.5zM409.999 805
c0 18 6.16699 33.333 18.5 46s27.5 19 45.5 19s33.333 -6.33301 46 -19s19 -28 19 -46s-6.33301 -33.167 -19 -45.5s-28 -18.5 -46 -18.5s-33.167 6.16699 -45.5 18.5s-18.5 27.5 -18.5 45.5z" />
    <glyph glyph-name="Eth" unicode="&#xd0;" horiz-adv-x="837" 
d="M214 700c102.667 2.66699 162.667 3.99902 180 3.99902c82.667 0 144 -5.33301 184 -16s77.333 -31.667 112 -63c66.667 -60.667 100 -138.667 100 -234c0 -55.333 -11.333 -110.166 -34 -164.499s-52.667 -98.5 -90 -132.5c-38.667 -36 -83.5 -60.667 -134.5 -74
s-110.167 -20 -177.5 -20h-319c-4 -0 -6 1.33301 -6 4l1 26c0 3.33301 1.33301 5 4 5h9c28 0 48.833 5.5 62.5 16.5s25.5 33.167 35.5 66.5l61 212h-76c-5.33301 0 -8 2.33301 -8 7l6 27c0.666992 4.66699 2 7.66699 4 9s5.66699 2 11 2h76l59 207c5.33301 20 8 35 8 45
c0 14.667 -4.5 24.667 -13.5 30s-23.833 8 -44.5 8h-8c-4 0 -6 1.66699 -6 5v26c0 2.66699 1.33301 4 4 4zM420 613.999l-70.001 -239.001h148c5.33301 0 8 -2.33301 8 -7l-6 -27c-0.666992 -4.66699 -2 -7.66699 -4 -9s-5.66699 -2 -11 -2h-148l-69 -238
c-2.66699 -10.667 -4 -18.667 -4 -24c0 -15.333 7.33301 -26.166 22 -32.499s40.667 -9.5 78 -9.5c64 0 116.167 15.5 156.5 46.5s73.5 78.833 99.5 143.5c36.667 88.667 55 170.334 55 245.001c0 63.333 -17.333 115.166 -52 155.499s-79 60.5 -133 60.5
c-17.333 0 -30.333 -2.66699 -39 -8c-11.333 -6.66699 -21.666 -25 -30.999 -55z" />
    <glyph glyph-name="Ntilde" unicode="&#xd1;" horiz-adv-x="837" 
d="M183 696c0 2.66699 1.33398 4 4.00098 4h189c8 0 13.667 -1.16699 17 -3.5s6.66602 -6.83301 9.99902 -13.5l225 -468c2 -4 3.66699 -6 5 -6c2.66699 0 4.66699 2.66699 6 8l105 365c5.33301 20 8 35 8 45c0 14.667 -4.5 24.667 -13.5 30s-23.833 8 -44.5 8h-8
c-4 0 -6 1.66699 -6 5v26c0 2.66699 1.33301 4 4 4h200c4 0 6 -1.33301 6 -4v-26c0 -3.33301 -1.33301 -5 -4 -5h-8c-28.667 0 -49.834 -5.5 -63.501 -16.5s-25.5 -33.167 -35.5 -66.5l-170 -580h-12l-291 601c-5.33301 10.667 -9.33301 16 -12 16s-5 -4.66699 -7 -14
l-143 -487c-5.33301 -20 -8 -35 -8 -45c0 -14.667 4.66699 -24.667 14 -30s24.333 -8 45 -8h8c4 0 6 -1.66699 6 -5l-1 -26c0 -2.66699 -1.33301 -4 -4 -4h-201c-4 -0 -6 1.33301 -6 4l1 26c0 3.33301 1.33301 5 4 5h8c28.667 0 49.834 5.5 63.501 16.5
s25.5 33.167 35.5 66.5l138 464c5.33301 20 8 35 8 45c0 14.667 -4.66699 24.667 -14 30s-24.333 8 -45 8h-8c-4 0 -6 1.66699 -6 5zM653.001 806c20 0 37.668 9.66699 53.001 29c6 7.33301 10.667 11 14 11c2 0 5.16699 -1.5 9.5 -4.5s6.5 -6.16699 6.5 -9.5
c0 -13.333 -11 -32.666 -33 -57.999s-46.667 -38 -74 -38c-20 0 -44 9 -72 27s-50 27 -66 27c-20 0 -37.667 -9.66699 -53 -29c-6 -7.33301 -10.667 -11 -14 -11c-2 0 -5.16699 1.5 -9.5 4.5s-6.5 6.16699 -6.5 9.5c0 13.333 11 32.666 33 57.999s46.667 38 74 38
c19.333 0 43.166 -9 71.499 -27s50.5 -27 66.5 -27z" />
    <glyph glyph-name="Ograve" unicode="&#xd2;" horiz-adv-x="676" 
d="M321 -15c-73.333 0 -134.331 28.332 -182.998 84.999s-73 127.667 -73 213c0 116.667 38.167 217.834 114.5 303.501s166.166 128.5 269.499 128.5c71.333 0 131.166 -28 179.499 -84s72.5 -125 72.5 -207c0 -73.333 -18 -144 -54 -212s-83.5 -122.833 -142.5 -164.5
s-120.167 -62.5 -183.5 -62.5zM450.002 684.999c-39.333 0 -77 -19.666 -113 -58.999s-65.5 -86.833 -88.5 -142.5s-41.333 -111.5 -55 -167.5s-20.5 -102.667 -20.5 -140c0 -47.333 12.833 -86.166 38.5 -116.499s58.167 -45.5 97.5 -45.5s77.333 20.167 114 60.5
s66.834 89.166 90.501 146.499s42.5 114.666 56.5 171.999s21 105.333 21 144c0 40 -13.833 74.667 -41.5 104s-60.834 44 -99.501 44zM503.002 743c0 -3.33301 -2 -7.33301 -6 -12s-7.66699 -7 -11 -7c-2.66699 0 -7 1.33301 -13 4l-117 60c-14 6.66699 -21 18.667 -21 36
c0 13.333 4.33301 24.333 13 33s19.667 13 33 13s25 -4.66699 35 -14l80 -101c4.66699 -4.66699 7 -8.66699 7 -12z" />
    <glyph glyph-name="Oacute" unicode="&#xd3;" horiz-adv-x="676" 
d="M321 -15c-73.333 0 -134.331 28.332 -182.998 84.999s-73 127.667 -73 213c0 116.667 38.167 217.834 114.5 303.501s166.166 128.5 269.499 128.5c71.333 0 131.166 -28 179.499 -84s72.5 -125 72.5 -207c0 -73.333 -18 -144 -54 -212s-83.5 -122.833 -142.5 -164.5
s-120.167 -62.5 -183.5 -62.5zM450.002 684.999c-39.333 0 -77 -19.666 -113 -58.999s-65.5 -86.833 -88.5 -142.5s-41.333 -111.5 -55 -167.5s-20.5 -102.667 -20.5 -140c0 -47.333 12.833 -86.166 38.5 -116.499s58.167 -45.5 97.5 -45.5s77.333 20.167 114 60.5
s66.834 89.166 90.501 146.499s42.5 114.666 56.5 171.999s21 105.333 21 144c0 40 -13.833 74.667 -41.5 104s-60.834 44 -99.501 44zM611.002 870c10 0 18.833 -4.00098 26.5 -12.001s11.5 -17.667 11.5 -29c0 -22.667 -13.333 -39 -40 -49l-136 -44
c-4 -1.33301 -7.33301 -2 -10 -2s-5.66699 2.5 -9 7.5s-5 9.5 -5 13.5c0 2.66699 3 6.33398 9 11.001l118 93c9.33301 7.33301 21 11 35 11z" />
    <glyph glyph-name="Ocircumflex" unicode="&#xd4;" horiz-adv-x="676" 
d="M321 -15c-73.333 0 -134.331 28.332 -182.998 84.999s-73 127.667 -73 213c0 116.667 38.167 217.834 114.5 303.501s166.166 128.5 269.499 128.5c71.333 0 131.166 -28 179.499 -84s72.5 -125 72.5 -207c0 -73.333 -18 -144 -54 -212s-83.5 -122.833 -142.5 -164.5
s-120.167 -62.5 -183.5 -62.5zM450.002 684.999c-39.333 0 -77 -19.666 -113 -58.999s-65.5 -86.833 -88.5 -142.5s-41.333 -111.5 -55 -167.5s-20.5 -102.667 -20.5 -140c0 -47.333 12.833 -86.166 38.5 -116.499s58.167 -45.5 97.5 -45.5s77.333 20.167 114 60.5
s66.834 89.166 90.501 146.499s42.5 114.666 56.5 171.999s21 105.333 21 144c0 40 -13.833 74.667 -41.5 104s-60.834 44 -99.501 44zM617.002 743c0 -3.33301 -2 -7.33398 -6 -12.001s-7.66699 -7 -11 -7c-2.66699 0 -7 1.33301 -13 4l-96 49l-128 -41
c-4 -1.33301 -7.33301 -2 -10 -2s-5.66699 2.5 -9 7.5s-5 9.5 -5 13.5c0 2.66699 3 6.33398 9 11.001l118 93c9.33301 7.33301 19.333 11 30 11c12 0 23.333 -4.66699 34 -14l80 -101c4.66699 -4.66699 7 -8.66699 7 -12z" />
    <glyph glyph-name="Otilde" unicode="&#xd5;" horiz-adv-x="676" 
d="M321 -15c-73.333 0 -134.331 28.332 -182.998 84.999s-73 127.667 -73 213c0 116.667 38.167 217.834 114.5 303.501s166.166 128.5 269.499 128.5c71.333 0 131.166 -28 179.499 -84s72.5 -125 72.5 -207c0 -73.333 -18 -144 -54 -212s-83.5 -122.833 -142.5 -164.5
s-120.167 -62.5 -183.5 -62.5zM450.002 684.999c-39.333 0 -77 -19.666 -113 -58.999s-65.5 -86.833 -88.5 -142.5s-41.333 -111.5 -55 -167.5s-20.5 -102.667 -20.5 -140c0 -47.333 12.833 -86.166 38.5 -116.499s58.167 -45.5 97.5 -45.5s77.333 20.167 114 60.5
s66.834 89.166 90.501 146.499s42.5 114.666 56.5 171.999s21 105.333 21 144c0 40 -13.833 74.667 -41.5 104s-60.834 44 -99.501 44zM583.002 806c20 0 37.668 9.66699 53.001 29c6 7.33301 10.667 11 14 11c2 0 5.16699 -1.5 9.5 -4.5s6.5 -6.16699 6.5 -9.5
c0 -13.333 -11 -32.666 -33 -57.999s-46.667 -38 -74 -38c-20 0 -44 9 -72 27s-50 27 -66 27c-20 0 -37.667 -9.66699 -53 -29c-6 -7.33301 -10.667 -11 -14 -11c-2 0 -5.16699 1.5 -9.5 4.5s-6.5 6.16699 -6.5 9.5c0 13.333 11 32.666 33 57.999s46.667 38 74 38
c19.333 0 43.166 -9 71.499 -27s50.5 -27 66.5 -27z" />
    <glyph glyph-name="Odieresis" unicode="&#xd6;" horiz-adv-x="676" 
d="M321 -15c-73.333 0 -134.331 28.332 -182.998 84.999s-73 127.667 -73 213c0 116.667 38.167 217.834 114.5 303.501s166.166 128.5 269.499 128.5c71.333 0 131.166 -28 179.499 -84s72.5 -125 72.5 -207c0 -73.333 -18 -144 -54 -212s-83.5 -122.833 -142.5 -164.5
s-120.167 -62.5 -183.5 -62.5zM450.002 684.999c-39.333 0 -77 -19.666 -113 -58.999s-65.5 -86.833 -88.5 -142.5s-41.333 -111.5 -55 -167.5s-20.5 -102.667 -20.5 -140c0 -47.333 12.833 -86.166 38.5 -116.499s58.167 -45.5 97.5 -45.5s77.333 20.167 114 60.5
s66.834 89.166 90.501 146.499s42.5 114.666 56.5 171.999s21 105.333 21 144c0 40 -13.833 74.667 -41.5 104s-60.834 44 -99.501 44zM340.002 805c0 18 6.16699 33.333 18.5 46s27.5 19 45.5 19s33.333 -6.33301 46 -19s19 -28 19 -46s-6.33301 -33.167 -19 -45.5
s-28 -18.5 -46 -18.5s-33.167 6.16699 -45.5 18.5s-18.5 27.5 -18.5 45.5zM540.002 805c0 18 6.16699 33.333 18.5 46s27.5 19 45.5 19s33.333 -6.33301 46 -19s19 -28 19 -46s-6.33301 -33.167 -19 -45.5s-28 -18.5 -46 -18.5s-33.167 6.16699 -45.5 18.5
s-18.5 27.5 -18.5 45.5z" />
    <glyph glyph-name="multiply" unicode="&#xd7;" horiz-adv-x="538" 
d="M127 174l-44 44l141 141l-141 141l46 46l141 -141l141 141l44 -44l-141 -141l141 -141l-46 -46l-141 141z" />
    <glyph glyph-name="Oslash" unicode="&#xd8;" horiz-adv-x="676" 
d="M328 -15c-64.667 0 -120.332 22.665 -166.999 67.998l-68 -79c-3.33301 -4 -6.66602 -4.66699 -9.99902 -2l-17 22c-4.66699 6 -4 12.333 2 19l64 73c-40 54.667 -60 120.334 -60 197.001c0 116.667 38.167 217.834 114.5 303.501s166.166 128.5 269.499 128.5
c62 0 116 -22.333 162 -67l68 79c3.33301 4 6.66602 4.66699 9.99902 2l17 -22c4.66699 -6 4 -12.333 -2 -19l-63 -73c40 -55.333 60 -119 60 -191c0 -73.333 -18 -144 -54 -212s-83.5 -122.833 -142.5 -164.5s-120.167 -62.5 -183.5 -62.5zM457.002 684.998
c-39.333 0 -77 -19.666 -113 -58.999s-65.5 -86.833 -88.5 -142.5s-41.333 -111.5 -55 -167.5s-20.5 -102.667 -20.5 -140c0 -14.667 0.666992 -25.334 2 -32.001l399 462c-12 23.333 -29 42.333 -51 57s-46.333 22 -73 22zM598.002 536.999
c0 8.66699 -0.333984 15.002 -1.00098 19.002l-400 -462c24 -53.333 63.667 -80 119 -80c39.333 0 77.333 20.167 114 60.5s66.834 89.166 90.501 146.499s42.5 114.666 56.5 171.999s21 105.333 21 144z" />
    <glyph glyph-name="Ugrave" unicode="&#xd9;" horiz-adv-x="837" 
d="M162 700l300.002 -0.000976562c4 0 6 -1.33301 6 -4v-26c0 -3.33301 -1.33301 -5 -4 -5h-8c-28.667 0 -49.834 -5.5 -63.501 -16.5s-25.5 -33.167 -35.5 -66.5l-120 -395c-7.33301 -24 -11 -46.667 -11 -68c0 -31.333 15.5 -56.333 46.5 -75s72.833 -28 125.5 -28
c128.667 0 210.667 60.667 246 182l112 384c5.33301 20 8 35 8 45c0 14.667 -4.5 24.667 -13.5 30s-23.833 8 -44.5 8h-8c-4 0 -6 1.66699 -6 5v26c0 2.66699 1.33301 4 4 4h200c4 0 6 -1.33301 6 -4v-26c0 -3.33301 -1.33301 -5 -4 -5h-8
c-28.667 0 -49.834 -5.5 -63.501 -16.5s-25.5 -33.167 -35.5 -66.5l-117 -395c-20.667 -71.333 -55.167 -123.166 -103.5 -155.499s-114.833 -48.5 -199.5 -48.5c-82.667 0 -146.5 16.5 -191.5 49.5s-67.5 79.833 -67.5 140.5c0 21.333 2.33301 40.333 7 57l103 352
c5.33301 20 8 35 8 45c0 14.667 -4.5 24.667 -13.5 30s-23.833 8 -44.5 8h-8c-4 0 -6 1.66699 -6 5v26c0 2.66699 1.33301 4 4 4zM613.002 742.999c0 -3.33301 -2 -7.33301 -6 -12s-7.66699 -7 -11 -7c-2.66699 0 -7 1.33301 -13 4l-117 60c-14 6.66699 -21 18.667 -21 36
c0 13.333 4.33301 24.333 13 33s19.667 13 33 13s25 -4.66699 35 -14l80 -101c4.66699 -4.66699 7 -8.66699 7 -12z" />
    <glyph glyph-name="Uacute" unicode="&#xda;" horiz-adv-x="837" 
d="M162 700l300.002 -0.000976562c4 0 6 -1.33301 6 -4v-26c0 -3.33301 -1.33301 -5 -4 -5h-8c-28.667 0 -49.834 -5.5 -63.501 -16.5s-25.5 -33.167 -35.5 -66.5l-120 -395c-7.33301 -24 -11 -46.667 -11 -68c0 -31.333 15.5 -56.333 46.5 -75s72.833 -28 125.5 -28
c128.667 0 210.667 60.667 246 182l112 384c5.33301 20 8 35 8 45c0 14.667 -4.5 24.667 -13.5 30s-23.833 8 -44.5 8h-8c-4 0 -6 1.66699 -6 5v26c0 2.66699 1.33301 4 4 4h200c4 0 6 -1.33301 6 -4v-26c0 -3.33301 -1.33301 -5 -4 -5h-8
c-28.667 0 -49.834 -5.5 -63.501 -16.5s-25.5 -33.167 -35.5 -66.5l-117 -395c-20.667 -71.333 -55.167 -123.166 -103.5 -155.499s-114.833 -48.5 -199.5 -48.5c-82.667 0 -146.5 16.5 -191.5 49.5s-67.5 79.833 -67.5 140.5c0 21.333 2.33301 40.333 7 57l103 352
c5.33301 20 8 35 8 45c0 14.667 -4.5 24.667 -13.5 30s-23.833 8 -44.5 8h-8c-4 0 -6 1.66699 -6 5v26c0 2.66699 1.33301 4 4 4zM691.002 869.999c10 0 18.833 -4.00098 26.5 -12.001s11.5 -17.667 11.5 -29c0 -22.667 -13.333 -39 -40 -49l-136 -44
c-4 -1.33301 -7.33301 -2 -10 -2s-5.66699 2.5 -9 7.5s-5 9.5 -5 13.5c0 2.66699 3 6.33398 9 11.001l118 93c9.33301 7.33301 21 11 35 11z" />
    <glyph glyph-name="Ucircumflex" unicode="&#xdb;" horiz-adv-x="837" 
d="M162 700l300.002 -0.000976562c4 0 6 -1.33301 6 -4v-26c0 -3.33301 -1.33301 -5 -4 -5h-8c-28.667 0 -49.834 -5.5 -63.501 -16.5s-25.5 -33.167 -35.5 -66.5l-120 -395c-7.33301 -24 -11 -46.667 -11 -68c0 -31.333 15.5 -56.333 46.5 -75s72.833 -28 125.5 -28
c128.667 0 210.667 60.667 246 182l112 384c5.33301 20 8 35 8 45c0 14.667 -4.5 24.667 -13.5 30s-23.833 8 -44.5 8h-8c-4 0 -6 1.66699 -6 5v26c0 2.66699 1.33301 4 4 4h200c4 0 6 -1.33301 6 -4v-26c0 -3.33301 -1.33301 -5 -4 -5h-8
c-28.667 0 -49.834 -5.5 -63.501 -16.5s-25.5 -33.167 -35.5 -66.5l-117 -395c-20.667 -71.333 -55.167 -123.166 -103.5 -155.499s-114.833 -48.5 -199.5 -48.5c-82.667 0 -146.5 16.5 -191.5 49.5s-67.5 79.833 -67.5 140.5c0 21.333 2.33301 40.333 7 57l103 352
c5.33301 20 8 35 8 45c0 14.667 -4.5 24.667 -13.5 30s-23.833 8 -44.5 8h-8c-4 0 -6 1.66699 -6 5v26c0 2.66699 1.33301 4 4 4zM737.002 742.999c0 -3.33301 -2 -7.33398 -6 -12.001s-7.66699 -7 -11 -7c-2.66699 0 -7 1.33301 -13 4l-96 49l-128 -41
c-4 -1.33301 -7.33301 -2 -10 -2s-5.66699 2.5 -9 7.5s-5 9.5 -5 13.5c0 2.66699 3 6.33398 9 11.001l118 93c9.33301 7.33301 19.333 11 30 11c12 0 23.333 -4.66699 34 -14l80 -101c4.66699 -4.66699 7 -8.66699 7 -12z" />
    <glyph glyph-name="Udieresis" unicode="&#xdc;" horiz-adv-x="837" 
d="M162 700l300.002 -0.000976562c4 0 6 -1.33301 6 -4v-26c0 -3.33301 -1.33301 -5 -4 -5h-8c-28.667 0 -49.834 -5.5 -63.501 -16.5s-25.5 -33.167 -35.5 -66.5l-120 -395c-7.33301 -24 -11 -46.667 -11 -68c0 -31.333 15.5 -56.333 46.5 -75s72.833 -28 125.5 -28
c128.667 0 210.667 60.667 246 182l112 384c5.33301 20 8 35 8 45c0 14.667 -4.5 24.667 -13.5 30s-23.833 8 -44.5 8h-8c-4 0 -6 1.66699 -6 5v26c0 2.66699 1.33301 4 4 4h200c4 0 6 -1.33301 6 -4v-26c0 -3.33301 -1.33301 -5 -4 -5h-8
c-28.667 0 -49.834 -5.5 -63.501 -16.5s-25.5 -33.167 -35.5 -66.5l-117 -395c-20.667 -71.333 -55.167 -123.166 -103.5 -155.499s-114.833 -48.5 -199.5 -48.5c-82.667 0 -146.5 16.5 -191.5 49.5s-67.5 79.833 -67.5 140.5c0 21.333 2.33301 40.333 7 57l103 352
c5.33301 20 8 35 8 45c0 14.667 -4.5 24.667 -13.5 30s-23.833 8 -44.5 8h-8c-4 0 -6 1.66699 -6 5v26c0 2.66699 1.33301 4 4 4zM440.002 804.999c0 18 6.16699 33.333 18.5 46s27.5 19 45.5 19s33.333 -6.33301 46 -19s19 -28 19 -46s-6.33301 -33.167 -19 -45.5
s-28 -18.5 -46 -18.5s-33.167 6.16699 -45.5 18.5s-18.5 27.5 -18.5 45.5zM640.002 804.999c0 18 6.16699 33.333 18.5 46s27.5 19 45.5 19s33.333 -6.33301 46 -19s19 -28 19 -46s-6.33301 -33.167 -19 -45.5s-28 -18.5 -46 -18.5s-33.167 6.16699 -45.5 18.5
s-18.5 27.5 -18.5 45.5z" />
    <glyph glyph-name="Yacute" unicode="&#xdd;" horiz-adv-x="837" 
d="M546 386l178.999 202.999c17.333 20 26 36 26 48c0 9.33301 -2.83301 16.5 -8.5 21.5s-12.167 7.5 -19.5 7.5h-8c-4 0 -6 1.66699 -6 5v26c0 2.66699 1.33301 4 4 4h170c4 0 6 -1.33301 6 -4v-26c0 -3.33301 -1.33301 -5 -4 -5h-8
c-16.667 -0.666992 -31 -4.66699 -43 -12s-26.333 -20.333 -43 -39l-245 -278l-63 -219c-5.33301 -20 -8 -35 -8 -45c0 -25.333 22 -38 66 -38h7c4 0 6 -1.66699 6 -5l-1 -26c0 -2.66699 -1.33301 -4 -4 -4h-309c-4 0 -6 1.33301 -6 4v26c0 3.33301 1.33301 5 4 5h9
c28.667 0 50.334 5.5 65.001 16.5s26.667 33.167 36 66.5l72 249l-91 239c-8 20.667 -17.667 35.834 -29 45.501s-27 14.5 -47 14.5h-8c-4 0 -6 1.66699 -6 5v26c0 2.66699 1.33301 4 4 4h277c4 0 6 -1.33301 6 -4v-26c0 -3.33301 -1.33301 -5 -4 -5h-8
c-39.333 0 -59 -12.667 -59 -38c0 -2.66699 0.666992 -6.66699 2 -12zM740.999 869.999c10 0 18.833 -4.00098 26.5 -12.001s11.5 -17.667 11.5 -29c0 -22.667 -13.333 -39 -40 -49l-136 -44c-4 -1.33301 -7.33301 -2 -10 -2s-5.66699 2.5 -9 7.5s-5 9.5 -5 13.5
c0 2.66699 3 6.33398 9 11.001l118 93c9.33301 7.33301 21 11 35 11z" />
    <glyph glyph-name="Thorn" unicode="&#xde;" horiz-adv-x="707" 
d="M125 118l133.001 464c5.33301 20 8 35 8 45c0 14.667 -4.5 24.667 -13.5 30s-23.833 8 -44.5 8h-8c-4 0 -6 1.66699 -6 5v26c0 2.66699 1.33301 4 4 4h300c4 0 6 -1.33301 6 -4v-26c0 -3.33301 -1.33301 -5 -4 -5h-8c-28.667 0 -49.834 -5.5 -63.501 -16.5
s-25.5 -33.167 -35.5 -66.5l-12 -42h32c30.667 0 59.667 -2.5 87 -7.5s54 -13.333 80 -25s46.667 -29 62 -52s23 -50.167 23 -81.5c0 -58 -30.167 -103.5 -90.5 -136.5s-143.833 -49.5 -250.5 -49.5h-42v7l-22 -77c-5.33301 -20 -8 -35 -8 -45
c0 -14.667 4.66699 -24.667 14 -30s24.333 -8 45 -8h7c4 0 6 -1.66699 6 -5l-1 -26c0 -2.66699 -1.33301 -4 -4 -4h-300c-4 -0 -6 1.33301 -6 4l1 26c0 3.33301 1.33301 5 4 5h9c28 0 48.833 5.5 62.5 16.5s25.5 33.167 35.5 66.5zM431.001 504l-6 0.00195312
c-20 -2.66699 -35.5 -9.83398 -46.5 -21.501s-20.833 -31.834 -29.5 -60.501l-59 -205c25.333 -1.33301 40.333 -2 45 -2c64.667 0 114.667 15.833 150 47.5s53 76.5 53 134.5c0 71.333 -35.667 107 -107 107z" />
    <glyph glyph-name="germandbls" unicode="&#xdf;" horiz-adv-x="645" 
d="M296 123c23.333 0 41.3281 -15.666 53.9951 -46.999c4.66699 -11.333 9.16699 -20.5 13.5 -27.5s10.833 -13.833 19.5 -20.5s18.334 -10 29.001 -10c16 0 29.667 6.16699 41 18.5s17 27.166 17 44.499c0 20.667 -6.5 42.167 -19.5 64.5s-27.167 41.833 -42.5 58.5
s-29.5 37.667 -42.5 63s-19.5 51.333 -19.5 78c0 20 7.5 41.167 22.5 63.5s31.667 42.166 50 59.499s35 38.833 50 64.5s22.5 51.5 22.5 77.5s-6 46.5 -18 61.5s-29.667 22.5 -53 22.5c-60 0 -112.333 -83.667 -157 -251l-60 -221c-40 -148.667 -80.333 -253.667 -121 -315
c-26 -38.667 -54.333 -69.5 -85 -92.5s-58.667 -34.5 -84 -34.5c-13.333 0 -24.666 4.33301 -33.999 13s-14 19.334 -14 32.001c0 11.333 3.83301 21.333 11.5 30s16.834 13 27.501 13s26.667 -4.33301 48 -13c14 -6 25 -9 33 -9c20 0 34.333 12 43 36
c4.66699 12 8.83398 25 12.501 39l9.5 37c2.66699 10.667 6.33398 27 11.001 49s9 41.333 13 58l78 340h-64c-5.33301 0 -8 2.33301 -8 7l6 27c0.666992 4.66699 2 7.66699 4 9s5.66699 2 11 2h58c68 182.667 158.333 274 271 274c42.667 0 77.5 -9.16699 104.5 -27.5
s40.5 -41.833 40.5 -70.5c0 -27.333 -8.66699 -53.166 -26 -77.499s-36.333 -44 -57 -59s-39.667 -32 -57 -51s-26 -37.5 -26 -55.5c0 -16 8 -34.167 24 -54.5s33.667 -39.166 53 -56.499s37 -39.833 53 -67.5s24 -56.167 24 -85.5c0 -32.667 -17 -62.167 -51 -88.5
s-71.667 -39.5 -113 -39.5c-36 0 -68.5 9.66699 -97.5 29s-43.5 40.666 -43.5 63.999c0 11.333 3.5 20.666 10.5 27.999s16.167 11 27.5 11z" />
    <glyph glyph-name="agrave" unicode="&#xe0;" horiz-adv-x="515" 
d="M500 463l-106.001 -348.001c-4 -12 -6 -22.667 -6 -32c0 -10.667 4.66699 -16 14 -16c7.33301 0 18.333 8.83301 33 26.5s27.334 34.5 38.001 50.5c4.66699 7.33301 8.66699 11 12 11c0.666992 0 2.33398 -0.666992 5.00098 -2c6.66699 -4 10 -8.33301 10 -13
s-14 -25.667 -42 -63c-17.333 -22.667 -37.833 -42.667 -61.5 -60s-42.5 -26 -56.5 -26c-13.333 0 -23.833 4.66699 -31.5 14s-11.5 22 -11.5 38c0 35.333 7.33301 76.333 22 123l-42 -60c-21.333 -30.667 -48.333 -57.5 -81 -80.5s-60 -34.5 -82 -34.5
c-28.667 0 -51.834 10.667 -69.501 32s-26.5 49 -26.5 83c0 40 10.667 82.833 32 128.5s51.333 88.834 90 129.501c56 60.667 115 91 177 91c21.333 0 40 -2.83301 56 -8.5s35.333 -16.5 58 -32.5l36 49h33zM373.999 391.999c-5.33301 12 -10.666 20.333 -15.999 25
s-13 7 -23 7c-24.667 0 -58.667 -27.667 -102 -83c-29.333 -38 -55.333 -80.833 -78 -128.5s-34 -83.5 -34 -107.5c0 -12.667 4.16699 -23.667 12.5 -33s18.166 -14 29.499 -14c20 0 45.833 16.833 77.5 50.5s63.167 79.167 94.5 136.5zM279.999 718.999
c18.667 0 31.333 -8.99902 38 -26.999l46 -128c1.33301 -4 2 -7.33301 2 -10c0 -3.33301 -2.5 -6.83301 -7.5 -10.5s-9.83301 -5.5 -14.5 -5.5c-2.66699 0 -6.66699 2.66699 -12 8l-89 105c-6 9.33301 -9 18.666 -9 27.999c0 10.667 4.5 20 13.5 28s19.833 12 32.5 12z" />
    <glyph glyph-name="aacute" unicode="&#xe1;" horiz-adv-x="515" 
d="M500 463l-106.001 -348.001c-4 -12 -6 -22.667 -6 -32c0 -10.667 4.66699 -16 14 -16c7.33301 0 18.333 8.83301 33 26.5s27.334 34.5 38.001 50.5c4.66699 7.33301 8.66699 11 12 11c0.666992 0 2.33398 -0.666992 5.00098 -2c6.66699 -4 10 -8.33301 10 -13
s-14 -25.667 -42 -63c-17.333 -22.667 -37.833 -42.667 -61.5 -60s-42.5 -26 -56.5 -26c-13.333 0 -23.833 4.66699 -31.5 14s-11.5 22 -11.5 38c0 35.333 7.33301 76.333 22 123l-42 -60c-21.333 -30.667 -48.333 -57.5 -81 -80.5s-60 -34.5 -82 -34.5
c-28.667 0 -51.834 10.667 -69.501 32s-26.5 49 -26.5 83c0 40 10.667 82.833 32 128.5s51.333 88.834 90 129.501c56 60.667 115 91 177 91c21.333 0 40 -2.83301 56 -8.5s35.333 -16.5 58 -32.5l36 49h33zM373.999 391.999c-5.33301 12 -10.666 20.333 -15.999 25
s-13 7 -23 7c-24.667 0 -58.667 -27.667 -102 -83c-29.333 -38 -55.333 -80.833 -78 -128.5s-34 -83.5 -34 -107.5c0 -12.667 4.16699 -23.667 12.5 -33s18.166 -14 29.499 -14c20 0 45.833 16.833 77.5 50.5s63.167 79.167 94.5 136.5zM496.999 717.999
c11.333 0 20.835 -3.66602 28.502 -10.999s11.5 -16.333 11.5 -27c0 -8 -2.83301 -16.5 -8.5 -25.5s-12.834 -16.167 -21.501 -21.5l-135 -81c-6.66699 -3.33301 -11.334 -5 -14.001 -5c-4 0 -8 2.16699 -12 6.5s-6 8.16602 -6 11.499s2 7 6 11l106 120
c16.667 14.667 31.667 22 45 22z" />
    <glyph glyph-name="acircumflex" unicode="&#xe2;" horiz-adv-x="515" 
d="M500 463l-106.001 -348.001c-4 -12 -6 -22.667 -6 -32c0 -10.667 4.66699 -16 14 -16c7.33301 0 18.333 8.83301 33 26.5s27.334 34.5 38.001 50.5c4.66699 7.33301 8.66699 11 12 11c0.666992 0 2.33398 -0.666992 5.00098 -2c6.66699 -4 10 -8.33301 10 -13
s-14 -25.667 -42 -63c-17.333 -22.667 -37.833 -42.667 -61.5 -60s-42.5 -26 -56.5 -26c-13.333 0 -23.833 4.66699 -31.5 14s-11.5 22 -11.5 38c0 35.333 7.33301 76.333 22 123l-42 -60c-21.333 -30.667 -48.333 -57.5 -81 -80.5s-60 -34.5 -82 -34.5
c-28.667 0 -51.834 10.667 -69.501 32s-26.5 49 -26.5 83c0 40 10.667 82.833 32 128.5s51.333 88.834 90 129.501c56 60.667 115 91 177 91c21.333 0 40 -2.83301 56 -8.5s35.333 -16.5 58 -32.5l36 49h33zM373.999 391.999c-5.33301 12 -10.666 20.333 -15.999 25
s-13 7 -23 7c-24.667 0 -58.667 -27.667 -102 -83c-29.333 -38 -55.333 -80.833 -78 -128.5s-34 -83.5 -34 -107.5c0 -12.667 4.16699 -23.667 12.5 -33s18.166 -14 29.499 -14c20 0 45.833 16.833 77.5 50.5s63.167 79.167 94.5 136.5zM443.999 530.999l-80.001 80.999
l-107 -66c-7.33301 -4.66699 -13 -7 -17 -7c-2.66699 0 -5.5 1.83301 -8.5 5.5s-4.5 6.83398 -4.5 9.50098c0 3.33301 2.33301 7.33301 7 12l112 116c16 16 28.333 24 37 24c8 0 15.667 -8 23 -24l63 -136c1.33301 -2.66699 2 -5 2 -7c0 -2.66699 -2.16699 -5.5 -6.5 -8.5
s-8.16602 -4.5 -11.499 -4.5c-2.66699 0 -5.66699 1.66699 -9 5z" />
    <glyph glyph-name="atilde" unicode="&#xe3;" horiz-adv-x="515" 
d="M500 463l-106.001 -348.001c-4 -12 -6 -22.667 -6 -32c0 -10.667 4.66699 -16 14 -16c7.33301 0 18.333 8.83301 33 26.5s27.334 34.5 38.001 50.5c4.66699 7.33301 8.66699 11 12 11c0.666992 0 2.33398 -0.666992 5.00098 -2c6.66699 -4 10 -8.33301 10 -13
s-14 -25.667 -42 -63c-17.333 -22.667 -37.833 -42.667 -61.5 -60s-42.5 -26 -56.5 -26c-13.333 0 -23.833 4.66699 -31.5 14s-11.5 22 -11.5 38c0 35.333 7.33301 76.333 22 123l-42 -60c-21.333 -30.667 -48.333 -57.5 -81 -80.5s-60 -34.5 -82 -34.5
c-28.667 0 -51.834 10.667 -69.501 32s-26.5 49 -26.5 83c0 40 10.667 82.833 32 128.5s51.333 88.834 90 129.501c56 60.667 115 91 177 91c21.333 0 40 -2.83301 56 -8.5s35.333 -16.5 58 -32.5l36 49h33zM373.999 391.999c-5.33301 12 -10.666 20.333 -15.999 25
s-13 7 -23 7c-24.667 0 -58.667 -27.667 -102 -83c-29.333 -38 -55.333 -80.833 -78 -128.5s-34 -83.5 -34 -107.5c0 -12.667 4.16699 -23.667 12.5 -33s18.166 -14 29.499 -14c20 0 45.833 16.833 77.5 50.5s63.167 79.167 94.5 136.5zM452.999 645.999
c20 0 37.667 9.66699 53 29c6 7.33301 10.667 11 14 11c2 0 5.16699 -1.5 9.5 -4.5s6.5 -6.16699 6.5 -9.5c0 -13.333 -11 -32.666 -33 -57.999s-46.667 -38 -74 -38c-18.667 0 -43 10.667 -73 32c-20.667 14.667 -35.667 22 -45 22c-20 0 -37.667 -9.66699 -53 -29
c-6 -7.33301 -10.667 -11 -14 -11c-2 0 -5.16699 1.5 -9.5 4.5s-6.5 6.16699 -6.5 9.5c0 13.333 11 32.666 33 57.999s46.667 38 74 38c18.667 0 43 -10.667 73 -32c20.667 -14.667 35.667 -22 45 -22z" />
    <glyph glyph-name="adieresis" unicode="&#xe4;" horiz-adv-x="515" 
d="M500 463l-106.001 -348.001c-4 -12 -6 -22.667 -6 -32c0 -10.667 4.66699 -16 14 -16c7.33301 0 18.333 8.83301 33 26.5s27.334 34.5 38.001 50.5c4.66699 7.33301 8.66699 11 12 11c0.666992 0 2.33398 -0.666992 5.00098 -2c6.66699 -4 10 -8.33301 10 -13
s-14 -25.667 -42 -63c-17.333 -22.667 -37.833 -42.667 -61.5 -60s-42.5 -26 -56.5 -26c-13.333 0 -23.833 4.66699 -31.5 14s-11.5 22 -11.5 38c0 35.333 7.33301 76.333 22 123l-42 -60c-21.333 -30.667 -48.333 -57.5 -81 -80.5s-60 -34.5 -82 -34.5
c-28.667 0 -51.834 10.667 -69.501 32s-26.5 49 -26.5 83c0 40 10.667 82.833 32 128.5s51.333 88.834 90 129.501c56 60.667 115 91 177 91c21.333 0 40 -2.83301 56 -8.5s35.333 -16.5 58 -32.5l36 49h33zM373.999 391.999c-5.33301 12 -10.666 20.333 -15.999 25
s-13 7 -23 7c-24.667 0 -58.667 -27.667 -102 -83c-29.333 -38 -55.333 -80.833 -78 -128.5s-34 -83.5 -34 -107.5c0 -12.667 4.16699 -23.667 12.5 -33s18.166 -14 29.499 -14c20 0 45.833 16.833 77.5 50.5s63.167 79.167 94.5 136.5zM209.999 626.999
c0 18 6.16699 33.333 18.5 46s27.5 19 45.5 19s33.333 -6.33301 46 -19s19 -28 19 -46s-6.33301 -33.167 -19 -45.5s-28 -18.5 -46 -18.5s-33.167 6.16699 -45.5 18.5s-18.5 27.5 -18.5 45.5zM409.999 626.999c0 18 6.16699 33.333 18.5 46s27.5 19 45.5 19
s33.333 -6.33301 46 -19s19 -28 19 -46s-6.33301 -33.167 -19 -45.5s-28 -18.5 -46 -18.5s-33.167 6.16699 -45.5 18.5s-18.5 27.5 -18.5 45.5z" />
    <glyph glyph-name="aring" unicode="&#xe5;" horiz-adv-x="515" 
d="M500 463l-106.001 -348.001c-4 -12 -6 -22.667 -6 -32c0 -10.667 4.66699 -16 14 -16c7.33301 0 18.333 8.83301 33 26.5s27.334 34.5 38.001 50.5c4.66699 7.33301 8.66699 11 12 11c0.666992 0 2.33398 -0.666992 5.00098 -2c6.66699 -4 10 -8.33301 10 -13
s-14 -25.667 -42 -63c-17.333 -22.667 -37.833 -42.667 -61.5 -60s-42.5 -26 -56.5 -26c-13.333 0 -23.833 4.66699 -31.5 14s-11.5 22 -11.5 38c0 35.333 7.33301 76.333 22 123l-42 -60c-21.333 -30.667 -48.333 -57.5 -81 -80.5s-60 -34.5 -82 -34.5
c-28.667 0 -51.834 10.667 -69.501 32s-26.5 49 -26.5 83c0 40 10.667 82.833 32 128.5s51.333 88.834 90 129.501c56 60.667 115 91 177 91c21.333 0 40 -2.83301 56 -8.5s35.333 -16.5 58 -32.5l36 49h33zM373.999 391.999c-5.33301 12 -10.666 20.333 -15.999 25
s-13 7 -23 7c-24.667 0 -58.667 -27.667 -102 -83c-29.333 -38 -55.333 -80.833 -78 -128.5s-34 -83.5 -34 -107.5c0 -12.667 4.16699 -23.667 12.5 -33s18.166 -14 29.499 -14c20 0 45.833 16.833 77.5 50.5s63.167 79.167 94.5 136.5zM304.999 609.999
c0 30.667 11.002 56.833 33.002 78.5s48.667 32.5 80 32.5c25.333 0 45.666 -7.5 60.999 -22.5s23 -35.5 23 -61.5c0 -30 -10.833 -55.5 -32.5 -76.5s-47.834 -31.5 -78.501 -31.5c-26.667 0 -47.667 7.5 -63 22.5s-23 34.5 -23 58.5zM412.001 682.998
c-18 0 -33.332 -6.66797 -45.999 -20.001s-19 -29.333 -19 -48c0 -14 4.5 -25.833 13.5 -35.5s20.833 -14.5 35.5 -14.5c17.333 0 32.333 6.66699 45 20s19 29 19 47c0 14.667 -4.33301 26.834 -13 36.501s-20.334 14.5 -35.001 14.5z" />
    <glyph glyph-name="ae" unicode="&#xe6;" horiz-adv-x="666" 
d="M412 398c24.667 18 45.668 30.666 63.001 37.999s38.666 11 63.999 11c30 0 55.667 -6 77 -18s32 -32 32 -60c0 -16.667 -4.16699 -32.5 -12.5 -47.5s-18.333 -27.833 -30 -38.5s-27.334 -21.667 -47.001 -33s-37.167 -20.333 -52.5 -27l-58.5 -25.5l-53.5 -23.5
c-2.66699 -28 -4 -49.333 -4 -64c0 -43.333 15.333 -65 46 -65c15.333 0 30.5 5.16699 45.5 15.5s33 27 54 50s32.833 35.833 35.5 38.5c4 4 7.33301 6 10 6c8 0 12 -5.33301 12 -16c0 -0.666992 -1.33301 -3.66699 -4 -9c-26 -35.333 -56.333 -67.333 -91 -96
s-69.667 -43 -105 -43c-62 0 -99.333 27.333 -112 82l-25 -20.5c-13.333 -11 -22.166 -18 -26.499 -21l-23.5 -15.5c-11.333 -7.33301 -20.666 -12.166 -27.999 -14.499s-16.833 -4.83301 -28.5 -7.5s-23.5 -4 -35.5 -4c-30 0 -53.5 8.66699 -70.5 26s-25.5 41 -25.5 71
c0 26 6.66699 49.333 20 70s32 37.667 56 51s46.333 23.833 67 31.5s44.667 14.834 72 21.501c24 5.33301 49.667 12.333 77 21c10.667 42.667 16 78 16 106c0 12 -6 20.5 -18 25.5s-25 7.5 -39 7.5c-16.667 0 -34.167 -4.5 -52.5 -13.5s-29.166 -20.5 -32.499 -34.5
c4.66699 -9.33301 7 -17.666 7 -24.999c0 -12.667 -4.16699 -24 -12.5 -34s-19.5 -15 -33.5 -15c-12.667 0 -24 4.16699 -34 12.5s-15 18.833 -15 31.5c0 19.333 6.66699 36.166 20 50.499s30.166 25.166 50.499 32.499s40.166 12.833 59.499 16.5s37.666 5.5 54.999 5.5
c22.667 0 40.167 -0.666992 52.5 -2s25.833 -5.83301 40.5 -13.5s27.334 -19.167 38.001 -34.5zM400.001 208.999c43.333 14 81 35.834 113 65.501s48 65.5 48 107.5c0 11.333 -3.66699 20.666 -11 27.999s-16.333 11 -27 11c-45.333 0 -86.333 -70.667 -123 -212z
M303.001 251c-2 -1.33301 -17.334 -5.66699 -46.001 -13c-38 -10 -72.667 -26.833 -104 -50.5s-47 -52.5 -47 -86.5c0 -18.667 5.33301 -34 16 -46s25.334 -18 44.001 -18c24.667 0 46 10.667 64 32c10 12.667 24.667 42 44 88s29 75.667 29 89v5z" />
    <glyph glyph-name="ccedilla" unicode="&#xe7;" horiz-adv-x="429" 
d="M341 163c4.66699 0 9.3291 -2.16504 13.9961 -6.49805s7 -8.83301 7 -13.5c0 -1.33301 -0.5 -2.83301 -1.5 -4.5l-4 -6.5l-4.5 -7c-22.667 -36.667 -51.667 -68.5 -87 -95.5s-73.666 -40.5 -114.999 -40.5l-19 -26c0 -4.66699 2 -7 6 -7c50 -2.66699 75 -21.667 75 -57
c0 -28.667 -14.5 -51.5 -43.5 -68.5s-59.833 -25.5 -92.5 -25.5c-14.667 0 -27.167 2.5 -37.5 7.5s-15.5 10.833 -15.5 17.5c0 12 5.33301 18 16 18c6.66699 0 14.5 -4.16699 23.5 -12.5s17.833 -12.5 26.5 -12.5c12 0 23.667 3.83301 35 11.5s17 18.5 17 32.5
c0 11.333 -4.5 21 -13.5 29s-22.5 12.333 -40.5 13c-12 0 -18 3.66699 -18 11c0 3.33301 1.33301 6.66602 4 9.99902l48 64c-26.667 7.33301 -48.5 22.166 -65.5 44.499s-25.5 48.5 -25.5 78.5c0 38.667 8.33301 78.667 25 120s37.834 77.666 63.501 108.999
s54.167 57 85.5 77s60.666 30 87.999 30c33.333 0 62.666 -8.66699 87.999 -26s38 -37.666 38 -60.999c0 -14 -4.5 -25.5 -13.5 -34.5s-19.833 -13.5 -32.5 -13.5c-26.667 0 -46.667 21.333 -60 64c-5.33301 17.333 -9.66602 28.333 -12.999 33s-9.66602 7 -18.999 7
c-14 0 -31.667 -17.333 -53 -52s-40 -76.667 -56 -126s-24 -92.333 -24 -129c0 -42 21 -63 63 -63c12.667 0 26.334 5.5 41.001 16.5s26.834 22.333 36.501 34s23.167 29.167 40.5 52.5c4 5.33301 8.33301 8 13 8z" />
    <glyph glyph-name="egrave" unicode="&#xe8;" horiz-adv-x="400" 
d="M153 194c-8 -24 -12.001 -53.998 -12.001 -89.998c0 -19.333 4 -34.5 12 -45.5s19 -16.5 33 -16.5c28 0 74 32.667 138 98c6.66699 6.66699 11.334 10 14.001 10s6.5 -2.5 11.5 -7.5s7.5 -9.83301 7.5 -14.5c0 -4 -8.33301 -14.333 -25 -31
c-36.667 -36.667 -70 -64.5 -100 -83.5s-64 -28.5 -102 -28.5c-30 0 -55 12 -75 36s-30 53.667 -30 89c0 51.333 14.5 103.666 43.5 156.999s65.833 97.166 110.5 131.499s88 51.5 130 51.5c60.667 0 91 -28.333 91 -85c0 -39.333 -25 -76.333 -75 -111
s-107.333 -54.667 -172 -60zM160.999 222.002c52 13.333 91.501 35.167 118.501 65.5s40.5 60.5 40.5 90.5c0 11.333 -3.83301 21.166 -11.5 29.499s-16.834 12.5 -27.501 12.5c-20.667 0 -42.167 -18.667 -64.5 -56s-40.833 -84.666 -55.5 -141.999zM253 719.003
c18.667 0 31.333 -8.99902 38 -26.999l46 -128c1.33301 -4 2 -7.33301 2 -10c0 -3.33301 -2.5 -6.83301 -7.5 -10.5s-9.83301 -5.5 -14.5 -5.5c-2.66699 0 -6.66699 2.66699 -12 8l-89 105c-6 9.33301 -9 18.666 -9 27.999c0 10.667 4.5 20 13.5 28s19.833 12 32.5 12z" />
    <glyph glyph-name="eacute" unicode="&#xe9;" horiz-adv-x="400" 
d="M153 194c-8 -24 -12.001 -53.998 -12.001 -89.998c0 -19.333 4 -34.5 12 -45.5s19 -16.5 33 -16.5c28 0 74 32.667 138 98c6.66699 6.66699 11.334 10 14.001 10s6.5 -2.5 11.5 -7.5s7.5 -9.83301 7.5 -14.5c0 -4 -8.33301 -14.333 -25 -31
c-36.667 -36.667 -70 -64.5 -100 -83.5s-64 -28.5 -102 -28.5c-30 0 -55 12 -75 36s-30 53.667 -30 89c0 51.333 14.5 103.666 43.5 156.999s65.833 97.166 110.5 131.499s88 51.5 130 51.5c60.667 0 91 -28.333 91 -85c0 -39.333 -25 -76.333 -75 -111
s-107.333 -54.667 -172 -60zM160.999 222.002c52 13.333 91.501 35.167 118.501 65.5s40.5 60.5 40.5 90.5c0 11.333 -3.83301 21.166 -11.5 29.499s-16.834 12.5 -27.501 12.5c-20.667 0 -42.167 -18.667 -64.5 -56s-40.833 -84.666 -55.5 -141.999zM470 718.003
c12 0 21.6689 -3.66602 29.002 -10.999s11 -16.333 11 -27c0 -8 -2.83301 -16.5 -8.5 -25.5s-12.834 -16.167 -21.501 -21.5l-135 -81c-6.66699 -3.33301 -11.334 -5 -14.001 -5c-4 0 -8 2.16699 -12 6.5s-6 8.16602 -6 11.499s2 7 6 11l106 120
c16.667 14.667 31.667 22 45 22z" />
    <glyph glyph-name="ecircumflex" unicode="&#xea;" horiz-adv-x="400" 
d="M153 194c-8 -24 -12.001 -53.998 -12.001 -89.998c0 -19.333 4 -34.5 12 -45.5s19 -16.5 33 -16.5c28 0 74 32.667 138 98c6.66699 6.66699 11.334 10 14.001 10s6.5 -2.5 11.5 -7.5s7.5 -9.83301 7.5 -14.5c0 -4 -8.33301 -14.333 -25 -31
c-36.667 -36.667 -70 -64.5 -100 -83.5s-64 -28.5 -102 -28.5c-30 0 -55 12 -75 36s-30 53.667 -30 89c0 51.333 14.5 103.666 43.5 156.999s65.833 97.166 110.5 131.499s88 51.5 130 51.5c60.667 0 91 -28.333 91 -85c0 -39.333 -25 -76.333 -75 -111
s-107.333 -54.667 -172 -60zM160.999 222.002c52 13.333 91.501 35.167 118.501 65.5s40.5 60.5 40.5 90.5c0 11.333 -3.83301 21.166 -11.5 29.499s-16.834 12.5 -27.501 12.5c-20.667 0 -42.167 -18.667 -64.5 -56s-40.833 -84.666 -55.5 -141.999zM415 531.003
l-80.001 80.999l-107 -66c-7.33301 -4.66699 -13 -7 -17 -7c-2.66699 0 -5.5 1.83301 -8.5 5.5s-4.5 6.83398 -4.5 9.50098c0 3.33301 2.33301 7.33301 7 12l112 116c16 16 28.333 24 37 24c8 0 15.667 -8 23 -24l63 -136c1.33301 -2.66699 2 -5 2 -7
c0 -2.66699 -2.16699 -5.5 -6.5 -8.5s-8.16602 -4.5 -11.499 -4.5c-2.66699 0 -5.66699 1.66699 -9 5z" />
    <glyph glyph-name="edieresis" unicode="&#xeb;" horiz-adv-x="400" 
d="M153 194c-8 -24 -12.001 -53.998 -12.001 -89.998c0 -19.333 4 -34.5 12 -45.5s19 -16.5 33 -16.5c28 0 74 32.667 138 98c6.66699 6.66699 11.334 10 14.001 10s6.5 -2.5 11.5 -7.5s7.5 -9.83301 7.5 -14.5c0 -4 -8.33301 -14.333 -25 -31
c-36.667 -36.667 -70 -64.5 -100 -83.5s-64 -28.5 -102 -28.5c-30 0 -55 12 -75 36s-30 53.667 -30 89c0 51.333 14.5 103.666 43.5 156.999s65.833 97.166 110.5 131.499s88 51.5 130 51.5c60.667 0 91 -28.333 91 -85c0 -39.333 -25 -76.333 -75 -111
s-107.333 -54.667 -172 -60zM160.999 222.002c52 13.333 91.501 35.167 118.501 65.5s40.5 60.5 40.5 90.5c0 11.333 -3.83301 21.166 -11.5 29.499s-16.834 12.5 -27.501 12.5c-20.667 0 -42.167 -18.667 -64.5 -56s-40.833 -84.666 -55.5 -141.999zM173 627.003
c0 18 6.16699 33.333 18.5 46s27.5 19 45.5 19s33.333 -6.33301 46 -19s19 -28 19 -46s-6.33301 -33.167 -19 -45.5s-28 -18.5 -46 -18.5s-33.167 6.16699 -45.5 18.5s-18.5 27.5 -18.5 45.5zM373 627.003c0 18 6.16699 33.333 18.5 46s27.5 19 45.5 19
s33.333 -6.33301 46 -19s19 -28 19 -46s-6.33301 -33.167 -19 -45.5s-28 -18.5 -46 -18.5s-33.167 6.16699 -45.5 18.5s-18.5 27.5 -18.5 45.5z" />
    <glyph glyph-name="igrave" unicode="&#xec;" horiz-adv-x="320" 
d="M97 324l-26.999 -29c-2 -2.66699 -4.33301 -4 -7 -4c-2.66699 0.666992 -6 2.5 -10 5.5s-6 5.83301 -6 8.5c0 8.66699 20.333 32.334 61 71.001c46 44 82.667 66 110 66c15.333 0 27.5 -4.5 36.5 -13.5s13.5 -21.833 13.5 -38.5c0 -6 -1.33301 -14.167 -4 -24.5
s-6.83398 -22.833 -12.501 -37.5l-15 -38l-18 -43.5l-15.5 -36.5c-27.333 -65.333 -41 -105.333 -41 -120c0 -8.66699 3.66699 -13 11 -13s20.666 9.66699 39.999 29c2.66699 3.33301 5.5 6.5 8.5 9.5s5.5 5.66699 7.5 8s3.83301 4.66602 5.5 6.99902s3.16699 4.33301 4.5 6
s2.5 3 3.5 4s2 1.83301 3 2.5s1.83301 1 2.5 1c2.66699 0 5.33398 -2 8.00098 -6s4 -8 4 -12c0 -6.66699 -14.333 -23.667 -43 -51c-56.667 -56.667 -100.667 -85 -132 -85c-12 0 -22.167 5 -30.5 15s-12.5 21.667 -12.5 35c0 18.667 22.333 76 67 172
c33.333 71.333 50 113.666 50 126.999c0 14 -4.66699 21 -14 21c-7.33301 0 -14 -2.66699 -20 -8s-15.333 -14.666 -28 -27.999zM160.001 719c18.667 0 31.333 -8.99902 38 -26.999l46 -128c1.33301 -4 2 -7.33301 2 -10c0 -3.33301 -2.5 -6.83301 -7.5 -10.5
s-9.83301 -5.5 -14.5 -5.5c-2.66699 0 -6.66699 2.66699 -12 8l-89 105c-6 9.33301 -9 18.666 -9 27.999c0 10.667 4.5 20 13.5 28s19.833 12 32.5 12z" />
    <glyph glyph-name="iacute" unicode="&#xed;" horiz-adv-x="320" 
d="M97 324l-26.999 -29c-2 -2.66699 -4.33301 -4 -7 -4c-2.66699 0.666992 -6 2.5 -10 5.5s-6 5.83301 -6 8.5c0 8.66699 20.333 32.334 61 71.001c46 44 82.667 66 110 66c15.333 0 27.5 -4.5 36.5 -13.5s13.5 -21.833 13.5 -38.5c0 -6 -1.33301 -14.167 -4 -24.5
s-6.83398 -22.833 -12.501 -37.5l-15 -38l-18 -43.5l-15.5 -36.5c-27.333 -65.333 -41 -105.333 -41 -120c0 -8.66699 3.66699 -13 11 -13s20.666 9.66699 39.999 29c2.66699 3.33301 5.5 6.5 8.5 9.5s5.5 5.66699 7.5 8s3.83301 4.66602 5.5 6.99902s3.16699 4.33301 4.5 6
s2.5 3 3.5 4s2 1.83301 3 2.5s1.83301 1 2.5 1c2.66699 0 5.33398 -2 8.00098 -6s4 -8 4 -12c0 -6.66699 -14.333 -23.667 -43 -51c-56.667 -56.667 -100.667 -85 -132 -85c-12 0 -22.167 5 -30.5 15s-12.5 21.667 -12.5 35c0 18.667 22.333 76 67 172
c33.333 71.333 50 113.666 50 126.999c0 14 -4.66699 21 -14 21c-7.33301 0 -14 -2.66699 -20 -8s-15.333 -14.666 -28 -27.999zM377.001 718c11.333 0 20.835 -3.66602 28.502 -10.999s11.5 -16.333 11.5 -27c0 -8 -2.83301 -16.5 -8.5 -25.5
s-12.834 -16.167 -21.501 -21.5l-135 -81c-6.66699 -3.33301 -11.334 -5 -14.001 -5c-4 0 -8 2.16699 -12 6.5s-6 8.16602 -6 11.499s2 7 6 11l106 120c16.667 14.667 31.667 22 45 22z" />
    <glyph glyph-name="icircumflex" unicode="&#xee;" horiz-adv-x="320" 
d="M97 324l-26.999 -29c-2 -2.66699 -4.33301 -4 -7 -4c-2.66699 0.666992 -6 2.5 -10 5.5s-6 5.83301 -6 8.5c0 8.66699 20.333 32.334 61 71.001c46 44 82.667 66 110 66c15.333 0 27.5 -4.5 36.5 -13.5s13.5 -21.833 13.5 -38.5c0 -6 -1.33301 -14.167 -4 -24.5
s-6.83398 -22.833 -12.501 -37.5l-15 -38l-18 -43.5l-15.5 -36.5c-27.333 -65.333 -41 -105.333 -41 -120c0 -8.66699 3.66699 -13 11 -13s20.666 9.66699 39.999 29c2.66699 3.33301 5.5 6.5 8.5 9.5s5.5 5.66699 7.5 8s3.83301 4.66602 5.5 6.99902s3.16699 4.33301 4.5 6
s2.5 3 3.5 4s2 1.83301 3 2.5s1.83301 1 2.5 1c2.66699 0 5.33398 -2 8.00098 -6s4 -8 4 -12c0 -6.66699 -14.333 -23.667 -43 -51c-56.667 -56.667 -100.667 -85 -132 -85c-12 0 -22.167 5 -30.5 15s-12.5 21.667 -12.5 35c0 18.667 22.333 76 67 172
c33.333 71.333 50 113.666 50 126.999c0 14 -4.66699 21 -14 21c-7.33301 0 -14 -2.66699 -20 -8s-15.333 -14.666 -28 -27.999zM344.001 531l-80.001 80.999l-107 -66c-7.33301 -4.66699 -13 -7 -17 -7c-2.66699 0 -5.5 1.83301 -8.5 5.5s-4.5 6.83398 -4.5 9.50098
c0 3.33301 2.33301 7.33301 7 12l112 116c16 16 28.333 24 37 24c8 0 15.667 -8 23 -24l63 -136c1.33301 -2.66699 2 -5 2 -7c0 -2.66699 -2.16699 -5.5 -6.5 -8.5s-8.16602 -4.5 -11.499 -4.5c-2.66699 0 -5.66699 1.66699 -9 5z" />
    <glyph glyph-name="idieresis" unicode="&#xef;" horiz-adv-x="320" 
d="M97 324l-26.999 -29c-2 -2.66699 -4.33301 -4 -7 -4c-2.66699 0.666992 -6 2.5 -10 5.5s-6 5.83301 -6 8.5c0 8.66699 20.333 32.334 61 71.001c46 44 82.667 66 110 66c15.333 0 27.5 -4.5 36.5 -13.5s13.5 -21.833 13.5 -38.5c0 -6 -1.33301 -14.167 -4 -24.5
s-6.83398 -22.833 -12.501 -37.5l-15 -38l-18 -43.5l-15.5 -36.5c-27.333 -65.333 -41 -105.333 -41 -120c0 -8.66699 3.66699 -13 11 -13s20.666 9.66699 39.999 29c2.66699 3.33301 5.5 6.5 8.5 9.5s5.5 5.66699 7.5 8s3.83301 4.66602 5.5 6.99902s3.16699 4.33301 4.5 6
s2.5 3 3.5 4s2 1.83301 3 2.5s1.83301 1 2.5 1c2.66699 0 5.33398 -2 8.00098 -6s4 -8 4 -12c0 -6.66699 -14.333 -23.667 -43 -51c-56.667 -56.667 -100.667 -85 -132 -85c-12 0 -22.167 5 -30.5 15s-12.5 21.667 -12.5 35c0 18.667 22.333 76 67 172
c33.333 71.333 50 113.666 50 126.999c0 14 -4.66699 21 -14 21c-7.33301 0 -14 -2.66699 -20 -8s-15.333 -14.666 -28 -27.999zM110.001 627c0 18 6.16699 33.333 18.5 46s27.5 19 45.5 19s33.333 -6.33301 46 -19s19 -28 19 -46s-6.33301 -33.167 -19 -45.5
s-28 -18.5 -46 -18.5s-33.167 6.16699 -45.5 18.5s-18.5 27.5 -18.5 45.5zM290.001 627c0 18 6.16699 33.333 18.5 46s27.5 19 45.5 19s33.333 -6.33301 46 -19s19 -28 19 -46s-6.33301 -33.167 -19 -45.5s-28 -18.5 -46 -18.5s-33.167 6.16699 -45.5 18.5
s-18.5 27.5 -18.5 45.5z" />
    <glyph glyph-name="eth" unicode="&#xf0;" horiz-adv-x="461" 
d="M236 553l83.001 38.998c-14 41.333 -36.333 80.333 -67 117c-5.33301 6.66699 -8 11.334 -8 14.001s2.66699 5.33398 8 8.00098s10.333 4 15 4c2 0 7 -4 15 -12c33.333 -30 60.333 -67 81 -111l87 41c1.33301 0.666992 2.66602 1 3.99902 1s2.66602 -1.66699 3.99902 -5
l8 -23c0.666992 -1.33301 1 -3.33301 1 -6c0 -4 -3.33301 -8 -10 -12l-77 -36c24 -62.667 36 -131.667 36 -207c0 -56.667 -8 -112.5 -24 -167.5s-42.5 -103.167 -79.5 -144.5s-80.833 -62 -131.5 -62c-93.333 0 -140 62.333 -140 187c0 69.333 22.5 131 67.5 185
s96.5 81 154.5 81c28.667 0 55.334 -10.667 80.001 -32l1 26c0 38 -4 75 -12 111l-89 -41c-4 -1.33301 -6.66699 0 -8 4l-8 23c-1.33301 2.66699 -2 5.33398 -2 8.00098c0 3.33301 3.66699 6.66602 11 9.99902zM287.001 420.998c-35.333 0 -68.3311 -39.667 -98.998 -119
c-44.667 -114.667 -67 -187 -67 -217c0 -18 4 -33 12 -45s17.667 -18 29 -18s24.666 7.66699 39.999 23s28.666 34.333 39.999 57c21.333 42.667 39.5 89.667 54.5 141s22.5 90.333 22.5 117c0 16 -3.16699 30.167 -9.5 42.5s-13.833 18.5 -22.5 18.5z" />
    <glyph glyph-name="ntilde" unicode="&#xf1;" horiz-adv-x="578" 
d="M165 0l-97.999 -0.000976562c67.333 208 101 326 101 354c0 8.66699 -4.66699 13 -14 13c-8 0 -18.833 -7.33301 -32.5 -22s-27.5 -33.667 -41.5 -57c-4.66699 -6.66699 -8 -10 -10 -10c-2.66699 0 -5.66699 1 -9 3c-6 3.33301 -9 6.66602 -9 9.99902c0 4 6 14.667 18 32
l25 37c15.333 22.667 34.5 42 57.5 58s43.5 24 61.5 24c16.667 0 29.667 -5.66699 39 -17s14 -27 14 -47c0 -23.333 -8.33301 -67.666 -25 -132.999c48.667 71.333 88.834 122.666 120.501 153.999s59.167 47 82.5 47c17.333 0 31.833 -6.83301 43.5 -20.5
s17.5 -30.5 17.5 -50.5c0 -28.667 -16.167 -82.5 -48.5 -161.5s-48.5 -120.167 -48.5 -123.5c0 -4 1.33301 -7.5 4 -10.5s6 -4.5 10 -4.5c3.33301 0 6.66602 1 9.99902 3s9.5 8.16699 18.5 18.5l39.5 47.5c8.66699 11.333 14 17 16 17c2.66699 0 6.33398 -1.5 11.001 -4.5
s7 -5.83301 7 -8.5c0 -5.33301 -10.667 -21 -32 -47c-57.333 -70.667 -105.333 -106 -144 -106c-12.667 0 -23.334 5 -32.001 15s-13 22.333 -13 37c0 24.667 17 78.334 51 161.001c36.667 90.667 55 141.334 55 152.001s-5.33301 16 -16 16
c-22 0 -61.667 -45.333 -119 -136c-44.667 -68.667 -81.334 -148.667 -110.001 -240zM473.001 645.999c20 0 37.667 9.66699 53 29c6 7.33301 10.667 11 14 11c2 0 5.16699 -1.5 9.5 -4.5s6.5 -6.16699 6.5 -9.5c0 -13.333 -11 -32.666 -33 -57.999s-46.667 -38 -74 -38
c-18.667 0 -43 10.667 -73 32c-20.667 14.667 -35.667 22 -45 22c-20 0 -37.667 -9.66699 -53 -29c-6 -7.33301 -10.667 -11 -14 -11c-2 0 -5.16699 1.5 -9.5 4.5s-6.5 6.16699 -6.5 9.5c0 13.333 11 32.666 33 57.999s46.667 38 74 38c18.667 0 43 -10.667 73 -32
c20.667 -14.667 35.667 -22 45 -22z" />
    <glyph glyph-name="ograve" unicode="&#xf2;" horiz-adv-x="451" 
d="M406 272c0 -37.333 -9.16699 -77.333 -27.5 -120s-45.5 -80.167 -81.5 -112.5s-74.667 -48.5 -116 -48.5c-93.333 0 -140 62.333 -140 187c0 69.333 22.5 131 67.5 185s96.5 81 154.5 81c39.333 0 73 -16.833 101 -50.5s42 -74.167 42 -121.5zM121 74
c0 -34.667 13.6689 -52.001 41.002 -52.001c11.333 0 24.666 7.66699 39.999 23s28.666 34.333 39.999 57c21.333 42.667 39.5 89.667 54.5 141s22.5 90.333 22.5 117c0 20.667 -3.5 35.834 -10.5 45.501s-15.167 14.5 -24.5 14.5c-18 0 -34.5 -10 -49.5 -30
s-30.5 -49.333 -46.5 -88c-44.667 -107.333 -67 -183.333 -67 -228zM260.002 718.999c18.667 0 31.333 -8.99902 38 -26.999l46 -128c1.33301 -4 2 -7.33301 2 -10c0 -3.33301 -2.5 -6.83301 -7.5 -10.5s-9.83301 -5.5 -14.5 -5.5c-2.66699 0 -6.66699 2.66699 -12 8
l-89 105c-6 9.33301 -9 18.666 -9 27.999c0 10.667 4.5 20 13.5 28s19.833 12 32.5 12z" />
    <glyph glyph-name="oacute" unicode="&#xf3;" horiz-adv-x="451" 
d="M406 272c0 -37.333 -9.16699 -77.333 -27.5 -120s-45.5 -80.167 -81.5 -112.5s-74.667 -48.5 -116 -48.5c-93.333 0 -140 62.333 -140 187c0 69.333 22.5 131 67.5 185s96.5 81 154.5 81c39.333 0 73 -16.833 101 -50.5s42 -74.167 42 -121.5zM121 74
c0 -34.667 13.6689 -52.001 41.002 -52.001c11.333 0 24.666 7.66699 39.999 23s28.666 34.333 39.999 57c21.333 42.667 39.5 89.667 54.5 141s22.5 90.333 22.5 117c0 20.667 -3.5 35.834 -10.5 45.501s-15.167 14.5 -24.5 14.5c-18 0 -34.5 -10 -49.5 -30
s-30.5 -49.333 -46.5 -88c-44.667 -107.333 -67 -183.333 -67 -228zM447.002 717.999c11.333 0 20.835 -3.66602 28.502 -10.999s11.5 -16.333 11.5 -27c0 -8 -2.83301 -16.5 -8.5 -25.5s-12.834 -16.167 -21.501 -21.5l-135 -81c-6.66699 -3.33301 -11.334 -5 -14.001 -5
c-4 0 -8 2.16699 -12 6.5s-6 8.16602 -6 11.499s2 7 6 11l106 120c16.667 14.667 31.667 22 45 22z" />
    <glyph glyph-name="ocircumflex" unicode="&#xf4;" horiz-adv-x="451" 
d="M406 272c0 -37.333 -9.16699 -77.333 -27.5 -120s-45.5 -80.167 -81.5 -112.5s-74.667 -48.5 -116 -48.5c-93.333 0 -140 62.333 -140 187c0 69.333 22.5 131 67.5 185s96.5 81 154.5 81c39.333 0 73 -16.833 101 -50.5s42 -74.167 42 -121.5zM121 74
c0 -34.667 13.6689 -52.001 41.002 -52.001c11.333 0 24.666 7.66699 39.999 23s28.666 34.333 39.999 57c21.333 42.667 39.5 89.667 54.5 141s22.5 90.333 22.5 117c0 20.667 -3.5 35.834 -10.5 45.501s-15.167 14.5 -24.5 14.5c-18 0 -34.5 -10 -49.5 -30
s-30.5 -49.333 -46.5 -88c-44.667 -107.333 -67 -183.333 -67 -228zM404.002 530.999l-80.001 80.999l-107 -66c-7.33301 -4.66699 -13 -7 -17 -7c-2.66699 0 -5.5 1.83301 -8.5 5.5s-4.5 6.83398 -4.5 9.50098c0 3.33301 2.33301 7.33301 7 12l112 116
c16 16 28.333 24 37 24c8 0 15.667 -8 23 -24l63 -136c1.33301 -2.66699 2 -5 2 -7c0 -2.66699 -2.16699 -5.5 -6.5 -8.5s-8.16602 -4.5 -11.499 -4.5c-2.66699 0 -5.66699 1.66699 -9 5z" />
    <glyph glyph-name="otilde" unicode="&#xf5;" horiz-adv-x="451" 
d="M406 272c0 -37.333 -9.16699 -77.333 -27.5 -120s-45.5 -80.167 -81.5 -112.5s-74.667 -48.5 -116 -48.5c-93.333 0 -140 62.333 -140 187c0 69.333 22.5 131 67.5 185s96.5 81 154.5 81c39.333 0 73 -16.833 101 -50.5s42 -74.167 42 -121.5zM121 74
c0 -34.667 13.6689 -52.001 41.002 -52.001c11.333 0 24.666 7.66699 39.999 23s28.666 34.333 39.999 57c21.333 42.667 39.5 89.667 54.5 141s22.5 90.333 22.5 117c0 20.667 -3.5 35.834 -10.5 45.501s-15.167 14.5 -24.5 14.5c-18 0 -34.5 -10 -49.5 -30
s-30.5 -49.333 -46.5 -88c-44.667 -107.333 -67 -183.333 -67 -228zM423.002 645.999c20 0 37.667 9.66699 53 29c6 7.33301 10.667 11 14 11c2 0 5.16699 -1.5 9.5 -4.5s6.5 -6.16699 6.5 -9.5c0 -13.333 -11 -32.666 -33 -57.999s-46.667 -38 -74 -38
c-18.667 0 -43 10.667 -73 32c-20.667 14.667 -35.667 22 -45 22c-20 0 -37.667 -9.66699 -53 -29c-6 -7.33301 -10.667 -11 -14 -11c-2 0 -5.16699 1.5 -9.5 4.5s-6.5 6.16699 -6.5 9.5c0 13.333 11 32.666 33 57.999s46.667 38 74 38c18.667 0 43 -10.667 73 -32
c20.667 -14.667 35.667 -22 45 -22z" />
    <glyph glyph-name="odieresis" unicode="&#xf6;" horiz-adv-x="451" 
d="M406 272c0 -37.333 -9.16699 -77.333 -27.5 -120s-45.5 -80.167 -81.5 -112.5s-74.667 -48.5 -116 -48.5c-93.333 0 -140 62.333 -140 187c0 69.333 22.5 131 67.5 185s96.5 81 154.5 81c39.333 0 73 -16.833 101 -50.5s42 -74.167 42 -121.5zM121 74
c0 -34.667 13.6689 -52.001 41.002 -52.001c11.333 0 24.666 7.66699 39.999 23s28.666 34.333 39.999 57c21.333 42.667 39.5 89.667 54.5 141s22.5 90.333 22.5 117c0 20.667 -3.5 35.834 -10.5 45.501s-15.167 14.5 -24.5 14.5c-18 0 -34.5 -10 -49.5 -30
s-30.5 -49.333 -46.5 -88c-44.667 -107.333 -67 -183.333 -67 -228zM170.002 626.999c0 18 6.16699 33.333 18.5 46s27.5 19 45.5 19s33.333 -6.33301 46 -19s19 -28 19 -46s-6.33301 -33.167 -19 -45.5s-28 -18.5 -46 -18.5s-33.167 6.16699 -45.5 18.5
s-18.5 27.5 -18.5 45.5zM370.002 626.999c0 18 6.16699 33.333 18.5 46s27.5 19 45.5 19s33.333 -6.33301 46 -19s19 -28 19 -46s-6.33301 -33.167 -19 -45.5s-28 -18.5 -46 -18.5s-33.167 6.16699 -45.5 18.5s-18.5 27.5 -18.5 45.5z" />
    <glyph glyph-name="divide" unicode="&#xf7;" horiz-adv-x="538" 
d="M38 392v-63h463v63h-463zM200 186c0 19.333 6.5 35.5 19.5 48.5s28.833 19.5 47.5 19.5c19.333 0 35.5 -6.66699 48.5 -20s19.5 -29.333 19.5 -48s-6.5 -34.5 -19.5 -47.5s-29.167 -19.5 -48.5 -19.5s-35.333 6.5 -48 19.5s-19 28.833 -19 47.5zM200 530
c0 19.333 6.5 35.5 19.5 48.5s28.833 19.5 47.5 19.5c19.333 0 35.5 -6.66699 48.5 -20s19.5 -29.333 19.5 -48s-6.5 -34.5 -19.5 -47.5s-29.167 -19.5 -48.5 -19.5s-35.333 6.5 -48 19.5s-19 28.833 -19 47.5z" />
    <glyph glyph-name="oslash" unicode="&#xf8;" horiz-adv-x="451" 
d="M406 272c0 -37.333 -9.16699 -77.333 -27.5 -120s-45.5 -80.167 -81.5 -112.5s-74.667 -48.5 -116 -48.5c-35.333 0 -64.333 9.66699 -87 29l-32 -40c-3.33301 -4.66699 -7 -5.33398 -11 -2.00098l-17 22c-3.33301 4 -4.83301 7 -4.5 9s2.16602 5 5.49902 9l30 38
c-16 30 -24 70.667 -24 122c0 69.333 22.5 131 67.5 185s96.5 81 154.5 81c30 0 58 -12 84 -36l38 48c3.33301 4.66699 7 5.33398 11 2.00098l17 -22c3.33301 -4 4.83301 -7 4.5 -9s-2.16602 -5 -5.49902 -9l-36 -44c20 -30.667 30 -64.667 30 -102zM287 421
c-35.333 0 -68.333 -39.667 -99 -119c-26 -66 -44.667 -120.333 -56 -163l186 233c-1.33301 14 -5 25.667 -11 35s-12.667 14 -20 14zM242 102c30 62 52.002 124 66.002 186l-184 -230c7.33301 -24 20 -36 38 -36c11.333 0 24.666 7.66699 39.999 23
s28.666 34.333 39.999 57z" />
    <glyph glyph-name="ugrave" unicode="&#xf9;" horiz-adv-x="578" 
d="M519 432c-66.667 -201.333 -99.9961 -317.332 -99.9961 -347.999c0 -8.66699 4 -13 12 -13c13.333 0 37.666 26 72.999 78c5.33301 7.33301 9 11 11 11c3.33301 0 7.16602 -1.5 11.499 -4.5s6.5 -5.5 6.5 -7.5c0 -1.33301 -2 -5.66602 -6 -12.999
c-15.333 -28.667 -32.666 -54 -51.999 -76c-39.333 -44.667 -73.666 -67 -102.999 -67c-32 0 -48 23.333 -48 70c0 27.333 8 71.666 24 132.999c-46.667 -72 -85.834 -124.167 -117.501 -156.5s-63.5 -48.5 -95.5 -48.5c-19.333 0 -35 6.5 -47 19.5s-18 29.833 -18 50.5
c0 27.333 16.333 81 49 161s49 123.667 49 131c0 5.33301 -4.66699 8 -14 8c-6.66699 0 -14 -4 -22 -12s-23 -25.333 -45 -52c-7.33301 -9.33301 -12.333 -14 -15 -14s-6 2 -10 6s-6 7.33301 -6 10c0 6 18.667 29.667 56 71c17.333 20.667 37.666 38 60.999 52
s42.666 21 57.999 21c14 0 25 -5 33 -15s12 -23.333 12 -40c0 -20 -16.667 -72.667 -50 -158l-19.5 -49c-7.66699 -19.333 -13.834 -34.333 -18.501 -45s-8.66699 -21.5 -12 -32.5s-5 -19.167 -5 -24.5c0 -12.667 5.33301 -19 16 -19c12.667 0 27 7.16699 43 21.5
s29.833 29.666 41.5 45.999s26.167 37.833 43.5 64.5c42.667 66.667 78 147 106 241h98zM290.004 719.001c18.667 0 31.333 -8.99902 38 -26.999l46 -128c1.33301 -4 2 -7.33301 2 -10c0 -3.33301 -2.5 -6.83301 -7.5 -10.5s-9.83301 -5.5 -14.5 -5.5
c-2.66699 0 -6.66699 2.66699 -12 8l-89 105c-6 9.33301 -9 18.666 -9 27.999c0 10.667 4.5 20 13.5 28s19.833 12 32.5 12z" />
    <glyph glyph-name="uacute" unicode="&#xfa;" horiz-adv-x="578" 
d="M519 432c-66.667 -201.333 -99.9961 -317.332 -99.9961 -347.999c0 -8.66699 4 -13 12 -13c13.333 0 37.666 26 72.999 78c5.33301 7.33301 9 11 11 11c3.33301 0 7.16602 -1.5 11.499 -4.5s6.5 -5.5 6.5 -7.5c0 -1.33301 -2 -5.66602 -6 -12.999
c-15.333 -28.667 -32.666 -54 -51.999 -76c-39.333 -44.667 -73.666 -67 -102.999 -67c-32 0 -48 23.333 -48 70c0 27.333 8 71.666 24 132.999c-46.667 -72 -85.834 -124.167 -117.501 -156.5s-63.5 -48.5 -95.5 -48.5c-19.333 0 -35 6.5 -47 19.5s-18 29.833 -18 50.5
c0 27.333 16.333 81 49 161s49 123.667 49 131c0 5.33301 -4.66699 8 -14 8c-6.66699 0 -14 -4 -22 -12s-23 -25.333 -45 -52c-7.33301 -9.33301 -12.333 -14 -15 -14s-6 2 -10 6s-6 7.33301 -6 10c0 6 18.667 29.667 56 71c17.333 20.667 37.666 38 60.999 52
s42.666 21 57.999 21c14 0 25 -5 33 -15s12 -23.333 12 -40c0 -20 -16.667 -72.667 -50 -158l-19.5 -49c-7.66699 -19.333 -13.834 -34.333 -18.501 -45s-8.66699 -21.5 -12 -32.5s-5 -19.167 -5 -24.5c0 -12.667 5.33301 -19 16 -19c12.667 0 27 7.16699 43 21.5
s29.833 29.666 41.5 45.999s26.167 37.833 43.5 64.5c42.667 66.667 78 147 106 241h98zM497.004 718.001c11.333 0 20.835 -3.66602 28.502 -10.999s11.5 -16.333 11.5 -27c0 -8 -2.83301 -16.5 -8.5 -25.5s-12.834 -16.167 -21.501 -21.5l-135 -81
c-6.66699 -3.33301 -11.334 -5 -14.001 -5c-4 0 -8 2.16699 -12 6.5s-6 8.16602 -6 11.499s2 7 6 11l106 120c16.667 14.667 31.667 22 45 22z" />
    <glyph glyph-name="ucircumflex" unicode="&#xfb;" horiz-adv-x="578" 
d="M519 432c-66.667 -201.333 -99.9961 -317.332 -99.9961 -347.999c0 -8.66699 4 -13 12 -13c13.333 0 37.666 26 72.999 78c5.33301 7.33301 9 11 11 11c3.33301 0 7.16602 -1.5 11.499 -4.5s6.5 -5.5 6.5 -7.5c0 -1.33301 -2 -5.66602 -6 -12.999
c-15.333 -28.667 -32.666 -54 -51.999 -76c-39.333 -44.667 -73.666 -67 -102.999 -67c-32 0 -48 23.333 -48 70c0 27.333 8 71.666 24 132.999c-46.667 -72 -85.834 -124.167 -117.501 -156.5s-63.5 -48.5 -95.5 -48.5c-19.333 0 -35 6.5 -47 19.5s-18 29.833 -18 50.5
c0 27.333 16.333 81 49 161s49 123.667 49 131c0 5.33301 -4.66699 8 -14 8c-6.66699 0 -14 -4 -22 -12s-23 -25.333 -45 -52c-7.33301 -9.33301 -12.333 -14 -15 -14s-6 2 -10 6s-6 7.33301 -6 10c0 6 18.667 29.667 56 71c17.333 20.667 37.666 38 60.999 52
s42.666 21 57.999 21c14 0 25 -5 33 -15s12 -23.333 12 -40c0 -20 -16.667 -72.667 -50 -158l-19.5 -49c-7.66699 -19.333 -13.834 -34.333 -18.501 -45s-8.66699 -21.5 -12 -32.5s-5 -19.167 -5 -24.5c0 -12.667 5.33301 -19 16 -19c12.667 0 27 7.16699 43 21.5
s29.833 29.666 41.5 45.999s26.167 37.833 43.5 64.5c42.667 66.667 78 147 106 241h98zM454.004 531.001l-80.001 80.999l-107 -66c-7.33301 -4.66699 -13 -7 -17 -7c-2.66699 0 -5.5 1.83301 -8.5 5.5s-4.5 6.83398 -4.5 9.50098c0 3.33301 2.33301 7.33301 7 12l112 116
c16 16 28.333 24 37 24c8 0 15.667 -8 23 -24l63 -136c1.33301 -2.66699 2 -5 2 -7c0 -2.66699 -2.16699 -5.5 -6.5 -8.5s-8.16602 -4.5 -11.499 -4.5c-2.66699 0 -5.66699 1.66699 -9 5z" />
    <glyph glyph-name="udieresis" unicode="&#xfc;" horiz-adv-x="578" 
d="M519 432c-66.667 -201.333 -99.9961 -317.332 -99.9961 -347.999c0 -8.66699 4 -13 12 -13c13.333 0 37.666 26 72.999 78c5.33301 7.33301 9 11 11 11c3.33301 0 7.16602 -1.5 11.499 -4.5s6.5 -5.5 6.5 -7.5c0 -1.33301 -2 -5.66602 -6 -12.999
c-15.333 -28.667 -32.666 -54 -51.999 -76c-39.333 -44.667 -73.666 -67 -102.999 -67c-32 0 -48 23.333 -48 70c0 27.333 8 71.666 24 132.999c-46.667 -72 -85.834 -124.167 -117.501 -156.5s-63.5 -48.5 -95.5 -48.5c-19.333 0 -35 6.5 -47 19.5s-18 29.833 -18 50.5
c0 27.333 16.333 81 49 161s49 123.667 49 131c0 5.33301 -4.66699 8 -14 8c-6.66699 0 -14 -4 -22 -12s-23 -25.333 -45 -52c-7.33301 -9.33301 -12.333 -14 -15 -14s-6 2 -10 6s-6 7.33301 -6 10c0 6 18.667 29.667 56 71c17.333 20.667 37.666 38 60.999 52
s42.666 21 57.999 21c14 0 25 -5 33 -15s12 -23.333 12 -40c0 -20 -16.667 -72.667 -50 -158l-19.5 -49c-7.66699 -19.333 -13.834 -34.333 -18.501 -45s-8.66699 -21.5 -12 -32.5s-5 -19.167 -5 -24.5c0 -12.667 5.33301 -19 16 -19c12.667 0 27 7.16699 43 21.5
s29.833 29.666 41.5 45.999s26.167 37.833 43.5 64.5c42.667 66.667 78 147 106 241h98zM210.004 627.001c0 18 6.16699 33.333 18.5 46s27.5 19 45.5 19s33.333 -6.33301 46 -19s19 -28 19 -46s-6.33301 -33.167 -19 -45.5s-28 -18.5 -46 -18.5s-33.167 6.16699 -45.5 18.5
s-18.5 27.5 -18.5 45.5zM410.004 627.001c0 18 6.16699 33.333 18.5 46s27.5 19 45.5 19s33.333 -6.33301 46 -19s19 -28 19 -46s-6.33301 -33.167 -19 -45.5s-28 -18.5 -46 -18.5s-33.167 6.16699 -45.5 18.5s-18.5 27.5 -18.5 45.5z" />
    <glyph glyph-name="yacute" unicode="&#xfd;" horiz-adv-x="515" 
d="M200 -41c-8.66699 128 -34.667 260.669 -78 398.002c-4.66699 16 -9 26.833 -13 32.5s-9 8.5 -15 8.5c-12.667 0 -27 -17.333 -43 -52c-7.33301 -16.667 -13.333 -25 -18 -25c-3.33301 0 -6.83301 1.33301 -10.5 4s-5.5 5.66699 -5.5 9c0 20 12.667 47.667 38 83
c26 36 54.667 54 86 54c29.333 0 50.666 -12.333 63.999 -37c30 -58 57 -171 81 -339c20 34 37.667 71.167 53 111.5s23 72.166 23 95.499c0 12 -2 22.667 -6 32s-13 23.666 -27 42.999c-11.333 16 -17 32.333 -17 49c0 14.667 4.33301 26.834 13 36.501
s19.334 14.5 32.001 14.5c18.667 0 33.667 -7.83301 45 -23.5s17 -36.5 17 -62.5c0 -87.333 -48.667 -213.333 -146 -378c-42.667 -72.667 -89.667 -131.667 -141 -177s-99 -68 -143 -68c-18.667 0 -34 4.66699 -46 14s-18 21.666 -18 36.999s4.16699 27.5 12.5 36.5
s19.5 13.5 33.5 13.5c6.66699 0 27 -7.66699 61 -23c14.667 -6.66699 25 -10 31 -10c19.333 0 43 14 71 42s50 55 66 81zM417 718.002c11.333 0 20.835 -3.66602 28.502 -10.999s11.5 -16.333 11.5 -27c0 -8 -2.83301 -16.5 -8.5 -25.5s-12.834 -16.167 -21.501 -21.5
l-135 -81c-6.66699 -3.33301 -11.334 -5 -14.001 -5c-4 0 -8 2.16699 -12 6.5s-6 8.16602 -6 11.499s2 7 6 11l106 120c16.667 14.667 31.667 22 45 22z" />
    <glyph glyph-name="thorn" unicode="&#xfe;" horiz-adv-x="515" 
d="M457 303c0 -38.667 -8.33301 -80.332 -25 -124.999s-42.167 -84.667 -76.5 -120s-72.166 -53 -113.499 -53c-20 0 -47 6.66699 -81 20l-36 -122c-5.33301 -20 -8 -38.333 -8 -55c0 -18.667 11.333 -28 34 -28h7c4 0 6 -1.66699 6 -5l-1 -26c0 -2.66699 -1.33301 -4 -4 -4
h-225c-4 0 -6 1.33301 -6 4v26c0 3.33301 1.33301 5 4 5h9c22.667 0 39.667 5.33301 51 16s22 33 32 67l141 466c-5.33301 -2.66699 -10.5 -5.83398 -15.5 -9.50098s-10.667 -8.66699 -17 -15l-14 -14c-3 -3 -8.33301 -9 -16 -18s-11.834 -13.833 -12.501 -14.5
c-6 -6 -10.667 -9 -14 -9c-2.66699 0 -5.5 1.33301 -8.5 4s-4.5 5.33398 -4.5 8.00098c0 4.66699 3 11.334 9 20.001c28.667 37.333 64.667 70.666 108 99.999l65 213c3.33301 13.333 5 22.666 5 27.999c0 14 -14 21 -42 21h-8c-4 0 -6 1.66699 -6 5v26
c0 2.66699 1.33301 4 4 4c62 0 113.667 2.33301 155 7c7.33301 0 11 -3 11 -9c0 -3.33301 -0.333008 -6 -1 -8l-74 -252c54 -1.33301 95.5 -15.333 124.5 -42s43.5 -63.667 43.5 -111zM274 406.002l-104.001 -345.999c16 -18.667 33.333 -28 52 -28c28 0 53 16.167 75 48.5
s37.667 67.166 47 104.499s14 70 14 98c0 41.333 -6.16699 71 -18.5 89s-34.166 29.333 -65.499 34z" />
    <glyph glyph-name="ydieresis" unicode="&#xff;" horiz-adv-x="515" 
d="M200 -41c-8.66699 128 -34.667 260.669 -78 398.002c-4.66699 16 -9 26.833 -13 32.5s-9 8.5 -15 8.5c-12.667 0 -27 -17.333 -43 -52c-7.33301 -16.667 -13.333 -25 -18 -25c-3.33301 0 -6.83301 1.33301 -10.5 4s-5.5 5.66699 -5.5 9c0 20 12.667 47.667 38 83
c26 36 54.667 54 86 54c29.333 0 50.666 -12.333 63.999 -37c30 -58 57 -171 81 -339c20 34 37.667 71.167 53 111.5s23 72.166 23 95.499c0 12 -2 22.667 -6 32s-13 23.666 -27 42.999c-11.333 16 -17 32.333 -17 49c0 14.667 4.33301 26.834 13 36.501
s19.334 14.5 32.001 14.5c18.667 0 33.667 -7.83301 45 -23.5s17 -36.5 17 -62.5c0 -87.333 -48.667 -213.333 -146 -378c-42.667 -72.667 -89.667 -131.667 -141 -177s-99 -68 -143 -68c-18.667 0 -34 4.66699 -46 14s-18 21.666 -18 36.999s4.16699 27.5 12.5 36.5
s19.5 13.5 33.5 13.5c6.66699 0 27 -7.66699 61 -23c14.667 -6.66699 25 -10 31 -10c19.333 0 43 14 71 42s50 55 66 81zM160 627.002c0 18 6.16699 33.333 18.5 46s27.5 19 45.5 19s33.333 -6.33301 46 -19s19 -28 19 -46s-6.33301 -33.167 -19 -45.5s-28 -18.5 -46 -18.5
s-33.167 6.16699 -45.5 18.5s-18.5 27.5 -18.5 45.5zM360 627.002c0 18 6.16699 33.333 18.5 46s27.5 19 45.5 19s33.333 -6.33301 46 -19s19 -28 19 -46s-6.33301 -33.167 -19 -45.5s-28 -18.5 -46 -18.5s-33.167 6.16699 -45.5 18.5s-18.5 27.5 -18.5 45.5z" />
    <glyph glyph-name="Amacron" unicode="&#x100;" horiz-adv-x="694" 
d="M590 714c6 0 9 -3.66602 9 -10.999l-33 -602c0 -24.667 4.5 -41.834 13.5 -51.501s26.167 -14.5 51.5 -14.5h7c4 0 6 -1.66699 6 -5l-1 -26c0 -2.66699 -1.33301 -4 -4 -4h-271c-4 -0 -6 1.33301 -6 4l1 26c0 3.33301 1.33301 5 4 5h9c25.333 0 42.833 6.66699 52.5 20
s15.5 34.333 17.5 63l5 71h-252l-37 -55c-16.667 -24 -25 -43.333 -25 -58c0 -11.333 5 -21 15 -29s20.667 -12 32 -12h7c4 0 6 -1.66699 6 -5l-1 -26c0 -2.66699 -1.33301 -4 -4 -4h-206c-4 -0 -6 1.33301 -6 4v26c0 3.33301 1.33301 5 4 5h9c22 0 44 9.66699 66 29
s51 57 87 113l313 480c6 9.33301 13.667 15 23 17c40.667 6 73.667 18 99 36c5.33301 2.66699 8.33301 4 9 4zM479 621.001l-252 -392h225zM406 769.001l5 48c2 9.33301 7.33301 14 16 14h262c8 0 12 -4 12 -12l-4 -46c-1.33301 -8.66699 -9 -13 -23 -13h-259
c-6 0 -9 3 -9 9z" />
    <glyph glyph-name="amacron" unicode="&#x101;" horiz-adv-x="515" 
d="M500 463l-106.001 -348.001c-4 -12 -6 -22.667 -6 -32c0 -10.667 4.66699 -16 14 -16c7.33301 0 18.333 8.83301 33 26.5s27.334 34.5 38.001 50.5c4.66699 7.33301 8.66699 11 12 11c0.666992 0 2.33398 -0.666992 5.00098 -2c6.66699 -4 10 -8.33301 10 -13
s-14 -25.667 -42 -63c-17.333 -22.667 -37.833 -42.667 -61.5 -60s-42.5 -26 -56.5 -26c-13.333 0 -23.833 4.66699 -31.5 14s-11.5 22 -11.5 38c0 35.333 7.33301 76.333 22 123l-42 -60c-21.333 -30.667 -48.333 -57.5 -81 -80.5s-60 -34.5 -82 -34.5
c-28.667 0 -51.834 10.667 -69.501 32s-26.5 49 -26.5 83c0 40 10.667 82.833 32 128.5s51.333 88.834 90 129.501c56 60.667 115 91 177 91c21.333 0 40 -2.83301 56 -8.5s35.333 -16.5 58 -32.5l36 49h33zM373.999 391.999c-5.33301 12 -10.666 20.333 -15.999 25
s-13 7 -23 7c-24.667 0 -58.667 -27.667 -102 -83c-29.333 -38 -55.333 -80.833 -78 -128.5s-34 -83.5 -34 -107.5c0 -12.667 4.16699 -23.667 12.5 -33s18.166 -14 29.499 -14c20 0 45.833 16.833 77.5 50.5s63.167 79.167 94.5 136.5zM250.999 608.999l5 48
c2 9.33301 7.33301 14 16 14h242c8 0 12 -4 12 -12l-4 -46c-1.33301 -8.66699 -9 -13 -23 -13h-239c-6 0 -9 3 -9 9z" />
    <glyph glyph-name="Abreve" unicode="&#x102;" horiz-adv-x="694" 
d="M590 714c6 0 9 -3.66602 9 -10.999l-33 -602c0 -24.667 4.5 -41.834 13.5 -51.501s26.167 -14.5 51.5 -14.5h7c4 0 6 -1.66699 6 -5l-1 -26c0 -2.66699 -1.33301 -4 -4 -4h-271c-4 -0 -6 1.33301 -6 4l1 26c0 3.33301 1.33301 5 4 5h9c25.333 0 42.833 6.66699 52.5 20
s15.5 34.333 17.5 63l5 71h-252l-37 -55c-16.667 -24 -25 -43.333 -25 -58c0 -11.333 5 -21 15 -29s20.667 -12 32 -12h7c4 0 6 -1.66699 6 -5l-1 -26c0 -2.66699 -1.33301 -4 -4 -4h-206c-4 -0 -6 1.33301 -6 4v26c0 3.33301 1.33301 5 4 5h9c22 0 44 9.66699 66 29
s51 57 87 113l313 480c6 9.33301 13.667 15 23 17c40.667 6 73.667 18 99 36c5.33301 2.66699 8.33301 4 9 4zM479 621.001l-252 -392h225zM660 869.001c6 0 9.66602 -0.833008 10.999 -2.5s2 -5.16699 2 -10.5c0 -26.667 -14.667 -53 -44 -79s-63.666 -39 -102.999 -39
c-29.333 0 -52.166 8.33301 -68.499 25s-24.5 39 -24.5 67c0 6 1 13 3 21c1.33301 6 3 9.83301 5 11.5s6 2.5 12 2.5c4.66699 0 8 -2.33301 10 -7l3 -7c2.66699 -10 11 -19.5 25 -28.5s30 -13.5 48 -13.5c19.333 0 39.166 5.16699 59.499 15.5s35.833 21.5 46.5 33.5l6 6
c2.66699 3.33301 5.66699 5 9 5z" />
    <glyph glyph-name="abreve" unicode="&#x103;" horiz-adv-x="515" 
d="M500 463l-106.001 -348.001c-4 -12 -6 -22.667 -6 -32c0 -10.667 4.66699 -16 14 -16c7.33301 0 18.333 8.83301 33 26.5s27.334 34.5 38.001 50.5c4.66699 7.33301 8.66699 11 12 11c0.666992 0 2.33398 -0.666992 5.00098 -2c6.66699 -4 10 -8.33301 10 -13
s-14 -25.667 -42 -63c-17.333 -22.667 -37.833 -42.667 -61.5 -60s-42.5 -26 -56.5 -26c-13.333 0 -23.833 4.66699 -31.5 14s-11.5 22 -11.5 38c0 35.333 7.33301 76.333 22 123l-42 -60c-21.333 -30.667 -48.333 -57.5 -81 -80.5s-60 -34.5 -82 -34.5
c-28.667 0 -51.834 10.667 -69.501 32s-26.5 49 -26.5 83c0 40 10.667 82.833 32 128.5s51.333 88.834 90 129.501c56 60.667 115 91 177 91c21.333 0 40 -2.83301 56 -8.5s35.333 -16.5 58 -32.5l36 49h33zM373.999 391.999c-5.33301 12 -10.666 20.333 -15.999 25
s-13 7 -23 7c-24.667 0 -58.667 -27.667 -102 -83c-29.333 -38 -55.333 -80.833 -78 -128.5s-34 -83.5 -34 -107.5c0 -12.667 4.16699 -23.667 12.5 -33s18.166 -14 29.499 -14c20 0 45.833 16.833 77.5 50.5s63.167 79.167 94.5 136.5zM499.999 722.999
c5.33301 0 9.00098 -1 11.001 -3s3 -6 3 -12c0 -37.333 -15.667 -69.333 -47 -96s-69.333 -40 -114 -40c-27.333 0 -49.5 9.83301 -66.5 29.5s-25.5 44.167 -25.5 73.5c0 12.667 2 25.667 6 39c2.66699 7.33301 7.66699 11 15 11c4.66699 0 8 -1 10 -3
s3.66699 -6.66699 5 -14c4 -16.667 12.5 -30 25.5 -40s27.5 -15 43.5 -15c54 0 92.333 19 115 57c5.33301 8.66699 11.666 13 18.999 13z" />
    <glyph glyph-name="Aogonek" unicode="&#x104;" horiz-adv-x="772" 
d="M591 714c6 0 8.99902 -3.66602 8.99902 -10.999l-33 -602c0 -24.667 4.5 -41.834 13.5 -51.501s26.167 -14.5 51.5 -14.5h7c4 0 6 -1.66699 6 -5l-1 -26c0 -2.66699 -1.33301 -4 -4 -4h-107c-36.667 -35.333 -55 -72.333 -55 -111c0 -15.333 5.5 -28.333 16.5 -39
s24.167 -16 39.5 -16c20.667 0 39.667 8 57 24c4.66699 4.66699 8.33398 7 11.001 7c4 0 6 -2.66699 6 -8c0 -10.667 -12.833 -26.167 -38.5 -46.5s-52.5 -30.5 -80.5 -30.5c-23.333 0 -43.333 8.5 -60 25.5s-25 37.833 -25 62.5c0 46.667 27.667 90.667 83 132h-118
c-4 -0 -6 1.33301 -6 4l1 26c0 3.33301 1.33301 5 4 5h9c25.333 0 42.833 6.66699 52.5 20s15.5 34.333 17.5 63l5 71h-252l-37 -55c-16.667 -24 -25 -43.333 -25 -58c0 -11.333 5 -21 15 -29s20.667 -12 32 -12h7c4 0 6 -1.66699 6 -5l-1 -26c0 -2.66699 -1.33301 -4 -4 -4
h-206c-4 -0 -6 1.33301 -6 4v26c0 3.33301 1.33301 5 4 5h9c22 0 44 9.66699 66 29s51 57 87 113l313 480c6 9.33301 13.667 15 23 17c40.667 6 73.667 18 99 36c5.33301 2.66699 8.33301 4 9 4zM479.999 621.001l-252 -392h225z" />
    <glyph glyph-name="aogonek" unicode="&#x105;" horiz-adv-x="515" 
d="M500 463l-106.002 -348.002c-4 -12 -6 -22.667 -6 -32c0 -10.667 4.66699 -16 14 -16c7.33301 0 18.333 8.83301 33 26.5s27.334 34.5 38.001 50.5c4.66699 7.33301 8.66699 11 12 11c0.666992 0 2.33398 -0.666992 5.00098 -2c6.66699 -4 10 -8.33301 10 -13
s-14 -25.667 -42 -63c-21.333 -27.333 -45.333 -49.666 -72 -66.999c-44 -38.667 -66 -79 -66 -121c0 -15.333 5.5 -28.333 16.5 -39s24.167 -16 39.5 -16c20.667 0 39.667 8 57 24c4.66699 4.66699 8.33398 7 11.001 7c4 0 6 -2.66699 6 -8
c0 -10.667 -12.833 -26.167 -38.5 -46.5s-52.5 -30.5 -80.5 -30.5c-23.333 0 -43.333 8.5 -60 25.5s-25 37.833 -25 62.5c0 44.667 25.333 87 76 127c-16.667 6 -25 22 -25 48c0 35.333 7.33301 76.333 22 123l-42 -60c-21.333 -30.667 -48.333 -57.5 -81 -80.5
s-60 -34.5 -82 -34.5c-28.667 0 -51.834 10.667 -69.501 32s-26.5 49 -26.5 83c0 40 10.667 82.833 32 128.5s51.333 88.834 90 129.501c56 60.667 115 91 177 91c21.333 0 40 -2.83301 56 -8.5s35.333 -16.5 58 -32.5l36 49h33zM373.998 391.998
c-5.33301 12 -10.666 20.333 -15.999 25s-13 7 -23 7c-24.667 0 -58.667 -27.667 -102 -83c-29.333 -38 -55.333 -80.833 -78 -128.5s-34 -83.5 -34 -107.5c0 -12.667 4.16699 -23.667 12.5 -33s18.166 -14 29.499 -14c20 0 45.833 16.833 77.5 50.5
s63.167 79.167 94.5 136.5z" />
    <glyph glyph-name="Cacute" unicode="&#x106;" horiz-adv-x="707" 
d="M707 659c1.33301 0.666992 5.16602 2.16895 11.499 4.50195s11.166 4.16602 14.499 5.49902c8.66699 3.33301 15.667 5 21 5c4.66699 0 7 -2 7 -6c0 -2.66699 -1.66699 -9.66699 -5 -21l-48 -181c-2 -7.33301 -6 -11 -12 -11c-6.66699 0 -11.167 0.5 -13.5 1.5
s-3.5 4.16699 -3.5 9.5c0 30 -0.5 53.5 -1.5 70.5s-4.33301 36.167 -10 57.5s-14.167 39 -25.5 53c-20 25.333 -50.333 38 -91 38c-36 0 -70.833 -11 -104.5 -33s-62.667 -50.5 -87 -85.5s-45.666 -73.5 -63.999 -115.5s-32 -83.5 -41 -124.5s-13.5 -78.167 -13.5 -111.5
c0 -62 13 -111.333 39 -148s60.667 -55 104 -55c42.667 0 80.834 14.667 114.501 44s69.834 70.666 108.501 123.999c9.33301 12 14.666 18 15.999 18c3.33301 0 8.33301 -2.66699 15 -8c2 -2 3 -3.66699 3 -5s-0.666992 -4 -2 -8l-65 -186
c-1.33301 -4 -4.66602 -6 -9.99902 -6c-4 0 -10.667 4.33301 -20 13l-10 10c-2.66699 2.66699 -5 4 -7 4s-4.33301 -0.666992 -7 -2c-32 -16 -78 -24 -138 -24c-82 0 -147.5 23.5 -196.5 70.5s-73.5 109.833 -73.5 188.5c0 58.667 12.5 116.667 37.5 174
s57.667 107.333 98 150s87.833 77 142.5 103s110 39 166 39c47.333 0 97.666 -17.333 150.999 -52zM691 870.002c10 0 18.833 -4.00098 26.5 -12.001s11.5 -17.667 11.5 -29c0 -22.667 -13.333 -39 -40 -49l-136 -44c-4 -1.33301 -7.33301 -2 -10 -2s-5.66699 2.5 -9 7.5
s-5 9.5 -5 13.5c0 2.66699 3 6.33398 9 11.001l118 93c9.33301 7.33301 21 11 35 11z" />
    <glyph glyph-name="cacute" unicode="&#x107;" horiz-adv-x="429" 
d="M341 163c4.66699 0 9.33008 -2.16699 13.9971 -6.5s7 -8.83301 7 -13.5c0 -1.33301 -0.5 -2.83301 -1.5 -4.5l-4 -6.5l-4.5 -7c-22 -36.667 -50.667 -68.5 -86 -95.5s-73 -40.5 -113 -40.5c-34 0 -63 12.5 -87 37.5s-36 55.167 -36 90.5c0 38.667 8.33301 78.667 25 120
s37.834 77.666 63.501 108.999s54.167 57 85.5 77s60.666 30 87.999 30c33.333 0 62.666 -8.66699 87.999 -26s38 -37.666 38 -60.999c0 -14 -4.5 -25.5 -13.5 -34.5s-19.833 -13.5 -32.5 -13.5c-26.667 0 -46.667 21.333 -60 64
c-5.33301 17.333 -9.66602 28.333 -12.999 33s-9.66602 7 -18.999 7c-14 0 -31.667 -17.333 -53 -52s-40 -76.667 -56 -126s-24 -92.333 -24 -129c0 -42 21 -63 63 -63c12.667 0 26.334 5.5 41.001 16.5s26.834 22.333 36.501 34s23.167 29.167 40.5 52.5
c4 5.33301 8.33301 8 13 8zM436.996 718c11.333 0 20.835 -3.66602 28.502 -10.999s11.5 -16.333 11.5 -27c0 -8 -2.83301 -16.5 -8.5 -25.5s-12.834 -16.167 -21.501 -21.5l-135 -81c-6.66699 -3.33301 -11.334 -5 -14.001 -5c-4 0 -8 2.16699 -12 6.5
s-6 8.16602 -6 11.499s2 7 6 11l106 120c16.667 14.667 31.667 22 45 22z" />
    <glyph glyph-name="Ccircumflex" unicode="&#x108;" horiz-adv-x="707" 
d="M707 659c1.33301 0.666992 5.16602 2.16895 11.499 4.50195s11.166 4.16602 14.499 5.49902c8.66699 3.33301 15.667 5 21 5c4.66699 0 7 -2 7 -6c0 -2.66699 -1.66699 -9.66699 -5 -21l-48 -181c-2 -7.33301 -6 -11 -12 -11c-6.66699 0 -11.167 0.5 -13.5 1.5
s-3.5 4.16699 -3.5 9.5c0 30 -0.5 53.5 -1.5 70.5s-4.33301 36.167 -10 57.5s-14.167 39 -25.5 53c-20 25.333 -50.333 38 -91 38c-36 0 -70.833 -11 -104.5 -33s-62.667 -50.5 -87 -85.5s-45.666 -73.5 -63.999 -115.5s-32 -83.5 -41 -124.5s-13.5 -78.167 -13.5 -111.5
c0 -62 13 -111.333 39 -148s60.667 -55 104 -55c42.667 0 80.834 14.667 114.501 44s69.834 70.666 108.501 123.999c9.33301 12 14.666 18 15.999 18c3.33301 0 8.33301 -2.66699 15 -8c2 -2 3 -3.66699 3 -5s-0.666992 -4 -2 -8l-65 -186
c-1.33301 -4 -4.66602 -6 -9.99902 -6c-4 0 -10.667 4.33301 -20 13l-10 10c-2.66699 2.66699 -5 4 -7 4s-4.33301 -0.666992 -7 -2c-32 -16 -78 -24 -138 -24c-82 0 -147.5 23.5 -196.5 70.5s-73.5 109.833 -73.5 188.5c0 58.667 12.5 116.667 37.5 174
s57.667 107.333 98 150s87.833 77 142.5 103s110 39 166 39c47.333 0 97.666 -17.333 150.999 -52zM697 743.002c0 -3.33301 -2 -7.33398 -6 -12.001s-7.66699 -7 -11 -7c-2.66699 0 -7 1.33301 -13 4l-96 49l-128 -41c-4 -1.33301 -7.33301 -2 -10 -2s-5.66699 2.5 -9 7.5
s-5 9.5 -5 13.5c0 2.66699 3 6.33398 9 11.001l118 93c9.33301 7.33301 19.333 11 30 11c12 0 23.333 -4.66699 34 -14l80 -101c4.66699 -4.66699 7 -8.66699 7 -12z" />
    <glyph glyph-name="ccircumflex" unicode="&#x109;" horiz-adv-x="429" 
d="M341 163c4.66699 0 9.33008 -2.16699 13.9971 -6.5s7 -8.83301 7 -13.5c0 -1.33301 -0.5 -2.83301 -1.5 -4.5l-4 -6.5l-4.5 -7c-22 -36.667 -50.667 -68.5 -86 -95.5s-73 -40.5 -113 -40.5c-34 0 -63 12.5 -87 37.5s-36 55.167 -36 90.5c0 38.667 8.33301 78.667 25 120
s37.834 77.666 63.501 108.999s54.167 57 85.5 77s60.666 30 87.999 30c33.333 0 62.666 -8.66699 87.999 -26s38 -37.666 38 -60.999c0 -14 -4.5 -25.5 -13.5 -34.5s-19.833 -13.5 -32.5 -13.5c-26.667 0 -46.667 21.333 -60 64
c-5.33301 17.333 -9.66602 28.333 -12.999 33s-9.66602 7 -18.999 7c-14 0 -31.667 -17.333 -53 -52s-40 -76.667 -56 -126s-24 -92.333 -24 -129c0 -42 21 -63 63 -63c12.667 0 26.334 5.5 41.001 16.5s26.834 22.333 36.501 34s23.167 29.167 40.5 52.5
c4 5.33301 8.33301 8 13 8zM413.996 531l-80.001 80.999l-107 -66c-7.33301 -4.66699 -13 -7 -17 -7c-2.66699 0 -5.5 1.83301 -8.5 5.5s-4.5 6.83398 -4.5 9.50098c0 3.33301 2.33301 7.33301 7 12l112 116c16 16 28.333 24 37 24c8 0 15.667 -8 23 -24l63 -136
c1.33301 -2.66699 2 -5 2 -7c0 -2.66699 -2.16699 -5.5 -6.5 -8.5s-8.16602 -4.5 -11.499 -4.5c-2.66699 0 -5.66699 1.66699 -9 5z" />
    <glyph glyph-name="Cdotaccent" unicode="&#x10a;" horiz-adv-x="707" 
d="M707 659c1.33301 0.666992 5.16602 2.16895 11.499 4.50195s11.166 4.16602 14.499 5.49902c8.66699 3.33301 15.667 5 21 5c4.66699 0 7 -2 7 -6c0 -2.66699 -1.66699 -9.66699 -5 -21l-48 -181c-2 -7.33301 -6 -11 -12 -11c-6.66699 0 -11.167 0.5 -13.5 1.5
s-3.5 4.16699 -3.5 9.5c0 30 -0.5 53.5 -1.5 70.5s-4.33301 36.167 -10 57.5s-14.167 39 -25.5 53c-20 25.333 -50.333 38 -91 38c-36 0 -70.833 -11 -104.5 -33s-62.667 -50.5 -87 -85.5s-45.666 -73.5 -63.999 -115.5s-32 -83.5 -41 -124.5s-13.5 -78.167 -13.5 -111.5
c0 -62 13 -111.333 39 -148s60.667 -55 104 -55c42.667 0 80.834 14.667 114.501 44s69.834 70.666 108.501 123.999c9.33301 12 14.666 18 15.999 18c3.33301 0 8.33301 -2.66699 15 -8c2 -2 3 -3.66699 3 -5s-0.666992 -4 -2 -8l-65 -186
c-1.33301 -4 -4.66602 -6 -9.99902 -6c-4 0 -10.667 4.33301 -20 13l-10 10c-2.66699 2.66699 -5 4 -7 4s-4.33301 -0.666992 -7 -2c-32 -16 -78 -24 -138 -24c-82 0 -147.5 23.5 -196.5 70.5s-73.5 109.833 -73.5 188.5c0 58.667 12.5 116.667 37.5 174
s57.667 107.333 98 150s87.833 77 142.5 103s110 39 166 39c47.333 0 97.666 -17.333 150.999 -52zM531 805.002c0 18 6.16699 33.333 18.5 46s27.5 19 45.5 19s33.333 -6.33301 46 -19s19 -28 19 -46s-6.33301 -33.167 -19 -45.5s-28 -18.5 -46 -18.5
s-33.167 6.16699 -45.5 18.5s-18.5 27.5 -18.5 45.5z" />
    <glyph glyph-name="cdotaccent" unicode="&#x10b;" horiz-adv-x="429" 
d="M341 163c4.66699 0 9.33008 -2.16699 13.9971 -6.5s7 -8.83301 7 -13.5c0 -1.33301 -0.5 -2.83301 -1.5 -4.5l-4 -6.5l-4.5 -7c-22 -36.667 -50.667 -68.5 -86 -95.5s-73 -40.5 -113 -40.5c-34 0 -63 12.5 -87 37.5s-36 55.167 -36 90.5c0 38.667 8.33301 78.667 25 120
s37.834 77.666 63.501 108.999s54.167 57 85.5 77s60.666 30 87.999 30c33.333 0 62.666 -8.66699 87.999 -26s38 -37.666 38 -60.999c0 -14 -4.5 -25.5 -13.5 -34.5s-19.833 -13.5 -32.5 -13.5c-26.667 0 -46.667 21.333 -60 64
c-5.33301 17.333 -9.66602 28.333 -12.999 33s-9.66602 7 -18.999 7c-14 0 -31.667 -17.333 -53 -52s-40 -76.667 -56 -126s-24 -92.333 -24 -129c0 -42 21 -63 63 -63c12.667 0 26.334 5.5 41.001 16.5s26.834 22.333 36.501 34s23.167 29.167 40.5 52.5
c4 5.33301 8.33301 8 13 8zM270.996 627c0 18 6.16699 33.333 18.5 46s27.5 19 45.5 19s33.333 -6.33301 46 -19s19 -28 19 -46s-6.33301 -33.167 -19 -45.5s-28 -18.5 -46 -18.5s-33.167 6.16699 -45.5 18.5s-18.5 27.5 -18.5 45.5z" />
    <glyph glyph-name="Ccaron" unicode="&#x10c;" horiz-adv-x="707" 
d="M707 659c1.33301 0.666992 5.16602 2.16895 11.499 4.50195s11.166 4.16602 14.499 5.49902c8.66699 3.33301 15.667 5 21 5c4.66699 0 7 -2 7 -6c0 -2.66699 -1.66699 -9.66699 -5 -21l-48 -181c-2 -7.33301 -6 -11 -12 -11c-6.66699 0 -11.167 0.5 -13.5 1.5
s-3.5 4.16699 -3.5 9.5c0 30 -0.5 53.5 -1.5 70.5s-4.33301 36.167 -10 57.5s-14.167 39 -25.5 53c-20 25.333 -50.333 38 -91 38c-36 0 -70.833 -11 -104.5 -33s-62.667 -50.5 -87 -85.5s-45.666 -73.5 -63.999 -115.5s-32 -83.5 -41 -124.5s-13.5 -78.167 -13.5 -111.5
c0 -62 13 -111.333 39 -148s60.667 -55 104 -55c42.667 0 80.834 14.667 114.501 44s69.834 70.666 108.501 123.999c9.33301 12 14.666 18 15.999 18c3.33301 0 8.33301 -2.66699 15 -8c2 -2 3 -3.66699 3 -5s-0.666992 -4 -2 -8l-65 -186
c-1.33301 -4 -4.66602 -6 -9.99902 -6c-4 0 -10.667 4.33301 -20 13l-10 10c-2.66699 2.66699 -5 4 -7 4s-4.33301 -0.666992 -7 -2c-32 -16 -78 -24 -138 -24c-82 0 -147.5 23.5 -196.5 70.5s-73.5 109.833 -73.5 188.5c0 58.667 12.5 116.667 37.5 174
s57.667 107.333 98 150s87.833 77 142.5 103s110 39 166 39c47.333 0 97.666 -17.333 150.999 -52zM459 851.002c0 3.33301 2 7.33398 6 12.001s7.66699 7 11 7c2.66699 0 7 -1.33301 13 -4l96 -49l128 41c4 1.33301 7.33301 2 10 2s5.66699 -2.5 9 -7.5s5 -9.5 5 -13.5
c0 -2.66699 -3 -6.33398 -9 -11.001l-118 -93c-9.33301 -7.33301 -19.333 -11 -30 -11c-12 0 -23.333 4.66699 -34 14l-80 101c-4.66699 4.66699 -7 8.66699 -7 12z" />
    <glyph glyph-name="ccaron" unicode="&#x10d;" horiz-adv-x="429" 
d="M341 163c4.66699 0 9.33008 -2.16699 13.9971 -6.5s7 -8.83301 7 -13.5c0 -1.33301 -0.5 -2.83301 -1.5 -4.5l-4 -6.5l-4.5 -7c-22 -36.667 -50.667 -68.5 -86 -95.5s-73 -40.5 -113 -40.5c-34 0 -63 12.5 -87 37.5s-36 55.167 -36 90.5c0 38.667 8.33301 78.667 25 120
s37.834 77.666 63.501 108.999s54.167 57 85.5 77s60.666 30 87.999 30c33.333 0 62.666 -8.66699 87.999 -26s38 -37.666 38 -60.999c0 -14 -4.5 -25.5 -13.5 -34.5s-19.833 -13.5 -32.5 -13.5c-26.667 0 -46.667 21.333 -60 64
c-5.33301 17.333 -9.66602 28.333 -12.999 33s-9.66602 7 -18.999 7c-14 0 -31.667 -17.333 -53 -52s-40 -76.667 -56 -126s-24 -92.333 -24 -129c0 -42 21 -63 63 -63c12.667 0 26.334 5.5 41.001 16.5s26.834 22.333 36.501 34s23.167 29.167 40.5 52.5
c4 5.33301 8.33301 8 13 8zM253.996 701l80.001 -80.999l107 66c7.33301 4.66699 13 7 17 7c2.66699 0 5.5 -1.83301 8.5 -5.5s4.5 -6.83398 4.5 -9.50098c0 -3.33301 -2.33301 -7.33301 -7 -12l-112 -116c-16 -16 -28.333 -24 -37 -24c-8 0 -15.667 8 -23 24l-63 136
c-1.33301 2.66699 -2 5 -2 7c0 2.66699 2.16699 5.5 6.5 8.5s8.16602 4.5 11.499 4.5c2.66699 0 5.66699 -1.66699 9 -5z" />
    <glyph glyph-name="Dcaron" unicode="&#x10e;" horiz-adv-x="837" 
d="M214 700c102.667 2.66699 162.667 3.99902 180 3.99902c82.667 0 144 -5.33301 184 -16s77.333 -31.667 112 -63c66.667 -60.667 100 -138.667 100 -234c0 -55.333 -11.333 -110.166 -34 -164.499s-52.667 -98.5 -90 -132.5c-38.667 -36 -83.5 -60.667 -134.5 -74
s-110.167 -20 -177.5 -20h-319c-4 -0 -6 1.33301 -6 4l1 26c0 3.33301 1.33301 5 4 5h9c28 0 48.833 5.5 62.5 16.5s25.5 33.167 35.5 66.5l133 464c5.33301 20 8 35 8 45c0 14.667 -4.5 24.667 -13.5 30s-23.833 8 -44.5 8h-8c-4 0 -6 1.66699 -6 5v26
c0 2.66699 1.33301 4 4 4zM420 613.999l-152.001 -522.001c-2.66699 -10.667 -4 -18.667 -4 -24c0 -15.333 7.33301 -26.166 22 -32.499s40.667 -9.5 78 -9.5c64 0 116.167 15.5 156.5 46.5s73.5 78.833 99.5 143.5c36.667 88.667 55 170.334 55 245.001
c0 63.333 -17.333 115.166 -52 155.499s-79 60.5 -133 60.5c-17.333 0 -30.333 -2.66699 -39 -8c-11.333 -6.66699 -21.666 -25 -30.999 -55zM358.999 850.998c0 3.33301 2 7.33398 6 12.001s7.66699 7 11 7c2.66699 0 7 -1.33301 13 -4l96 -49l128 41
c4 1.33301 7.33301 2 10 2s5.66699 -2.5 9 -7.5s5 -9.5 5 -13.5c0 -2.66699 -3 -6.33398 -9 -11.001l-118 -93c-9.33301 -7.33301 -19.333 -11 -30 -11c-12 0 -23.333 4.66699 -34 14l-80 101c-4.66699 4.66699 -7 8.66699 -7 12z" />
    <glyph glyph-name="dcaron" unicode="&#x10f;" horiz-adv-x="553" 
d="M407 151c-10 -30.667 -14.999 -52.999 -14.999 -66.999c0 -11.333 4 -17 12 -17c13.333 0 28.666 12.333 45.999 37l28 39c4.66699 6.66699 7.66699 10 9 10c2.66699 0 6.83398 -1.5 12.501 -4.5s8.5 -5.5 8.5 -7.5c0 -3.33301 -1 -6.33301 -3 -9l-39 -50
c-20 -26.667 -41.167 -48 -63.5 -64s-41.833 -24 -58.5 -24c-30 0 -45 22.333 -45 67c0 11.333 10 49.333 30 114c-16 -27.333 -34 -53.666 -54 -78.999s-45.333 -49.166 -76 -71.499s-60 -33.5 -88 -33.5c-26.667 0 -48.834 10.5 -66.501 31.5s-26.5 47.167 -26.5 78.5
c0 45.333 14.333 95.666 43 150.999s67 103.166 115 143.499s96 60.5 144 60.5c21.333 0 47 -6 77 -18l60 196c3.33301 13.333 5 22.666 5 27.999c0 14 -14 21 -42 21h-8c-4 0 -6 1.66699 -6 5v26c0 2.66699 1.33301 4 4 4c62 0 113.667 2.33301 155 7
c7.33301 0 11 -3 11 -9c0 -3.33301 -0.333008 -6 -1 -8zM384.001 390.001c-10 18.667 -24.002 28 -42.002 28c-26 0 -57.333 -22.333 -94 -67c-33.333 -40 -61.666 -83.833 -84.999 -131.5s-35 -84.5 -35 -110.5c0 -35.333 11.667 -53 35 -53c26.667 0 54.334 16 83.001 48
s52 65 70 99c24 44.667 46.667 107 68 187zM660.999 729.001c14 0 25.833 -5.83203 35.5 -17.499s14.5 -26.167 14.5 -43.5c0 -48 -32 -90.333 -96 -127c-8 -4 -13.333 -6 -16 -6c-1.33301 0 -3 1.66699 -5 5s-3 6.66602 -3 9.99902c0 2.66699 3 6 9 10
c23.333 16 35 33 35 51c0 6.66699 -4 16 -12 28c-10 14 -15 26 -15 36c0 14 5.33301 26.5 16 37.5s23 16.5 37 16.5z" />
    </font>
</defs>
</svg>
