<?xml version="1.0" standalone="no"?>
<!DOCTYPE svg PUBLIC "-//W3C//DTD SVG 1.1//EN" "http://www.w3.org/Graphics/SVG/1.1/DTD/svg11.dtd" >
<svg>
<metadata>
Created by FontForge 20090914 at Tue Dec  1 15:46:53 2020
 By www-data
Copyright (c) 2005 by Lanston Type Co.- P22 type foundry. All rights reserved.
</metadata>
<defs>
<font id="LTCCaslonPro-Bold" horiz-adv-x="500" >
  <font-face 
    font-family="LTCCaslonPro-Bold"
    font-weight="400"
    font-stretch="normal"
    units-per-em="1000"
    panose-1="2 0 6 5 8 0 0 2 0 4"
    ascent="756"
    descent="-244"
    x-height="414.999"
    cap-height="700"
    bbox="-216 -331.001 1119 871.003"
    underline-thickness="20"
    underline-position="-130"
    unicode-range="U+0009-U+FB06"
  />
<missing-glyph horiz-adv-x="296" 
 />
    <glyph glyph-name=".notdef" horiz-adv-x="296" 
 />
    <glyph glyph-name=".null" horiz-adv-x="0" 
 />
    <glyph glyph-name=".null" horiz-adv-x="0" 
 />
    <glyph glyph-name="HT" unicode="&#x9;" horiz-adv-x="0" 
 />
    <glyph glyph-name="LF" unicode="&#xa;" horiz-adv-x="0" 
 />
    <glyph glyph-name="CR" unicode="&#xd;" horiz-adv-x="0" 
 />
    <glyph glyph-name="DLE" horiz-adv-x="0" 
 />
    <glyph glyph-name="DC1" horiz-adv-x="0" 
 />
    <glyph glyph-name="DC2" horiz-adv-x="0" 
 />
    <glyph glyph-name="DC3" horiz-adv-x="0" 
 />
    <glyph glyph-name="DC4" horiz-adv-x="0" 
 />
    <glyph glyph-name="RS" horiz-adv-x="0" 
 />
    <glyph glyph-name="US" horiz-adv-x="0" 
 />
    <glyph glyph-name="space" unicode=" " horiz-adv-x="250" 
 />
    <glyph glyph-name="exclam" unicode="!" horiz-adv-x="380" 
d="M187 133c20 0 37.167 -7 51.5 -21s21.5 -31 21.5 -51c0 -20.667 -7 -38.167 -21 -52.5s-30.667 -21.5 -50 -21.5c-20 0 -37 7.16699 -51 21.5s-21 31.833 -21 52.5c0 20 6.83301 37 20.5 51s30.167 21 49.5 21zM198 183h-21.001v40c0 68 -11.333 151 -34 249
c-16.667 70 -25 118.667 -25 146c0 28 5.83301 50.833 17.5 68.5s28.834 26.5 51.501 26.5c23.333 0 40.833 -8.66699 52.5 -26s17.5 -40 17.5 -68c0 -27.333 -8.33301 -76 -25 -146c-22.667 -98 -34 -181 -34 -249v-41z" />
    <glyph glyph-name="quotedbl" unicode="&#x22;" horiz-adv-x="455" 
d="M137 444c-10.667 0 -16.668 5.66699 -18.001 17c-3.33301 29.333 -9.66602 65 -18.999 107c-8 28.667 -12 56 -12 82c0 12 4.66699 22.333 14 31s21 13 35 13c13.333 0 24.666 -4.33301 33.999 -13s14 -19 14 -31c0 -26 -4 -53.333 -12 -82
c-9.33301 -42 -15.666 -77.667 -18.999 -107c-1.33301 -11.333 -7 -17 -17 -17zM313.999 444c-10.667 0 -16.668 5.66602 -18.001 16.999c-3.33301 34.667 -9.33301 70.334 -18 107.001c-8 28.667 -12 56 -12 82c0 12 4.5 22.333 13.5 31s20.5 13 34.5 13
s25.5 -4.33301 34.5 -13s13.5 -19 13.5 -31c0 -24 -3.66699 -51.333 -11 -82c-9.33301 -42 -15.666 -77.667 -18.999 -107c-1.33301 -11.333 -7.33301 -17 -18 -17z" />
    <glyph glyph-name="numbersign" unicode="#" horiz-adv-x="696" 
d="M63 467l18 66h137l19 182h70l-19 -182h134l19 182h70l-19 -182h152l-18 -66h-142l-21 -204h179l-17 -66h-170l-22 -200h-69l21 200h-134l-21 -200h-70l21 200h-146l17 66h137l22 204h-148zM280 467l-21 -204h134l21 204h-134z" />
    <glyph glyph-name="dollar" unicode="$" 
d="M265 720l0.00195312 -36.999c49.333 -2.66699 90 -14.5 122 -35.5s48 -45.5 48 -73.5c0 -16 -5.16699 -29.667 -15.5 -41s-22.833 -17 -37.5 -17c-38.667 0 -58 29.333 -58 88c0 28.667 -19.667 45.334 -59 50.001v-236c25.333 -12.667 45 -22.834 59 -30.501
s31.167 -18.834 51.5 -33.501s35.833 -29 46.5 -43s20 -31.667 28 -53s12 -44.666 12 -69.999c0 -56 -18.167 -102 -54.5 -138s-83.833 -56.667 -142.5 -62v-86c0 -3.33301 -1.33301 -5 -4 -5h-31c-3.33301 0 -5 1.66699 -5 5v85c-54.667 3.33301 -99.5 16.333 -134.5 39
s-52.5 50.334 -52.5 83.001c0 15.333 5.16699 27.833 15.5 37.5s23.166 14.5 38.499 14.5c38.667 0 60 -28 64 -84c0.666992 -12.667 2 -20.334 4 -23.001c6.66699 -20.667 28.334 -33.334 65.001 -38.001v289c-22.667 12 -40.834 22.167 -54.501 30.5
s-29.334 19.333 -47.001 33s-31.5 27 -41.5 40s-18.5 28.833 -25.5 47.5s-10.5 38.667 -10.5 60c0 46 16.833 84.333 50.5 115s76.5 48 128.5 52v37c0 3.33301 1.33301 5 4 5h31c3.33301 0 5 -1.66699 5 -5zM265.002 283.001v-266c34.667 6 63 19.5 85 40.5s33 48.5 33 82.5
c0 30.667 -10 56.667 -30 78s-49.333 43 -88 65zM129.002 552.001c0 -24 8 -44.667 24 -62s40 -35 72 -53v216c-30 -4 -53.5 -15.333 -70.5 -34s-25.5 -41 -25.5 -67z" />
    <glyph glyph-name="percent" unicode="%" horiz-adv-x="690" 
d="M154 684c38.667 0 70.5 -19.167 95.5 -57.5s37.5 -86.5 37.5 -144.5c0 -61.333 -12.167 -112.5 -36.5 -153.5s-55.833 -61.5 -94.5 -61.5c-39.333 0 -71.333 20.667 -96 62s-37 92.333 -37 153c0 58.667 12.167 107 36.5 145s55.833 57 94.5 57zM101 484
c0 -79.333 3.33301 -131.834 10 -157.501s21 -38.5 43 -38.5c24 0 39.333 15.333 46 46s10 82 10 154c0 68.667 -3.16699 114.834 -9.5 138.501s-21.833 35.5 -46.5 35.5c-23.333 0 -38 -13.5 -44 -40.5s-9 -72.833 -9 -137.5zM98 -5.00098l446.999 666
c4.66699 7.33301 12.334 11 23.001 11h18c5.33301 0 8 -2 8 -6s-1.33301 -8 -4 -12l-446 -662c-5.33301 -8 -11.333 -12 -18 -12h-24c-5.33301 0 -8 1.66699 -8 5c0 2.66699 1.33301 6 4 10zM533.999 408.999c38.667 0 70.5 -19.167 95.5 -57.5s37.5 -86.5 37.5 -144.5
c0 -61.333 -12.167 -112.5 -36.5 -153.5s-55.833 -61.5 -94.5 -61.5c-39.333 0 -71.333 20.667 -96 62s-37 92.333 -37 153c0 58.667 12.167 107 36.5 145s55.833 57 94.5 57zM480.999 208.999c0 -79.333 3.33301 -131.834 10 -157.501s21 -38.5 43 -38.5
c24 0 39.333 15.333 46 46s10 82 10 154c0 68.667 -3.16699 114.834 -9.5 138.501s-21.833 35.5 -46.5 35.5c-23.333 0 -38 -13.5 -44 -40.5s-9 -72.833 -9 -137.5z" />
    <glyph glyph-name="ampersand" unicode="&#x26;" horiz-adv-x="823" 
d="M548 225c11.333 11.333 28.002 34.8359 50.002 70.5029s33 60.167 33 73.5s-3 22 -9 26s-18.667 6 -38 6h-13c-3.33301 0 -5 1.66699 -5 5v26c0 2.66699 1.66699 4 5 4h222c3.33301 0 5 -1.33301 5 -4v-26c0 -3.33301 -1.66699 -5 -5 -5h-13
c-30 0 -54.333 -5.33301 -73 -16s-39.334 -33.667 -62.001 -69c-24.667 -39.333 -52.334 -80 -83.001 -122c32 -95.333 68.667 -143 110 -143c23.333 0 49 15.667 77 47c3.33301 5.33301 6.33301 8 9 8c3.33301 0 6.83301 -1.66699 10.5 -5s5.5 -6 5.5 -8
s-1.66699 -5.33301 -5 -10c-16.667 -22.667 -40.334 -44.5 -71.001 -65.5s-61.667 -31.5 -93 -31.5c-29.333 0 -54.333 5.66699 -75 17s-44.667 34 -72 68c-60.667 -56 -127.667 -84 -201 -84c-61.333 0 -111.5 17.167 -150.5 51.5s-58.5 78.166 -58.5 131.499
c0 55.333 17.667 98 53 128s94.333 58.667 177 86c-23.333 34.667 -38.333 60.667 -45 78s-10 39.666 -10 66.999c0 55.333 16.333 99.833 49 133.5s76 50.5 130 50.5c50 0 90.833 -12.833 122.5 -38.5s47.5 -58.834 47.5 -99.501c0 -30 -10.667 -57.167 -32 -81.5
s-57.666 -50.166 -108.999 -77.499c45.333 -52.667 84.333 -116.334 117 -191.001zM415.002 437.003c67.333 35.333 101.001 82 101.001 140c0 34 -8.66699 60.667 -26 80s-41 29 -71 29c-62.667 0 -94 -26 -94 -78c0 -27.333 6.16699 -52.333 18.5 -75
s36.166 -54.667 71.499 -96zM296.003 362.003c-42.667 -16.667 -72.3311 -36.5 -88.998 -59.5s-25 -56.833 -25 -101.5c0 -47.333 12 -87.5 36 -120.5s53.333 -49.5 88 -49.5c43.333 0 89.333 23 138 69c-24.667 64.667 -45.834 112.5 -63.501 143.5
s-45.834 70.5 -84.501 118.5z" />
    <glyph glyph-name="quotesingle" unicode="'" horiz-adv-x="275" 
d="M136 444c-10.667 0 -16.667 5.66699 -18 17c-2 19.333 -8 55 -18 107c-8 28.667 -12 56 -12 82c0 12 4.5 22.333 13.5 31s20.5 13 34.5 13s25.5 -4.33301 34.5 -13s13.5 -19 13.5 -31c0 -26 -4 -53.333 -12 -82c-10 -52 -16 -87.667 -18 -107
c-1.33301 -11.333 -7.33301 -17 -18 -17z" />
    <glyph glyph-name="parenleft" unicode="(" horiz-adv-x="290" 
d="M115 225c0 -94.667 9 -180.832 27 -258.499s51.667 -145.5 101 -203.5c16.667 -18.667 25 -29.667 25 -33c0 -7.33301 -4 -11 -12 -11c-12.667 0 -32.667 13.667 -60 41c-134.667 132.667 -202 287.667 -202 465s67.333 332.333 202 465c27.333 27.333 47.333 41 60 41
c8 0 12 -3.66699 12 -11c0 -3.33301 -8.33301 -14.333 -25 -33c-49.333 -58 -83 -125.833 -101 -203.5s-27 -163.834 -27 -258.501z" />
    <glyph glyph-name="parenright" unicode=")" horiz-adv-x="347" 
d="M147 225c0 94.667 -9 180.832 -27 258.499s-51.667 145.5 -101 203.5c-16.667 18.667 -25 29.667 -25 33c0 7.33301 4 11 12 11c12.667 0 32.667 -13.667 60 -41c134.667 -132.667 202 -287.667 202 -465s-67.333 -332.333 -202 -465
c-27.333 -27.333 -47.333 -41 -60 -41c-8 0 -12 3.66699 -12 11c0 3.33301 8.33301 14.333 25 33c49.333 58 83 125.833 101 203.5s27 163.834 27 258.501z" />
    <glyph glyph-name="asterisk" unicode="*" horiz-adv-x="345" 
d="M193 716c10.667 0 18.8311 -3.33496 24.498 -10.002s8.5 -14.334 8.5 -23.001c0 -14.667 -6.5 -31.167 -19.5 -49.5s-21.167 -32.166 -24.5 -41.499c-1.33301 -2 -2 -3.66699 -2 -5c0 -2 2.33301 -3 7 -3c13.333 2 28.833 6.83301 46.5 14.5s32.167 11.5 43.5 11.5
c24 0 36 -12 36 -36c0 -18.667 -13 -28 -39 -28c-9.33301 0 -22.666 2.33301 -39.999 7s-32.333 7.66699 -45 9c-4 0 -6 -0.666992 -6 -2s0.333008 -3 1 -5c4.66699 -8.66699 12 -19 22 -31s17.833 -22.667 23.5 -32s8.5 -19 8.5 -29c0 -8.66699 -2.83301 -16.5 -8.5 -23.5
s-13.834 -10.5 -24.501 -10.5c-12.667 0 -21.167 4.83301 -25.5 14.5s-7.33301 25.834 -9 48.501s-3.83398 40 -6.50098 52c-1.33301 4 -2.66602 6 -3.99902 6c-0.666992 0 -2.66699 -1.66699 -6 -5c-8 -8.66699 -17.167 -20.834 -27.5 -36.501
s-19.166 -27.167 -26.499 -34.5s-16 -11 -26 -11c-8.66699 0 -16.167 3 -22.5 9s-9.5 14 -9.5 24c0 11.333 3.5 20 10.5 26s20 12.833 39 20.5s34.167 14.834 45.5 21.501c0.666992 1.33301 2 2.33301 4 3c1.33301 0.666992 2 1.33398 2 2.00098c0 2 -2 3.66699 -6 5
c-10 4.66699 -25.167 9.33398 -45.5 14.001s-35.333 10.167 -45 16.5s-14.5 15.833 -14.5 28.5c0 8 3.33301 15.5 10 22.5s14.334 10.5 23.001 10.5c9.33301 0 17.833 -2.83301 25.5 -8.5s17.5 -15.667 29.5 -30s21.667 -25.166 29 -32.499c3.33301 -2 5.33301 -3 6 -3
c2 0 3 2 3 6c0.666992 8 1 22 1 42c0 15.333 0.5 27.666 1.5 36.999s4.16699 18.166 9.5 26.499s13 12.5 23 12.5z" />
    <glyph glyph-name="plus" unicode="+" 
d="M35 306v58h185v184h60v-184h186v-58h-186v-188h-60v188h-185z" />
    <glyph glyph-name="comma" unicode="," horiz-adv-x="250" 
d="M130 133c22 0 40.668 -9.16797 56.001 -27.501s23 -40.833 23 -67.5c0 -34.667 -11.833 -71.667 -35.5 -111s-52.167 -69 -85.5 -89c-6.66699 -2.66699 -10.334 -4 -11.001 -4c-4 0 -6 3.33301 -6 10c0 10.667 3 19 9 25c42.667 38.667 64 67.667 64 87
c0 6.66699 -2.33301 12.667 -7 18s-15 14 -31 26c-29.333 20.667 -44 42.334 -44 65.001c0 18.667 6.66699 34.667 20 48s29.333 20 48 20z" />
    <glyph glyph-name="hyphen" unicode="-" horiz-adv-x="351" 
d="M304 298v-82h-257v82h257z" />
    <glyph glyph-name="period" unicode="." horiz-adv-x="250" 
d="M63 59c0 20 7 37 21 51s31 21 51 21s37 -7 51 -21s21 -31 21 -51s-7 -37 -21 -51s-31 -21 -51 -21s-37 7 -51 21s-21 31 -21 51z" />
    <glyph glyph-name="slash" unicode="/" horiz-adv-x="350" 
d="M2 -107l301.001 832.001c1.33301 5.33301 3.66602 8 6.99902 8l35 -14c2.66699 -0.666992 4 -2 4 -4c0 -1.33301 -0.666992 -3.33301 -2 -6l-300 -832c-1.33301 -4 -3.33301 -6 -6 -6c-4 0 -16.333 4.33301 -37 13c-2 1.33301 -3 3 -3 5
c0 1.33301 0.333008 2.66602 1 3.99902z" />
    <glyph glyph-name="zero" unicode="0" 
d="M249 681c61.333 0 112.167 -31.667 152.5 -95s60.5 -143.666 60.5 -240.999c0 -102 -19.5 -187.333 -58.5 -256s-89.5 -103 -151.5 -103c-63.333 0 -114.833 34.5 -154.5 103.5s-59.5 154.167 -59.5 255.5c0 97.333 19.667 177.666 59 240.999s90 95 152 95zM156.001 349
c0 -136.667 5.66602 -226.998 16.999 -270.998s36.666 -66 75.999 -66c41.333 0 67.666 26.167 78.999 78.5s17 140.5 17 264.5c0 40.667 -0.333008 73.5 -1 98.5s-2 50.167 -4 75.5s-5.16699 44.833 -9.5 58.5s-10.166 26.167 -17.499 37.5s-16.166 19.166 -26.499 23.499
s-23.166 6.5 -38.499 6.5c-14.667 0 -27.167 -3 -37.5 -9s-18.833 -16 -25.5 -30s-12 -28.333 -16 -43s-7 -35.334 -9 -62.001s-3.16699 -51.167 -3.5 -73.5s-0.5 -51.833 -0.5 -88.5z" />
    <glyph glyph-name="one" unicode="1" 
d="M313 666l-0.000976562 -548c0 -33.333 5.33301 -55.5 16 -66.5s30.334 -16.5 59.001 -16.5h13c3.33301 0 5 -1.66699 5 -5v-26c0 -2.66699 -1.66699 -4 -5 -4h-286c-3.33301 -0 -5 1.33301 -5 4v26c0 3.33301 1.66699 5 5 5h13c28.667 0 48.334 5.5 59.001 16.5
s16 33.167 16 66.5v408c0 26.667 -5.33301 43.5 -16 50.5s-36 10.5 -76 10.5c-3.33301 0 -5 1.66699 -5 5v16c0 4 1.66699 6 5 6c22 0 50.333 5.66699 85 17s65 25.333 91 42c7.33301 4.66699 13.666 7 18.999 7c4.66699 0 7 -4.66699 7 -14z" />
    <glyph glyph-name="two" unicode="2" 
d="M58 0c-5.33301 0 -8.00195 2.33301 -8.00195 7c0 46.667 10.667 87.167 32 121.5s61.333 80.833 120 139.5c56 56 92.5 96.667 109.5 122s25.5 57 25.5 95c0 36 -10.167 63.667 -30.5 83s-49.166 29 -86.499 29c-55.333 0 -109.666 -35.667 -162.999 -107
c-4.66699 -4.66699 -9 -7 -13 -7c-6.66699 0 -10 3.33301 -10 10c0 14.667 10 36.667 30 66c52 80.667 122.333 121 211 121c50.667 0 93.5 -18.333 128.5 -55s52.5 -81.667 52.5 -135c0 -26.667 -5 -51.5 -15 -74.5s-25.667 -44.333 -47 -64s-40.666 -35.667 -57.999 -48
s-40.666 -27.5 -69.999 -45.5c-49.333 -29.333 -85.5 -55.5 -108.5 -78.5s-41.833 -50.833 -56.5 -83.5h240c29.333 0 50.166 2.5 62.499 7.5s22.833 14.5 31.5 28.5c6.66699 10 12 15 16 15c7.33301 0 11 -3.33301 11 -10c0 -3.33301 -0.666992 -8.33301 -2 -15l-33 -103
c-2.66699 -8 -5.33398 -13.167 -8.00098 -15.5s-8.66699 -3.5 -18 -3.5h-343z" />
    <glyph glyph-name="three" unicode="3" 
d="M272 679c45.333 0 82.832 -12.501 112.499 -37.501s44.5 -56.5 44.5 -94.5c0 -54 -30.667 -103 -92 -147c-4.66699 -3.33301 -7 -6.33301 -7 -9c0 -2 3.33301 -4.66699 10 -8c36.667 -13.333 66.334 -36.333 89.001 -69s34 -67.334 34 -104.001
c0 -61.333 -23.5 -114 -70.5 -158s-103.167 -66 -168.5 -66c-52.667 0 -98 12.333 -136 37s-57 54.334 -57 89.001c0 16 5.66699 30.167 17 42.5s24 18.5 38 18.5c15.333 0 27.666 -4.83301 36.999 -14.5s14 -22.5 14 -38.5c0 -5.33301 -2.33301 -13.5 -7 -24.5
s-7 -19.833 -7 -26.5c0 -14.667 9.33301 -27.667 28 -39s40 -17 64 -17c41.333 0 76.5 14.333 105.5 43s43.5 63.667 43.5 105c0 40.667 -12.333 74.5 -37 101.5s-60.667 45.833 -108 56.5c-12 2.66699 -18 6.33398 -18 11.001s6.66699 10.667 20 18
c77.333 44.667 116 94.334 116 149.001c0 34 -11 62.167 -33 84.5s-50 33.5 -84 33.5c-22 0 -44.667 -7 -68 -21s-41.666 -32.667 -54.999 -56c-3.33301 -5.33301 -7.66602 -8 -12.999 -8c-6 0 -9 3.33301 -9 10c0 10 8.33301 27.333 25 52
c18.667 27.333 43.167 48.666 73.5 63.999s63.166 23 98.499 23z" />
    <glyph glyph-name="four" unicode="4" 
d="M28 253v35.001c0 8 2 14.667 6 20l269 337c6 8 13.333 13.667 22 17l41 15c5.33301 -0.666992 8 -3.33398 8 -8.00098v-348h82c5.33301 0 8 -2.66699 8 -8l-11 -58c-2 -6.66699 -6.66699 -10 -14 -10h-65v-247c0 -8 -3.66699 -12 -11 -12h-76c-7.33301 0 -11 4 -11 12
v246h-239c-6 0 -9 3 -9 9zM276 321.001v251l-204 -251h204z" />
    <glyph glyph-name="five" unicode="5" 
d="M420 712c7.33301 0 11.002 -3.66699 11.002 -11c0 -0.666992 -0.666992 -5 -2 -13l-16 -106c-0.666992 -6 -4 -9 -10 -9h-269l-16 -129c103.333 -6.66699 186.166 -31.167 248.499 -73.5s93.5 -95.5 93.5 -159.5c0 -60.667 -26.167 -113.5 -78.5 -158.5
s-113.833 -67.5 -184.5 -67.5c-42.667 0 -80 9.16699 -112 27.5s-48 39.166 -48 62.499c0 12.667 4.66699 23.334 14 32.001s20.333 13 33 13c25.333 0 48.666 -18.667 69.999 -56c17.333 -32.667 40.666 -49 69.999 -49c43.333 0 79.833 14 109.5 42s44.5 62.667 44.5 104
c0 36 -9.16699 66.667 -27.5 92s-43.166 43.833 -74.499 55.5s-62.333 19.834 -93 24.501s-64 7 -100 7c-4 0 -6.33301 1.66699 -7 5l43 312c0.666992 5.33301 4.33398 8 11.001 8h231c18 0 29.5 1.33301 34.5 4s9.16699 10 12.5 22c2 9.33301 3.66699 15.166 5 17.499
s3.66602 3.5 6.99902 3.5z" />
    <glyph glyph-name="six" unicode="6" 
d="M194 435c-5.33301 -8 -7.99902 -13.334 -7.99902 -16.001c0 -2 1 -3 3 -3c1.33301 0 4.66602 1.66699 9.99902 5c13.333 8 38 12 74 12c54.667 0 100.834 -20.667 138.501 -62s56.5 -92 56.5 -152c0 -65.333 -20.833 -120.5 -62.5 -165.5s-92.834 -67.5 -153.501 -67.5
c-64.667 0 -118.5 24.833 -161.5 74.5s-64.5 111.5 -64.5 185.5c0 94.667 33.833 178.334 101.5 251.001s155.5 130 263.5 172c18 7.33301 30.667 11 38 11c9.33301 0 14 -4 14 -12c0 -9.33301 -9.33301 -18 -28 -26c-48.667 -25.333 -88.167 -51.833 -118.5 -79.5
s-64.5 -70.167 -102.5 -127.5zM247.001 403.999c-37.333 0 -65.833 -15.999 -85.5 -47.999s-29.5 -77.667 -29.5 -137c0 -63.333 10.5 -113.5 31.5 -150.5s49.167 -55.5 84.5 -55.5c20 0 37.667 6.5 53 19.5s27 29.667 35 50s14 40.666 18 60.999s6 39.833 6 58.5
c0 130.667 -37.667 198 -113 202z" />
    <glyph glyph-name="seven" unicode="7" 
d="M442 665c8 0 11.998 -5.66992 11.998 -17.0029c0 -4.66699 -4 -15 -12 -31l-72 -155l-68 -154l-71.5 -169l-60.5 -144c-2 -6 -6.66699 -9 -14 -9h-64c-4.66699 0 -7 1.33301 -7 4c0 1.33301 1 4 3 8l94 182.5l107.5 210l88.5 180.5h-249
c-18.667 0 -32.667 -2.16699 -42 -6.5s-16.666 -12.166 -21.999 -23.499l-6 -11c-5.33301 -9.33301 -11.666 -14 -18.999 -14c-3.33301 0 -6.5 1.5 -9.5 4.5s-4.5 6.83301 -4.5 11.5c0 2.66699 1.33301 7.33398 4 14.001l44 134c0.666992 3.33301 4 5 10 5
c2 0 6.66699 -1.33301 14 -4c1.33301 -0.666992 3.83301 -1.66699 7.5 -3s6.16699 -2.66602 7.5 -3.99902l13 -3c16 -4 32 -6 48 -6h268z" />
    <glyph glyph-name="eight" unicode="8" 
d="M334 365c88.667 -48 133 -106.33 133 -174.997c0 -58.667 -22 -107.334 -66 -146.001s-99.333 -58 -166 -58c-60 0 -110 15.333 -150 46s-60 68.667 -60 114c0 71.333 48.333 131.333 145 180c-81.333 39.333 -122 96 -122 170c0 50.667 21.167 94.167 63.5 130.5
s92.833 54.5 151.5 54.5c56 0 102.333 -15.5 139 -46.5s55 -69.5 55 -115.5c0 -34.667 -9.5 -62.334 -28.5 -83.001s-50.5 -44.334 -94.5 -71.001zM291 383.003c30 20.667 51.667 40.666 65 59.999s20 44 20 74c0 39.333 -11.833 71.166 -35.5 95.499
s-54.834 36.5 -93.501 36.5c-31.333 0 -58.666 -10.667 -81.999 -32s-35 -46.666 -35 -75.999c0 -20.667 6.16699 -40.667 18.5 -60s28.833 -34.666 49.5 -45.999zM202 303.002c-59.333 -34.667 -89 -83.332 -89 -145.999c0 -41.333 12.333 -75.333 37 -102s56 -40 94 -40
s69.333 11.333 94 34s37 51.667 37 87c0 53.333 -34.667 97.666 -104 132.999z" />
    <glyph glyph-name="nine" unicode="9" 
d="M300 231c5.33301 8 7.99902 13.334 7.99902 16.001c0 2 -1 3 -3 3c-1.33301 0 -4.66602 -1.66699 -9.99902 -5c-13.333 -8 -38 -12 -74 -12c-54.667 0 -100.834 20.667 -138.501 62s-56.5 92 -56.5 152c0 65.333 20.833 120.5 62.5 165.5s92.834 67.5 153.501 67.5
c64.667 0 118.5 -24.833 161.5 -74.5s64.5 -111.5 64.5 -185.5c0 -94.667 -33.833 -178.334 -101.5 -251.001s-155.5 -130 -263.5 -172c-18 -7.33301 -30.667 -11 -38 -11c-9.33301 0 -14 4 -14 12c0 9.33301 9.33301 18 28 26c48.667 25.333 88.167 51.833 118.5 79.5
s64.5 70.167 102.5 127.5zM246.999 262.001c37.333 0 65.833 15.999 85.5 47.999s29.5 77.667 29.5 137c0 63.333 -10.5 113.5 -31.5 150.5s-49.167 55.5 -84.5 55.5c-20 0 -37.667 -6.5 -53 -19.5s-27 -29.667 -35 -50s-14 -40.666 -18 -60.999s-6 -39.833 -6 -58.5
c0 -130.667 37.667 -198 113 -202z" />
    <glyph glyph-name="colon" unicode=":" horiz-adv-x="250" 
d="M63 59c0 20 7 37 21 51s31 21 51 21s37 -7 51 -21s21 -31 21 -51s-7 -37 -21 -51s-31 -21 -51 -21s-37 7 -51 21s-21 31 -21 51zM63 364c0 20 7 37 21 51s31 21 51 21s37 -7 51 -21s21 -31 21 -51s-7 -37 -21 -51s-31 -21 -51 -21s-37 7 -51 21s-21 31 -21 51z" />
    <glyph glyph-name="semicolon" unicode=";" horiz-adv-x="250" 
d="M63 364c0 20 7 37 21 51s31 21 51 21s37 -7 51 -21s21 -31 21 -51s-7 -37 -21 -51s-31 -21 -51 -21s-37 7 -51 21s-21 31 -21 51zM130 133c22 0 40.668 -9.16797 56.001 -27.501s23 -40.833 23 -67.5c0 -34.667 -11.833 -71.667 -35.5 -111s-52.167 -69 -85.5 -89
c-6.66699 -2.66699 -10.334 -4 -11.001 -4c-4 0 -6 3.33301 -6 10c0 10.667 3 19 9 25c42.667 38.667 64 67.667 64 87c0 6.66699 -2.33301 12.667 -7 18s-15 14 -31 26c-29.333 20.667 -44 42.334 -44 65.001c0 18.667 6.66699 34.667 20 48s29.333 20 48 20z" />
    <glyph glyph-name="less" unicode="&#x3c;" 
d="M22 276v73l7 -2l449 180v-70l-361 -145l361 -142v-72l-450 179c-0.666992 0 -2 -0.333008 -4 -1h-2z" />
    <glyph glyph-name="equal" unicode="=" 
d="M35 226v61h431v-61h-431zM35 376v61h431v-61h-431z" />
    <glyph glyph-name="greater" unicode="&#x3e;" 
d="M478 349v-73h-3c-2 0.666992 -3.33301 1 -4 1l-449 -179v72l361 142l-361 145v70l448 -180z" />
    <glyph glyph-name="question" unicode="?" horiz-adv-x="507" 
d="M163 132c20 0 37.168 -6.83203 51.501 -20.499s21.5 -30.167 21.5 -49.5c0 -20.667 -7.5 -38.334 -22.5 -53.001s-32.833 -22 -53.5 -22c-18.667 0 -34.834 7 -48.501 21s-20.5 30.667 -20.5 50c0 20 7 37.167 21 51.5s31 21.833 51 22.5zM176.001 169.001h-26.001
l-22 283c63.333 -37.333 116.666 -56 159.999 -56c38.667 0 71.334 12 98.001 36s40 53.667 40 89c0 40.667 -12.333 74.667 -37 102s-55.334 41 -92.001 41c-44 0 -82.333 -24.667 -115 -74c-26.667 -32 -52.667 -48 -78 -48c-16.667 0 -31 6.33301 -43 19
s-18 27.667 -18 45c0 30 17.333 55.333 52 76s77.334 31 128.001 31c70.667 0 128.334 -20.333 173.001 -61s67 -92.667 67 -156c0 -62 -22.167 -112.333 -66.5 -151s-101.833 -58 -172.5 -58c-14.667 0 -29 0.666992 -43 2z" />
    <glyph glyph-name="at" unicode="@" horiz-adv-x="747" 
d="M443 491c-16 0 -36.332 -13.168 -60.999 -39.501s-46.834 -59.5 -66.501 -99.5s-29.5 -76.333 -29.5 -109c0 -10.667 3.16699 -21 9.5 -31s14.166 -15 23.499 -15c10 0 20.5 4.5 31.5 13.5s25.5 24.167 43.5 45.5c26.667 32.667 49.334 67.834 68.001 105.501
s28 66.834 28 87.501c0 11.333 -4.66699 21.166 -14 29.499s-20.333 12.5 -33 12.5zM535.001 51.999c-48.667 -38.667 -119.667 -57.998 -213 -57.998c-80 0 -148.167 29.833 -204.5 89.5s-84.5 131.5 -84.5 215.5c0 101.333 37.5 187.833 112.5 259.5
s165.833 107.5 272.5 107.5c78.667 0 145.834 -27.167 201.501 -81.5s83.5 -119.833 83.5 -196.5c0 -69.333 -24 -128.333 -72 -177s-106 -73 -174 -73c-22 0 -33 13.333 -33 40c0 22 7.33301 52 22 90c-56 -76.667 -110.667 -115 -164 -115c-22 0 -39.667 6.83301 -53 20.5
s-20 32.5 -20 56.5c0 36 13.667 76.833 41 122.5s62.166 85.167 104.499 118.5s82.5 50 120.5 50c14 0 27.667 -5 41 -15c2 -1.33301 4 -2 6 -2s8.33301 3 19 9c9.33301 4.66699 17.333 7 24 7c9.33301 0 14 -4.66699 14 -14c0 -4 -4 -16 -12 -36
c-26 -70.667 -51.667 -146.667 -77 -228c-4 -12 -6 -20 -6 -24c0 -5.33301 1.5 -10.5 4.5 -15.5s7.16699 -7.5 12.5 -7.5c42.667 0 79.334 19.167 110.001 57.5s46 84.5 46 138.5c0 67.333 -25.333 124.833 -76 172.5s-112 71.5 -184 71.5
c-76.667 0 -142.167 -33.667 -196.5 -101s-81.5 -148.333 -81.5 -243c0 -72.667 22.167 -134.834 66.5 -186.501s98.166 -77.5 161.499 -77.5c66.667 0 123.667 16 171 48c5.33301 2.66699 8.66602 4 9.99902 4c2.66699 0 5.33398 -2.33301 8.00098 -7s4 -8.33398 4 -11.001
c0 -3.33301 -1.66699 -6.33301 -5 -9z" />
    <glyph glyph-name="A" unicode="A" horiz-adv-x="884" 
d="M452 702l285.999 -605.001c19.333 -41.333 50.333 -62 93 -62h13c3.33301 0 5 -1.66699 5 -5v-26c0 -2.66699 -1.66699 -4 -5 -4h-337c-3.33301 0 -5 1.33301 -5 4v26c0 3.33301 1.66699 5 5 5h13c42.667 0 64 14.667 64 44c0 10 -2 18.667 -6 26l-38 77h-297l-31 -72
l-18 -42c0 -10.667 3.66699 -18.834 11 -24.501s22.333 -8.5 45 -8.5h13c3.33301 0 5 -1.66699 5 -5v-26c0 -2.66699 -1.66699 -4 -5 -4h-223c-3.33301 0 -5 1.33301 -5 4v26c0 3.33301 1.66699 5 5 5h13c31.333 1.33301 54.333 7 69 17s28.334 29.667 41.001 59l202 453
l-17 35c0 0.666992 -0.5 1.83398 -1.5 3.50098s-1.5 2.83398 -1.5 3.50098c0 4 1.5 7.33301 4.5 10l31.5 28c23.333 19.333 39 38 47 56c3.33301 8 8.66602 12 15.999 12c2.66699 0 5.33398 -3.33301 8.00098 -10zM383.999 501.999l-122 -278h258z" />
    <glyph glyph-name="B" unicode="B" horiz-adv-x="759" 
d="M663 541c0 -51.333 -26.6641 -93 -79.9971 -125c-22.667 -14 -48 -25.333 -76 -34c-11.333 -3.33301 -17 -5.66602 -17 -6.99902s6 -3 18 -5c128.667 -26 193 -87 193 -183c0 -52.667 -21 -96.334 -63 -131.001c-28.667 -24 -61.334 -39.333 -98.001 -46
s-92.667 -10 -168 -10h-285c-3.33301 -0 -5 1.33301 -5 4v26c0 3.33301 1.66699 5 5 5h13c28.667 0 48.334 5.5 59.001 16.5s16 33.167 16 66.5v464c0 33.333 -5.33301 55.5 -16 66.5s-30.334 16.5 -59.001 16.5h-13c-3.33301 0 -5 1.66699 -5 5v26c0 2.66699 1.66699 4 5 4
h212h17.5c9 0 22.167 0.166992 39.5 0.5s37.666 0.5 60.999 0.5c75.333 0 135.166 -14.333 179.499 -43s66.5 -67.667 66.5 -117zM320.003 355c-6.66699 0 -10.001 -2.00098 -10.001 -6.00098v-208c0 -47.333 3.33301 -76.666 10 -87.999s26 -17 58 -17
c58.667 0 101.667 11.833 129 35.5s41 62.5 41 116.5c0 51.333 -9.33301 90.333 -28 117c-10.667 16 -29 28.667 -55 38s-55 14 -87 14c-13.333 0 -32.666 -0.666992 -57.999 -2zM310.002 405.999c0 -8 1 -12.3311 3 -12.998c2.66699 -1.33301 12.667 -2 30 -2
c64 0 108.333 10.167 133 30.5s37 56.166 37 107.499s-10.667 87.166 -32 107.499s-57 30.5 -107 30.5c-42.667 0 -64 -13.667 -64 -41v-220z" />
    <glyph glyph-name="C" unicode="C" horiz-adv-x="823" 
d="M694 33c-55.333 -18.667 -98.8311 -31.168 -130.498 -37.501s-69.5 -9.5 -113.5 -9.5c-120 0 -214.167 32.833 -282.5 98.5s-102.5 155.5 -102.5 269.5s34.5 202.667 103.5 266s165.833 95 290.5 95c21.333 0 42 -1 62 -3c28 -2 76.667 -10.333 146 -25l29 13
c24 10 39 15 45 15c5.33301 0 9 -1.5 11 -4.5s3.33301 -9.16699 4 -18.5l11 -184c0.666992 -5.33301 1 -10.333 1 -15c0 -10 -3.66699 -15 -11 -15c-8.66699 0 -16 10 -22 30c-14.667 48 -48.334 88.333 -101.001 121s-108.667 49 -168 49
c-45.333 0 -84.5 -8.66699 -117.5 -26s-58.833 -41.5 -77.5 -72.5s-32.167 -65.333 -40.5 -103s-12.5 -79.167 -12.5 -124.5c0 -108.667 21.167 -190.667 63.5 -246s101.5 -83 177.5 -83c57.333 0 110.833 15.667 160.5 47s86.167 74 109.5 128l10 24
c4 10.667 9.66699 16 17 16c5.33301 0 8.66602 -1.5 9.99902 -4.5s2 -11.5 2 -25.5v-171l1 -13c0 -6.66699 -3 -10 -9 -10c-0.666992 0 -3.66699 0.666992 -9 2c-10 4.66699 -29 10.334 -57 17.001z" />
    <glyph glyph-name="D" unicode="D" horiz-adv-x="823" 
d="M270 114c0 -36 5.16895 -58 15.502 -66s38.833 -12 85.5 -12c50 0 92.667 8.16699 128 24.5s62.666 40 81.999 71s33.333 65.333 42 103s13 81.167 13 130.5c0 60 -6.16699 110.167 -18.5 150.5s-31.333 71.333 -57 93s-55 36.667 -88 45s-73.5 12.5 -121.5 12.5
c-36.667 0 -59.334 -4.16699 -68.001 -12.5s-13 -29.5 -13 -63.5v-476zM44.002 700l332 0.000976562c274 0 411 -117.333 411 -352c0 -103.333 -34.667 -190.333 -104 -261c-34 -34.667 -74.833 -57.834 -122.5 -69.501s-117.167 -17.5 -208.5 -17.5h-308
c-3.33301 -0 -5 1.33301 -5 4v26c0 3.33301 1.66699 5 5 5h13c28.667 0 48.334 5.5 59.001 16.5s16 33.167 16 66.5v464c0 33.333 -5.33301 55.5 -16 66.5s-30.334 16.5 -59.001 16.5h-13c-3.33301 0 -5 1.66699 -5 5v26c0 2.66699 1.66699 4 5 4z" />
    <glyph glyph-name="E" unicode="E" horiz-adv-x="759" 
d="M294 335l0.00390625 -262c0 -25.333 35 -38 105 -38c78 0 133.5 7.33301 166.5 22s65.833 45 98.5 91l7.5 10l7 9.5l6 8l5.5 7c1.33301 1.66699 2.83301 3.66699 4.5 6s3.16699 4 4.5 5l4 3c1.33301 1 2.66602 1.66699 3.99902 2s2.66602 0.5 3.99902 0.5
c4.66699 0 7 -4.33301 7 -13c0 -6.66699 -1.66699 -15 -5 -25l-45 -148c-2.66699 -8.66699 -9.33398 -13 -20.001 -13h-577c-3.33301 -0 -5 1.33301 -5 4v26c0 3.33301 1.66699 5 5 5h13c28.667 0 48.334 5.5 59.001 16.5s16 33.167 16 66.5v464
c0 33.333 -5.33301 55.5 -16 66.5s-30.334 16.5 -59.001 16.5h-13c-3.33301 0 -5 1.66699 -5 5v26c0 2.66699 1.66699 4 5 4h561c8.66699 0 14.167 -0.666992 16.5 -2s5.16602 -5.33301 8.49902 -12l57 -132c4 -9.33301 6 -17 6 -23c0 -8.66699 -3.33301 -13 -10 -13
c-8 0 -21.667 13.333 -41 40c-52.667 72 -142.667 108 -270 108c-48 0 -77.5 -5.5 -88.5 -16.5s-16.5 -37.5 -16.5 -79.5v-190h148c32.667 0 59.667 12.5 81 37.5s32 52.5 32 82.5v13c0 3.33301 1.66699 5 5 5h26c2.66699 0 4 -1.66699 4 -5v-311
c0 -3.33301 -1.33301 -5 -4 -5h-26c-3.33301 0 -5 1.66699 -5 5v13c0 30 -10.667 57.5 -32 82.5s-48.333 37.5 -81 37.5h-148z" />
    <glyph glyph-name="F" unicode="F" horiz-adv-x="759" 
d="M441 335h-148v-217c0 -33.333 5.33301 -55.5 16 -66.5s30.334 -16.5 59.001 -16.5h13c3.33301 0 5 -1.66699 5 -5v-26c0 -2.66699 -1.66699 -4 -5 -4h-311c-3.33301 -0 -5 1.33301 -5 4v26c0 3.33301 1.66699 5 5 5h13c28.667 0 48.334 5.5 59.001 16.5
s16 33.167 16 66.5v464c0 33.333 -5.33301 55.5 -16 66.5s-30.334 16.5 -59.001 16.5h-13c-3.33301 0 -5 1.66699 -5 5v26c0 2.66699 1.66699 4 5 4h561c8.66699 0 14.167 -0.666992 16.5 -2s5.16602 -5.33301 8.49902 -12l57 -132c4 -9.33301 6 -17 6 -23
c0 -8.66699 -3.33301 -13 -10 -13c-8 0 -21.667 13.333 -41 40c-52.667 72 -142.667 108 -270 108c-48 0 -77.5 -5.5 -88.5 -16.5s-16.5 -37.5 -16.5 -79.5v-190h148c32.667 0 59.667 12.5 81 37.5s32 52.5 32 82.5v13c0 3.33301 1.66699 5 5 5h26
c2.66699 0 4 -1.66699 4 -5v-311c0 -3.33301 -1.33301 -5 -4 -5h-26c-3.33301 0 -5 1.66699 -5 5v13c0 30 -10.667 57.5 -32 82.5s-48.333 37.5 -81 37.5z" />
    <glyph glyph-name="G" unicode="G" horiz-adv-x="888" 
d="M174 611c73.333 65.333 175 98.002 305 98.002c58.667 0 136.667 -15.667 234 -47l29 13c24 10 39 15 45 15s10 -1.5 12 -4.5s3 -9.16699 3 -18.5v-187c0 -10 -4 -15 -12 -15s-15 10 -21 30c-14.667 48 -50.667 89.5 -108 124.5s-115.666 52.5 -174.999 52.5
c-72.667 0 -127.667 -16.667 -165 -50c-32.667 -28.667 -56.167 -65.334 -70.5 -110.001s-21.5 -102.667 -21.5 -174c0 -38 4.83301 -75.333 14.5 -112s24 -71 43 -103s45 -57.667 78 -77s70.833 -29 113.5 -29c54 0 102 15.333 144 46c22 17.333 33 31.333 33 42v92
c0 32.667 -4.33301 54.667 -13 66s-22.667 17 -42 17h-13c-3.33301 0 -5 1.66699 -5 5v26c0 2.66699 1.66699 4 5 4h271c3.33301 0 5 -1.33301 5 -4v-26c0 -3.33301 -1.66699 -5 -5 -5h-13c-19.333 0 -33.333 -5.66699 -42 -17s-13 -33.333 -13 -66
c0 -78 1.33301 -124.333 4 -139c-88.667 -46.667 -197.667 -70 -327 -70c-118.667 0 -215.834 32.5 -291.501 97.5s-113.5 150.167 -113.5 255.5c0 61.333 8.5 112.666 25.5 153.999s45.833 80 86.5 116z" />
    <glyph glyph-name="H" unicode="H" horiz-adv-x="949" 
d="M655 375v207c0 33.333 -5.33301 55.5 -16 66.5s-30.334 16.5 -59.001 16.5h-13c-3.33301 0 -5 1.66699 -5 5v26c0 2.66699 1.66699 4 5 4h311c3.33301 0 5 -1.33301 5 -4v-26c0 -3.33301 -1.66699 -5 -5 -5h-13c-28.667 0 -48.334 -5.5 -59.001 -16.5
s-16 -33.167 -16 -66.5v-464c0 -33.333 5.33301 -55.5 16 -66.5s30.334 -16.5 59.001 -16.5h13c3.33301 0 5 -1.66699 5 -5v-26c0 -2.66699 -1.66699 -4 -5 -4h-311c-3.33301 -0 -5 1.33301 -5 4v26c0 3.33301 1.66699 5 5 5h13c28.667 0 48.334 5.5 59.001 16.5
s16 33.167 16 66.5v212h-361v-212c0 -33.333 5.33301 -55.5 16 -66.5s30.334 -16.5 59.001 -16.5h13c3.33301 0 5 -1.66699 5 -5v-26c0 -2.66699 -1.66699 -4 -5 -4h-311c-3.33301 -0 -5 1.33301 -5 4v26c0 3.33301 1.66699 5 5 5h13c28.667 0 48.334 5.5 59.001 16.5
s16 33.167 16 66.5v464c0 33.333 -5.33301 55.5 -16 66.5s-30.334 16.5 -59.001 16.5h-13c-3.33301 0 -5 1.66699 -5 5v26c0 2.66699 1.66699 4 5 4h311c3.33301 0 5 -1.33301 5 -4v-26c0 -3.33301 -1.66699 -5 -5 -5h-13c-28.667 0 -48.334 -5.5 -59.001 -16.5
s-16 -33.167 -16 -66.5v-207h361z" />
    <glyph glyph-name="I" unicode="I" horiz-adv-x="380" 
d="M122 118v464c0 33.333 -5.33301 55.5 -16 66.5s-30.334 16.5 -59.001 16.5h-13c-3.33301 0 -5 1.66699 -5 5v26c0 2.66699 1.66699 4 5 4h311c3.33301 0 5 -1.33301 5 -4v-26c0 -3.33301 -1.66699 -5 -5 -5h-13c-28.667 0 -48.334 -5.5 -59.001 -16.5
s-16 -33.167 -16 -66.5v-464c0 -33.333 5.33301 -55.5 16 -66.5s30.334 -16.5 59.001 -16.5h13c3.33301 0 5 -1.66699 5 -5v-26c0 -2.66699 -1.66699 -4 -5 -4h-311c-3.33301 -0 -5 1.33301 -5 4v26c0 3.33301 1.66699 5 5 5h13c28.667 0 48.334 5.5 59.001 16.5
s16 33.167 16 66.5z" />
    <glyph glyph-name="J" unicode="J" horiz-adv-x="443" 
d="M314 582l0.00195312 -476.999c0 -67.333 -2.33301 -117.833 -7 -151.5s-15.667 -66.167 -33 -97.5c-20.667 -38 -48.834 -69.667 -84.501 -95s-70.167 -38 -103.5 -38c-31.333 0 -62.833 10.167 -94.5 30.5s-47.5 46.166 -47.5 77.499c0 16 6.33301 30.167 19 42.5
s27 18.5 43 18.5c31.333 0 54.333 -19.333 69 -58l18 -50c8 -18.667 19.667 -28 35 -28c30 0 46.333 45.667 49 137c1.33301 47.333 2 118 2 212v477c0 32 -7.5 53.833 -22.5 65.5s-37.833 17.5 -68.5 17.5h-13c-3.33301 0 -5 1.66699 -5 5v26c0 2.66699 1.66699 4 5 4h327
c3.33301 0 5 -1.33301 5 -4v-26c0 -3.33301 -1.66699 -5 -5 -5h-13c-28.667 0 -48.334 -5.5 -59.001 -16.5s-16 -33.167 -16 -66.5z" />
    <glyph glyph-name="K" unicode="K" horiz-adv-x="759" 
d="M52 700h312.999c3.33301 0 5 -1.33301 5 -4v-26c0 -3.33301 -1.66699 -5 -5 -5h-13c-28.667 0 -48.334 -5.5 -59.001 -16.5s-16 -33.167 -16 -66.5v-254l193 249c20.667 26.667 31 45.667 31 57c0 20.667 -16 31 -48 31h-5c-3.33301 0 -5 1.66699 -5 5v26
c0 2.66699 1.66699 4 5 4h215c3.33301 0 5 -1.33301 5 -4v-26c0 -3.33301 -1.66699 -5 -5 -5h-21c-21.333 0 -42.666 -6.83301 -63.999 -20.5s-39.666 -30.167 -54.999 -49.5l-132 -169l234 -338c16 -22.667 28.833 -37.167 38.5 -43.5s24.167 -9.5 43.5 -9.5h20
c3.33301 0 5 -1.66699 5 -5v-26c0 -2.66699 -1.66699 -4 -5 -4h-202c-4.66699 0 -8.33398 2 -11.001 6l-204 311l-33 -41v-158c0 -33.333 5.33301 -55.5 16 -66.5s30.334 -16.5 59.001 -16.5h13c3.33301 0 5 -1.66699 5 -5v-26c0 -2.66699 -1.66699 -4 -5 -4h-313
c-3.33301 -0 -5 1.33301 -5 4v26c0 3.33301 1.66699 5 5 5h13c28 0 47.5 5.5 58.5 16.5s16.5 33.167 16.5 66.5v464c0 33.333 -5.5 55.5 -16.5 66.5s-30.5 16.5 -58.5 16.5h-13c-3.33301 0 -5 1.66699 -5 5v26c0 2.66699 1.66699 4 5 4z" />
    <glyph glyph-name="L" unicode="L" horiz-adv-x="759" 
d="M284 582l0.00390625 -509c0 -25.333 35 -38 105 -38c79.333 0 138 7.66699 176 23s72.667 45.333 104 90l7.5 10l7 9.5l6 8l5.5 7c1.33301 1.66699 2.83301 3.66699 4.5 6s3.16699 4 4.5 5l4 3c1.33301 1 2.66602 1.66699 3.99902 2s2.66602 0.5 3.99902 0.5
c4.66699 0 7 -4.33301 7 -13c0 -6.66699 -1.66699 -15 -5 -25l-45 -148c-2.66699 -8.66699 -9.33398 -13 -20.001 -13h-592c-3.33301 -0 -5 1.33301 -5 4v26c0 3.33301 1.66699 5 5 5h13c28.667 0 48.334 5.5 59.001 16.5s16 33.167 16 66.5v464
c0 33.333 -5.33301 55.5 -16 66.5s-30.334 16.5 -59.001 16.5h-13c-3.33301 0 -5 1.66699 -5 5v26c0 2.66699 1.66699 4 5 4h311c3.33301 0 5 -1.33301 5 -4v-26c0 -3.33301 -1.66699 -5 -5 -5h-13c-28.667 0 -48.334 -5.5 -59.001 -16.5s-16 -33.167 -16 -66.5z" />
    <glyph glyph-name="M" unicode="M" horiz-adv-x="1139" 
d="M309 700l267.996 -524.001l264 524h218c3.33301 0 5 -1.33301 5 -4v-26c0 -3.33301 -1.66699 -5 -5 -5h-13c-28.667 0 -48.334 -5.5 -59.001 -16.5s-16 -33.167 -16 -66.5v-464c0 -33.333 5.33301 -55.5 16 -66.5s30.334 -16.5 59.001 -16.5h13
c3.33301 0 5 -1.66699 5 -5v-26c0 -2.66699 -1.66699 -4 -5 -4h-310c-4 0 -6 1.33301 -6 4v26c0 3.33301 2 5 6 5h12c28.667 0 48.334 5.5 59.001 16.5s16 33.167 16 66.5v487c0 6 -1 9 -3 9s-4 -2 -6 -6l-293 -592c-0.666992 -0.666992 -1.5 -2.16699 -2.5 -4.5
s-1.66699 -4.16602 -2 -5.49902s-1.16602 -2.5 -2.49902 -3.5s-2.66602 -1.5 -3.99902 -1.5h-4c-3.33301 0 -7.33301 5 -12 15l-297 557c-2 4 -3.66699 6 -5 6c-2.66699 0 -4 -3 -4 -9v-452c0 -33.333 5.83301 -55.5 17.5 -66.5s31.834 -16.5 60.501 -16.5h8
c3.33301 0 5 -1.66699 5 -5v-26c0 -2.66699 -1.66699 -4 -5 -4h-209c-3.33301 -0 -5 1.33301 -5 4v26c0 3.33301 1.66699 5 5 5h8c30 0 51.667 5.66699 65 17s20 33.333 20 66v474c0 32 -3.83301 52.167 -11.5 60.5s-25.5 12.5 -53.5 12.5h-13c-3.33301 0 -5 1.66699 -5 5
v26c0 2.66699 1.66699 4 5 4h216z" />
    <glyph glyph-name="N" unicode="N" horiz-adv-x="949" 
d="M787 582l0.000976562 -588c0 -5.33301 -1.33301 -8 -4 -8s-5.66699 1.66699 -9 5l-561 593c-8 8 -13 12 -15 12s-3 -6 -3 -18v-460c0 -33.333 5.83301 -55.5 17.5 -66.5s31.834 -16.5 60.501 -16.5h8c3.33301 0 5 -1.66699 5 -5v-26c0 -2.66699 -1.66699 -4 -5 -4h-209
c-3.33301 -0 -5 1.33301 -5 4v26c0 3.33301 1.66699 5 5 5h8c30 0 51.667 5.66699 65 17s20 33.333 20 66v422c0 38.667 -1 63.167 -3 73.5s-8.33301 20.5 -19 30.5c-14.667 14 -35.667 21 -63 21h-8c-3.33301 0 -5 1.66699 -5 5v26c0 2.66699 1.66699 4 5 4h207
c11.333 0 20.666 -4 27.999 -12l450 -475v369c0 33.333 -5.83301 55.5 -17.5 66.5s-31.834 16.5 -60.501 16.5h-8c-3.33301 0 -5 1.66699 -5 5v26c0 2.66699 1.66699 4 5 4h209c3.33301 0 5 -1.33301 5 -4v-26c0 -3.33301 -1.66699 -5 -5 -5h-8
c-30 0 -51.667 -5.66699 -65 -17s-20 -33.333 -20 -66z" />
    <glyph glyph-name="O" unicode="O" horiz-adv-x="885" 
d="M68 346c0 67.333 13.499 128.334 40.499 183.001s69.5 99.167 127.5 133.5s127.333 51.5 208 51.5c108.667 0 198.334 -32.833 269.001 -98.5s106 -155.834 106 -270.501c0 -102 -35.5 -187.167 -106.5 -255.5s-159.5 -102.5 -265.5 -102.5
c-112.667 0 -204 33.167 -274 99.5s-105 152.833 -105 259.5zM220.999 350.001c0 -36 1.16699 -67.5 3.5 -94.5s8 -56.5 17 -88.5s21.167 -58.5 36.5 -79.5s37.333 -38.5 66 -52.5s62.667 -21 102 -21c36 0 67.333 6.5 94 19.5s47.667 29.833 63 50.5s27.5 46.167 36.5 76.5
s15 60 18 89s4.5 61.5 4.5 97.5c0 36.667 -1 68 -3 94s-7.16699 55.667 -15.5 89s-19.833 60.5 -34.5 81.5s-36 38.833 -64 53.5s-61.333 22 -100 22c-79.333 0 -136.5 -26.333 -171.5 -79s-52.5 -138.667 -52.5 -258z" />
    <glyph glyph-name="P" unicode="P" horiz-adv-x="696" 
d="M162 108l-0.00195312 483.999c0 33.333 -5.33301 55.5 -16 66.5s-30.334 16.5 -59.001 16.5h-13c-3.33301 0 -5 1.66699 -5 5v16c0 2.66699 1.66699 4 5 4h313c87.333 0 151 -11.667 191 -35c59.333 -34 89 -82.667 89 -146c0 -31.333 -8 -60.666 -24 -87.999
s-38.667 -48 -68 -62c-38 -18 -103.667 -27 -197 -27c-17.333 0 -43.666 1 -78.999 3v-237c0 -33.333 5.33301 -55.5 16 -66.5s30.334 -16.5 59.001 -16.5h13c3.33301 0 5 -1.66699 5 -5v-16c0 -2.66699 -1.66699 -4 -5 -4h-313c-3.33301 -0 -5 1.33301 -5 4v16
c0 3.33301 1.66699 5 5 5h13c28.667 0 48.334 5.5 59.001 16.5s16 33.167 16 66.5zM298.998 373.999c24 -2.66699 48.333 -4 73 -4c55.333 0 96.333 12.5 123 37.5s40 67.167 40 126.5c0 42.667 -10.5 76.667 -31.5 102s-49.167 38 -84.5 38h-70
c-20 0 -33.333 -4.5 -40 -13.5s-10 -26.167 -10 -51.5v-235z" />
    <glyph glyph-name="Q" unicode="Q" horiz-adv-x="885" 
d="M540 -2c11.333 -56 49.668 -84 115.001 -84c28 0 53.333 4 76 12h2c1.33301 0.666992 2.33301 1 3 1c2.66699 0 4 -1.66699 4 -5v-20c0 -4 -2.66699 -7 -8 -9c-56 -14.667 -101.333 -22 -136 -22c-96.667 0 -186.334 44.333 -269.001 133
c-80 18.667 -143 59.167 -189 121.5s-69 138.5 -69 228.5c0 106.667 34.667 193.167 104 259.5s159.666 99.5 270.999 99.5c108.667 0 198.334 -34.167 269.001 -102.5s106 -154.833 106 -259.5c0 -179.333 -93 -297 -279 -353zM664.002 350
c0 41.333 -1.66309 77.6699 -4.99609 109.003s-9.83301 62 -19.5 92s-22.5 54.5 -38.5 73.5s-37.5 34.333 -64.5 46s-59.167 17.5 -96.5 17.5c-34.667 0 -65 -5.83301 -91 -17.5s-47 -27.167 -63 -46.5s-28.833 -43.5 -38.5 -72.5s-16.334 -59 -20.001 -90
s-5.5 -66.167 -5.5 -105.5c0 -29.333 0.5 -54.5 1.5 -75.5s3.16699 -44.167 6.5 -69.5s8.16602 -46.833 14.499 -64.5s15.166 -35.334 26.499 -53.001s24.833 -31.834 40.5 -42.501s35.167 -19.334 58.5 -26.001s49.666 -10 78.999 -10c74 0 128.333 26.833 163 80.5
s52 138.5 52 254.5z" />
    <glyph glyph-name="R" unicode="R" horiz-adv-x="823" 
d="M407 700c87.333 0 155.833 -15.8311 205.5 -47.498s74.5 -75.167 74.5 -130.5c0 -80 -49.333 -131.667 -148 -155c-6.66699 -0.666992 -10 -2.33398 -10 -5.00098c0 -1.33301 2.66699 -4.66602 8 -9.99902c26 -25.333 55.667 -70.333 89 -135l30.5 -63.5l22.5 -48.5
c5.33301 -11.333 11 -21.333 17 -30c17.333 -26.667 42.666 -40 75.999 -40h18c3.33301 0 5 -1.66699 5 -5v-26c0 -2.66699 -1.66699 -4 -5 -4h-208c-5.33301 0 -9 2.33301 -11 7c-34 87.333 -71.667 170.666 -113 249.999c-14.667 27.333 -26 46.666 -34 57.999
s-18 21.333 -30 30h-94v-227c0 -33.333 5.33301 -55.5 16 -66.5s30.334 -16.5 59.001 -16.5h13c3.33301 0 5 -1.66699 5 -5v-26c0 -2.66699 -1.66699 -4 -5 -4h-313c-3.33301 -0 -5 1.33301 -5 4v26c0 3.33301 1.66699 5 5 5h13c28.667 0 48.334 5.5 59.001 16.5
s16 33.167 16 66.5v464c0 33.333 -5.33301 55.5 -16 66.5s-30.334 16.5 -59.001 16.5h-13c-3.33301 0 -5 1.66699 -5 5v26c0 2.66699 1.66699 4 5 4h332zM300 374.002c15.333 -1.33301 32.333 -1.99902 51 -1.99902c62.667 0 112.667 15 150 45s56 70.333 56 121
c0 91.333 -61 137 -183 137c-30 0 -49.833 -4.83301 -59.5 -14.5s-14.5 -30.834 -14.5 -63.501v-223z" />
    <glyph glyph-name="S" unicode="S" horiz-adv-x="569" 
d="M489 713l-0.00195312 -212.002c0 -10 -3.66699 -15 -11 -15c-4 0 -8.33301 4 -13 12l-16 34c-47.333 106 -106.333 159 -177 159c-34 0 -63.5 -11.333 -88.5 -34s-37.5 -49.667 -37.5 -81c0 -29.333 10.5 -52.5 31.5 -69.5s64.833 -36.5 131.5 -58.5
c33.333 -10.667 61.5 -21.667 84.5 -33s46 -25.833 69 -43.5s40.333 -39.167 52 -64.5s17.5 -54.666 17.5 -87.999c0 -64.667 -23.5 -119.5 -70.5 -164.5s-104.167 -67.5 -171.5 -67.5c-42 0 -90.667 12.333 -146 37c-14 -4.66699 -30 -14 -48 -28h-30v191
c0 10.667 4.66699 16 14 16c6.66699 0 11.334 -4.33301 14.001 -13c50.667 -117.333 117.334 -176 200.001 -176c37.333 0 70 13.333 98 40s42 58.334 42 95.001c0 37.333 -12 66.5 -36 87.5s-64.333 39.833 -121 56.5c-74.667 22 -130.5 49.333 -167.5 82
s-55.5 79.667 -55.5 141c0 58.667 20.5 106.667 61.5 144s94.167 56 159.5 56c44 0 88 -10.333 132 -31c10.667 4.66699 26 14 46 28h36z" />
    <glyph glyph-name="T" unicode="T" horiz-adv-x="749" 
d="M442 582v-464c0 -33.333 5.33301 -55.5 16 -66.5s30.334 -16.5 59.001 -16.5h13c3.33301 0 5 -1.66699 5 -5v-26c0 -2.66699 -1.66699 -4 -5 -4h-311c-3.33301 -0 -5 1.33301 -5 4v26c0 3.33301 1.66699 5 5 5h13c28.667 0 48.334 5.5 59.001 16.5s16 33.167 16 66.5v464
c0 30 -4.33301 51.167 -13 63.5s-23.667 18.5 -45 18.5c-44.667 0 -80.334 -8.16699 -107.001 -24.5s-56 -45.5 -88 -87.5c-13.333 -17.333 -21.333 -26 -24 -26c-6.66699 0 -10 3 -10 9s2 16.333 6 31s9.16699 34.667 15.5 60s11.833 50.666 16.5 75.999
c2.66699 16 7.66699 24 15 24c4 0 12.333 -4 25 -12c14 -9.33301 47.667 -14 101 -14h351c53.333 0 87 4.66699 101 14c12.667 8 21 12 25 12c7.33301 0 12.333 -8 15 -24c4.66699 -25.333 10.167 -50.666 16.5 -75.999s11.5 -45.333 15.5 -60s6 -25 6 -31
s-3.33301 -9 -10 -9c-2.66699 0 -10.667 8.66699 -24 26c-32 42 -61.333 71.167 -88 87.5s-62.334 24.5 -107.001 24.5c-21.333 0 -36.333 -6.16699 -45 -18.5s-13 -33.5 -13 -63.5z" />
    <glyph glyph-name="U" unicode="U" horiz-adv-x="885" 
d="M717 213l0.00488281 368.999c0 33.333 -5.33301 55.5 -16 66.5s-30.334 16.5 -59.001 16.5h-13c-3.33301 0 -5 1.66699 -5 5v26c0 2.66699 1.66699 4 5 4h216c3.33301 0 5 -1.33301 5 -4v-26c0 -3.33301 -1.66699 -5 -5 -5h-13c-28.667 0 -48.334 -5.5 -59.001 -16.5
s-16 -33.167 -16 -66.5v-353c0 -73.333 -23.167 -132.166 -69.5 -176.499s-120.833 -66.5 -223.5 -66.5c-106.667 0 -187.834 20.333 -243.501 61s-83.5 109 -83.5 205v330c0 33.333 -5.33301 55.5 -16 66.5s-30.334 16.5 -59.001 16.5h-13c-3.33301 0 -5 1.66699 -5 5v26
c0 2.66699 1.66699 4 5 4h311c3.33301 0 5 -1.33301 5 -4v-26c0 -3.33301 -1.66699 -5 -5 -5h-13c-28.667 0 -48.334 -5.5 -59.001 -16.5s-16 -33.167 -16 -66.5v-359c0 -64 16 -111.333 48 -142s81 -46 147 -46c79.333 0 140.833 16.167 184.5 48.5s65.5 75.5 65.5 129.5z
" />
    <glyph glyph-name="V" unicode="V" horiz-adv-x="885" 
d="M48 665l-12.998 -0.00195312c-3.33301 0 -5 1.66699 -5 5v26c0 2.66699 1.66699 4 5 4h338c3.33301 0 5 -1.33301 5 -4v-26c0 -3.33301 -1.66699 -5 -5 -5h-13c-42.667 0 -64 -14.667 -64 -44c0 -10 2 -18.667 6 -26l194 -397l192 392c12 24 18 38 18 42
c0 10.667 -3.66699 18.834 -11 24.501s-22.333 8.5 -45 8.5h-13c-3.33301 0 -5 1.66699 -5 5v26c0 2.66699 1.66699 4 5 4h233c3.33301 0 5 -1.33301 5 -4v-26c0 -3.33301 -1.66699 -5 -5 -5h-13c-32 -1.33301 -56.5 -7.16602 -73.5 -17.499s-32.5 -29.833 -46.5 -58.5
l-285 -593c-2.66699 -6 -6.33398 -9 -11.001 -9s-8.33398 2.33301 -11.001 7l-289 609c-19.333 41.333 -50.333 62 -93 62z" />
    <glyph glyph-name="W" unicode="W" horiz-adv-x="1139" 
d="M428 221l113 239l-60 156c-13.333 32.667 -33.333 49 -60 49h-13c-3.33301 0 -5 1.66699 -5 5v26c0 2.66699 1.66699 4 5 4h309c3.33301 0 5 -1.33301 5 -4v-26c0 -3.33301 -1.66699 -5 -5 -5h-13c-46.667 -0.666992 -70 -13 -70 -37c0 -8 2.66699 -17.333 8 -28
l164 -380l153 387c3.33301 8 5 16.667 5 26c0 21.333 -14 32 -42 32h-13c-3.33301 0 -5 1.66699 -5 5v26c0 2.66699 1.66699 4 5 4h205c3.33301 0 5 -1.33301 5 -4v-26c0 -3.33301 -1.66699 -5 -5 -5h-13c-30 -2.66699 -52 -9.66699 -66 -21s-27.333 -33 -40 -65l-227 -579
c-4 -8.66699 -9 -13 -15 -13c-5.33301 0 -10 4.33301 -14 13l-175 403l-178 -403c-4 -8.66699 -9.33301 -13 -16 -13c-6 0 -11 4.33301 -15 13l-237 616c-4.66699 14.667 -13.5 26.5 -26.5 35.5s-28.167 13.5 -45.5 13.5h-13c-3.33301 0 -5 1.66699 -5 5v26
c0 2.66699 1.66699 4 5 4h314c3.33301 0 5 -1.33301 5 -4v-26c0 -3.33301 -1.66699 -5 -5 -5h-13c-26 0 -43.5 -2.5 -52.5 -7.5s-13.5 -12.833 -13.5 -23.5c0 -3.33301 2.66699 -13 8 -29z" />
    <glyph glyph-name="X" unicode="X" horiz-adv-x="885" 
d="M536 35c25.333 0 38.001 8.66504 38.001 25.998c0 13.333 -5.66699 27.333 -17 42l-139 180l-172 -184c-10.667 -10.667 -16 -22.667 -16 -36c0 -7.33301 2.83301 -13.833 8.5 -19.5s12.5 -8.5 20.5 -8.5h13c3.33301 0 5 -1.66699 5 -5v-26c0 -2.66699 -1.66699 -4 -5 -4
h-235c-3.33301 0 -5 1.33301 -5 4v26c0 3.33301 1.66699 5 5 5h13c24.667 0 50.167 5.83301 76.5 17.5s48.833 27.5 67.5 47.5l200 219l-215 293c-25.333 34.667 -58 52.334 -98 53.001h-13c-3.33301 0 -5 1.66699 -5 5v26c0 2.66699 1.66699 4 5 4h327
c3.33301 0 5 -1.33301 5 -4v-26c0 -3.33301 -1.66699 -5 -5 -5h-13c-28.667 0 -43 -9.66699 -43 -29c0 -10.667 6 -23.334 18 -38.001l132 -170l150 158c22.667 22.667 34 41.334 34 56.001c0 6.66699 -2.83301 12.167 -8.5 16.5s-12.5 6.5 -20.5 6.5h-13
c-3.33301 0 -5 1.66699 -5 5v26c0 2.66699 1.66699 4 5 4h205c3.33301 0 5 -1.33301 5 -4v-26c0 -3.33301 -1.66699 -5 -5 -5h-13c-38 0 -74.333 -18 -109 -54l-202 -215l211 -291c31.333 -43.333 68.666 -66.666 111.999 -69.999h13c3.33301 0 5 -1.66699 5 -5v-26
c0 -2.66699 -1.66699 -4 -5 -4h-325c-3.33301 -0 -5 1.33301 -5 4v26c0 3.33301 1.66699 5 5 5h13z" />
    <glyph glyph-name="Y" unicode="Y" horiz-adv-x="885" 
d="M363 118l-0.00292969 229.999l-203 272c-9.33301 12 -23.166 22.5 -41.499 31.5s-35.833 13.5 -52.5 13.5h-13c-3.33301 0 -5 1.66699 -5 5v26c0 2.66699 1.66699 4 5 4h314c3.33301 0 5 -1.33301 5 -4v-26c0 -3.33301 -1.66699 -5 -5 -5h-13c-20 0 -30 -8 -30 -24
c0 -11.333 4.33301 -21.666 13 -30.999l153 -209l167 195c14 17.333 21 30.666 21 39.999s-2.83301 16.333 -8.5 21s-16.5 7.33398 -32.5 8.00098h-13c-3.33301 0 -5 1.66699 -5 5v26c0 2.66699 1.66699 4 5 4h202c3.33301 0 5 -1.33301 5 -4v-26
c0 -3.33301 -1.66699 -5 -5 -5h-13c-18 0 -33.667 -3.66699 -47 -11s-28 -20.333 -44 -39l-224 -265v-232c0 -33.333 5.33301 -55.5 16 -66.5s30.334 -16.5 59.001 -16.5h13c3.33301 0 5 -1.66699 5 -5v-26c0 -2.66699 -1.66699 -4 -5 -4h-311c-3.33301 -0 -5 1.33301 -5 4
v26c0 3.33301 1.66699 5 5 5h13c28.667 0 48.334 5.5 59.001 16.5s16 33.167 16 66.5z" />
    <glyph glyph-name="Z" unicode="Z" horiz-adv-x="759" 
d="M716 700l1 -12.002l-469 -646c34.667 -5.33301 90.667 -8 168 -8c46.667 0 87 3.83301 121 11.5s63.333 23.834 88 48.501c15.333 15.333 30.833 32.666 46.5 51.999s25.834 34 30.501 44c3.33301 8 8 12 14 12s9 -2.66699 9 -8c0 -4.66699 -1 -10 -3 -16l-56 -162
c-4 -10.667 -12 -16 -24 -16h-590l-1 8l476 650c-41.333 4 -86.333 6 -135 6c-70.667 0 -122.334 -4.16699 -155.001 -12.5s-60.667 -25.166 -84 -50.499l-65 -71c-7.33301 -8.66699 -12.333 -13 -15 -13c-4.66699 0 -7 3.33301 -7 10c0 4.66699 1 10.334 3 17.001l48 142
c3.33301 9.33301 10.333 14 21 14h578z" />
    <glyph glyph-name="bracketleft" unicode="[" horiz-adv-x="206" 
d="M102 668l0.000976562 -891c0 -10 2.16699 -16.833 6.5 -20.5s12.166 -5.5 23.499 -5.5h70c6.66699 0 10 -4.33301 10 -13s-3.33301 -13 -10 -13h-185c-6.66699 0 -10 4.33301 -10 13v980c0 8.66699 3.33301 13 10 13h185c6.66699 0 10 -4.33301 10 -13
s-3.33301 -13 -10 -13h-60c-14.667 0 -25 -2.16699 -31 -6.5s-9 -14.5 -9 -30.5z" />
    <glyph glyph-name="backslash" unicode="\" horiz-adv-x="350" 
d="M47 725l301.001 -832.001c0.666992 -1.33301 1 -2.66602 1 -3.99902c0 -2 -1 -3.66699 -3 -5c-20.667 -8.66699 -33 -13 -37 -13c-2.66699 0 -4.66699 2 -6 6l-300 832c-1.33301 2.66699 -2 4.66699 -2 6c0 2 1.33301 3.33301 4 4l35 14
c3.33301 0 5.66602 -2.66699 6.99902 -8z" />
    <glyph glyph-name="bracketright" unicode="]" horiz-adv-x="258" 
d="M117 -223l0.000976562 891c0 16 -3 26.167 -9 30.5s-16.333 6.5 -31 6.5h-60c-6.66699 0 -10 4.33301 -10 13s3.33301 13 10 13h185c6.66699 0 10 -4.33301 10 -13v-980c0 -8.66699 -3.33301 -13 -10 -13h-185c-6.66699 0 -10 4.33301 -10 13s3.33301 13 10 13h70
c11.333 0 19.166 1.83301 23.499 5.5s6.5 10.5 6.5 20.5z" />
    <glyph glyph-name="asciicircum" unicode="^" 
d="M215 682h53l135 -373l-55 -20l-107 292l-106 -292l-55 20z" />
    <glyph glyph-name="underscore" unicode="_" 
d="M500 -93h-500v43h500v-43z" />
    <glyph glyph-name="grave" unicode="`" horiz-adv-x="570" 
d="M294 533l-110.999 86.001c-16 16 -24 29.667 -24 41c0 10.667 4.33301 20.5 13 29.5s19 13.5 31 13.5c13.333 0 27 -8.33301 41 -25l76 -122c4 -6.66699 6 -11.334 6 -14.001c0 -3.33301 -2 -6.83301 -6 -10.5s-8 -5.5 -12 -5.5c-4.66699 0 -9.33398 2.33301 -14.001 7z
" />
    <glyph glyph-name="a" unicode="a" horiz-adv-x="507" 
d="M295 274c0.666992 10 1.16699 19.5029 1.5 28.5029s0.666016 15 0.999023 18s0.5 5.16699 0.5 6.5c0 17.333 -7.5 32.666 -22.5 45.999s-32.167 20 -51.5 20c-25.333 0 -45.166 -5.83301 -59.499 -17.5s-21.5 -27.834 -21.5 -48.501v-10c2.66699 -21.333 4 -34.333 4 -39
c0 -11.333 -5 -21.666 -15 -30.999s-21.667 -14 -35 -14c-14.667 0 -28 6.16699 -40 18.5s-18 26.166 -18 41.499c0 34.667 23.333 65.667 70 93s98.667 41 156 41c50.667 0 87.334 -10 110.001 -30s34 -52 34 -96c0 -24 -1.83301 -61.833 -5.5 -113.5
s-5.5 -86.834 -5.5 -105.501c0 -28 8 -42 24 -42c10 0 17.667 5 23 15c6 10.667 11.667 16 17 16c10.667 0 16 -6 16 -18c0 -16.667 -8.5 -31 -25.5 -43s-37.167 -18 -60.5 -18c-22.667 0 -41.667 3.5 -57 10.5s-31 19.5 -47 37.5c-52.667 -32 -98.334 -48 -137.001 -48
c-30 0 -54.5 10.667 -73.5 32s-28.5 49.333 -28.5 84c0 38.667 34 73 102 103zM293 237.003c-44.667 -14 -79.833 -32.835 -105.5 -56.502s-38.5 -49.5 -38.5 -77.5c0.666992 -17.333 7.5 -32.166 20.5 -44.499s28.167 -18.5 45.5 -18.5c12.667 0 25.834 5.33301 39.501 16
s24.5 22.334 32.5 35.001c1.33301 4 2.66602 11.333 3.99902 22c0 22.667 0.666992 64 2 124z" />
    <glyph glyph-name="b" unicode="b" horiz-adv-x="569" 
d="M522 224c0 -64.667 -21.167 -120 -63.5 -166s-93.5 -69 -153.5 -69c-42 0 -89.333 14.333 -142 43l-12 -6l-40 -37l-17 -2v578c0 27.333 -3.16699 46 -9.5 56s-19.166 16.667 -38.499 20c-3.33301 1.33301 -5 3 -5 5v16c0 3.33301 1.66699 5.33301 5 6
c75.333 11.333 121 20 137 26c4 1.33301 8.66699 2 14 2c4.66699 0 7 -4.66699 7 -14v-299c45.333 36.667 91.666 55 138.999 55c51.333 0 94 -20.333 128 -61s51 -91.667 51 -153zM205 354v-222c0 -26.667 2.16699 -45.334 6.5 -56.001s14.833 -22.667 31.5 -36
c20 -16 41.333 -24 64 -24c32 0 58.833 16.667 80.5 50s32.5 75 32.5 125c0 54.667 -13.5 99.834 -40.5 135.501s-61.833 53.5 -104.5 53.5c-22.667 0 -46 -8.66699 -70 -26z" />
    <glyph glyph-name="c" unicode="c" horiz-adv-x="507" 
d="M270 440c52 0 95.668 -12.834 131.001 -38.501s53 -54.167 53 -85.5c0 -16 -6.33301 -29.833 -19 -41.5s-27.667 -17.5 -45 -17.5s-32.333 7.83301 -45 23.5s-20.667 36.167 -24 61.5c-1.33301 11.333 -2.66602 20.333 -3.99902 27s-3.83301 13.834 -7.5 21.501
s-9.33398 13.334 -17.001 17.001s-17.167 5.5 -28.5 5.5c-30.667 0 -54.667 -14.5 -72 -43.5s-26 -68.833 -26 -119.5c0 -60 12.5 -107.5 37.5 -142.5s58.833 -52.5 101.5 -52.5c56 0 97 33 123 99c4 10.667 7.5 17.5 10.5 20.5s6.5 4.5 10.5 4.5s7.33301 -1.5 10 -4.5
s4 -6.5 4 -10.5c0 -5.33301 -2.33301 -13.666 -7 -24.999c-16.667 -42.667 -42.834 -77.834 -78.501 -105.501s-77.5 -41.5 -125.5 -41.5c-61.333 0 -111.5 19.667 -150.5 59s-58.5 89.666 -58.5 150.999c0 63.333 22.333 118.833 67 166.5s98 71.5 160 71.5z" />
    <glyph glyph-name="d" unicode="d" horiz-adv-x="569" 
d="M362 75l0.000976562 244c-14.667 56.667 -47.334 85 -98.001 85c-32.667 0 -58.667 -16.167 -78 -48.5s-29 -75.833 -29 -130.5c0 -58 12.167 -104.333 36.5 -139s57.5 -52 99.5 -52c16 0 28.5 2.66699 37.5 8s19.5 16.333 31.5 33zM362.001 -14v40
c-12.667 -12 -31.667 -22.667 -57 -32s-48.333 -14 -69 -14c-55.333 0 -101 19.833 -137 59.5s-54 90.167 -54 151.5c0 73.333 20.333 131.5 61 174.5s96 64.5 166 64.5c22 0 52 -7.66699 90 -23v158c0 27.333 -3.16699 46 -9.5 56s-19.166 16.667 -38.499 20
c-3.33301 1.33301 -5 3 -5 5v16c0 3.33301 1.66699 5.33301 5 6c75.333 11.333 121 20 137 26c4 1.33301 8.66699 2 14 2c4.66699 0 7 -4.66699 7 -14v-579c0 -27.333 3.16699 -46 9.5 -56s19.166 -16.667 38.499 -20c3.33301 -1.33301 5 -3 5 -5v-16
c0 -3.33301 -1.66699 -5.33301 -5 -6c-75.333 -11.333 -121 -20 -137 -26c-4 -1.33301 -8.66699 -2 -14 -2c-4.66699 0 -7 4.66699 -7 14z" />
    <glyph glyph-name="e" unicode="e" horiz-adv-x="507" 
d="M160 235c-0.666992 -4.66699 -1 -9.33496 -1 -14.002c0 -48 13 -88.333 39 -121s58 -49 96 -49c24.667 0 49.834 6.66699 75.501 20s46.834 31.333 63.501 54c3.33301 3.33301 6 5 8 5c8.66699 0 13 -3 13 -9s-2 -12.667 -6 -20c-22 -36 -51.5 -65.333 -88.5 -88
s-76.833 -34 -119.5 -34c-52.667 0 -98.834 21.833 -138.501 65.5s-59.5 94.167 -59.5 151.5c0 64.667 20.667 119.334 62 164.001s91.666 67 150.999 67c44 0 83.333 -12.167 118 -36.5s59 -56.5 73 -96.5c3.33301 -9.33301 5 -18.666 5 -27.999c0 -20 -11.667 -30 -35 -30
h-68zM247 400.999c-50 0 -78 -43.667 -84 -131l90 1h63c13.333 0 20 5.33301 20 16c0 72.667 -29.667 110.667 -89 114z" />
    <glyph glyph-name="f" unicode="f" horiz-adv-x="310" 
d="M48 415l51.998 -0.00292969c2 70 12.333 128.333 31 175c12.667 32.667 34.334 58.167 65.001 76.5s66 27.5 106 27.5c28.667 0 51.834 -6 69.501 -18s26.5 -27.667 26.5 -47c0 -13.333 -4.16699 -24.666 -12.5 -33.999s-18.833 -14 -31.5 -14
c-11.333 0 -21.5 3.83301 -30.5 11.5s-21.167 22.834 -36.5 45.501c-10 15.333 -21 23 -33 23c-12.667 0 -22.667 -5 -30 -15s-11.333 -23.667 -12 -41c-1.33301 -73.333 -2 -136.666 -2 -189.999h79c3.33301 0 5 -1.66699 5 -5v-36c0 -2.66699 -1.66699 -4 -5 -4h-79v-272
c0 -42 15 -63 45 -63h13c3.33301 0 5 -1.66699 5 -5v-26c0 -2.66699 -1.66699 -4 -5 -4h-226c-3.33301 -0 -5 1.33301 -5 4v26c0 3.33301 1.66699 5 5 5h13c30 0 45 21 45 63v272h-52c-3.33301 0 -5 1.33301 -5 4v36c0 3.33301 1.66699 5 5 5z" />
    <glyph glyph-name="g" unicode="g" horiz-adv-x="572" 
d="M403 388c36.667 34.667 68.667 52.002 96 52.002c12.667 0 23.334 -3.83301 32.001 -11.5s13 -17.167 13 -28.5c0 -12.667 -4.66699 -23 -14 -31s-21 -12 -35 -12c-8.66699 0 -17 2 -25 6l-14 8c-2 2 -5.33301 3 -10 3c-10 0 -17.333 -3 -22 -9c20 -27.333 30 -55 30 -83
c0 -46.667 -19.5 -84.5 -58.5 -113.5s-90.167 -43.5 -153.5 -43.5c-18.667 0 -42.334 3 -71.001 9c-30 -7.33301 -45 -20.333 -45 -39c0 -12 7.33301 -19.333 22 -22s51.667 -4 111 -4c10.667 0 27.167 0.833008 49.5 2.5s40.166 2.5 53.499 2.5
c43.333 0 79.5 -11.833 108.5 -35.5s43.5 -53.834 43.5 -90.501c0 -47.333 -26.667 -87.333 -80 -120s-118.666 -49 -195.999 -49c-62 0 -110.833 9 -146.5 27s-53.5 44.333 -53.5 79c0 42 26.333 73 79 93c-40.667 22 -61 48 -61 78c0 38 27.667 69 83 93
c-62.667 29.333 -94 72 -94 128c0 46 20.333 85 61 117s90.667 48 150 48c32 0 59 -4.33301 81 -13s44 -22.334 66 -41.001zM255 415.002c-30 0 -54.5 -12.3311 -73.5 -36.998s-28.5 -56.334 -28.5 -95.001c0 -39.333 9.5 -71.666 28.5 -96.999s42.833 -38 71.5 -38
s52 12.667 70 38s27 57.666 27 96.999c0 37.333 -9.16699 68.666 -27.5 93.999s-40.833 38 -67.5 38zM256 -28.9961c-46 0 -82.834 -7.83203 -110.501 -23.499s-41.5 -34.834 -41.5 -57.501c0 -24.667 16 -44.5 48 -59.5s72 -22.5 120 -22.5c44.667 0 84.167 10 118.5 30
s51.5 43 51.5 69c0 27.333 -13.667 44.833 -41 52.5s-75.666 11.5 -144.999 11.5z" />
    <glyph glyph-name="h" unicode="h" horiz-adv-x="570" 
d="M202 681l-0.00195312 -323c36.667 45.333 84.667 68 144 68c40 0 73 -10.667 99 -32s39 -49 39 -83v-213c0 -42 15 -63 45 -63h13c3.33301 0 5 -1.66699 5 -5v-26c0 -2.66699 -1.66699 -4 -5 -4h-226c-3.33301 -0 -5 1.33301 -5 4v26c0 3.33301 1.66699 5 5 5h13
c30 0 45 21 45 63v215c0 21.333 -7 39.333 -21 54s-31 22 -51 22c-18.667 0 -35.667 -5.83301 -51 -17.5s-31.666 -31.167 -48.999 -58.5v-215c0 -42 15 -63 45 -63h13c3.33301 0 5 -1.66699 5 -5v-26c0 -2.66699 -1.66699 -4 -5 -4h-226c-3.33301 -0 -5 1.33301 -5 4v26
c0 3.33301 1.66699 5 5 5h13c30 0 45 21 45 63v466c0 27.333 -3.16699 46 -9.5 56s-19.166 16.667 -38.499 20c-3.33301 1.33301 -5 3 -5 5v16c0 3.33301 1.66699 5.33301 5 6c75.333 11.333 121 20 137 26c4 1.33301 8.66699 2 14 2c4.66699 0 7 -4.66699 7 -14z" />
    <glyph glyph-name="i" unicode="i" horiz-adv-x="311" 
d="M211 412l-0.00292969 -314c0 -42 15 -63 45 -63h13c3.33301 0 5 -1.66699 5 -5v-26c0 -2.66699 -1.66699 -4 -5 -4h-226c-3.33301 -0 -5 1.33301 -5 4v26c0 3.33301 1.66699 5 5 5h13c30 0 45 21 45 63v172c0 27.333 -3.16699 46 -9.5 56s-19.166 16.667 -38.499 20
c-3.33301 1.33301 -5 3 -5 5v16c0 3.33301 1.66699 5.33301 5 6c49.333 14.667 93.333 30 132 46c0.666992 0 2.33398 0.666992 5.00098 2s5.33398 2.5 8.00098 3.5s4.66699 1.5 6 1.5c4.66699 0 7 -4.66699 7 -14zM91.9971 627c0 18 6.16699 33.333 18.5 46
s27.5 19 45.5 19s33.333 -6.33301 46 -19s19 -28 19 -46s-6.33301 -33.167 -19 -45.5s-28 -18.5 -46 -18.5s-33.167 6.16699 -45.5 18.5s-18.5 27.5 -18.5 45.5z" />
    <glyph glyph-name="j" unicode="j" horiz-adv-x="316" 
d="M-54 -157c0 14.667 5.66504 27.667 16.998 39s24.333 17 39 17c22 0 45 -16 69 -48c8.66699 -12 17 -18 25 -18c20 0 30 22 30 66v371c0 27.333 -3.16699 46 -9.5 56s-19.166 16.667 -38.499 20c-3.33301 1.33301 -5 3 -5 5v16c0 3.33301 1.66699 5.33301 5 6
c49.333 14.667 93.333 30 132 46c0.666992 0 2.33398 0.666992 5.00098 2s5.33398 2.5 8.00098 3.5s4.66699 1.5 6 1.5c4.66699 0 7 -4.66699 7 -14v-363c0 -70.667 -20.333 -134 -61 -190s-86.334 -84 -137.001 -84c-27.333 0 -49.5 6.16699 -66.5 18.5
s-25.5 28.833 -25.5 49.5zM120.998 630c0 17.333 6.16797 32.333 18.501 45s27.166 19 44.499 19c18.667 0 34.667 -6.66699 48 -20s20 -29 20 -47c0 -18.667 -6.16699 -34 -18.5 -46s-27.5 -18 -45.5 -18c-18.667 0 -34.5 6.5 -47.5 19.5s-19.5 28.833 -19.5 47.5z" />
    <glyph glyph-name="k" unicode="k" horiz-adv-x="588" 
d="M210 681v-465l139 123c9.33301 8.66699 14 15.667 14 21c0 10 -8 15 -24 15h-13c-3.33301 0 -5 1.66699 -5 5v26c0 2.66699 1.66699 4 5 4h198c3.33301 0 5 -1.33301 5 -4v-26c0 -3.33301 -1.66699 -5 -5 -5h-13c-50.667 -2 -96.334 -22.333 -137.001 -61l-42 -40
l151 -184c12.667 -15.333 27.667 -28.333 45 -39s32.333 -16 45 -16c3.33301 0 5 -1.66699 5 -5v-26c0 -2.66699 -1.66699 -4 -5 -4h-243c-3.33301 -0 -5 1.33301 -5 4v26c0 3.33301 1.66699 5 5 5h4c14 0 21 5 21 15c0 6 -7.33301 18.667 -22 38l-83 112l-40 -36v-66
c0 -42 15 -63 45 -63h13c3.33301 0 5 -1.66699 5 -5v-26c0 -2.66699 -1.66699 -4 -5 -4h-226c-3.33301 -0 -5 1.33301 -5 4v26c0 3.33301 1.66699 5 5 5h13c30 0 45 21 45 63v466c0 27.333 -3.16699 46 -9.5 56s-19.166 16.667 -38.499 20c-3.33301 1.33301 -5 3 -5 5v16
c0 3.33301 1.66699 5.33301 5 6c75.333 11.333 121 20 137 26c4 1.33301 8.66699 2 14 2c4.66699 0 7 -4.66699 7 -14z" />
    <glyph glyph-name="l" unicode="l" horiz-adv-x="314" 
d="M210 681l-0.000976562 -583c0 -42 15 -63 45 -63h13c3.33301 0 5 -1.66699 5 -5v-26c0 -2.66699 -1.66699 -4 -5 -4h-226c-3.33301 -0 -5 1.33301 -5 4v26c0 3.33301 1.66699 5 5 5h13c30 0 45 21 45 63v466c0 27.333 -3.16699 46 -9.5 56s-19.166 16.667 -38.499 20
c-3.33301 1.33301 -5 3 -5 5v16c0 3.33301 1.66699 5.33301 5 6c75.333 11.333 121 20 137 26c4 1.33301 8.66699 2 14 2c4.66699 0 7 -4.66699 7 -14z" />
    <glyph glyph-name="m" unicode="m" horiz-adv-x="888" 
d="M789 310l-1 -212c0 -42 15 -63 45 -63h13c3.33301 0 5 -1.66699 5 -5v-26c0 -2.66699 -1.66699 -4 -5 -4h-226c-3.33301 -0 -5 1.33301 -5 4v26c0 3.33301 1.66699 5 5 5h13c30 0 45 21 45 63v209c0 23.333 -6.66699 41.166 -20 53.499s-32 18.5 -56 18.5
c-17.333 0 -32.833 -3.33301 -46.5 -10s-29.834 -19.334 -48.501 -38.001c-3.33301 -49.333 -5 -94 -5 -134c0 -8.66699 0.166992 -17.167 0.5 -25.5s0.666016 -19.166 0.999023 -32.499s0.5 -27 0.5 -41c0 -42 15 -63 45 -63h13c3.33301 0 5 -1.66699 5 -5v-26
c0 -2.66699 -1.66699 -4 -5 -4h-226c-3.33301 0 -5 1.33301 -5 4v26c0 3.33301 1.66699 5 5 5h13c30 0 45 21 45 63v216c0 20 -6.5 36.167 -19.5 48.5s-30.167 18.5 -51.5 18.5c-23.333 0 -43.333 -4.5 -60 -13.5s-34.334 -25.167 -53.001 -48.5v-221c0 -42 15 -63 45 -63
h13c3.33301 0 5 -1.66699 5 -5v-26c0 -2.66699 -1.66699 -4 -5 -4h-226c-3.33301 0 -5 1.33301 -5 4v26c0 3.33301 1.66699 5 5 5h13c30 0 45 21 45 63v171c0 27.333 -3.16699 46 -9.5 56s-19.166 16.667 -38.499 20c-3.33301 1.33301 -5 3 -5 5v16
c0 3.33301 1.66699 5.33301 5 6c49.333 14.667 93.333 30 132 46c0.666992 0 2.33398 0.666992 5.00098 2s5.33398 2.5 8.00098 3.5s4.66699 1.5 6 1.5c4.66699 0 7 -4.66699 7 -14v-45c46.667 40.667 102.667 61 168 61c28.667 0 51 -3.66699 67 -11
s34.667 -22.666 56 -45.999c58 38 113.333 57 166 57c35.333 0 64.5 -11 87.5 -33s34.5 -50 34.5 -84z" />
    <glyph glyph-name="n" unicode="n" horiz-adv-x="591" 
d="M353 426c40 0 72.9961 -10.667 98.9961 -32s39 -49 39 -83v-213c0 -42 15 -63 45 -63h13c3.33301 0 5 -1.66699 5 -5v-26c0 -2.66699 -1.66699 -4 -5 -4h-226c-3.33301 -0 -5 1.33301 -5 4v26c0 3.33301 1.66699 5 5 5h13c30 0 45 21 45 63v215
c0 21.333 -7 39.333 -21 54s-31 22 -51 22c-18.667 0 -35.5 -5.83301 -50.5 -17.5s-31.167 -31.167 -48.5 -58.5v-215c0 -42 15 -63 45 -63h13c3.33301 0 5 -1.66699 5 -5v-26c0 -2.66699 -1.66699 -4 -5 -4h-226c-3.33301 -0 -5 1.33301 -5 4v26c0 3.33301 1.66699 5 5 5
h13c30 0 45 21 45 63v173c0 27.333 -3.16699 46 -9.5 56s-19.166 16.667 -38.499 20c-3.33301 1.33301 -5 3 -5 5v16c0 3.33301 1.66699 5.33301 5 6c46.667 14 90.334 29.333 131.001 46c0.666992 0 2.33398 0.666992 5.00098 2s5.33398 2.5 8.00098 3.5s4.66699 1.5 6 1.5
c4.66699 0 7 -4.66699 7 -14v-55c36.667 45.333 84.667 68 144 68z" />
    <glyph glyph-name="o" unicode="o" horiz-adv-x="570" 
d="M45 197c0 68.667 22.833 125.5 68.5 170.5s103.5 67.5 173.5 67.5c64.667 0 120.5 -21.667 167.5 -65s70.5 -99 70.5 -167c0 -67.333 -22 -121.833 -66 -163.5s-101.667 -62.5 -173 -62.5c-68 0 -125.167 21 -171.5 63s-69.5 94.333 -69.5 157zM283 409
c-39.333 0 -67.6689 -16.333 -85.002 -49s-26 -86 -26 -160c0 -71.333 8.5 -122 25.5 -152s45.833 -45 86.5 -45c21.333 0 39.333 4.5 54 13.5s25.834 19.833 33.501 32.5s13.667 29.667 18 51s6.83301 39.833 7.5 55.5s1 35.5 1 59.5c0 51.333 -4 90.333 -12 117
c-7.33301 22 -20.666 40.333 -39.999 55s-40.333 22 -63 22z" />
    <glyph glyph-name="p" unicode="p" horiz-adv-x="569" 
d="M205 412l-0.00195312 -39c39.333 36 85 54 137 54c49.333 0 91.666 -20.5 126.999 -61.5s53 -89.833 53 -146.5c0 -65.333 -20.667 -121.5 -62 -168.5s-90.666 -70.5 -147.999 -70.5c-28 0 -63.667 8 -107 24v-121c0 -42 15 -63 45 -63h13c3.33301 0 5 -1.66699 5 -5v-26
c0 -2.66699 -1.66699 -4 -5 -4h-226c-3.33301 0 -5 1.33301 -5 4v26c0 3.33301 1.66699 5 5 5h13c30 0 45 21 45 63v412c0 6.66699 -0.166992 12.5 -0.5 17.5s-0.666016 9.33301 -0.999023 13s-1.5 6.66699 -3.5 9s-3.33301 4.33301 -4 6s-3 3 -7 4l-8 2
c-1.33301 0.333008 -5 1 -11 2s-10.333 1.83301 -13 2.5c-3.33301 1.33301 -5 3 -5 5v16c0 3.33301 1.66699 5.33301 5 6c30.667 8 76.334 23.333 137.001 46c4 1.33301 8.66699 2 14 2c4.66699 0 7 -4.66699 7 -14zM204.998 333l0.000976562 -230.002
c0 -27.333 10 -50.166 30 -68.499s44.333 -27.5 73 -27.5c31.333 0 57.166 15.333 77.499 46s30.5 70.334 30.5 119.001c0 56.667 -12.833 103.5 -38.5 140.5s-58.167 55.5 -97.5 55.5c-19.333 0 -44.333 -11.667 -75 -35z" />
    <glyph glyph-name="q" unicode="q" horiz-adv-x="569" 
d="M258 427c52 0 103.667 -18.667 155 -56c13.333 18 24.666 35.667 33.999 53l20 1v-542c0 -42 15 -63 45 -63h13c3.33301 0 5 -1.66699 5 -5v-26c0 -2.66699 -1.66699 -4 -5 -4h-226c-3.33301 0 -5 1.33301 -5 4v26c0 3.33301 1.66699 5 5 5h13c30 0 45 21 45 63v146
c-24 -18 -46.167 -30.5 -66.5 -37.5s-44.166 -10.5 -71.499 -10.5c-50.667 0 -92.5 19.333 -125.5 58s-49.5 87.667 -49.5 147c0 68.667 20.333 126 61 172s91.667 69 153 69zM356 72l1 223.001c0 27.333 -9.5 50.666 -28.5 69.999s-41.833 29 -68.5 29
c-32 0 -58.5 -16 -79.5 -48s-31.5 -72.333 -31.5 -121c0 -49.333 12.667 -92 38 -128s55.333 -54 90 -54c18.667 0 45 9.66699 79 29z" />
    <glyph glyph-name="r" unicode="r" horiz-adv-x="443" 
d="M208 337c48.667 60.667 94.3291 90.999 136.996 90.999c17.333 0 31.833 -5.16699 43.5 -15.5s17.5 -23.166 17.5 -38.499s-5.83301 -28.333 -17.5 -39s-26.167 -16 -43.5 -16c-12 0 -28.333 4.66699 -49 14c-14.667 6 -24 9 -28 9c-15.333 0 -35 -18 -59 -54v-190
c0 -42 15 -63 45 -63h13c3.33301 0 5 -1.66699 5 -5v-26c0 -2.66699 -1.66699 -4 -5 -4h-226c-3.33301 -0 -5 1.33301 -5 4v26c0 3.33301 1.66699 5 5 5h13c30 0 45 21 45 63v173c0 27.333 -3.16699 46 -9.5 56s-19.166 16.667 -38.499 20c-3.33301 1.33301 -5 3 -5 5v16
c0 3.33301 1.66699 5.33301 5 6c46.667 14 90.334 29.333 131.001 46c0.666992 0 2.33398 0.666992 5.00098 2s5.33398 2.5 8.00098 3.5s4.66699 1.5 6 1.5c4.66699 0 7 -4.66699 7 -14v-76z" />
    <glyph glyph-name="s" unicode="s" horiz-adv-x="443" 
d="M344 405l16.0029 -92.9971v-6c0 -6.66699 -3.33301 -10 -10 -10c-7.33301 0 -13.333 7 -18 21c-8.66699 25.333 -24.167 47.166 -46.5 65.499s-44.833 27.5 -67.5 27.5c-21.333 0 -39.333 -5.5 -54 -16.5s-22 -24.167 -22 -39.5c0 -14 7.16699 -26.667 21.5 -38
s37.833 -24 70.5 -38c23.333 -10 40.5 -17.667 51.5 -23s25.333 -14 43 -26s30.5 -26 38.5 -42s12 -34 12 -54c0 -40 -17.167 -74.833 -51.5 -104.5s-74.833 -44.5 -121.5 -44.5c-12 0 -24.667 1.16699 -38 3.5s-29 5.83301 -47 10.5s-31.333 8 -40 10
c-13.333 3.33301 -20.333 12.666 -21 27.999l-7 91c0 11.333 3.33301 17 10 17c4 0 7.16699 -1.66699 9.5 -5s6.16602 -10.666 11.499 -21.999c14.667 -32 33.667 -57.5 57 -76.5s47.666 -28.5 72.999 -28.5c18.667 0 35.667 6.66699 51 20s23 28.333 23 45
c0 11.333 -2.66699 21.666 -8 30.999s-13.5 17.5 -24.5 24.5s-20.667 12.5 -29 16.5s-20.333 8.66699 -36 14s-25.834 9 -30.501 11c-72 29.333 -108 74.666 -108 135.999c0 36.667 14.167 66.667 42.5 90s64.5 35 108.5 35c56.667 0 100.667 -7 132 -21
c6 -1.33301 9 -4.33301 9 -9z" />
    <glyph glyph-name="t" unicode="t" horiz-adv-x="370" 
d="M181 559c1.33301 4 6.99805 5.99805 16.998 5.99805c4.66699 0 7 -4.66699 7 -14v-136h127c3.33301 0 5 -1.66699 5 -5l-12 -36c-0.666992 -2.66699 -3.33398 -4 -8.00098 -4h-112v-270c0 -19.333 4.16699 -34.666 12.5 -45.999s19.5 -17 33.5 -17
c14.667 0 33.334 7.66699 56.001 23c7.33301 5.33301 12.333 8 15 8c4.66699 0 8.83398 -2.83301 12.501 -8.5s5.5 -10.5 5.5 -14.5s-5.33301 -10 -16 -18c-38 -28 -74.667 -42 -110 -42c-34 0 -61.5 10 -82.5 30s-31.5 46.333 -31.5 79v276h-65c-3.33301 0 -5 1.33301 -5 4
v36c0 3.33301 1.66699 5 5 5c24.667 0 51.834 14.833 81.501 44.5s51.167 62.834 64.5 99.501z" />
    <glyph glyph-name="u" unicode="u" horiz-adv-x="590" 
d="M238 -11c-40 0 -72.999 10.667 -98.999 32s-39 49 -39 83v213c0 42 -15 63 -45 63h-13c-3.33301 0 -5 1.66699 -5 5v26c0 2.66699 1.66699 4 5 4h163c3.33301 0 5 -1.33301 5 -4v-309c0 -21.333 7 -39.333 21 -54s31 -22 51 -22c18.667 0 35.5 5.83301 50.5 17.5
s31.167 31.167 48.5 58.5v215c0 42 -15 63 -45 63h-13c-3.33301 0 -5 1.66699 -5 5v26c0 2.66699 1.66699 4 5 4h163c3.33301 0 5 -1.33301 5 -4v-292c0 -27.333 3.16699 -46 9.5 -56s19.166 -16.667 38.499 -20c3.33301 -1.33301 5 -3 5 -5v-16
c0 -3.33301 -1.66699 -5.33301 -5 -6c-74.667 -11.333 -120 -20 -136 -26c-4 -1.33301 -8.66699 -2 -14 -2c-4.66699 0 -7 4.66699 -7 14v55c-36.667 -45.333 -84.667 -68 -144 -68z" />
    <glyph glyph-name="v" unicode="v" horiz-adv-x="569" 
d="M28 411c0 2.66699 1.66699 3.99902 5 3.99902h238c3.33301 0 5 -1.33301 5 -4v-26c0 -3.33301 -1.66699 -5 -5 -5h-13c-25.333 0 -38 -8.66699 -38 -26c0 -5.33301 1 -9.66602 3 -12.999l95 -197l90 195c3.33301 6.66699 5 12.667 5 18c0 15.333 -10 23 -30 23h-13
c-3.33301 0 -5 1.66699 -5 5v26c0 2.66699 1.66699 4 5 4h166c3.33301 0 5 -1.33301 5 -4v-26c0 -3.33301 -1.66699 -5 -5 -5h-13c-37.333 0 -64 -17.333 -80 -52l-155 -344c-2.66699 -6.66699 -6 -10 -10 -10s-7.33301 3.66699 -10 11l-169 362c-10 22 -27.667 33 -53 33
h-13c-3.33301 0 -5 1.66699 -5 5v26z" />
    <glyph glyph-name="w" unicode="w" horiz-adv-x="823" 
d="M586 151l78 187c2.66699 6 4 12.333 4 19c0 15.333 -8.66699 23 -26 23h-13c-3.33301 0 -5 1.66699 -5 5v26c0 2.66699 1.66699 4 5 4h160c3.33301 0 5 -1.33301 5 -4v-26c0 -3.33301 -1.66699 -5 -5 -5h-13c-16 0 -30.833 -4 -44.5 -12s-23.5 -19 -29.5 -33l-149 -351
c-2.66699 -6.66699 -6 -10 -10 -10s-7.33301 3.66699 -10 11l-118 307l-137 -308c-2.66699 -6.66699 -6 -10 -10 -10s-7.33301 3.66699 -10 11l-169 362c-10 22 -24 33 -42 33h-13c-3.33301 0 -5 1.66699 -5 5v26c0 2.66699 1.66699 4 5 4h220c3.33301 0 5 -1.33301 5 -4
v-26c0 -3.33301 -1.66699 -5 -5 -5h-13c-20.667 0 -31 -8.66699 -31 -26c0 -5.33301 1 -9.66602 3 -12.999l95 -197l80 175c2.66699 5.33301 4 10.666 4 15.999c0 12 -4.66699 22.5 -14 31.5s-21 13.5 -35 13.5h-13c-3.33301 0 -5 1.66699 -5 5v26c0 2.66699 1.66699 4 5 4
h240c3.33301 0 5 -1.33301 5 -4v-26c0 -3.33301 -1.66699 -5 -5 -5h-13c-24.667 0 -37 -10.333 -37 -31c0 -6 1 -12 3 -18z" />
    <glyph glyph-name="x" unicode="x" horiz-adv-x="569" 
d="M33 35l13 -0.00195312c34 2.66699 68 19.334 102 50.001l90 99l-110 168c-12 18.667 -35 28 -69 28h-13c-3.33301 0 -5 1.66699 -5 5v26c0 2.66699 1.66699 4 5 4h254c3.33301 0 5 -1.33301 5 -4v-26c0 -3.33301 -1.66699 -5 -5 -5h-13c-7.33301 0 -13.5 -2 -18.5 -6
s-7.5 -8.66699 -7.5 -14c0 -8 3.66699 -16.667 11 -26l46 -65l63 68c8.66699 10.667 13 20.667 13 30c0 8.66699 -5.66699 13 -17 13h-8c-3.33301 0 -5 1.66699 -5 5v26c0 2.66699 1.66699 4 5 4h166c3.33301 0 5 -1.33301 5 -4v-26c0 -3.33301 -1.66699 -5 -5 -5h-13
c-23.333 0 -42.833 -3.83301 -58.5 -11.5s-34.167 -23.167 -55.5 -46.5l-72 -77l113 -165c20 -28 44.333 -43 73 -45h13c3.33301 0 5 -1.66699 5 -5v-26c0 -2.66699 -1.66699 -4 -5 -4h-253c-3.33301 0 -5 1.33301 -5 4v26c0 3.33301 1.66699 5 5 5h13
c17.333 0 26 5.33301 26 16c0 6 -3.66699 15.667 -11 29l-53 81l-69 -76c-9.33301 -9.33301 -14 -18.666 -14 -27.999c0 -6 1.66699 -11.167 5 -15.5s7.33301 -6.5 12 -6.5h13c3.33301 0 5 -1.66699 5 -5v-26c0 -2.66699 -1.66699 -4 -5 -4h-171
c-3.33301 -0 -5 1.33301 -5 4v26c0 3.33301 1.66699 5 5 5z" />
    <glyph glyph-name="y" unicode="y" horiz-adv-x="569" 
d="M261 -18l-150 352.998c-6.66699 16.667 -14 28.334 -22 35.001s-19.667 10 -35 10h-13c-3.33301 0 -5 1.66699 -5 5v26c0 2.66699 1.66699 4 5 4h234c3.33301 0 5 -1.33301 5 -4v-26c0 -3.33301 -1.66699 -5 -5 -5h-13c-25.333 0 -38 -6.33301 -38 -19
c0 -7.33301 2.66699 -16 8 -26l92 -209l90 195c4 9.33301 6 19.333 6 30c0 16.667 -11.667 26.334 -35 29.001h-13c-3.33301 0 -5 1.66699 -5 5v26c0 2.66699 1.66699 4 5 4h162c3.33301 0 5 -1.33301 5 -4v-26c0 -3.33301 -1.66699 -5 -5 -5h-13
c-32 -1.33301 -59 -26.333 -81 -75l-196 -430c-16 -36 -32 -61.667 -48 -77s-34.667 -23 -56 -23c-16 0 -29 4.5 -39 13.5s-15 20.5 -15 34.5c0 39.333 28 59 84 59h10c24 0 41 12.333 51 37z" />
    <glyph glyph-name="z" unicode="z" horiz-adv-x="569" 
d="M208 35l167.998 0.000976562c19.333 0 39.833 10.167 61.5 30.5s41.834 48.166 60.501 83.499c6 13.333 12.667 20 20 20c8 0 12 -3 12 -9c0 -3.33301 -0.333008 -6 -1 -8l-40 -140c-2 -8 -8.33301 -12 -19 -12h-413c-5.33301 0 -8 2 -8 6
c0 6.66699 4.33301 14.334 13 23.001l268 351h-86c-38 0 -69.667 -7.33301 -95 -22s-48.666 -39.334 -69.999 -74.001c-8.66699 -14 -15.667 -21 -21 -21c-6.66699 0 -10 5 -10 15c0 2 0.333008 3.66699 1 5l37 115c2.66699 8 5 12.833 7 14.5s7 2.5 15 2.5h372
c7.33301 0 11 -2.33301 11 -7c0 -2 -6 -11 -18 -27z" />
    <glyph glyph-name="braceleft" unicode="{" horiz-adv-x="290" 
d="M15 218v11.9961c0 3.33301 3 5 9 5c19.333 0 36 10.333 50 31s21 45.334 21 74.001c0 50 -6.66699 96.333 -20 139s-20 77.667 -20 105c0 38 18 70.667 54 98s79.333 41 130 41h17c6 0 9 -1.66699 9 -5v-13c0 -3.33301 -3 -5 -9 -5h-17c-23.333 0 -42.333 -10 -57 -30
s-22 -45 -22 -75c0 -24.667 6.66699 -61.167 20 -109.5s20 -93.5 20 -135.5c0 -26 -12.333 -51.167 -37 -75.5s-54 -41.166 -88 -50.499c34 -9.33301 63.333 -26.166 88 -50.499s37 -49.5 37 -75.5c0 -40 -6.66699 -84.167 -20 -132.5s-20 -85.833 -20 -112.5
c0 -30 7.33301 -55 22 -75s33.667 -30 57 -30h17c6 0 9 -1.66699 9 -5v-13c0 -3.33301 -3 -5 -9 -5h-17c-50.667 0 -94 13.667 -130 41s-54 60 -54 98c0 23.333 6.66699 59 20 107s20 93.667 20 137c0 28.667 -7 53.334 -21 74.001s-30.667 31 -50 31c-6 0 -9 1.66699 -9 5z
" />
    <glyph glyph-name="bar" unicode="|" 
d="M232 740h36v-999h-36v999z" />
    <glyph glyph-name="braceright" unicode="}" horiz-adv-x="290" 
d="M265 230v-11.9961c0 -3.33301 -3 -5 -9 -5c-19.333 0 -36 -10.333 -50 -31s-21 -45.334 -21 -74.001c0 -43.333 6.66699 -89 20 -137s20 -83.667 20 -107c0 -38 -18 -70.667 -54 -98s-79.333 -41 -130 -41h-17c-6 0 -9 1.66699 -9 5v13c0 3.33301 3 5 9 5h17
c23.333 0 42.333 10 57 30s22 45 22 75c0 26.667 -6.66699 64.167 -20 112.5s-20 92.5 -20 132.5c0 26 12.333 51.167 37 75.5s54 41.166 88 50.499c-34 9.33301 -63.333 26.166 -88 50.499s-37 49.5 -37 75.5c0 42 6.66699 87.167 20 135.5s20 84.833 20 109.5
c0 30 -7.33301 55 -22 75s-33.667 30 -57 30h-17c-6 0 -9 1.66699 -9 5v13c0 3.33301 3 5 9 5h17c50.667 0 94 -13.667 130 -41s54 -60 54 -98c0 -27.333 -6.66699 -62.333 -20 -105s-20 -89 -20 -139c0 -28.667 7 -53.334 21 -74.001s30.667 -31 50 -31
c6 0 9 -1.66699 9 -5z" />
    <glyph glyph-name="asciitilde" unicode="~" 
d="M66 271l-41.002 42c42.667 44.667 82.334 67 119.001 67c34 0 75 -11.667 123 -35c32 -16.667 56.667 -25 74 -25c18.667 0 44.334 16.333 77.001 49l42 -42c-46 -44 -85.667 -66 -119 -66c-35.333 0 -76.333 11.333 -123 34c-37.333 17.333 -62 26 -74 26
c-18.667 0 -44.667 -16.667 -78 -50z" />
    <glyph glyph-name="DEL" horiz-adv-x="0" 
 />
    <glyph glyph-name="uni00A0" unicode="&#xa0;" horiz-adv-x="0" 
 />
    <glyph glyph-name="exclamdown" unicode="&#xa1;" horiz-adv-x="380" 
d="M200 259c-20 0 -37.167 7 -51.5 21s-21.5 31 -21.5 51c0 20.667 7 38.167 21 52.5s30.667 21.5 50 21.5c20 0 37 -7.16699 51 -21.5s21 -31.833 21 -52.5c0 -20 -6.83301 -37 -20.5 -51s-30.167 -21 -49.5 -21zM189 209h21.001v-40c0 -68 11.333 -151 34 -249
c16.667 -70 25 -118.667 25 -146c0 -28 -5.83301 -50.833 -17.5 -68.5s-28.834 -26.5 -51.501 -26.5c-23.333 0 -40.833 8.66699 -52.5 26s-17.5 40 -17.5 68c0 27.333 8.33301 76 25 146c22.667 98 34 181 34 249v41z" />
    <glyph glyph-name="cent" unicode="&#xa2;" 
d="M287 720l-0.00195312 -161.002c48 -2.66699 87.833 -16.334 119.5 -41.001s47.5 -52 47.5 -82c0 -16 -6.33301 -29.833 -19 -41.5s-27.667 -17.5 -45 -17.5s-32.333 7.83301 -45 23.5s-20.667 36.167 -24 61.5c-4 38 -15.333 60.333 -34 67v-353c4 -0.666992 10 -1 18 -1
c56 0 97 33 123 99c4 10.667 7.5 17.5 10.5 20.5s6.5 4.5 10.5 4.5s7.33301 -1.5 10 -4.5s4 -6.5 4 -10.5c0 -5.33301 -2.33301 -13.666 -7 -24.999c-14.667 -37.333 -36.667 -69.166 -66 -95.499s-63.666 -42.5 -102.999 -48.5v-213c0 -3.33301 -1.33301 -5 -4 -5h-31
c-3.33301 0 -5 1.66699 -5 5v210c-60 1.33301 -109 21.5 -147 60.5s-57 88.833 -57 149.5c0 59.333 19.833 111.833 59.5 157.5s87.834 71.834 144.501 78.501v162c0 3.33301 1.33301 5 4 5h31c3.33301 0 5 -1.66699 5 -5zM165.998 369.998
c0 -92 26.999 -152.333 80.999 -181v342c-25.333 -5.33301 -45.166 -22 -59.499 -50s-21.5 -65 -21.5 -111z" />
    <glyph glyph-name="sterling" unicode="&#xa3;" horiz-adv-x="519" 
d="M60 30c27.333 0 49.668 18 67.001 54c-29.333 10.667 -53.333 16 -72 16c-12.667 0 -23.334 -3.66699 -32.001 -11s-13 -16.333 -13 -27c0 -8.66699 4.83301 -16.167 14.5 -22.5s21.5 -9.5 35.5 -9.5zM320.002 320h-98.999c4 -18.667 6 -33.667 6 -45
c0 -52.667 -9 -101.334 -27 -146.001c80 -12.667 125 -19 135 -19c42 0 73.667 8.66699 95 26s32 40.333 32 69c0 6.66699 5 10 15 10s15 -3.33301 15 -10c0 -56.667 -12.833 -105 -38.5 -145s-61.167 -60 -106.5 -60c-10.667 0 -21.667 1.16699 -33 3.5s-24 6.33301 -38 12
s-25.5 10.5 -34.5 14.5s-22 10.167 -39 18.5l-35.5 17.5c-32 -44 -69.333 -66 -112 -66c-20.667 0 -38.334 5.83301 -53.001 17.5s-22 26.5 -22 44.5c0 22.667 7.83301 42.167 23.5 58.5s34.5 24.5 56.5 24.5c21.333 0 49 -2.66699 83 -8c2 10.667 3 22 3 34
c0 54.667 -12 104.334 -36 149.001h-105c-3.33301 0 -5 1.33301 -5 4v31c0 3.33301 1.66699 5 5 5h82c-27.333 44.667 -41 90 -41 136c0 46.667 19.5 86.5 58.5 119.5s85.833 49.5 140.5 49.5c52.667 0 97.5 -10.833 134.5 -32.5s55.5 -47.834 55.5 -78.501
c0 -16 -5.16699 -29.667 -15.5 -41s-22.833 -17 -37.5 -17c-38.667 0 -58 29.333 -58 88c0 14.667 -7.66699 27.334 -23 38.001s-33.666 16 -54.999 16c-32.667 0 -60.334 -10.333 -83.001 -31s-34 -45.667 -34 -75c0 -20 4 -39.167 12 -57.5s19.333 -39 34 -62
s25 -40.5 31 -52.5h114c3.33301 0 5 -1.33301 5 -4v-31c0 -3.33301 -1.66699 -5 -5 -5z" />
    <glyph glyph-name="currency" unicode="&#xa4;" 
d="M34 486l38 35l49 -49c27.333 16.667 49.5 27.667 66.5 33s37.833 8 62.5 8c25.333 0 46.5 -2.83301 63.5 -8.5s38.833 -16.834 65.5 -33.501l49 48l37 -37l-46 -45c16.667 -24.667 27.667 -45.667 33 -63s8 -39 8 -65c0 -26.667 -2.83301 -48.667 -8.5 -66
s-17.5 -39.666 -35.5 -66.999l47 -47l-36 -36l-47 47c-26 -19.333 -47.667 -32 -65 -38s-40.333 -9 -69 -9c-26.667 0 -48.667 3 -66 9s-39 18.667 -65 38l-46 -44l-35 35l44 45c-16 27.333 -26.667 49.5 -32 66.5s-8 36.833 -8 59.5c0 24 3.16699 45 9.5 63
s18.5 41.333 36.5 70zM408 309c0 42 -16.499 77.999 -49.499 107.999s-72.833 45 -119.5 45c-40.667 0 -75.334 -15.833 -104.001 -47.5s-43 -68.834 -43 -111.501c0 -43.333 14.833 -80.166 44.5 -110.499s65.5 -45.5 107.5 -45.5c45.333 0 84 15.833 116 47.5
s48 69.834 48 114.501z" />
    <glyph glyph-name="yen" unicode="&#xa5;" 
d="M435 335h-128.003c-6 -16.667 -9 -33.334 -9 -50.001v-10h137c3.33301 0 5 -1.33301 5 -4v-31c0 -3.33301 -1.66699 -5 -5 -5h-137v-117c0 -33.333 5.33301 -55.5 16 -66.5s30.334 -16.5 59.001 -16.5h13c3.33301 0 5 -1.66699 5 -5v-26c0 -2.66699 -1.66699 -4 -5 -4
h-286c-3.33301 0 -5 1.33301 -5 4v26c0 3.33301 1.66699 5 5 5h13c28.667 0 48.334 5.5 59.001 16.5s16 33.167 16 66.5v117h-138c-3.33301 0 -5 1.33301 -5 4v31c0 3.33301 1.66699 5 5 5h138v12c0 14.667 -2.33301 30.667 -7 48h-131c-3.33301 0 -5 1.33301 -5 4v31
c0 3.33301 1.66699 5 5 5h110l-129 225c-14 23.333 -30 35 -48 35h-13c-3.33301 0 -5 1.66699 -5 5v26c0 2.66699 1.66699 4 5 4h234c3.33301 0 5 -1.33301 5 -4v-26c0 -3.33301 -1.66699 -5 -5 -5h-19c-15.333 0 -25 -1 -29 -3s-6 -7.33301 -6 -16
c0 -9.33301 5.33301 -23 16 -41l108 -181c2.66699 -4 5.66699 -6 9 -6s6.33301 3 9 9l67 128c22.667 42 34 69.667 34 83c0 10.667 -2.5 17.834 -7.5 21.501s-15.5 5.5 -31.5 5.5h-13c-3.33301 0 -5 1.66699 -5 5v26c0 2.66699 1.66699 4 5 4h180c3.33301 0 5 -1.33301 5 -4
v-26c0 -3.33301 -1.66699 -5 -5 -5c-14 0 -26 -2 -36 -6s-19.667 -11.667 -29 -23s-16.666 -21.5 -21.999 -30.5s-13.333 -23.833 -24 -44.5l-82 -156h107c3.33301 0 5 -1.33301 5 -4v-31c0 -3.33301 -1.66699 -5 -5 -5z" />
    <glyph glyph-name="brokenbar" unicode="&#xa6;" 
d="M232 740h36v-470h-36v470zM232 230h36v-490h-36v490z" />
    <glyph glyph-name="section" unicode="&#xa7;" 
d="M242 663c42.667 0 78.835 -9.82812 108.502 -29.4951s44.5 -43.834 44.5 -72.501c0 -14 -4 -25.667 -12 -35s-17.333 -14 -28 -14c-12.667 0 -23.334 3.66699 -32.001 11s-13 16.666 -13 27.999c0 6 1.66699 14 5 24c2.66699 8 4 13 4 15
c0 11.333 -8.83301 21.333 -26.5 30s-38.834 13 -63.501 13s-46 -6.5 -64 -19.5s-27 -28.5 -27 -46.5c0 -15.333 3.5 -29 10.5 -41s18 -22.667 33 -32s28.667 -16.666 41 -21.999s29.833 -12 52.5 -20c25.333 -8.66699 47 -17.5 65 -26.5s36.333 -20.833 55 -35.5
s33 -32.334 43 -53.001s15 -44.334 15 -71.001c0 -50 -24 -93.333 -72 -130c22.667 -22.667 34 -54 34 -94c0 -43.333 -16.667 -80.333 -50 -111s-74 -46 -122 -46s-89 12.167 -123 36.5s-51 53.833 -51 88.5c0 17.333 4.33301 32 13 44s19.334 18 32.001 18
c14 0 25.333 -5 34 -15s13 -22 13 -36c0 -9.33301 -1.16699 -19 -3.5 -29s-3.5 -16 -3.5 -18c0 -15.333 8.5 -29 25.5 -41s36.833 -18 59.5 -18c31.333 0 57.833 7.83301 79.5 23.5s32.5 34.834 32.5 57.501c0 13.333 -3 25.666 -9 36.999s-12.5 20.666 -19.5 27.999
s-18.167 15.166 -33.5 23.499s-27.333 14.333 -36 18l-43 17.5c-51.333 20.667 -92 44.5 -122 71.5s-45 62.833 -45 107.5c0 24 7.16699 46.833 21.5 68.5s33.833 39.5 58.5 53.5c-26.667 26.667 -40 60 -40 100c0 38.667 15.667 72 47 100s68.666 42 111.999 42z
M98.001 333.005c0 -8.66699 1.16406 -17.0039 3.49707 -25.0039s5 -14.667 8 -20s8 -11 15 -17s12.667 -10.667 17 -14s12 -7.66602 23 -12.999l23 -11c4.33301 -2 13.166 -5.66699 26.499 -11s22 -8.66602 26 -9.99902c6 -2.66699 15.167 -6.33398 27.5 -11.001l30 -11.5
c7.66699 -3 16.834 -7 27.501 -12s20.334 -10.167 29.001 -15.5c23.333 17.333 35 38.333 35 63c0 17.333 -3.66699 32.833 -11 46.5s-19.166 25.834 -35.499 36.501s-30.666 19 -42.999 25s-29.833 13.333 -52.5 22l-23 9l-25 10
c-6.66699 2.66699 -14.5 6.33398 -23.5 11.001s-17.5 9.66699 -25.5 15c-34.667 -15.333 -52 -37.666 -52 -66.999z" />
    <glyph glyph-name="dieresis" unicode="&#xa8;" horiz-adv-x="570" 
d="M110 627c0 18 6.16699 33.333 18.5 46s27.5 19 45.5 19s33.333 -6.33301 46 -19s19 -28 19 -46s-6.33301 -33.167 -19 -45.5s-28 -18.5 -46 -18.5s-33.167 6.16699 -45.5 18.5s-18.5 27.5 -18.5 45.5zM330 627c0 18 6.16699 33.333 18.5 46s27.5 19 45.5 19
s33.333 -6.33301 46 -19s19 -28 19 -46s-6.33301 -33.167 -19 -45.5s-28 -18.5 -46 -18.5s-33.167 6.16699 -45.5 18.5s-18.5 27.5 -18.5 45.5z" />
    <glyph glyph-name="copyright" unicode="&#xa9;" horiz-adv-x="811" 
d="M435 171c47.333 0 88.6689 19.668 124.002 59.001c2.66699 4 6.66699 6 12 6c7.33301 0 11 -4 11 -12c0 -4 -1.66699 -8.33301 -5 -13c-40 -48 -92 -72 -156 -72c-74 0 -131.5 19.667 -172.5 59s-61.5 89.666 -61.5 150.999c0 60.667 20.667 112.5 62 155.5
s91.666 64.5 150.999 64.5c34.667 0 61.167 -3.33301 79.5 -10s37.166 -17.667 56.499 -33c2.66699 -2.66699 6.66699 -4 12 -4c3.33301 0 7 2 11 6c4.66699 4.66699 8.66699 7 12 7c4.66699 0 7.66699 -1.5 9 -4.5s2.33301 -10.833 3 -23.5l2 -70
c0 -10 -3.66699 -15 -11 -15s-12 3.66699 -14 11c-35.333 74.667 -86 112 -152 112c-42 0 -76.333 -17.167 -103 -51.5s-40 -76.833 -40 -127.5c0 -54 16.5 -100 49.5 -138s73.167 -57 120.5 -57zM383.003 -9.99902c-96 0 -178 36 -246 108s-102 158.667 -102 260
c0 96 36 178 108 246s159 102 261 102c102.667 0 190.334 -34.5 263.001 -103.5s109 -151.833 109 -248.5c0 -100.667 -38.333 -186.5 -115 -257.5s-169.334 -106.5 -278.001 -106.5zM385.003 687.001c-74 0 -137.333 -34 -190 -102s-79 -150 -79 -246
c0 -90.667 28.5 -168.167 85.5 -232.5s126.167 -96.5 207.5 -96.5c79.333 0 147 34.5 203 103.5s84 151.833 84 248.5c0 89.333 -30.333 165.833 -91 229.5s-134 95.5 -220 95.5z" />
    <glyph glyph-name="ordfeminine" unicode="&#xaa;" horiz-adv-x="358" 
d="M42 496c0 27.333 22.333 50.332 67 68.999l91 39c0 5.33301 0.166992 11.166 0.5 17.499s0.5 9.83301 0.5 10.5c0 12.667 -4.33301 23.167 -13 31.5s-19 12.5 -31 12.5c-15.333 0 -27.333 -3.5 -36 -10.5s-13 -16.5 -13 -28.5v-7c2 -13.333 3 -21.666 3 -24.999
c0 -8 -3.5 -15.167 -10.5 -21.5s-15.5 -9.5 -25.5 -9.5s-19.167 4.16699 -27.5 12.5s-12.5 17.833 -12.5 28.5c0 23.333 15.333 44 46 62s65 27 103 27c32.667 0 56.5 -6.66699 71.5 -20s22.5 -34.666 22.5 -63.999c0 -15.333 -1.16699 -39.5 -3.5 -72.5
s-3.5 -55.833 -3.5 -68.5c0 -16 4.33301 -24 13 -24c4 0 8.5 3.33301 13.5 10s9.16699 10 12.5 10c8.66699 0 13 -5 13 -15c0 -11.333 -5.66699 -21 -17 -29s-25 -12 -41 -12c-27.333 0 -49.333 10 -66 30c-34 -20 -63.667 -30 -89 -30c-20.667 0 -37.167 7 -49.5 21
s-18.5 32.667 -18.5 56zM198 499.999v74.001c-27.333 -9.33301 -48.5 -21 -63.5 -35s-22.5 -29.333 -22.5 -46c0 -10 4 -18.833 12 -26.5s17 -11.5 27 -11.5c10.667 0 20.667 4.66699 30 14s15 19.666 17 30.999zM39 360v40h275v-40h-275z" />
    <glyph glyph-name="guillemotleft" unicode="&#xab;" horiz-adv-x="381" 
d="M55 220c0 -4 2.66699 -8.33301 8 -13l102 -85c17.333 -14 26 -30 26 -48c0 -11.333 -4.33301 -21 -13 -29s-19.334 -12 -32.001 -12c-22 0 -37.667 11 -47 33l-65 142c-2.66699 5.33301 -4 9.33301 -4 12s1.33301 6.66699 4 12l65 142c9.33301 22 25 33 47 33
c12.667 0 23.334 -4 32.001 -12s13 -17.667 13 -29c0 -18 -8.66699 -34 -26 -48l-102 -85c-5.33301 -4.66699 -8 -9 -8 -13zM214 220c0 -4.66699 3 -9 9 -13l101 -85c18 -13.333 27 -29.333 27 -48c0 -11.333 -4.5 -21 -13.5 -29s-19.833 -12 -32.5 -12
c-20.667 0 -36.334 11 -47.001 33l-65 142c-2 4 -3 8 -3 12s1 8 3 12l65 142c10.667 22 26.334 33 47.001 33c12.667 0 23.5 -4 32.5 -12s13.5 -17.667 13.5 -29c0 -18.667 -9 -34.667 -27 -48l-101 -85c-6 -4 -9 -8.33301 -9 -13z" />
    <glyph glyph-name="logicalnot" unicode="&#xac;" 
d="M35 306v58h431v-246h-60v188h-371z" />
    <glyph glyph-name="registered" unicode="&#xae;" horiz-adv-x="489" 
d="M248 379l-106.999 -0.00292969c-5.33301 0 -8 3 -8 9c0 7.33301 2.66699 11 8 11h11c12 0 18 4.66699 18 14v190c0 11.333 -4.66699 17 -14 17h-8c-5.33301 0 -8 3.33301 -8 10c0 7.33301 2.66699 11 8 11h113c26 0 46.167 -6.33301 60.5 -19s21.5 -30 21.5 -52
c0 -26.667 -17.333 -46.667 -52 -60c-2 -1.33301 -3 -2.66602 -3 -3.99902s0.666992 -2.66602 2 -3.99902l50 -69c12 -16.667 25 -28 39 -34c4.66699 -1.33301 7 -4.66602 7 -9.99902c0 -6.66699 -2.66699 -10 -8 -10h-60c-8 0 -12.667 2.33301 -14 7l-67 109
c-0.666992 2.66699 -2.33398 4 -5.00098 4h-8c-2 0 -3 -1 -3 -3v-80c0 -11.333 5 -17 15 -17h12c5.33301 0 8 -3.33301 8 -10s-2.66699 -10 -8 -10zM221.001 605.997v-86h11c18.667 0 33.5 4.33301 44.5 13s16.5 20 16.5 34c0 16 -3.83301 29.167 -11.5 39.5
s-18.5 15.5 -32.5 15.5h-10c-12 0 -18 -5.33301 -18 -16zM245.001 293.997c-58 0 -107.5 21.668 -148.5 65.001s-61.5 95.666 -61.5 156.999c0 58 21.833 107.5 65.5 148.5s96.167 61.5 157.5 61.5c60.667 0 112.5 -20.667 155.5 -62s64.5 -91.333 64.5 -150
c0 -60.667 -22.667 -112.5 -68 -155.5s-100.333 -64.5 -165 -64.5zM246.001 709.998c-45.333 0 -83.833 -19.999 -115.5 -59.999s-47.5 -88.333 -47.5 -145c0 -54 17.333 -100 52 -138s76.667 -57 126 -57c47.333 0 87.5 20.167 120.5 60.5s49.5 89.5 49.5 147.5
c0 53.333 -18 98.666 -54 135.999s-79.667 56 -131 56z" />
    <glyph glyph-name="macron" unicode="&#xaf;" horiz-adv-x="496" 
d="M111 609l5 48c2 9.33301 7.33301 14 16 14h242c8 0 12 -4 12 -12l-4 -46c-1.33301 -8.66699 -9 -13 -23 -13h-239c-6 0 -9 3 -9 9z" />
    <glyph glyph-name="degree" unicode="&#xb0;" horiz-adv-x="271" 
d="M25 617c0 30.667 10.667 56.834 32 78.501s47.333 32.5 78 32.5s56.834 -10.833 78.501 -32.5s32.5 -47.834 32.5 -78.501s-10.833 -56.667 -32.5 -78s-47.834 -32 -78.501 -32s-56.667 10.667 -78 32s-32 47.333 -32 78zM61 617c0 -21.333 7.16699 -39.333 21.5 -54
s31.833 -22 52.5 -22s38.334 7.5 53.001 22.5s22 32.833 22 53.5c0 21.333 -7.33301 39.5 -22 54.5s-32.334 22.5 -53.001 22.5s-38.167 -7.5 -52.5 -22.5s-21.5 -33.167 -21.5 -54.5z" />
    <glyph glyph-name="plusminus" unicode="&#xb1;" 
d="M35 306v58h185v184h60v-184h186v-58h-186v-188h-60v188h-185zM35 0v59h431v-59h-431z" />
    <glyph glyph-name="twosuperior" unicode="&#xb2;" horiz-adv-x="310" 
d="M37 275c-5.33301 0 -8.00391 2.33203 -8.00391 6.99902c0 28 6.5 52.5 19.5 73.5s37.5 48.833 73.5 83.5c24.667 24 41.334 40.667 50.001 50s16.167 20.5 22.5 33.5s9.5 27.167 9.5 42.5c0 20 -6 35.5 -18 46.5s-29 16.5 -51 16.5
c-31.333 0 -63.666 -20.667 -96.999 -62c-3.33301 -3.33301 -6.66602 -5 -9.99902 -5c-6 0 -9 3 -9 9c0 8 6.33301 21.333 19 40c32.667 48.667 76.334 73 131.001 73c32.667 0 59.834 -11 81.501 -33s32.5 -49.333 32.5 -82c0 -30 -10.333 -55.667 -31 -77
s-49.334 -42.666 -86.001 -63.999c-48 -28 -80.667 -57.667 -98 -89h141c26.667 0 45 6.33301 55 19c4 7.33301 8.33301 11 13 11c6 0 9 -3 9 -9c0 -4.66699 -0.333008 -8 -1 -10l-20 -61c-1.33301 -5.33301 -3 -8.83301 -5 -10.5s-6.33301 -2.5 -13 -2.5h-210z" />
    <glyph glyph-name="threesuperior" unicode="&#xb3;" horiz-adv-x="310" 
d="M168 682c28.667 0 52.168 -7.50391 70.501 -22.5039s27.5 -34.5 27.5 -58.5c0 -31.333 -18.333 -60.333 -55 -87c-1.33301 -1.33301 -2 -2.66602 -2 -3.99902s1 -2.33301 3 -3c22 -8.66699 40 -23 54 -43s21 -40.667 21 -62c0 -37.333 -14.5 -69.166 -43.5 -95.499
s-64.167 -39.5 -105.5 -39.5c-33.333 0 -61.833 7.5 -85.5 22.5s-35.5 33.167 -35.5 54.5c0 10.667 3.66699 19.834 11 27.501s15.666 11.5 24.999 11.5c10.667 0 19.167 -3 25.5 -9s9.5 -14.333 9.5 -25c0 -4 -1.5 -9.33301 -4.5 -16s-4.5 -11.667 -4.5 -15
c0 -7.33301 5.5 -14 16.5 -20s23.167 -9 36.5 -9c24.667 0 45.667 8.16699 63 24.5s26 36.5 26 60.5c0 46.667 -29 76.334 -87 89.001c-8.66699 1.33301 -13 4.66602 -13 9.99902c0 4 4.33301 8.66699 13 14c46.667 26.667 70 55 70 85c0 19.333 -6.5 35.333 -19.5 48
s-29.5 19 -49.5 19c-12.667 0 -26 -4.16699 -40 -12.5s-25 -19.166 -33 -32.499c-2 -4 -5.33301 -6 -10 -6c-6 0 -9 3 -9 9c0 7.33301 5.66699 18.333 17 33c26 34.667 62 52 108 52z" />
    <glyph glyph-name="acute" unicode="&#xb4;" horiz-adv-x="570" 
d="M388 619l-110.999 -86.001c-4.66699 -4.66699 -9.33398 -7 -14.001 -7c-4 0 -8 1.83301 -12 5.5s-6 7.16699 -6 10.5c0 2.66699 2 7.33398 6 14.001l76 122c14 16.667 27.667 25 41 25c12 0 22.333 -4.5 31 -13.5s13 -18.833 13 -29.5c0 -11.333 -8 -25 -24 -41z" />
    <glyph glyph-name="mu" unicode="&#xb5;" horiz-adv-x="578" 
d="M204 432l98.002 0.000976562c-8.66699 -25.333 -34 -93 -76 -203l-19.5 -49c-7.66699 -19.333 -13.834 -34.333 -18.501 -45s-8.66699 -21.5 -12 -32.5s-5 -19.167 -5 -24.5c0 -12.667 5.33301 -19 16 -19c12.667 0 27 7.16699 43 21.5s29.833 29.666 41.5 45.999
s26.167 37.833 43.5 64.5c42.667 66.667 78 147 106 241h98c-66.667 -201.333 -100 -317.333 -100 -348c0 -8.66699 4 -13 12 -13c13.333 0 37.666 26 72.999 78c5.33301 7.33301 9 11 11 11c3.33301 0 7.16602 -1.5 11.499 -4.5s6.5 -5.5 6.5 -7.5
c0 -1.33301 -2 -5.66602 -6 -12.999c-15.333 -28.667 -32.666 -54 -51.999 -76c-39.333 -44.667 -73.666 -67 -102.999 -67c-32 0 -48 23.333 -48 70c0 27.333 8 71.666 24 132.999c-46.667 -72 -85.834 -124.167 -117.501 -156.5s-63.5 -48.5 -95.5 -48.5
c-12.667 0 -24.834 3.66699 -36.501 11s-19.5 17.666 -23.5 30.999c-7.33301 -22 -11 -35.667 -11 -41c0 -27.333 8.16699 -56.833 24.5 -88.5s24.5 -54.167 24.5 -67.5c0 -15.333 -5 -28.333 -15 -39s-22 -16 -36 -16c-20.667 0 -37 8.16699 -49 24.5s-18 38.833 -18 67.5
c0 34 13.333 88.333 40 163s50.834 136.334 72.501 185.001z" />
    <glyph glyph-name="paragraph" unicode="&#xb6;" horiz-adv-x="775" 
d="M430 25l38.999 -0.000976562c18.667 0 33.334 4.33301 44.001 13s16 19.334 16 32.001v550c0 16.667 -4.5 30 -13.5 40s-21.167 15 -36.5 15h-49c-34 0 -51 -38.333 -51 -115v-420c0 -76.667 17 -115 51 -115zM630.999 -0.000976562h-210.999
c-106.667 0 -197.5 34.167 -272.5 102.5s-112.5 150.833 -112.5 247.5s37.5 179.167 112.5 247.5s165.833 102.5 272.5 102.5h248c6.66699 0 10 -4 10 -12c0 -8.66699 -3.33301 -13 -10 -13h-29c-18.667 0 -33.334 -5 -44.001 -15s-16 -23.333 -16 -40v-550
c0 -14 4.5 -25 13.5 -33s21.167 -12 36.5 -12h22c25.333 0 46.833 -6.83301 64.5 -20.5s26.5 -30.167 26.5 -49.5c0 -15.333 -5.33301 -28.333 -16 -39s-23.667 -16 -39 -16s-28.333 4.33301 -39 13s-16 19.334 -16 32.001c0 10 3.33301 18.667 10 26s10 12.666 10 15.999
c0 8.66699 -7 13 -21 13z" />
    <glyph glyph-name="periodcentered" unicode="&#xb7;" horiz-adv-x="199" 
d="M35 332c0 18 6.16699 33.333 18.5 46s27.5 19 45.5 19s33.333 -6.33301 46 -19s19 -28 19 -46s-6.33301 -33.167 -19 -45.5s-28 -18.5 -46 -18.5s-33.167 6.16699 -45.5 18.5s-18.5 27.5 -18.5 45.5z" />
    <glyph glyph-name="cedilla" unicode="&#xb8;" horiz-adv-x="452" 
d="M243 0l32.9971 -0.00195312l-22 -36c0 -5.33301 2 -8 6 -8c55.333 -2.66699 83 -25 83 -67c0 -23.333 -12 -43.166 -36 -59.499s-53 -24.5 -87 -24.5c-16 0 -29.667 2.5 -41 7.5s-17 11.167 -17 18.5c0 4.66699 1.66699 8.66699 5 12s7.33301 5 12 5
c6.66699 0 14.834 -4.16699 24.501 -12.5s18.834 -12.5 27.501 -12.5c14 0 25.167 3.83301 33.5 11.5s12.5 16.834 12.5 27.501c0 12 -5.16699 22.667 -15.5 32s-25.166 14.333 -44.499 15c-14 0 -21 5.33301 -21 16z" />
    <glyph glyph-name="onesuperior" unicode="&#xb9;" horiz-adv-x="310" 
d="M195 672v-324.001c0 -18.667 3.16699 -31 9.5 -37s17.833 -9 34.5 -9h8c3.33301 0 5 -2 5 -6v-16c0 -3.33301 -1.66699 -5 -5 -5h-176c-4 0 -6 1.66699 -6 5v16c0 4 2 6 6 6h8c16.667 0 28 3 34 9s9 18.333 9 37v241c0 14.667 -3.16699 23.834 -9.5 27.501
s-20.833 5.5 -43.5 5.5c-4 0 -6 2 -6 6v10c0 4 2 6 6 6c32 0 65.667 10.667 101 32c7.33301 4.66699 13.333 7 18 7s7 -3.66699 7 -11z" />
    <glyph glyph-name="ordmasculine" unicode="&#xba;" horiz-adv-x="383" 
d="M35 553c0 45.333 15 82.668 45 112.001s68 44 114 44c41.333 0 77.333 -14.167 108 -42.5s46 -64.833 46 -109.5s-14.333 -80.5 -43 -107.5s-66 -40.5 -112 -40.5c-44.667 0 -82.167 13.667 -112.5 41s-45.5 61.666 -45.5 102.999zM191 686.002
c-24.667 0 -42.166 -10.168 -52.499 -30.501s-15.5 -53.833 -15.5 -100.5c0 -45.333 5.16699 -77.166 15.5 -95.499s28.166 -27.5 53.499 -27.5c16 0 29 3.66699 39 11s17.167 18.5 21.5 33.5s7 28.667 8 41s1.5 28.166 1.5 47.499c0 26.667 -2.66699 51.334 -8 74.001
c-5.33301 13.333 -14 24.5 -26 33.5s-24.333 13.5 -37 13.5zM56.001 360.001v40h275v-40h-275z" />
    <glyph glyph-name="guillemotright" unicode="&#xbb;" horiz-adv-x="381" 
d="M326 220c0 4 -2.66699 8.33301 -8 13l-102 85c-17.333 14 -26 30 -26 48c0 11.333 4.33301 21 13 29s19.334 12 32.001 12c22 0 37.667 -11 47 -33l65 -142c2.66699 -5.33301 4 -9.33301 4 -12s-1.33301 -6.66699 -4 -12l-65 -142c-9.33301 -22 -25 -33 -47 -33
c-12.667 0 -23.334 4 -32.001 12s-13 17.667 -13 29c0 18 8.66699 34 26 48l102 85c5.33301 4.66699 8 9 8 13zM167 220c0 4.66699 -3 9 -9 13l-101 85c-18 13.333 -27 29.333 -27 48c0 11.333 4.5 21 13.5 29s19.833 12 32.5 12c20.667 0 36.334 -11 47.001 -33l65 -142
c2 -4 3 -8 3 -12s-1 -8 -3 -12l-65 -142c-10.667 -22 -26.334 -33 -47.001 -33c-12.667 0 -23.5 4 -32.5 12s-13.5 17.667 -13.5 29c0 18.667 9 34.667 27 48l101 85c6 4 9 8.33301 9 13z" />
    <glyph glyph-name="onequarter" unicode="&#xbc;" horiz-adv-x="690" 
d="M195 672v-324.001c0 -18.667 3.16699 -31 9.5 -37s17.833 -9 34.5 -9h8c3.33301 0 5 -2 5 -6v-16c0 -3.33301 -1.66699 -5 -5 -5h-176c-4 0 -6 1.66699 -6 5v16c0 4 2 6 6 6h8c16.667 0 28 3 34 9s9 18.333 9 37v241c0 14.667 -3.16699 23.834 -9.5 27.501
s-20.833 5.5 -43.5 5.5c-4 0 -6 2 -6 6v10c0 4 2 6 6 6c32 0 65.667 10.667 101 32c7.33301 4.66699 13.333 7 18 7s7 -3.66699 7 -11zM98 -5.00098l446.999 666c4.66699 7.33301 12.334 11 23.001 11h18c5.33301 0 8 -2 8 -6s-1.33301 -8 -4 -12l-446 -662
c-5.33301 -8 -11.333 -12 -18 -12h-24c-5.33301 0 -8 1.66699 -8 5c0 2.66699 1.33301 6 4 10zM394.999 152.999v19.999c0 4.66699 1.66699 9.33398 5 14.001l164 199c4 5.33301 8.66699 9 14 11l26 9c4 0 6.5 -0.666992 7.5 -2s1.5 -3.33301 1.5 -6v-202h47
c5.33301 0 8 -3 8 -9l-7 -34c-1.33301 -5.33301 -5.33301 -8 -12 -8h-36v-143c0 -6.66699 -3.33301 -10 -10 -10h-46c-6.66699 0 -10 3.33301 -10 10v142h-143c-6 0 -9 3 -9 9zM546.999 195.998v137l-116 -137h116z" />
    <glyph glyph-name="onehalf" unicode="&#xbd;" horiz-adv-x="690" 
d="M195 672v-324.001c0 -18.667 3.16699 -31 9.5 -37s17.833 -9 34.5 -9h8c3.33301 0 5 -2 5 -6v-16c0 -3.33301 -1.66699 -5 -5 -5h-176c-4 0 -6 1.66699 -6 5v16c0 4 2 6 6 6h8c16.667 0 28 3 34 9s9 18.333 9 37v241c0 14.667 -3.16699 23.834 -9.5 27.501
s-20.833 5.5 -43.5 5.5c-4 0 -6 2 -6 6v10c0 4 2 6 6 6c32 0 65.667 10.667 101 32c7.33301 4.66699 13.333 7 18 7s7 -3.66699 7 -11zM98 -5.00098l446.999 666c4.66699 7.33301 12.334 11 23.001 11h18c5.33301 0 8 -2 8 -6s-1.33301 -8 -4 -12l-446 -662
c-5.33301 -8 -11.333 -12 -18 -12h-24c-5.33301 0 -8 1.66699 -8 5c0 2.66699 1.33301 6 4 10zM416.999 -0.000976562c-5.33301 0 -8.00391 2.33203 -8.00391 6.99902c0 28 6.5 52.5 19.5 73.5s37.5 48.833 73.5 83.5c24.667 24 41.334 40.667 50.001 50
s16.167 20.5 22.5 33.5s9.5 27.167 9.5 42.5c0 20 -6 35.5 -18 46.5s-29 16.5 -51 16.5c-31.333 0 -63.666 -20.667 -96.999 -62c-3.33301 -3.33301 -6.66602 -5 -9.99902 -5c-6 0 -9 3 -9 9c0 8 6.33301 21.333 19 40c32.667 48.667 76.334 73 131.001 73
c32.667 0 59.834 -11 81.501 -33s32.5 -49.333 32.5 -82c0 -30 -10.333 -55.667 -31 -77s-49.334 -42.666 -86.001 -63.999c-48 -28 -80.667 -57.667 -98 -89h141c26.667 0 45 6.33301 55 19c4 7.33301 8.33301 11 13 11c6 0 9 -3 9 -9c0 -4.66699 -0.333008 -8 -1 -10
l-20 -61c-1.33301 -5.33301 -3 -8.83301 -5 -10.5s-6.33301 -2.5 -13 -2.5h-210z" />
    <glyph glyph-name="threequarters" unicode="&#xbe;" horiz-adv-x="690" 
d="M168 682c28.667 0 52.168 -7.50391 70.501 -22.5039s27.5 -34.5 27.5 -58.5c0 -31.333 -18.333 -60.333 -55 -87c-1.33301 -1.33301 -2 -2.66602 -2 -3.99902s1 -2.33301 3 -3c22 -8.66699 40 -23 54 -43s21 -40.667 21 -62c0 -37.333 -14.5 -69.166 -43.5 -95.499
s-64.167 -39.5 -105.5 -39.5c-33.333 0 -61.833 7.5 -85.5 22.5s-35.5 33.167 -35.5 54.5c0 10.667 3.66699 19.834 11 27.501s15.666 11.5 24.999 11.5c10.667 0 19.167 -3 25.5 -9s9.5 -14.333 9.5 -25c0 -4 -1.5 -9.33301 -4.5 -16s-4.5 -11.667 -4.5 -15
c0 -7.33301 5.5 -14 16.5 -20s23.167 -9 36.5 -9c24.667 0 45.667 8.16699 63 24.5s26 36.5 26 60.5c0 46.667 -29 76.334 -87 89.001c-8.66699 1.33301 -13 4.66602 -13 9.99902c0 4 4.33301 8.66699 13 14c46.667 26.667 70 55 70 85c0 19.333 -6.5 35.333 -19.5 48
s-29.5 19 -49.5 19c-12.667 0 -26 -4.16699 -40 -12.5s-25 -19.166 -33 -32.499c-2 -4 -5.33301 -6 -10 -6c-6 0 -9 3 -9 9c0 7.33301 5.66699 18.333 17 33c26 34.667 62 52 108 52zM98.001 -5.00391l446.999 666c4.66699 7.33301 12.334 11 23.001 11h18
c5.33301 0 8 -2 8 -6s-1.33301 -8 -4 -12l-446 -662c-5.33301 -8 -11.333 -12 -18 -12h-24c-5.33301 0 -8 1.66699 -8 5c0 2.66699 1.33301 6 4 10zM395 152.996v19.999c0 4.66699 1.66699 9.33398 5 14.001l164 199c4 5.33301 8.66699 9 14 11l26 9
c4 0 6.5 -0.666992 7.5 -2s1.5 -3.33301 1.5 -6v-202h47c5.33301 0 8 -3 8 -9l-7 -34c-1.33301 -5.33301 -5.33301 -8 -12 -8h-36v-143c0 -6.66699 -3.33301 -10 -10 -10h-46c-6.66699 0 -10 3.33301 -10 10v142h-143c-6 0 -9 3 -9 9zM547 195.995v137l-116 -137h116z" />
    <glyph glyph-name="questiondown" unicode="&#xbf;" horiz-adv-x="507" 
d="M337 250c-20 0 -37.168 6.83203 -51.501 20.499s-21.5 30.167 -21.5 49.5c0 20.667 7.5 38.334 22.5 53.001s32.833 22 53.5 22c18.667 0 34.834 -7 48.501 -21s20.5 -30.667 20.5 -50c0 -20 -7 -37.167 -21 -51.5s-31 -21.833 -51 -22.5zM323.999 212.999h26.001
l22 -283c-63.333 37.333 -116.666 56 -159.999 56c-38.667 0 -71.334 -12 -98.001 -36s-40 -53.667 -40 -89c0 -40.667 12.333 -74.667 37 -102s55.334 -41 92.001 -41c44 0 82.333 24.667 115 74c26.667 32 52.667 48 78 48c16.667 0 31 -6.33301 43 -19s18 -27.667 18 -45
c0 -30 -17.333 -55.333 -52 -76s-77.334 -31 -128.001 -31c-70.667 0 -128.334 20.333 -173.001 61s-67 92.667 -67 156c0 62 22.167 112.333 66.5 151s101.833 58 172.5 58c14.667 0 29 -0.666992 43 -2z" />
    <glyph glyph-name="Agrave" unicode="&#xc0;" horiz-adv-x="884" 
d="M452 702l285.999 -605.001c19.333 -41.333 50.333 -62 93 -62h13c3.33301 0 5 -1.66699 5 -5v-26c0 -2.66699 -1.66699 -4 -5 -4h-337c-3.33301 0 -5 1.33301 -5 4v26c0 3.33301 1.66699 5 5 5h13c42.667 0 64 14.667 64 44c0 10 -2 18.667 -6 26l-38 77h-297l-31 -72
l-18 -42c0 -10.667 3.66699 -18.834 11 -24.501s22.333 -8.5 45 -8.5h13c3.33301 0 5 -1.66699 5 -5v-26c0 -2.66699 -1.66699 -4 -5 -4h-223c-3.33301 0 -5 1.33301 -5 4v26c0 3.33301 1.66699 5 5 5h13c31.333 1.33301 54.333 7 69 17s28.334 29.667 41.001 59l202 453
l-17 35c0 0.666992 -0.5 1.83398 -1.5 3.50098s-1.5 2.83398 -1.5 3.50098c0 4 1.5 7.33301 4.5 10l31.5 28c23.333 19.333 39 38 47 56c3.33301 8 8.66602 12 15.999 12c2.66699 0 5.33398 -3.33301 8.00098 -10zM383.999 501.999l-122 -278h258zM449.999 739.999
l-178.001 41.9971c-12 2.66699 -22.333 7.83398 -31 15.501s-13 16.834 -13 27.501c0 12.667 4.33301 23.334 13 32.001s19 13 31 13c8.66699 0 18.667 -3 30 -9l163 -89c7.33301 -6 11 -10 11 -12c0 -3.33301 -2.16699 -7.83301 -6.5 -13.5s-8.16602 -8.5 -11.499 -8.5
c-1.33301 0 -4 0.666992 -8 2z" />
    <glyph glyph-name="Aacute" unicode="&#xc1;" horiz-adv-x="884" 
d="M452 702l285.999 -605.001c19.333 -41.333 50.333 -62 93 -62h13c3.33301 0 5 -1.66699 5 -5v-26c0 -2.66699 -1.66699 -4 -5 -4h-337c-3.33301 0 -5 1.33301 -5 4v26c0 3.33301 1.66699 5 5 5h13c42.667 0 64 14.667 64 44c0 10 -2 18.667 -6 26l-38 77h-297l-31 -72
l-18 -42c0 -10.667 3.66699 -18.834 11 -24.501s22.333 -8.5 45 -8.5h13c3.33301 0 5 -1.66699 5 -5v-26c0 -2.66699 -1.66699 -4 -5 -4h-223c-3.33301 0 -5 1.33301 -5 4v26c0 3.33301 1.66699 5 5 5h13c31.333 1.33301 54.333 7 69 17s28.334 29.667 41.001 59l202 453
l-17 35c0 0.666992 -0.5 1.83398 -1.5 3.50098s-1.5 2.83398 -1.5 3.50098c0 4 1.5 7.33301 4.5 10l31.5 28c23.333 19.333 39 38 47 56c3.33301 8 8.66602 12 15.999 12c2.66699 0 5.33398 -3.33301 8.00098 -10zM383.999 501.999l-122 -278h258zM563.999 781.999
l-178.001 -41.9971c-4 -1.33301 -6.66699 -2 -8 -2c-3.33301 0 -7.16602 2.83301 -11.499 8.5s-6.5 10.167 -6.5 13.5c0 2 3.66699 6 11 12l163 89c11.333 6 21.333 9 30 9c12 0 22.333 -4.33301 31 -13s13 -19.334 13 -32.001c0 -10.667 -4.33301 -19.834 -13 -27.501
s-19 -12.834 -31 -15.501z" />
    <glyph glyph-name="Acircumflex" unicode="&#xc2;" horiz-adv-x="884" 
d="M452 702l285.999 -605.001c19.333 -41.333 50.333 -62 93 -62h13c3.33301 0 5 -1.66699 5 -5v-26c0 -2.66699 -1.66699 -4 -5 -4h-337c-3.33301 0 -5 1.33301 -5 4v26c0 3.33301 1.66699 5 5 5h13c42.667 0 64 14.667 64 44c0 10 -2 18.667 -6 26l-38 77h-297l-31 -72
l-18 -42c0 -10.667 3.66699 -18.834 11 -24.501s22.333 -8.5 45 -8.5h13c3.33301 0 5 -1.66699 5 -5v-26c0 -2.66699 -1.66699 -4 -5 -4h-223c-3.33301 0 -5 1.33301 -5 4v26c0 3.33301 1.66699 5 5 5h13c31.333 1.33301 54.333 7 69 17s28.334 29.667 41.001 59l202 453
l-17 35c0 0.666992 -0.5 1.83398 -1.5 3.50098s-1.5 2.83398 -1.5 3.50098c0 4 1.5 7.33301 4.5 10l31.5 28c23.333 19.333 39 38 47 56c3.33301 8 8.66602 12 15.999 12c2.66699 0 5.33398 -3.33301 8.00098 -10zM383.999 501.999l-122 -278h258zM567.999 740.999
l-134.998 39l-135 -39c-6 -2 -10 -3 -12 -3c-2.66699 0 -5.66699 2.66699 -9 8s-5 10 -5 14c0 3.33301 2.66699 7 8 11l125 83c13.333 9.33301 22.666 14 27.999 14s14.666 -4.66699 27.999 -14l125 -83c5.33301 -4 8 -7.66699 8 -11c0 -4 -1.66699 -8.66699 -5 -14
s-6.33301 -8 -9 -8c-2 0 -6 1 -12 3z" />
    <glyph glyph-name="Atilde" unicode="&#xc3;" horiz-adv-x="884" 
d="M452 702l285.999 -605.001c19.333 -41.333 50.333 -62 93 -62h13c3.33301 0 5 -1.66699 5 -5v-26c0 -2.66699 -1.66699 -4 -5 -4h-337c-3.33301 0 -5 1.33301 -5 4v26c0 3.33301 1.66699 5 5 5h13c42.667 0 64 14.667 64 44c0 10 -2 18.667 -6 26l-38 77h-297l-31 -72
l-18 -42c0 -10.667 3.66699 -18.834 11 -24.501s22.333 -8.5 45 -8.5h13c3.33301 0 5 -1.66699 5 -5v-26c0 -2.66699 -1.66699 -4 -5 -4h-223c-3.33301 0 -5 1.33301 -5 4v26c0 3.33301 1.66699 5 5 5h13c31.333 1.33301 54.333 7 69 17s28.334 29.667 41.001 59l202 453
l-17 35c0 0.666992 -0.5 1.83398 -1.5 3.50098s-1.5 2.83398 -1.5 3.50098c0 4 1.5 7.33301 4.5 10l31.5 28c23.333 19.333 39 38 47 56c3.33301 8 8.66602 12 15.999 12c2.66699 0 5.33398 -3.33301 8.00098 -10zM383.999 501.999l-122 -278h258zM602.999 851.999
c0 -27.333 -8.66504 -51.167 -25.998 -71.5s-39 -30.5 -65 -30.5c-20.667 0 -47.167 7.5 -79.5 22.5s-55.5 22.5 -69.5 22.5c-20.667 0 -36.334 -10 -47.001 -30c-6.66699 -11.333 -12.667 -17 -18 -17c-6 0 -10 1 -12 3s-3 7 -3 15c0 23.333 8.66699 45.833 26 67.5
s38.666 32.5 63.999 32.5c20.667 0 47.167 -7.5 79.5 -22.5s55.5 -22.5 69.5 -22.5c24 0 40 10.667 48 32c6.66699 11.333 12.667 17 18 17c6 0 10 -1 12 -3s3 -7 3 -15z" />
    <glyph glyph-name="Adieresis" unicode="&#xc4;" horiz-adv-x="884" 
d="M452 702l285.999 -605.001c19.333 -41.333 50.333 -62 93 -62h13c3.33301 0 5 -1.66699 5 -5v-26c0 -2.66699 -1.66699 -4 -5 -4h-337c-3.33301 0 -5 1.33301 -5 4v26c0 3.33301 1.66699 5 5 5h13c42.667 0 64 14.667 64 44c0 10 -2 18.667 -6 26l-38 77h-297l-31 -72
l-18 -42c0 -10.667 3.66699 -18.834 11 -24.501s22.333 -8.5 45 -8.5h13c3.33301 0 5 -1.66699 5 -5v-26c0 -2.66699 -1.66699 -4 -5 -4h-223c-3.33301 0 -5 1.33301 -5 4v26c0 3.33301 1.66699 5 5 5h13c31.333 1.33301 54.333 7 69 17s28.334 29.667 41.001 59l202 453
l-17 35c0 0.666992 -0.5 1.83398 -1.5 3.50098s-1.5 2.83398 -1.5 3.50098c0 4 1.5 7.33301 4.5 10l31.5 28c23.333 19.333 39 38 47 56c3.33301 8 8.66602 12 15.999 12c2.66699 0 5.33398 -3.33301 8.00098 -10zM383.999 501.999l-122 -278h258zM233.999 804.999
c0 18 6.16699 33.333 18.5 46s27.5 19 45.5 19s33.333 -6.33301 46 -19s19 -28 19 -46s-6.33301 -33.167 -19 -45.5s-28 -18.5 -46 -18.5s-33.167 6.16699 -45.5 18.5s-18.5 27.5 -18.5 45.5zM473.999 804.999c0 18 6.16699 33.333 18.5 46s27.5 19 45.5 19
s33.333 -6.33301 46 -19s19 -28 19 -46s-6.33301 -33.167 -19 -45.5s-28 -18.5 -46 -18.5s-33.167 6.16699 -45.5 18.5s-18.5 27.5 -18.5 45.5z" />
    <glyph glyph-name="Aring" unicode="&#xc5;" horiz-adv-x="884" 
d="M311 773c0 27.333 9.49902 50.499 28.499 69.499s42.167 28.5 69.5 28.5c26.667 0 49.5 -9.66699 68.5 -29s28.5 -42.333 28.5 -69c0 -36.667 -16.333 -64 -49 -82l281 -594c19.333 -41.333 50.333 -62 93 -62h13c3.33301 0 5 -1.66699 5 -5v-26
c0 -2.66699 -1.66699 -4 -5 -4h-337c-3.33301 0 -5 1.33301 -5 4v26c0 3.33301 1.66699 5 5 5h13c42.667 0 64 14.667 64 44c0 10 -2 18.667 -6 26l-38 77h-297l-31 -72l-18 -42c0 -10.667 3.66699 -18.834 11 -24.501s22.333 -8.5 45 -8.5h13c3.33301 0 5 -1.66699 5 -5
v-26c0 -2.66699 -1.66699 -4 -5 -4h-223c-3.33301 0 -5 1.33301 -5 4v26c0 3.33301 1.66699 5 5 5h13c31.333 1.33301 54.333 7 69 17s28.334 29.667 41.001 59l202 453l-17 35c0 0.666992 -0.5 1.83398 -1.5 3.50098s-1.5 2.83398 -1.5 3.50098
c0 7.33301 4.33301 14.333 13 21c16.667 14.667 33.667 32 51 52c-27.333 0 -50.5 9.16699 -69.5 27.5s-28.5 40.5 -28.5 66.5zM383.999 501.999l-122 -278h258zM345.999 772.999c0 -17.333 6.16699 -32.333 18.5 -45s27.166 -19 44.499 -19s32.166 6.33301 44.499 19
s18.5 27.667 18.5 45c0 18 -6.16699 33.5 -18.5 46.5s-27.166 19.5 -44.499 19.5s-32.166 -6.5 -44.499 -19.5s-18.5 -28.5 -18.5 -46.5z" />
    <glyph glyph-name="AE" unicode="&#xc6;" horiz-adv-x="1139" 
d="M274 241l-68.9961 -117.002c-12 -21.333 -18 -36.666 -18 -45.999c0 -13.333 4.16699 -23.833 12.5 -31.5s20.166 -11.5 35.499 -11.5h13c3.33301 0 5 -1.66699 5 -5v-26c0 -2.66699 -1.66699 -4 -5 -4h-227c-3.33301 0 -5 1.33301 -5 4v26c0 3.33301 1.66699 5 5 5h13
c28 2.66699 51.833 13.834 71.5 33.501s45.167 56.5 76.5 110.5l244 412c10.667 17.333 16 33 16 47c0 18 -18 27 -54 27h-21c-3.33301 0 -5 1.66699 -5 5v26c0 2.66699 1.66699 4 5 4h646c8.66699 0 14.167 -0.666992 16.5 -2s5.16602 -5.33301 8.49902 -12l57 -132
c4 -9.33301 6 -17 6 -23c0 -8.66699 -3.33301 -13 -10 -13c-8 0 -21.667 13.333 -41 40c-52.667 72 -142.667 108 -270 108c-48 0 -77.5 -5.5 -88.5 -16.5s-16.5 -37.5 -16.5 -79.5v-190h148c32.667 0 59.667 12.5 81 37.5s32 52.5 32 82.5v13c0 3.33301 1.66699 5 5 5h26
c2.66699 0 4 -1.66699 4 -5v-311c0 -3.33301 -1.33301 -5 -4 -5h-26c-3.33301 0 -5 1.66699 -5 5v13c0 30 -10.667 57.5 -32 82.5s-48.333 37.5 -81 37.5h-148v-262c0 -25.333 35 -38 105 -38c78 0 133.5 7.33301 166.5 22s65.833 45 98.5 91l7.5 10l7 9.5l6 8l5.5 7
c1.33301 1.66699 2.83301 3.66699 4.5 6s3.16699 4 4.5 5l4 3c1.33301 1 2.66602 1.66699 3.99902 2s2.66602 0.5 3.99902 0.5c4.66699 0 7 -4.33301 7 -13c0 -6.66699 -1.66699 -15 -5 -25l-45 -148c-2.66699 -8.66699 -9.33398 -13 -20.001 -13h-577
c-3.33301 -0 -5 1.33301 -5 4v26c0 3.33301 1.66699 5 5 5h13c28.667 0 48.334 5.5 59.001 16.5s16 33.167 16 66.5v123h-266zM296.004 282.998h244v381h-21z" />
    <glyph glyph-name="Ccedilla" unicode="&#xc7;" horiz-adv-x="823" 
d="M694 33c-52.667 -17.333 -94.1689 -29.334 -124.502 -36.001s-64.5 -10.334 -102.5 -11.001l-13 -22c0 -5.33301 2 -8 6 -8c55.333 -2.66699 83 -25 83 -67c0 -23.333 -12 -43.166 -36 -59.499s-53 -24.5 -87 -24.5c-16 0 -29.667 2.5 -41 7.5s-17 11.167 -17 18.5
c0 4.66699 1.66699 8.66699 5 12s7.33301 5 12 5c6.66699 0 14.834 -4.16699 24.501 -12.5s18.834 -12.5 27.501 -12.5c14 0 25.167 3.83301 33.5 11.5s12.5 16.834 12.5 27.501c0 12 -5.16699 22.667 -15.5 32s-25.166 14.333 -44.499 15c-14 0 -21 5.33301 -21 16l38 62
c-115.333 2.66699 -205.666 36.667 -270.999 102s-98 153.666 -98 264.999c0 114 34.5 202.667 103.5 266s165.833 95 290.5 95c21.333 0 42 -1 62 -3c28 -2 76.667 -10.333 146 -25l29 13c24 10 39 15 45 15c5.33301 0 9 -1.5 11 -4.5s3.33301 -9.16699 4 -18.5l11 -184
c0.666992 -5.33301 1 -10.333 1 -15c0 -10 -3.66699 -15 -11 -15c-8.66699 0 -16 10 -22 30c-14.667 48 -48.334 88.333 -101.001 121s-108.667 49 -168 49c-45.333 0 -84.5 -8.66699 -117.5 -26s-58.833 -41.5 -77.5 -72.5s-32.167 -65.333 -40.5 -103
s-12.5 -79.167 -12.5 -124.5c0 -108.667 21.167 -190.667 63.5 -246s101.5 -83 177.5 -83c57.333 0 110.833 15.667 160.5 47s86.167 74 109.5 128l10 24c4 10.667 9.66699 16 17 16c5.33301 0 8.66602 -1.5 9.99902 -4.5s2 -11.5 2 -25.5v-171l1 -13
c0 -6.66699 -3 -10 -9 -10c-0.666992 0 -3.66699 0.666992 -9 2c-10 4.66699 -29 10.334 -57 17.001z" />
    <glyph glyph-name="Egrave" unicode="&#xc8;" horiz-adv-x="759" 
d="M294 335l0.00390625 -262c0 -25.333 35 -38 105 -38c78 0 133.5 7.33301 166.5 22s65.833 45 98.5 91l7.5 10l7 9.5l6 8l5.5 7c1.33301 1.66699 2.83301 3.66699 4.5 6s3.16699 4 4.5 5l4 3c1.33301 1 2.66602 1.66699 3.99902 2s2.66602 0.5 3.99902 0.5
c4.66699 0 7 -4.33301 7 -13c0 -6.66699 -1.66699 -15 -5 -25l-45 -148c-2.66699 -8.66699 -9.33398 -13 -20.001 -13h-577c-3.33301 -0 -5 1.33301 -5 4v26c0 3.33301 1.66699 5 5 5h13c28.667 0 48.334 5.5 59.001 16.5s16 33.167 16 66.5v464
c0 33.333 -5.33301 55.5 -16 66.5s-30.334 16.5 -59.001 16.5h-13c-3.33301 0 -5 1.66699 -5 5v26c0 2.66699 1.66699 4 5 4h561c8.66699 0 14.167 -0.666992 16.5 -2s5.16602 -5.33301 8.49902 -12l57 -132c4 -9.33301 6 -17 6 -23c0 -8.66699 -3.33301 -13 -10 -13
c-8 0 -21.667 13.333 -41 40c-52.667 72 -142.667 108 -270 108c-48 0 -77.5 -5.5 -88.5 -16.5s-16.5 -37.5 -16.5 -79.5v-190h148c32.667 0 59.667 12.5 81 37.5s32 52.5 32 82.5v13c0 3.33301 1.66699 5 5 5h26c2.66699 0 4 -1.66699 4 -5v-311
c0 -3.33301 -1.33301 -5 -4 -5h-26c-3.33301 0 -5 1.66699 -5 5v13c0 30 -10.667 57.5 -32 82.5s-48.333 37.5 -81 37.5h-148zM430.004 740l-178.001 41.9971c-12 2.66699 -22.333 7.83398 -31 15.501s-13 16.834 -13 27.501c0 12.667 4.33301 23.334 13 32.001s19 13 31 13
c8.66699 0 18.667 -3 30 -9l163 -89c7.33301 -6 11 -10 11 -12c0 -3.33301 -2.16699 -7.83301 -6.5 -13.5s-8.16602 -8.5 -11.499 -8.5c-1.33301 0 -4 0.666992 -8 2z" />
    <glyph glyph-name="Eacute" unicode="&#xc9;" horiz-adv-x="759" 
d="M294 335l0.00390625 -262c0 -25.333 35 -38 105 -38c78 0 133.5 7.33301 166.5 22s65.833 45 98.5 91l7.5 10l7 9.5l6 8l5.5 7c1.33301 1.66699 2.83301 3.66699 4.5 6s3.16699 4 4.5 5l4 3c1.33301 1 2.66602 1.66699 3.99902 2s2.66602 0.5 3.99902 0.5
c4.66699 0 7 -4.33301 7 -13c0 -6.66699 -1.66699 -15 -5 -25l-45 -148c-2.66699 -8.66699 -9.33398 -13 -20.001 -13h-577c-3.33301 -0 -5 1.33301 -5 4v26c0 3.33301 1.66699 5 5 5h13c28.667 0 48.334 5.5 59.001 16.5s16 33.167 16 66.5v464
c0 33.333 -5.33301 55.5 -16 66.5s-30.334 16.5 -59.001 16.5h-13c-3.33301 0 -5 1.66699 -5 5v26c0 2.66699 1.66699 4 5 4h561c8.66699 0 14.167 -0.666992 16.5 -2s5.16602 -5.33301 8.49902 -12l57 -132c4 -9.33301 6 -17 6 -23c0 -8.66699 -3.33301 -13 -10 -13
c-8 0 -21.667 13.333 -41 40c-52.667 72 -142.667 108 -270 108c-48 0 -77.5 -5.5 -88.5 -16.5s-16.5 -37.5 -16.5 -79.5v-190h148c32.667 0 59.667 12.5 81 37.5s32 52.5 32 82.5v13c0 3.33301 1.66699 5 5 5h26c2.66699 0 4 -1.66699 4 -5v-311
c0 -3.33301 -1.33301 -5 -4 -5h-26c-3.33301 0 -5 1.66699 -5 5v13c0 30 -10.667 57.5 -32 82.5s-48.333 37.5 -81 37.5h-148zM514.004 782l-178.001 -41.9971c-4 -1.33301 -6.66699 -2 -8 -2c-3.33301 0 -7.16602 2.83301 -11.499 8.5s-6.5 10.167 -6.5 13.5
c0 2 3.66699 6 11 12l163 89c11.333 6 21.333 9 30 9c12 0 22.333 -4.33301 31 -13s13 -19.334 13 -32.001c0 -10.667 -4.33301 -19.834 -13 -27.501s-19 -12.834 -31 -15.501z" />
    <glyph glyph-name="Ecircumflex" unicode="&#xca;" horiz-adv-x="759" 
d="M294 335l0.00390625 -262c0 -25.333 35 -38 105 -38c78 0 133.5 7.33301 166.5 22s65.833 45 98.5 91l7.5 10l7 9.5l6 8l5.5 7c1.33301 1.66699 2.83301 3.66699 4.5 6s3.16699 4 4.5 5l4 3c1.33301 1 2.66602 1.66699 3.99902 2s2.66602 0.5 3.99902 0.5
c4.66699 0 7 -4.33301 7 -13c0 -6.66699 -1.66699 -15 -5 -25l-45 -148c-2.66699 -8.66699 -9.33398 -13 -20.001 -13h-577c-3.33301 -0 -5 1.33301 -5 4v26c0 3.33301 1.66699 5 5 5h13c28.667 0 48.334 5.5 59.001 16.5s16 33.167 16 66.5v464
c0 33.333 -5.33301 55.5 -16 66.5s-30.334 16.5 -59.001 16.5h-13c-3.33301 0 -5 1.66699 -5 5v26c0 2.66699 1.66699 4 5 4h561c8.66699 0 14.167 -0.666992 16.5 -2s5.16602 -5.33301 8.49902 -12l57 -132c4 -9.33301 6 -17 6 -23c0 -8.66699 -3.33301 -13 -10 -13
c-8 0 -21.667 13.333 -41 40c-52.667 72 -142.667 108 -270 108c-48 0 -77.5 -5.5 -88.5 -16.5s-16.5 -37.5 -16.5 -79.5v-190h148c32.667 0 59.667 12.5 81 37.5s32 52.5 32 82.5v13c0 3.33301 1.66699 5 5 5h26c2.66699 0 4 -1.66699 4 -5v-311
c0 -3.33301 -1.33301 -5 -4 -5h-26c-3.33301 0 -5 1.66699 -5 5v13c0 30 -10.667 57.5 -32 82.5s-48.333 37.5 -81 37.5h-148zM528.004 741l-134.998 39l-135 -39c-6 -2 -10 -3 -12 -3c-2.66699 0 -5.66699 2.66699 -9 8s-5 10 -5 14c0 3.33301 2.66699 7 8 11l125 83
c13.333 9.33301 22.666 14 27.999 14s14.666 -4.66699 27.999 -14l125 -83c5.33301 -4 8 -7.66699 8 -11c0 -4 -1.66699 -8.66699 -5 -14s-6.33301 -8 -9 -8c-2 0 -6 1 -12 3z" />
    <glyph glyph-name="Edieresis" unicode="&#xcb;" horiz-adv-x="759" 
d="M294 335l0.00390625 -262c0 -25.333 35 -38 105 -38c78 0 133.5 7.33301 166.5 22s65.833 45 98.5 91l7.5 10l7 9.5l6 8l5.5 7c1.33301 1.66699 2.83301 3.66699 4.5 6s3.16699 4 4.5 5l4 3c1.33301 1 2.66602 1.66699 3.99902 2s2.66602 0.5 3.99902 0.5
c4.66699 0 7 -4.33301 7 -13c0 -6.66699 -1.66699 -15 -5 -25l-45 -148c-2.66699 -8.66699 -9.33398 -13 -20.001 -13h-577c-3.33301 -0 -5 1.33301 -5 4v26c0 3.33301 1.66699 5 5 5h13c28.667 0 48.334 5.5 59.001 16.5s16 33.167 16 66.5v464
c0 33.333 -5.33301 55.5 -16 66.5s-30.334 16.5 -59.001 16.5h-13c-3.33301 0 -5 1.66699 -5 5v26c0 2.66699 1.66699 4 5 4h561c8.66699 0 14.167 -0.666992 16.5 -2s5.16602 -5.33301 8.49902 -12l57 -132c4 -9.33301 6 -17 6 -23c0 -8.66699 -3.33301 -13 -10 -13
c-8 0 -21.667 13.333 -41 40c-52.667 72 -142.667 108 -270 108c-48 0 -77.5 -5.5 -88.5 -16.5s-16.5 -37.5 -16.5 -79.5v-190h148c32.667 0 59.667 12.5 81 37.5s32 52.5 32 82.5v13c0 3.33301 1.66699 5 5 5h26c2.66699 0 4 -1.66699 4 -5v-311
c0 -3.33301 -1.33301 -5 -4 -5h-26c-3.33301 0 -5 1.66699 -5 5v13c0 30 -10.667 57.5 -32 82.5s-48.333 37.5 -81 37.5h-148zM199.004 805c0 18 6.16699 33.333 18.5 46s27.5 19 45.5 19s33.333 -6.33301 46 -19s19 -28 19 -46s-6.33301 -33.167 -19 -45.5
s-28 -18.5 -46 -18.5s-33.167 6.16699 -45.5 18.5s-18.5 27.5 -18.5 45.5zM439.004 805c0 18 6.16699 33.333 18.5 46s27.5 19 45.5 19s33.333 -6.33301 46 -19s19 -28 19 -46s-6.33301 -33.167 -19 -45.5s-28 -18.5 -46 -18.5s-33.167 6.16699 -45.5 18.5
s-18.5 27.5 -18.5 45.5z" />
    <glyph glyph-name="Igrave" unicode="&#xcc;" horiz-adv-x="380" 
d="M122 118v464c0 33.333 -5.33301 55.5 -16 66.5s-30.334 16.5 -59.001 16.5h-13c-3.33301 0 -5 1.66699 -5 5v26c0 2.66699 1.66699 4 5 4h311c3.33301 0 5 -1.33301 5 -4v-26c0 -3.33301 -1.66699 -5 -5 -5h-13c-28.667 0 -48.334 -5.5 -59.001 -16.5
s-16 -33.167 -16 -66.5v-464c0 -33.333 5.33301 -55.5 16 -66.5s30.334 -16.5 59.001 -16.5h13c3.33301 0 5 -1.66699 5 -5v-26c0 -2.66699 -1.66699 -4 -5 -4h-311c-3.33301 -0 -5 1.33301 -5 4v26c0 3.33301 1.66699 5 5 5h13c28.667 0 48.334 5.5 59.001 16.5
s16 33.167 16 66.5zM250 740l-178.001 41.9971c-12 2.66699 -22.333 7.83398 -31 15.501s-13 16.834 -13 27.501c0 12.667 4.33301 23.334 13 32.001s19 13 31 13c8.66699 0 18.667 -3 30 -9l163 -89c7.33301 -6 11 -10 11 -12c0 -3.33301 -2.16699 -7.83301 -6.5 -13.5
s-8.16602 -8.5 -11.499 -8.5c-1.33301 0 -4 0.666992 -8 2z" />
    <glyph glyph-name="Iacute" unicode="&#xcd;" horiz-adv-x="380" 
d="M122 118v464c0 33.333 -5.33301 55.5 -16 66.5s-30.334 16.5 -59.001 16.5h-13c-3.33301 0 -5 1.66699 -5 5v26c0 2.66699 1.66699 4 5 4h311c3.33301 0 5 -1.33301 5 -4v-26c0 -3.33301 -1.66699 -5 -5 -5h-13c-28.667 0 -48.334 -5.5 -59.001 -16.5
s-16 -33.167 -16 -66.5v-464c0 -33.333 5.33301 -55.5 16 -66.5s30.334 -16.5 59.001 -16.5h13c3.33301 0 5 -1.66699 5 -5v-26c0 -2.66699 -1.66699 -4 -5 -4h-311c-3.33301 -0 -5 1.33301 -5 4v26c0 3.33301 1.66699 5 5 5h13c28.667 0 48.334 5.5 59.001 16.5
s16 33.167 16 66.5zM304 782l-178.001 -41.9971c-4 -1.33301 -6.66699 -2 -8 -2c-3.33301 0 -7.16602 2.83301 -11.499 8.5s-6.5 10.167 -6.5 13.5c0 2 3.66699 6 11 12l163 89c11.333 6 21.333 9 30 9c12 0 22.333 -4.33301 31 -13s13 -19.334 13 -32.001
c0 -10.667 -4.33301 -19.834 -13 -27.501s-19 -12.834 -31 -15.501z" />
    <glyph glyph-name="Icircumflex" unicode="&#xce;" horiz-adv-x="380" 
d="M122 118v464c0 33.333 -5.33301 55.5 -16 66.5s-30.334 16.5 -59.001 16.5h-13c-3.33301 0 -5 1.66699 -5 5v26c0 2.66699 1.66699 4 5 4h311c3.33301 0 5 -1.33301 5 -4v-26c0 -3.33301 -1.66699 -5 -5 -5h-13c-28.667 0 -48.334 -5.5 -59.001 -16.5
s-16 -33.167 -16 -66.5v-464c0 -33.333 5.33301 -55.5 16 -66.5s30.334 -16.5 59.001 -16.5h13c3.33301 0 5 -1.66699 5 -5v-26c0 -2.66699 -1.66699 -4 -5 -4h-311c-3.33301 -0 -5 1.33301 -5 4v26c0 3.33301 1.66699 5 5 5h13c28.667 0 48.334 5.5 59.001 16.5
s16 33.167 16 66.5zM323 741l-134.998 39l-135 -39c-6 -2 -10 -3 -12 -3c-2.66699 0 -5.66699 2.66699 -9 8s-5 10 -5 14c0 3.33301 2.66699 7 8 11l125 83c13.333 9.33301 22.666 14 27.999 14s14.666 -4.66699 27.999 -14l125 -83c5.33301 -4 8 -7.66699 8 -11
c0 -4 -1.66699 -8.66699 -5 -14s-6.33301 -8 -9 -8c-2 0 -6 1 -12 3z" />
    <glyph glyph-name="Idieresis" unicode="&#xcf;" horiz-adv-x="380" 
d="M122 118v464c0 33.333 -5.33301 55.5 -16 66.5s-30.334 16.5 -59.001 16.5h-13c-3.33301 0 -5 1.66699 -5 5v26c0 2.66699 1.66699 4 5 4h311c3.33301 0 5 -1.33301 5 -4v-26c0 -3.33301 -1.66699 -5 -5 -5h-13c-28.667 0 -48.334 -5.5 -59.001 -16.5
s-16 -33.167 -16 -66.5v-464c0 -33.333 5.33301 -55.5 16 -66.5s30.334 -16.5 59.001 -16.5h13c3.33301 0 5 -1.66699 5 -5v-26c0 -2.66699 -1.66699 -4 -5 -4h-311c-3.33301 -0 -5 1.33301 -5 4v26c0 3.33301 1.66699 5 5 5h13c28.667 0 48.334 5.5 59.001 16.5
s16 33.167 16 66.5zM9 805c0 18 6.16699 33.333 18.5 46s27.5 19 45.5 19s33.333 -6.33301 46 -19s19 -28 19 -46s-6.33301 -33.167 -19 -45.5s-28 -18.5 -46 -18.5s-33.167 6.16699 -45.5 18.5s-18.5 27.5 -18.5 45.5zM249 805c0 18 6.16699 33.333 18.5 46
s27.5 19 45.5 19s33.333 -6.33301 46 -19s19 -28 19 -46s-6.33301 -33.167 -19 -45.5s-28 -18.5 -46 -18.5s-33.167 6.16699 -45.5 18.5s-18.5 27.5 -18.5 45.5z" />
    <glyph glyph-name="Eth" unicode="&#xd0;" horiz-adv-x="823" 
d="M44 700l332 0.000976562c274 0 411 -117.333 411 -352c0 -103.333 -34.667 -190.333 -104 -261c-34 -34.667 -74.833 -57.834 -122.5 -69.501s-117.167 -17.5 -208.5 -17.5h-308c-3.33301 -0 -5 1.33301 -5 4v26c0 3.33301 1.66699 5 5 5h13
c28.667 0 48.334 5.5 59.001 16.5s16 33.167 16 66.5v212h-88c-3.33301 0 -5 1.33301 -5 4v36c0 3.33301 1.66699 5 5 5h88v207c0 33.333 -5.33301 55.5 -16 66.5s-30.334 16.5 -59.001 16.5h-13c-3.33301 0 -5 1.66699 -5 5v26c0 2.66699 1.66699 4 5 4zM270 114.001
c0 -36 5.16895 -58 15.502 -66s38.833 -12 85.5 -12c50 0 92.667 8.16699 128 24.5s62.666 40 81.999 71s33.333 65.333 42 103s13 81.167 13 130.5c0 60 -6.16699 110.167 -18.5 150.5s-31.333 71.333 -57 93s-55 36.667 -88 45s-73.5 12.5 -121.5 12.5
c-36.667 0 -59.334 -4.16699 -68.001 -12.5s-13 -29.5 -13 -63.5v-215h130c3.33301 0 5 -1.66699 5 -5v-36c0 -2.66699 -1.66699 -4 -5 -4h-130v-216z" />
    <glyph glyph-name="Ntilde" unicode="&#xd1;" horiz-adv-x="949" 
d="M787 582l0.000976562 -588c0 -5.33301 -1.33301 -8 -4 -8s-5.66699 1.66699 -9 5l-561 593c-8 8 -13 12 -15 12s-3 -6 -3 -18v-460c0 -33.333 5.83301 -55.5 17.5 -66.5s31.834 -16.5 60.501 -16.5h8c3.33301 0 5 -1.66699 5 -5v-26c0 -2.66699 -1.66699 -4 -5 -4h-209
c-3.33301 -0 -5 1.33301 -5 4v26c0 3.33301 1.66699 5 5 5h8c30 0 51.667 5.66699 65 17s20 33.333 20 66v422c0 38.667 -1 63.167 -3 73.5s-8.33301 20.5 -19 30.5c-14.667 14 -35.667 21 -63 21h-8c-3.33301 0 -5 1.66699 -5 5v26c0 2.66699 1.66699 4 5 4h207
c11.333 0 20.666 -4 27.999 -12l450 -475v369c0 33.333 -5.83301 55.5 -17.5 66.5s-31.834 16.5 -60.501 16.5h-8c-3.33301 0 -5 1.66699 -5 5v26c0 2.66699 1.66699 4 5 4h209c3.33301 0 5 -1.33301 5 -4v-26c0 -3.33301 -1.66699 -5 -5 -5h-8
c-30 0 -51.667 -5.66699 -65 -17s-20 -33.333 -20 -66zM643.001 852c0 -27.333 -8.66504 -51.167 -25.998 -71.5s-39 -30.5 -65 -30.5c-20.667 0 -47.167 7.5 -79.5 22.5s-55.5 22.5 -69.5 22.5c-20.667 0 -36.334 -10 -47.001 -30c-6.66699 -11.333 -12.667 -17 -18 -17
c-6 0 -10 1 -12 3s-3 7 -3 15c0 23.333 8.66699 45.833 26 67.5s38.666 32.5 63.999 32.5c20.667 0 47.167 -7.5 79.5 -22.5s55.5 -22.5 69.5 -22.5c24 0 40 10.667 48 32c6.66699 11.333 12.667 17 18 17c6 0 10 -1 12 -3s3 -7 3 -15z" />
    <glyph glyph-name="Ograve" unicode="&#xd2;" horiz-adv-x="885" 
d="M68 346c0 67.333 13.499 128.334 40.499 183.001s69.5 99.167 127.5 133.5s127.333 51.5 208 51.5c108.667 0 198.334 -32.833 269.001 -98.5s106 -155.834 106 -270.501c0 -102 -35.5 -187.167 -106.5 -255.5s-159.5 -102.5 -265.5 -102.5
c-112.667 0 -204 33.167 -274 99.5s-105 152.833 -105 259.5zM220.999 350.001c0 -36 1.16699 -67.5 3.5 -94.5s8 -56.5 17 -88.5s21.167 -58.5 36.5 -79.5s37.333 -38.5 66 -52.5s62.667 -21 102 -21c36 0 67.333 6.5 94 19.5s47.667 29.833 63 50.5s27.5 46.167 36.5 76.5
s15 60 18 89s4.5 61.5 4.5 97.5c0 36.667 -1 68 -3 94s-7.16699 55.667 -15.5 89s-19.833 60.5 -34.5 81.5s-36 38.833 -64 53.5s-61.333 22 -100 22c-79.333 0 -136.5 -26.333 -171.5 -79s-52.5 -138.667 -52.5 -258zM489.999 740.001l-178.001 41.9971
c-12 2.66699 -22.333 7.83398 -31 15.501s-13 16.834 -13 27.501c0 12.667 4.33301 23.334 13 32.001s19 13 31 13c8.66699 0 18.667 -3 30 -9l163 -89c7.33301 -6 11 -10 11 -12c0 -3.33301 -2.16699 -7.83301 -6.5 -13.5s-8.16602 -8.5 -11.499 -8.5
c-1.33301 0 -4 0.666992 -8 2z" />
    <glyph glyph-name="Oacute" unicode="&#xd3;" horiz-adv-x="885" 
d="M68 346c0 67.333 13.499 128.334 40.499 183.001s69.5 99.167 127.5 133.5s127.333 51.5 208 51.5c108.667 0 198.334 -32.833 269.001 -98.5s106 -155.834 106 -270.501c0 -102 -35.5 -187.167 -106.5 -255.5s-159.5 -102.5 -265.5 -102.5
c-112.667 0 -204 33.167 -274 99.5s-105 152.833 -105 259.5zM220.999 350.001c0 -36 1.16699 -67.5 3.5 -94.5s8 -56.5 17 -88.5s21.167 -58.5 36.5 -79.5s37.333 -38.5 66 -52.5s62.667 -21 102 -21c36 0 67.333 6.5 94 19.5s47.667 29.833 63 50.5s27.5 46.167 36.5 76.5
s15 60 18 89s4.5 61.5 4.5 97.5c0 36.667 -1 68 -3 94s-7.16699 55.667 -15.5 89s-19.833 60.5 -34.5 81.5s-36 38.833 -64 53.5s-61.333 22 -100 22c-79.333 0 -136.5 -26.333 -171.5 -79s-52.5 -138.667 -52.5 -258zM573.999 782.001l-178.001 -41.9971
c-4 -1.33301 -6.66699 -2 -8 -2c-3.33301 0 -7.16602 2.83301 -11.499 8.5s-6.5 10.167 -6.5 13.5c0 2 3.66699 6 11 12l163 89c11.333 6 21.333 9 30 9c12 0 22.333 -4.33301 31 -13s13 -19.334 13 -32.001c0 -10.667 -4.33301 -19.834 -13 -27.501
s-19 -12.834 -31 -15.501z" />
    <glyph glyph-name="Ocircumflex" unicode="&#xd4;" horiz-adv-x="885" 
d="M68 346c0 67.333 13.499 128.334 40.499 183.001s69.5 99.167 127.5 133.5s127.333 51.5 208 51.5c108.667 0 198.334 -32.833 269.001 -98.5s106 -155.834 106 -270.501c0 -102 -35.5 -187.167 -106.5 -255.5s-159.5 -102.5 -265.5 -102.5
c-112.667 0 -204 33.167 -274 99.5s-105 152.833 -105 259.5zM220.999 350.001c0 -36 1.16699 -67.5 3.5 -94.5s8 -56.5 17 -88.5s21.167 -58.5 36.5 -79.5s37.333 -38.5 66 -52.5s62.667 -21 102 -21c36 0 67.333 6.5 94 19.5s47.667 29.833 63 50.5s27.5 46.167 36.5 76.5
s15 60 18 89s4.5 61.5 4.5 97.5c0 36.667 -1 68 -3 94s-7.16699 55.667 -15.5 89s-19.833 60.5 -34.5 81.5s-36 38.833 -64 53.5s-61.333 22 -100 22c-79.333 0 -136.5 -26.333 -171.5 -79s-52.5 -138.667 -52.5 -258zM576.999 741.001l-134.998 39l-135 -39
c-6 -2 -10 -3 -12 -3c-2.66699 0 -5.66699 2.66699 -9 8s-5 10 -5 14c0 3.33301 2.66699 7 8 11l125 83c13.333 9.33301 22.666 14 27.999 14s14.666 -4.66699 27.999 -14l125 -83c5.33301 -4 8 -7.66699 8 -11c0 -4 -1.66699 -8.66699 -5 -14s-6.33301 -8 -9 -8
c-2 0 -6 1 -12 3z" />
    <glyph glyph-name="Otilde" unicode="&#xd5;" horiz-adv-x="885" 
d="M68 346c0 67.333 13.499 128.334 40.499 183.001s69.5 99.167 127.5 133.5s127.333 51.5 208 51.5c108.667 0 198.334 -32.833 269.001 -98.5s106 -155.834 106 -270.501c0 -102 -35.5 -187.167 -106.5 -255.5s-159.5 -102.5 -265.5 -102.5
c-112.667 0 -204 33.167 -274 99.5s-105 152.833 -105 259.5zM220.999 350.001c0 -36 1.16699 -67.5 3.5 -94.5s8 -56.5 17 -88.5s21.167 -58.5 36.5 -79.5s37.333 -38.5 66 -52.5s62.667 -21 102 -21c36 0 67.333 6.5 94 19.5s47.667 29.833 63 50.5s27.5 46.167 36.5 76.5
s15 60 18 89s4.5 61.5 4.5 97.5c0 36.667 -1 68 -3 94s-7.16699 55.667 -15.5 89s-19.833 60.5 -34.5 81.5s-36 38.833 -64 53.5s-61.333 22 -100 22c-79.333 0 -136.5 -26.333 -171.5 -79s-52.5 -138.667 -52.5 -258zM602.999 852.001
c0 -27.333 -8.66504 -51.167 -25.998 -71.5s-39 -30.5 -65 -30.5c-20.667 0 -47.167 7.5 -79.5 22.5s-55.5 22.5 -69.5 22.5c-20.667 0 -36.334 -10 -47.001 -30c-6.66699 -11.333 -12.667 -17 -18 -17c-6 0 -10 1 -12 3s-3 7 -3 15c0 23.333 8.66699 45.833 26 67.5
s38.666 32.5 63.999 32.5c20.667 0 47.167 -7.5 79.5 -22.5s55.5 -22.5 69.5 -22.5c24 0 40 10.667 48 32c6.66699 11.333 12.667 17 18 17c6 0 10 -1 12 -3s3 -7 3 -15z" />
    <glyph glyph-name="Odieresis" unicode="&#xd6;" horiz-adv-x="885" 
d="M68 346c0 67.333 13.499 128.334 40.499 183.001s69.5 99.167 127.5 133.5s127.333 51.5 208 51.5c108.667 0 198.334 -32.833 269.001 -98.5s106 -155.834 106 -270.501c0 -102 -35.5 -187.167 -106.5 -255.5s-159.5 -102.5 -265.5 -102.5
c-112.667 0 -204 33.167 -274 99.5s-105 152.833 -105 259.5zM220.999 350.001c0 -36 1.16699 -67.5 3.5 -94.5s8 -56.5 17 -88.5s21.167 -58.5 36.5 -79.5s37.333 -38.5 66 -52.5s62.667 -21 102 -21c36 0 67.333 6.5 94 19.5s47.667 29.833 63 50.5s27.5 46.167 36.5 76.5
s15 60 18 89s4.5 61.5 4.5 97.5c0 36.667 -1 68 -3 94s-7.16699 55.667 -15.5 89s-19.833 60.5 -34.5 81.5s-36 38.833 -64 53.5s-61.333 22 -100 22c-79.333 0 -136.5 -26.333 -171.5 -79s-52.5 -138.667 -52.5 -258zM258.999 805.001c0 18 6.16699 33.333 18.5 46
s27.5 19 45.5 19s33.333 -6.33301 46 -19s19 -28 19 -46s-6.33301 -33.167 -19 -45.5s-28 -18.5 -46 -18.5s-33.167 6.16699 -45.5 18.5s-18.5 27.5 -18.5 45.5zM498.999 805.001c0 18 6.16699 33.333 18.5 46s27.5 19 45.5 19s33.333 -6.33301 46 -19s19 -28 19 -46
s-6.33301 -33.167 -19 -45.5s-28 -18.5 -46 -18.5s-33.167 6.16699 -45.5 18.5s-18.5 27.5 -18.5 45.5z" />
    <glyph glyph-name="multiply" unicode="&#xd7;" 
d="M118 162l-41 41l131 131l-131 131l43 43l131 -131l131 131l41 -41l-131 -131l131 -131l-43 -43l-131 131z" />
    <glyph glyph-name="Oslash" unicode="&#xd8;" horiz-adv-x="885" 
d="M71 346c0 67.333 13.501 128.333 40.501 183s69.5 99.167 127.5 133.5s127.333 51.5 208 51.5c103.333 0 189 -29.333 257 -88l101 98c2.66699 2.66699 4.66699 3 6 1l22 -22c2 -2.66699 2 -5 0 -7l-101 -98c60 -65.333 90 -149.666 90 -252.999
c0 -102 -35.5 -187.167 -106.5 -255.5s-159.5 -102.5 -265.5 -102.5c-104.667 0 -191.334 29 -260.001 87l-102 -98c-2 -2.66699 -4 -3 -6 -1l-22 22c-2 2.66699 -2 5 0 7l101 98c-60 65.333 -90 146.666 -90 243.999zM224.001 350c0 -73.333 5.33301 -130.667 16 -172
l397 384c-31.333 83.333 -94.333 125 -189 125c-79.333 0 -136.5 -26.333 -171.5 -79s-52.5 -138.667 -52.5 -258zM665.001 346.999c0 72.667 -5 130 -15 172l-396 -383c34.667 -81.333 99.667 -122 195 -122c36 0 67.333 6.5 94 19.5s47.667 29.833 63 50.5
s27.5 46.167 36.5 76.5s15 60 18 89s4.5 61.5 4.5 97.5z" />
    <glyph glyph-name="Ugrave" unicode="&#xd9;" horiz-adv-x="885" 
d="M717 213l0.00488281 368.999c0 33.333 -5.33301 55.5 -16 66.5s-30.334 16.5 -59.001 16.5h-13c-3.33301 0 -5 1.66699 -5 5v26c0 2.66699 1.66699 4 5 4h216c3.33301 0 5 -1.33301 5 -4v-26c0 -3.33301 -1.66699 -5 -5 -5h-13c-28.667 0 -48.334 -5.5 -59.001 -16.5
s-16 -33.167 -16 -66.5v-353c0 -73.333 -23.167 -132.166 -69.5 -176.499s-120.833 -66.5 -223.5 -66.5c-106.667 0 -187.834 20.333 -243.501 61s-83.5 109 -83.5 205v330c0 33.333 -5.33301 55.5 -16 66.5s-30.334 16.5 -59.001 16.5h-13c-3.33301 0 -5 1.66699 -5 5v26
c0 2.66699 1.66699 4 5 4h311c3.33301 0 5 -1.33301 5 -4v-26c0 -3.33301 -1.66699 -5 -5 -5h-13c-28.667 0 -48.334 -5.5 -59.001 -16.5s-16 -33.167 -16 -66.5v-359c0 -64 16 -111.333 48 -142s81 -46 147 -46c79.333 0 140.833 16.167 184.5 48.5s65.5 75.5 65.5 129.5z
M500.005 739.999l-178.001 41.9971c-12 2.66699 -22.333 7.83398 -31 15.501s-13 16.834 -13 27.501c0 12.667 4.33301 23.334 13 32.001s19 13 31 13c8.66699 0 18.667 -3 30 -9l163 -89c7.33301 -6 11 -10 11 -12c0 -3.33301 -2.16699 -7.83301 -6.5 -13.5
s-8.16602 -8.5 -11.499 -8.5c-1.33301 0 -4 0.666992 -8 2z" />
    <glyph glyph-name="Uacute" unicode="&#xda;" horiz-adv-x="885" 
d="M717 213l0.00488281 368.999c0 33.333 -5.33301 55.5 -16 66.5s-30.334 16.5 -59.001 16.5h-13c-3.33301 0 -5 1.66699 -5 5v26c0 2.66699 1.66699 4 5 4h216c3.33301 0 5 -1.33301 5 -4v-26c0 -3.33301 -1.66699 -5 -5 -5h-13c-28.667 0 -48.334 -5.5 -59.001 -16.5
s-16 -33.167 -16 -66.5v-353c0 -73.333 -23.167 -132.166 -69.5 -176.499s-120.833 -66.5 -223.5 -66.5c-106.667 0 -187.834 20.333 -243.501 61s-83.5 109 -83.5 205v330c0 33.333 -5.33301 55.5 -16 66.5s-30.334 16.5 -59.001 16.5h-13c-3.33301 0 -5 1.66699 -5 5v26
c0 2.66699 1.66699 4 5 4h311c3.33301 0 5 -1.33301 5 -4v-26c0 -3.33301 -1.66699 -5 -5 -5h-13c-28.667 0 -48.334 -5.5 -59.001 -16.5s-16 -33.167 -16 -66.5v-359c0 -64 16 -111.333 48 -142s81 -46 147 -46c79.333 0 140.833 16.167 184.5 48.5s65.5 75.5 65.5 129.5z
M594.005 781.999l-178.001 -41.9971c-4 -1.33301 -6.66699 -2 -8 -2c-3.33301 0 -7.16602 2.83301 -11.499 8.5s-6.5 10.167 -6.5 13.5c0 2 3.66699 6 11 12l163 89c11.333 6 21.333 9 30 9c12 0 22.333 -4.33301 31 -13s13 -19.334 13 -32.001
c0 -10.667 -4.33301 -19.834 -13 -27.501s-19 -12.834 -31 -15.501z" />
    <glyph glyph-name="Ucircumflex" unicode="&#xdb;" horiz-adv-x="885" 
d="M717 213l0.00488281 368.999c0 33.333 -5.33301 55.5 -16 66.5s-30.334 16.5 -59.001 16.5h-13c-3.33301 0 -5 1.66699 -5 5v26c0 2.66699 1.66699 4 5 4h216c3.33301 0 5 -1.33301 5 -4v-26c0 -3.33301 -1.66699 -5 -5 -5h-13c-28.667 0 -48.334 -5.5 -59.001 -16.5
s-16 -33.167 -16 -66.5v-353c0 -73.333 -23.167 -132.166 -69.5 -176.499s-120.833 -66.5 -223.5 -66.5c-106.667 0 -187.834 20.333 -243.501 61s-83.5 109 -83.5 205v330c0 33.333 -5.33301 55.5 -16 66.5s-30.334 16.5 -59.001 16.5h-13c-3.33301 0 -5 1.66699 -5 5v26
c0 2.66699 1.66699 4 5 4h311c3.33301 0 5 -1.33301 5 -4v-26c0 -3.33301 -1.66699 -5 -5 -5h-13c-28.667 0 -48.334 -5.5 -59.001 -16.5s-16 -33.167 -16 -66.5v-359c0 -64 16 -111.333 48 -142s81 -46 147 -46c79.333 0 140.833 16.167 184.5 48.5s65.5 75.5 65.5 129.5z
M618.005 740.999l-134.998 39l-135 -39c-6 -2 -10 -3 -12 -3c-2.66699 0 -5.66699 2.66699 -9 8s-5 10 -5 14c0 3.33301 2.66699 7 8 11l125 83c13.333 9.33301 22.666 14 27.999 14s14.666 -4.66699 27.999 -14l125 -83c5.33301 -4 8 -7.66699 8 -11
c0 -4 -1.66699 -8.66699 -5 -14s-6.33301 -8 -9 -8c-2 0 -6 1 -12 3z" />
    <glyph glyph-name="Udieresis" unicode="&#xdc;" horiz-adv-x="885" 
d="M717 213l0.00488281 368.999c0 33.333 -5.33301 55.5 -16 66.5s-30.334 16.5 -59.001 16.5h-13c-3.33301 0 -5 1.66699 -5 5v26c0 2.66699 1.66699 4 5 4h216c3.33301 0 5 -1.33301 5 -4v-26c0 -3.33301 -1.66699 -5 -5 -5h-13c-28.667 0 -48.334 -5.5 -59.001 -16.5
s-16 -33.167 -16 -66.5v-353c0 -73.333 -23.167 -132.166 -69.5 -176.499s-120.833 -66.5 -223.5 -66.5c-106.667 0 -187.834 20.333 -243.501 61s-83.5 109 -83.5 205v330c0 33.333 -5.33301 55.5 -16 66.5s-30.334 16.5 -59.001 16.5h-13c-3.33301 0 -5 1.66699 -5 5v26
c0 2.66699 1.66699 4 5 4h311c3.33301 0 5 -1.33301 5 -4v-26c0 -3.33301 -1.66699 -5 -5 -5h-13c-28.667 0 -48.334 -5.5 -59.001 -16.5s-16 -33.167 -16 -66.5v-359c0 -64 16 -111.333 48 -142s81 -46 147 -46c79.333 0 140.833 16.167 184.5 48.5s65.5 75.5 65.5 129.5z
M299.005 804.999c0 18 6.16699 33.333 18.5 46s27.5 19 45.5 19s33.333 -6.33301 46 -19s19 -28 19 -46s-6.33301 -33.167 -19 -45.5s-28 -18.5 -46 -18.5s-33.167 6.16699 -45.5 18.5s-18.5 27.5 -18.5 45.5zM539.005 804.999c0 18 6.16699 33.333 18.5 46s27.5 19 45.5 19
s33.333 -6.33301 46 -19s19 -28 19 -46s-6.33301 -33.167 -19 -45.5s-28 -18.5 -46 -18.5s-33.167 6.16699 -45.5 18.5s-18.5 27.5 -18.5 45.5z" />
    <glyph glyph-name="Yacute" unicode="&#xdd;" horiz-adv-x="885" 
d="M363 118l-0.00292969 229.999l-203 272c-9.33301 12 -23.166 22.5 -41.499 31.5s-35.833 13.5 -52.5 13.5h-13c-3.33301 0 -5 1.66699 -5 5v26c0 2.66699 1.66699 4 5 4h314c3.33301 0 5 -1.33301 5 -4v-26c0 -3.33301 -1.66699 -5 -5 -5h-13c-20 0 -30 -8 -30 -24
c0 -11.333 4.33301 -21.666 13 -30.999l153 -209l167 195c14 17.333 21 30.666 21 39.999s-2.83301 16.333 -8.5 21s-16.5 7.33398 -32.5 8.00098h-13c-3.33301 0 -5 1.66699 -5 5v26c0 2.66699 1.66699 4 5 4h202c3.33301 0 5 -1.33301 5 -4v-26
c0 -3.33301 -1.66699 -5 -5 -5h-13c-18 0 -33.667 -3.66699 -47 -11s-28 -20.333 -44 -39l-224 -265v-232c0 -33.333 5.33301 -55.5 16 -66.5s30.334 -16.5 59.001 -16.5h13c3.33301 0 5 -1.66699 5 -5v-26c0 -2.66699 -1.66699 -4 -5 -4h-311c-3.33301 -0 -5 1.33301 -5 4
v26c0 3.33301 1.66699 5 5 5h13c28.667 0 48.334 5.5 59.001 16.5s16 33.167 16 66.5zM603.997 781.999l-178.001 -41.9971c-4 -1.33301 -6.66699 -2 -8 -2c-3.33301 0 -7.16602 2.83301 -11.499 8.5s-6.5 10.167 -6.5 13.5c0 2 3.66699 6 11 12l163 89
c11.333 6 21.333 9 30 9c12 0 22.333 -4.33301 31 -13s13 -19.334 13 -32.001c0 -10.667 -4.33301 -19.834 -13 -27.501s-19 -12.834 -31 -15.501z" />
    <glyph glyph-name="Thorn" unicode="&#xde;" horiz-adv-x="696" 
d="M122 118v463.999c0 33.333 -5.33301 55.5 -16 66.5s-30.334 16.5 -59.001 16.5h-13c-3.33301 0 -5 1.66699 -5 5v26c0 2.66699 1.66699 4 5 4h311c3.33301 0 5 -1.33301 5 -4v-26c0 -3.33301 -1.66699 -5 -5 -5h-13c-28.667 0 -48.334 -5.5 -59.001 -16.5
s-16 -33.167 -16 -66.5v-42h88c87.333 0 151 -11.667 191 -35c59.333 -34 89 -82.667 89 -146c0 -31.333 -8 -60.666 -24 -87.999s-38.667 -48 -68 -62c-38 -18 -103.667 -27 -197 -27c-18 0 -44.333 1 -79 3v-67c0 -33.333 5.33301 -55.5 16 -66.5
s30.334 -16.5 59.001 -16.5h13c3.33301 0 5 -1.66699 5 -5v-26c0 -2.66699 -1.66699 -4 -5 -4h-311c-3.33301 -0 -5 1.33301 -5 4v26c0 3.33301 1.66699 5 5 5h13c28.667 0 48.334 5.5 59.001 16.5s16 33.167 16 66.5zM257 213.999c24 -2.66699 48.333 -4 73 -4
c55.333 0 96.333 12.5 123 37.5s40 67.167 40 126.5c0 42.667 -10.5 76.667 -31.5 102s-49.167 38 -84.5 38h-70c-20 0 -33.333 -4.5 -40 -13.5s-10 -26.167 -10 -51.5v-235z" />
    <glyph glyph-name="germandbls" unicode="&#xdf;" horiz-adv-x="616" 
d="M473 585c0 -22 -5.66699 -42.834 -17 -62.501s-23.833 -35.667 -37.5 -48s-26.167 -26.666 -37.5 -42.999s-17 -32.166 -17 -47.499c0 -16.667 7.83301 -32.5 23.5 -47.5s34.5 -29 56.5 -42l66.5 -40.5c22.333 -14 41.333 -31.5 57 -52.5s23.5 -43.833 23.5 -68.5
c0 -40.667 -15 -75.667 -45 -105s-66 -44 -108 -44s-80.333 8 -115 24c-8 4 -13.333 7.66699 -16 11s-4.33398 9 -5.00098 17l-7 91c0 11.333 3.33301 17 10 17c4 0 7.16699 -1.66699 9.5 -5s6.16602 -10.666 11.499 -21.999c32 -70 72 -105 120 -105
c18.667 0 35.667 6.66699 51 20s23 28.333 23 45c0 21.333 -7.33301 40.666 -22 57.999s-32.667 32.5 -54 45.5l-64 40.5c-21.333 14 -39.333 31.5 -54 52.5s-22 44.833 -22 71.5c0 21.333 6.83301 43.166 20.5 65.499s27.334 46.5 41.001 72.5s20.5 54.333 20.5 85
c0 28 -8.16699 51.333 -24.5 70s-38.833 28 -67.5 28c-25.333 0 -45.666 -15.167 -60.999 -45.5s-23 -68.833 -23 -115.5v-407c0 -42 15 -63 45 -63h13c3.33301 0 5 -1.66699 5 -5v-26c0 -2.66699 -1.66699 -4 -5 -4h-226c-3.33301 -0 -5 1.33301 -5 4v26
c0 3.33301 1.66699 5 5 5h13c30 0 45 21 45 63v272h-52c-3.33301 0 -5 1.33301 -5 4v36c0 3.33301 1.66699 5 5 5h52c5.33301 186 79.333 279 222 279c41.333 0 76.833 -10.667 106.5 -32s44.5 -47 44.5 -77z" />
    <glyph glyph-name="agrave" unicode="&#xe0;" horiz-adv-x="507" 
d="M295 274c0.666992 10 1.16699 19.5029 1.5 28.5029s0.666016 15 0.999023 18s0.5 5.16699 0.5 6.5c0 17.333 -7.5 32.666 -22.5 45.999s-32.167 20 -51.5 20c-25.333 0 -45.166 -5.83301 -59.499 -17.5s-21.5 -27.834 -21.5 -48.501v-10c2.66699 -21.333 4 -34.333 4 -39
c0 -11.333 -5 -21.666 -15 -30.999s-21.667 -14 -35 -14c-14.667 0 -28 6.16699 -40 18.5s-18 26.166 -18 41.499c0 34.667 23.333 65.667 70 93s98.667 41 156 41c50.667 0 87.334 -10 110.001 -30s34 -52 34 -96c0 -24 -1.83301 -61.833 -5.5 -113.5
s-5.5 -86.834 -5.5 -105.501c0 -28 8 -42 24 -42c10 0 17.667 5 23 15c6 10.667 11.667 16 17 16c10.667 0 16 -6 16 -18c0 -16.667 -8.5 -31 -25.5 -43s-37.167 -18 -60.5 -18c-22.667 0 -41.667 3.5 -57 10.5s-31 19.5 -47 37.5c-52.667 -32 -98.334 -48 -137.001 -48
c-30 0 -54.5 10.667 -73.5 32s-28.5 49.333 -28.5 84c0 38.667 34 73 102 103zM293 237.003c-44.667 -14 -79.833 -32.835 -105.5 -56.502s-38.5 -49.5 -38.5 -77.5c0.666992 -17.333 7.5 -32.166 20.5 -44.499s28.167 -18.5 45.5 -18.5c12.667 0 25.834 5.33301 39.501 16
s24.5 22.334 32.5 35.001c1.33301 4 2.66602 11.333 3.99902 22c0 22.667 0.666992 64 2 124zM234.001 533.001l-110.999 86.001c-16 16 -24 29.667 -24 41c0 10.667 4.33301 20.5 13 29.5s19 13.5 31 13.5c13.333 0 27 -8.33301 41 -25l76 -122
c4 -6.66699 6 -11.334 6 -14.001c0 -3.33301 -2 -6.83301 -6 -10.5s-8 -5.5 -12 -5.5c-4.66699 0 -9.33398 2.33301 -14.001 7z" />
    <glyph glyph-name="aacute" unicode="&#xe1;" horiz-adv-x="507" 
d="M295 274c0.666992 10 1.16699 19.5029 1.5 28.5029s0.666016 15 0.999023 18s0.5 5.16699 0.5 6.5c0 17.333 -7.5 32.666 -22.5 45.999s-32.167 20 -51.5 20c-25.333 0 -45.166 -5.83301 -59.499 -17.5s-21.5 -27.834 -21.5 -48.501v-10c2.66699 -21.333 4 -34.333 4 -39
c0 -11.333 -5 -21.666 -15 -30.999s-21.667 -14 -35 -14c-14.667 0 -28 6.16699 -40 18.5s-18 26.166 -18 41.499c0 34.667 23.333 65.667 70 93s98.667 41 156 41c50.667 0 87.334 -10 110.001 -30s34 -52 34 -96c0 -24 -1.83301 -61.833 -5.5 -113.5
s-5.5 -86.834 -5.5 -105.501c0 -28 8 -42 24 -42c10 0 17.667 5 23 15c6 10.667 11.667 16 17 16c10.667 0 16 -6 16 -18c0 -16.667 -8.5 -31 -25.5 -43s-37.167 -18 -60.5 -18c-22.667 0 -41.667 3.5 -57 10.5s-31 19.5 -47 37.5c-52.667 -32 -98.334 -48 -137.001 -48
c-30 0 -54.5 10.667 -73.5 32s-28.5 49.333 -28.5 84c0 38.667 34 73 102 103zM293 237.003c-44.667 -14 -79.833 -32.835 -105.5 -56.502s-38.5 -49.5 -38.5 -77.5c0.666992 -17.333 7.5 -32.166 20.5 -44.499s28.167 -18.5 45.5 -18.5c12.667 0 25.834 5.33301 39.501 16
s24.5 22.334 32.5 35.001c1.33301 4 2.66602 11.333 3.99902 22c0 22.667 0.666992 64 2 124zM338.001 619.001l-110.999 -86.001c-4.66699 -4.66699 -9.33398 -7 -14.001 -7c-4 0 -8 1.83301 -12 5.5s-6 7.16699 -6 10.5c0 2.66699 2 7.33398 6 14.001l76 122
c14 16.667 27.667 25 41 25c12 0 22.333 -4.5 31 -13.5s13 -18.833 13 -29.5c0 -11.333 -8 -25 -24 -41z" />
    <glyph glyph-name="acircumflex" unicode="&#xe2;" horiz-adv-x="507" 
d="M295 274c0.666992 10 1.16699 19.5029 1.5 28.5029s0.666016 15 0.999023 18s0.5 5.16699 0.5 6.5c0 17.333 -7.5 32.666 -22.5 45.999s-32.167 20 -51.5 20c-25.333 0 -45.166 -5.83301 -59.499 -17.5s-21.5 -27.834 -21.5 -48.501v-10c2.66699 -21.333 4 -34.333 4 -39
c0 -11.333 -5 -21.666 -15 -30.999s-21.667 -14 -35 -14c-14.667 0 -28 6.16699 -40 18.5s-18 26.166 -18 41.499c0 34.667 23.333 65.667 70 93s98.667 41 156 41c50.667 0 87.334 -10 110.001 -30s34 -52 34 -96c0 -24 -1.83301 -61.833 -5.5 -113.5
s-5.5 -86.834 -5.5 -105.501c0 -28 8 -42 24 -42c10 0 17.667 5 23 15c6 10.667 11.667 16 17 16c10.667 0 16 -6 16 -18c0 -16.667 -8.5 -31 -25.5 -43s-37.167 -18 -60.5 -18c-22.667 0 -41.667 3.5 -57 10.5s-31 19.5 -47 37.5c-52.667 -32 -98.334 -48 -137.001 -48
c-30 0 -54.5 10.667 -73.5 32s-28.5 49.333 -28.5 84c0 38.667 34 73 102 103zM293 237.003c-44.667 -14 -79.833 -32.835 -105.5 -56.502s-38.5 -49.5 -38.5 -77.5c0.666992 -17.333 7.5 -32.166 20.5 -44.499s28.167 -18.5 45.5 -18.5c12.667 0 25.834 5.33301 39.501 16
s24.5 22.334 32.5 35.001c1.33301 4 2.66602 11.333 3.99902 22c0 22.667 0.666992 64 2 124zM328.001 536.001l-89.998 71l-90 -71c-6.66699 -4.66699 -11.667 -7 -15 -7c-2.66699 0 -6.33398 2.16699 -11.001 6.5s-7 7.83301 -7 10.5c0 3.33301 1.33301 6.66602 4 9.99902
l89 126c11.333 16 21.333 24 30 24s18.667 -8 30 -24l89 -126c2.66699 -3.33301 4 -6.66602 4 -9.99902c0 -2.66699 -2.33301 -6.16699 -7 -10.5s-8.33398 -6.5 -11.001 -6.5c-3.33301 0 -8.33301 2.33301 -15 7z" />
    <glyph glyph-name="atilde" unicode="&#xe3;" horiz-adv-x="507" 
d="M295 274c0.666992 10 1.16699 19.5029 1.5 28.5029s0.666016 15 0.999023 18s0.5 5.16699 0.5 6.5c0 17.333 -7.5 32.666 -22.5 45.999s-32.167 20 -51.5 20c-25.333 0 -45.166 -5.83301 -59.499 -17.5s-21.5 -27.834 -21.5 -48.501v-10c2.66699 -21.333 4 -34.333 4 -39
c0 -11.333 -5 -21.666 -15 -30.999s-21.667 -14 -35 -14c-14.667 0 -28 6.16699 -40 18.5s-18 26.166 -18 41.499c0 34.667 23.333 65.667 70 93s98.667 41 156 41c50.667 0 87.334 -10 110.001 -30s34 -52 34 -96c0 -24 -1.83301 -61.833 -5.5 -113.5
s-5.5 -86.834 -5.5 -105.501c0 -28 8 -42 24 -42c10 0 17.667 5 23 15c6 10.667 11.667 16 17 16c10.667 0 16 -6 16 -18c0 -16.667 -8.5 -31 -25.5 -43s-37.167 -18 -60.5 -18c-22.667 0 -41.667 3.5 -57 10.5s-31 19.5 -47 37.5c-52.667 -32 -98.334 -48 -137.001 -48
c-30 0 -54.5 10.667 -73.5 32s-28.5 49.333 -28.5 84c0 38.667 34 73 102 103zM293 237.003c-44.667 -14 -79.833 -32.835 -105.5 -56.502s-38.5 -49.5 -38.5 -77.5c0.666992 -17.333 7.5 -32.166 20.5 -44.499s28.167 -18.5 45.5 -18.5c12.667 0 25.834 5.33301 39.501 16
s24.5 22.334 32.5 35.001c1.33301 4 2.66602 11.333 3.99902 22c0 22.667 0.666992 64 2 124zM394.001 679.001c0 -27.333 -8.66504 -51.167 -25.998 -71.5s-39 -30.5 -65 -30.5c-17.333 0 -40.5 7.5 -69.5 22.5s-48.833 22.5 -59.5 22.5c-20.667 0 -36.334 -10 -47.001 -30
c-6.66699 -11.333 -12.667 -17 -18 -17c-6 0 -10 1 -12 3s-3 7 -3 15c0 23.333 8.66699 45.833 26 67.5s38.666 32.5 63.999 32.5c17.333 0 40.5 -7.5 69.5 -22.5s48.833 -22.5 59.5 -22.5c24 0 40 10.667 48 32c6.66699 11.333 12.667 17 18 17c6 0 10 -1 12 -3s3 -7 3 -15
z" />
    <glyph glyph-name="adieresis" unicode="&#xe4;" horiz-adv-x="507" 
d="M295 274c0.666992 10 1.16699 19.5029 1.5 28.5029s0.666016 15 0.999023 18s0.5 5.16699 0.5 6.5c0 17.333 -7.5 32.666 -22.5 45.999s-32.167 20 -51.5 20c-25.333 0 -45.166 -5.83301 -59.499 -17.5s-21.5 -27.834 -21.5 -48.501v-10c2.66699 -21.333 4 -34.333 4 -39
c0 -11.333 -5 -21.666 -15 -30.999s-21.667 -14 -35 -14c-14.667 0 -28 6.16699 -40 18.5s-18 26.166 -18 41.499c0 34.667 23.333 65.667 70 93s98.667 41 156 41c50.667 0 87.334 -10 110.001 -30s34 -52 34 -96c0 -24 -1.83301 -61.833 -5.5 -113.5
s-5.5 -86.834 -5.5 -105.501c0 -28 8 -42 24 -42c10 0 17.667 5 23 15c6 10.667 11.667 16 17 16c10.667 0 16 -6 16 -18c0 -16.667 -8.5 -31 -25.5 -43s-37.167 -18 -60.5 -18c-22.667 0 -41.667 3.5 -57 10.5s-31 19.5 -47 37.5c-52.667 -32 -98.334 -48 -137.001 -48
c-30 0 -54.5 10.667 -73.5 32s-28.5 49.333 -28.5 84c0 38.667 34 73 102 103zM293 237.003c-44.667 -14 -79.833 -32.835 -105.5 -56.502s-38.5 -49.5 -38.5 -77.5c0.666992 -17.333 7.5 -32.166 20.5 -44.499s28.167 -18.5 45.5 -18.5c12.667 0 25.834 5.33301 39.501 16
s24.5 22.334 32.5 35.001c1.33301 4 2.66602 11.333 3.99902 22c0 22.667 0.666992 64 2 124zM60.001 627.001c0 18 6.16699 33.333 18.5 46s27.5 19 45.5 19s33.333 -6.33301 46 -19s19 -28 19 -46s-6.33301 -33.167 -19 -45.5s-28 -18.5 -46 -18.5
s-33.167 6.16699 -45.5 18.5s-18.5 27.5 -18.5 45.5zM280.001 627.001c0 18 6.16699 33.333 18.5 46s27.5 19 45.5 19s33.333 -6.33301 46 -19s19 -28 19 -46s-6.33301 -33.167 -19 -45.5s-28 -18.5 -46 -18.5s-33.167 6.16699 -45.5 18.5s-18.5 27.5 -18.5 45.5z" />
    <glyph glyph-name="aring" unicode="&#xe5;" horiz-adv-x="507" 
d="M295 274c0.666992 10 1.16699 19.5029 1.5 28.5029s0.666016 15 0.999023 18s0.5 5.16699 0.5 6.5c0 17.333 -7.5 32.666 -22.5 45.999s-32.167 20 -51.5 20c-25.333 0 -45.166 -5.83301 -59.499 -17.5s-21.5 -27.834 -21.5 -48.501v-10c2.66699 -21.333 4 -34.333 4 -39
c0 -11.333 -5 -21.666 -15 -30.999s-21.667 -14 -35 -14c-14.667 0 -28 6.16699 -40 18.5s-18 26.166 -18 41.499c0 34.667 23.333 65.667 70 93s98.667 41 156 41c50.667 0 87.334 -10 110.001 -30s34 -52 34 -96c0 -24 -1.83301 -61.833 -5.5 -113.5
s-5.5 -86.834 -5.5 -105.501c0 -28 8 -42 24 -42c10 0 17.667 5 23 15c6 10.667 11.667 16 17 16c10.667 0 16 -6 16 -18c0 -16.667 -8.5 -31 -25.5 -43s-37.167 -18 -60.5 -18c-22.667 0 -41.667 3.5 -57 10.5s-31 19.5 -47 37.5c-52.667 -32 -98.334 -48 -137.001 -48
c-30 0 -54.5 10.667 -73.5 32s-28.5 49.333 -28.5 84c0 38.667 34 73 102 103zM293 237.003c-44.667 -14 -79.833 -32.835 -105.5 -56.502s-38.5 -49.5 -38.5 -77.5c0.666992 -17.333 7.5 -32.166 20.5 -44.499s28.167 -18.5 45.5 -18.5c12.667 0 25.834 5.33301 39.501 16
s24.5 22.334 32.5 35.001c1.33301 4 2.66602 11.333 3.99902 22c0 22.667 0.666992 64 2 124zM136.001 623.001c0 27.333 9.66699 50.5 29 69.5s42.333 28.5 69 28.5s49.5 -9.66699 68.5 -29s28.5 -42.333 28.5 -69c0 -26 -9.5 -48.167 -28.5 -66.5
s-41.833 -27.5 -68.5 -27.5c-27.333 0 -50.5 9.16699 -69.5 27.5s-28.5 40.5 -28.5 66.5zM171.001 623.001c0 -17.333 6.16699 -32.333 18.5 -45s27.166 -19 44.499 -19s32.166 6.33301 44.499 19s18.5 27.667 18.5 45c0 18 -6.16699 33.5 -18.5 46.5
s-27.166 19.5 -44.499 19.5s-32.166 -6.5 -44.499 -19.5s-18.5 -28.5 -18.5 -46.5z" />
    <glyph glyph-name="ae" unicode="&#xe6;" horiz-adv-x="759" 
d="M295 274c0.666992 10 1.16699 19.502 1.5 28.502s0.666016 15 0.999023 18s0.5 5.16699 0.5 6.5c0 17.333 -7.5 32.666 -22.5 45.999s-32.167 20 -51.5 20c-25.333 0 -45.166 -5.83301 -59.499 -17.5s-21.5 -27.834 -21.5 -48.501v-10c2.66699 -21.333 4 -34.333 4 -39
c0 -11.333 -5 -21.666 -15 -30.999s-21.667 -14 -35 -14c-14.667 0 -28 6.16699 -40 18.5s-18 26.166 -18 41.499c0 34.667 23.333 65.667 70 93s98.667 41 156 41c60.667 0 101.667 -15 123 -45c37.333 30 79.666 45 126.999 45c44 0 83.333 -12.167 118 -36.5
s59 -56.5 73 -96.5c3.33301 -9.33301 5 -18.666 5 -27.999c0 -20 -11.667 -30 -35 -30h-68l-188 -1c-0.666992 -4.66699 -1 -9.33398 -1 -14.001c0 -48 13 -88.333 39 -121s58 -49 96 -49c24.667 0 49.834 6.66699 75.501 20s46.834 31.333 63.501 54
c3.33301 3.33301 6 5 8 5c8.66699 0 13 -3 13 -9s-2 -12.667 -6 -20c-22 -36 -51.5 -65.333 -88.5 -88s-76.833 -34 -119.5 -34c-31.333 0 -61.833 7.33301 -91.5 22s-53.5 35 -71.5 61c-52.667 -54.667 -114.667 -82 -186 -82c-70 0 -105 39.333 -105 118
c0 20 9.16699 40.167 27.5 60.5s44.166 37.833 77.499 52.5zM293 237.002c-44.667 -14 -79.834 -32.834 -105.501 -56.501s-38.5 -49.5 -38.5 -77.5c1.33301 -18 8.5 -34.667 21.5 -50s27.833 -23 44.5 -23c12.667 0 25.834 5.33301 39.501 16s24.5 22.334 32.5 35.001l4 32
c0 22.667 0.666992 64 2 124zM507 401.001c-50 0 -78 -43.667 -84 -131l90 1h63c13.333 0 20 5.33301 20 16c0 72.667 -29.667 110.667 -89 114z" />
    <glyph glyph-name="ccedilla" unicode="&#xe7;" horiz-adv-x="507" 
d="M270 440c52 0 95.6641 -12.8379 130.997 -38.5049s53 -54.167 53 -85.5c0 -16 -6.33301 -29.833 -19 -41.5s-27.667 -17.5 -45 -17.5s-32.333 7.83301 -45 23.5s-20.667 36.167 -24 61.5c-1.33301 11.333 -2.66602 20.333 -3.99902 27s-3.83301 13.834 -7.5 21.501
s-9.33398 13.334 -17.001 17.001s-17.167 5.5 -28.5 5.5c-30.667 0 -54.667 -14.5 -72 -43.5s-26 -68.833 -26 -119.5c0 -60 12.5 -107.5 37.5 -142.5s58.833 -52.5 101.5 -52.5c56 0 97 33 123 99c4 10.667 7.5 17.5 10.5 20.5s6.5 4.5 10.5 4.5s7.33301 -1.5 10 -4.5
s4 -6.5 4 -10.5c0 -5.33301 -2.33301 -13.666 -7 -24.999c-15.333 -39.333 -39 -72.5 -71 -99.5s-69.667 -42.5 -113 -46.5l-17 -29c0 -5.33301 2 -8 6 -8c55.333 -2.66699 83 -25 83 -67c0 -23.333 -12 -43.166 -36 -59.499s-53 -24.5 -87 -24.5c-16 0 -29.667 2.5 -41 7.5
s-17 11.167 -17 18.5c0 4.66699 1.66699 8.66699 5 12s7.33301 5 12 5c6.66699 0 14.834 -4.16699 24.501 -12.5s18.834 -12.5 27.501 -12.5c14 0 25.167 3.83301 33.5 11.5s12.5 16.834 12.5 27.501c0 12 -5.16699 22.667 -15.5 32s-25.166 14.333 -44.499 15
c-14 0 -21 5.33301 -21 16l42 67c-58 3.33301 -105.167 24.333 -141.5 63s-54.5 87.667 -54.5 147c0 63.333 22.333 118.833 67 166.5s98 71.5 160 71.5z" />
    <glyph glyph-name="egrave" unicode="&#xe8;" horiz-adv-x="507" 
d="M160 235c-0.666992 -4.66699 -1 -9.33496 -1 -14.002c0 -48 13 -88.333 39 -121s58 -49 96 -49c24.667 0 49.834 6.66699 75.501 20s46.834 31.333 63.501 54c3.33301 3.33301 6 5 8 5c8.66699 0 13 -3 13 -9s-2 -12.667 -6 -20c-22 -36 -51.5 -65.333 -88.5 -88
s-76.833 -34 -119.5 -34c-52.667 0 -98.834 21.833 -138.501 65.5s-59.5 94.167 -59.5 151.5c0 64.667 20.667 119.334 62 164.001s91.666 67 150.999 67c44 0 83.333 -12.167 118 -36.5s59 -56.5 73 -96.5c3.33301 -9.33301 5 -18.666 5 -27.999c0 -20 -11.667 -30 -35 -30
h-68zM247 400.999c-50 0 -78 -43.667 -84 -131l90 1h63c13.333 0 20 5.33301 20 16c0 72.667 -29.667 110.667 -89 114zM254 532.999l-110.999 86.001c-16 16 -24 29.667 -24 41c0 10.667 4.33301 20.5 13 29.5s19 13.5 31 13.5c13.333 0 27 -8.33301 41 -25l76 -122
c4 -6.66699 6 -11.334 6 -14.001c0 -3.33301 -2 -6.83301 -6 -10.5s-8 -5.5 -12 -5.5c-4.66699 0 -9.33398 2.33301 -14.001 7z" />
    <glyph glyph-name="eacute" unicode="&#xe9;" horiz-adv-x="507" 
d="M160 235c-0.666992 -4.66699 -1 -9.33496 -1 -14.002c0 -48 13 -88.333 39 -121s58 -49 96 -49c24.667 0 49.834 6.66699 75.501 20s46.834 31.333 63.501 54c3.33301 3.33301 6 5 8 5c8.66699 0 13 -3 13 -9s-2 -12.667 -6 -20c-22 -36 -51.5 -65.333 -88.5 -88
s-76.833 -34 -119.5 -34c-52.667 0 -98.834 21.833 -138.501 65.5s-59.5 94.167 -59.5 151.5c0 64.667 20.667 119.334 62 164.001s91.666 67 150.999 67c44 0 83.333 -12.167 118 -36.5s59 -56.5 73 -96.5c3.33301 -9.33301 5 -18.666 5 -27.999c0 -20 -11.667 -30 -35 -30
h-68zM247 400.999c-50 0 -78 -43.667 -84 -131l90 1h63c13.333 0 20 5.33301 20 16c0 72.667 -29.667 110.667 -89 114zM347 618.999l-110.999 -86.001c-4.66699 -4.66699 -9.33398 -7 -14.001 -7c-4 0 -8 1.83301 -12 5.5s-6 7.16699 -6 10.5c0 2.66699 2 7.33398 6 14.001
l76 122c14 16.667 27.667 25 41 25c12 0 22.333 -4.5 31 -13.5s13 -18.833 13 -29.5c0 -11.333 -8 -25 -24 -41z" />
    <glyph glyph-name="ecircumflex" unicode="&#xea;" horiz-adv-x="507" 
d="M160 235c-0.666992 -4.66699 -1 -9.33496 -1 -14.002c0 -48 13 -88.333 39 -121s58 -49 96 -49c24.667 0 49.834 6.66699 75.501 20s46.834 31.333 63.501 54c3.33301 3.33301 6 5 8 5c8.66699 0 13 -3 13 -9s-2 -12.667 -6 -20c-22 -36 -51.5 -65.333 -88.5 -88
s-76.833 -34 -119.5 -34c-52.667 0 -98.834 21.833 -138.501 65.5s-59.5 94.167 -59.5 151.5c0 64.667 20.667 119.334 62 164.001s91.666 67 150.999 67c44 0 83.333 -12.167 118 -36.5s59 -56.5 73 -96.5c3.33301 -9.33301 5 -18.666 5 -27.999c0 -20 -11.667 -30 -35 -30
h-68zM247 400.999c-50 0 -78 -43.667 -84 -131l90 1h63c13.333 0 20 5.33301 20 16c0 72.667 -29.667 110.667 -89 114zM343 535.999l-89.998 71l-90 -71c-6.66699 -4.66699 -11.667 -7 -15 -7c-2.66699 0 -6.33398 2.16699 -11.001 6.5s-7 7.83301 -7 10.5
c0 3.33301 1.33301 6.66602 4 9.99902l89 126c11.333 16 21.333 24 30 24s18.667 -8 30 -24l89 -126c2.66699 -3.33301 4 -6.66602 4 -9.99902c0 -2.66699 -2.33301 -6.16699 -7 -10.5s-8.33398 -6.5 -11.001 -6.5c-3.33301 0 -8.33301 2.33301 -15 7z" />
    <glyph glyph-name="edieresis" unicode="&#xeb;" horiz-adv-x="507" 
d="M160 235c-0.666992 -4.66699 -1 -9.33496 -1 -14.002c0 -48 13 -88.333 39 -121s58 -49 96 -49c24.667 0 49.834 6.66699 75.501 20s46.834 31.333 63.501 54c3.33301 3.33301 6 5 8 5c8.66699 0 13 -3 13 -9s-2 -12.667 -6 -20c-22 -36 -51.5 -65.333 -88.5 -88
s-76.833 -34 -119.5 -34c-52.667 0 -98.834 21.833 -138.501 65.5s-59.5 94.167 -59.5 151.5c0 64.667 20.667 119.334 62 164.001s91.666 67 150.999 67c44 0 83.333 -12.167 118 -36.5s59 -56.5 73 -96.5c3.33301 -9.33301 5 -18.666 5 -27.999c0 -20 -11.667 -30 -35 -30
h-68zM247 400.999c-50 0 -78 -43.667 -84 -131l90 1h63c13.333 0 20 5.33301 20 16c0 72.667 -29.667 110.667 -89 114zM70 626.999c0 18 6.16699 33.333 18.5 46s27.5 19 45.5 19s33.333 -6.33301 46 -19s19 -28 19 -46s-6.33301 -33.167 -19 -45.5s-28 -18.5 -46 -18.5
s-33.167 6.16699 -45.5 18.5s-18.5 27.5 -18.5 45.5zM290 626.999c0 18 6.16699 33.333 18.5 46s27.5 19 45.5 19s33.333 -6.33301 46 -19s19 -28 19 -46s-6.33301 -33.167 -19 -45.5s-28 -18.5 -46 -18.5s-33.167 6.16699 -45.5 18.5s-18.5 27.5 -18.5 45.5z" />
    <glyph glyph-name="igrave" unicode="&#xec;" horiz-adv-x="311" 
d="M211 412l-0.00292969 -314c0 -42 15 -63 45 -63h13c3.33301 0 5 -1.66699 5 -5v-26c0 -2.66699 -1.66699 -4 -5 -4h-226c-3.33301 -0 -5 1.33301 -5 4v26c0 3.33301 1.66699 5 5 5h13c30 0 45 21 45 63v172c0 27.333 -3.16699 46 -9.5 56s-19.166 16.667 -38.499 20
c-3.33301 1.33301 -5 3 -5 5v16c0 3.33301 1.66699 5.33301 5 6c49.333 14.667 93.333 30 132 46c0.666992 0 2.33398 0.666992 5.00098 2s5.33398 2.5 8.00098 3.5s4.66699 1.5 6 1.5c4.66699 0 7 -4.66699 7 -14zM138.997 533l-110.999 86.001c-16 16 -24 29.667 -24 41
c0 10.667 4.33301 20.5 13 29.5s19 13.5 31 13.5c13.333 0 27 -8.33301 41 -25l76 -122c4 -6.66699 6 -11.334 6 -14.001c0 -3.33301 -2 -6.83301 -6 -10.5s-8 -5.5 -12 -5.5c-4.66699 0 -9.33398 2.33301 -14.001 7z" />
    <glyph glyph-name="iacute" unicode="&#xed;" horiz-adv-x="311" 
d="M211 412l-0.00292969 -314c0 -42 15 -63 45 -63h13c3.33301 0 5 -1.66699 5 -5v-26c0 -2.66699 -1.66699 -4 -5 -4h-226c-3.33301 -0 -5 1.33301 -5 4v26c0 3.33301 1.66699 5 5 5h13c30 0 45 21 45 63v172c0 27.333 -3.16699 46 -9.5 56s-19.166 16.667 -38.499 20
c-3.33301 1.33301 -5 3 -5 5v16c0 3.33301 1.66699 5.33301 5 6c49.333 14.667 93.333 30 132 46c0.666992 0 2.33398 0.666992 5.00098 2s5.33398 2.5 8.00098 3.5s4.66699 1.5 6 1.5c4.66699 0 7 -4.66699 7 -14zM247.997 619l-110.999 -86.001
c-4.66699 -4.66699 -9.33398 -7 -14.001 -7c-4 0 -8 1.83301 -12 5.5s-6 7.16699 -6 10.5c0 2.66699 2 7.33398 6 14.001l76 122c14 16.667 27.667 25 41 25c12 0 22.333 -4.5 31 -13.5s13 -18.833 13 -29.5c0 -11.333 -8 -25 -24 -41z" />
    <glyph glyph-name="icircumflex" unicode="&#xee;" horiz-adv-x="311" 
d="M211 412l-0.00292969 -314c0 -42 15 -63 45 -63h13c3.33301 0 5 -1.66699 5 -5v-26c0 -2.66699 -1.66699 -4 -5 -4h-226c-3.33301 -0 -5 1.33301 -5 4v26c0 3.33301 1.66699 5 5 5h13c30 0 45 21 45 63v172c0 27.333 -3.16699 46 -9.5 56s-19.166 16.667 -38.499 20
c-3.33301 1.33301 -5 3 -5 5v16c0 3.33301 1.66699 5.33301 5 6c49.333 14.667 93.333 30 132 46c0.666992 0 2.33398 0.666992 5.00098 2s5.33398 2.5 8.00098 3.5s4.66699 1.5 6 1.5c4.66699 0 7 -4.66699 7 -14zM235.997 536l-89.998 71l-90 -71
c-6.66699 -4.66699 -11.667 -7 -15 -7c-2.66699 0 -6.33398 2.16699 -11.001 6.5s-7 7.83301 -7 10.5c0 3.33301 1.33301 6.66602 4 9.99902l89 126c11.333 16 21.333 24 30 24s18.667 -8 30 -24l89 -126c2.66699 -3.33301 4 -6.66602 4 -9.99902
c0 -2.66699 -2.33301 -6.16699 -7 -10.5s-8.33398 -6.5 -11.001 -6.5c-3.33301 0 -8.33301 2.33301 -15 7z" />
    <glyph glyph-name="idieresis" unicode="&#xef;" horiz-adv-x="311" 
d="M-17 627c0 18 6.16699 33.333 18.5 46s27.5 19 45.5 19s33.333 -6.33301 46 -19s19 -28 19 -46s-6.33301 -33.167 -19 -45.5s-28 -18.5 -46 -18.5s-33.167 6.16699 -45.5 18.5s-18.5 27.5 -18.5 45.5zM183 627c0 18 6.16699 33.333 18.5 46s27.5 19 45.5 19
s33.333 -6.33301 46 -19s19 -28 19 -46s-6.33301 -33.167 -19 -45.5s-28 -18.5 -46 -18.5s-33.167 6.16699 -45.5 18.5s-18.5 27.5 -18.5 45.5zM211 412l-0.00292969 -314c0 -42 15 -63 45 -63h13c3.33301 0 5 -1.66699 5 -5v-26c0 -2.66699 -1.66699 -4 -5 -4h-226
c-3.33301 -0 -5 1.33301 -5 4v26c0 3.33301 1.66699 5 5 5h13c30 0 45 21 45 63v172c0 27.333 -3.16699 46 -9.5 56s-19.166 16.667 -38.499 20c-3.33301 1.33301 -5 3 -5 5v16c0 3.33301 1.66699 5.33301 5 6c49.333 14.667 93.333 30 132 46
c0.666992 0 2.33398 0.666992 5.00098 2s5.33398 2.5 8.00098 3.5s4.66699 1.5 6 1.5c4.66699 0 7 -4.66699 7 -14z" />
    <glyph glyph-name="eth" unicode="&#xf0;" horiz-adv-x="570" 
d="M499 646l-121.001 -54.999c102 -95.333 153 -206.333 153 -333c0 -92 -22 -161.833 -66 -209.5s-103.667 -71.5 -179 -71.5c-68 0 -125.167 21 -171.5 63s-69.5 94.333 -69.5 157c0 68.667 22.833 125.5 68.5 170.5s103.5 67.5 173.5 67.5c44 0 79 -7.33301 105 -22
c-21.333 58 -48 107.333 -80 148l-128 -58c-3.33301 -2 -5.33301 -1.66699 -6 1l-15 33c-1.33301 3.33301 -0.666016 5.33301 2.00098 6l116 53c-38.667 39.333 -86 73.333 -142 102c-8.66699 4.66699 -13 9 -13 13c0 9.33301 4 14 12 14c0.666992 0 9 -2.66699 25 -8
c62.667 -20 121.667 -51.333 177 -94l140 63c2.66699 2 5 1.33301 7 -2l15 -33c0.666992 -2.66699 -0.333008 -4.33398 -3 -5.00098zM282.999 409.001c-39.333 0 -67.6689 -16.333 -85.002 -49s-26 -86 -26 -160c0 -71.333 8.5 -122 25.5 -152s45.833 -45 86.5 -45
c21.333 0 39.333 4.5 54 13.5s25.834 19.833 33.501 32.5s13.667 29.667 18 51s6.83301 39.833 7.5 55.5s1 35.5 1 59.5c0 51.333 -4 90.333 -12 117c-7.33301 22 -20.666 40.333 -39.999 55s-40.333 22 -63 22z" />
    <glyph glyph-name="ntilde" unicode="&#xf1;" horiz-adv-x="569" 
d="M346 426c40 0 72.9961 -10.667 98.9961 -32s39 -49 39 -83v-213c0 -42 15 -63 45 -63h13c3.33301 0 5 -1.66699 5 -5v-26c0 -2.66699 -1.66699 -4 -5 -4h-226c-3.33301 -0 -5 1.33301 -5 4v26c0 3.33301 1.66699 5 5 5h13c30 0 45 21 45 63v215
c0 21.333 -7 39.333 -21 54s-31 22 -51 22c-18.667 0 -35.5 -5.83301 -50.5 -17.5s-31.167 -31.167 -48.5 -58.5v-215c0 -42 15 -63 45 -63h13c3.33301 0 5 -1.66699 5 -5v-26c0 -2.66699 -1.66699 -4 -5 -4h-226c-3.33301 -0 -5 1.33301 -5 4v26c0 3.33301 1.66699 5 5 5
h13c30 0 45 21 45 63v173c0 27.333 -3.16699 46 -9.5 56s-19.166 16.667 -38.499 20c-3.33301 1.33301 -5 3 -5 5v16c0 3.33301 1.66699 5.33301 5 6c46.667 14 90.334 29.333 131.001 46c0.666992 0 2.33398 0.666992 5.00098 2s5.33398 2.5 8.00098 3.5s4.66699 1.5 6 1.5
c4.66699 0 7 -4.66699 7 -14v-55c36.667 45.333 84.667 68 144 68zM434.996 679c0 -27.333 -8.66504 -51.167 -25.998 -71.5s-39 -30.5 -65 -30.5c-17.333 0 -40.5 7.5 -69.5 22.5s-48.833 22.5 -59.5 22.5c-20.667 0 -36.334 -10 -47.001 -30
c-6.66699 -11.333 -12.667 -17 -18 -17c-6 0 -10 1 -12 3s-3 7 -3 15c0 23.333 8.66699 45.833 26 67.5s38.666 32.5 63.999 32.5c17.333 0 40.5 -7.5 69.5 -22.5s48.833 -22.5 59.5 -22.5c24 0 40 10.667 48 32c6.66699 11.333 12.667 17 18 17c6 0 10 -1 12 -3s3 -7 3 -15
z" />
    <glyph glyph-name="ograve" unicode="&#xf2;" horiz-adv-x="570" 
d="M45 197c0 68.667 22.833 125.5 68.5 170.5s103.5 67.5 173.5 67.5c64.667 0 120.5 -21.667 167.5 -65s70.5 -99 70.5 -167c0 -67.333 -22 -121.833 -66 -163.5s-101.667 -62.5 -173 -62.5c-68 0 -125.167 21 -171.5 63s-69.5 94.333 -69.5 157zM283 409
c-39.333 0 -67.6689 -16.333 -85.002 -49s-26 -86 -26 -160c0 -71.333 8.5 -122 25.5 -152s45.833 -45 86.5 -45c21.333 0 39.333 4.5 54 13.5s25.834 19.833 33.501 32.5s13.667 29.667 18 51s6.83301 39.833 7.5 55.5s1 35.5 1 59.5c0 51.333 -4 90.333 -12 117
c-7.33301 22 -20.666 40.333 -39.999 55s-40.333 22 -63 22zM293.997 533l-110.999 86.001c-16 16 -24 29.667 -24 41c0 10.667 4.33301 20.5 13 29.5s19 13.5 31 13.5c13.333 0 27 -8.33301 41 -25l76 -122c4 -6.66699 6 -11.334 6 -14.001
c0 -3.33301 -2 -6.83301 -6 -10.5s-8 -5.5 -12 -5.5c-4.66699 0 -9.33398 2.33301 -14.001 7z" />
    <glyph glyph-name="oacute" unicode="&#xf3;" horiz-adv-x="570" 
d="M45 197c0 68.667 22.833 125.5 68.5 170.5s103.5 67.5 173.5 67.5c64.667 0 120.5 -21.667 167.5 -65s70.5 -99 70.5 -167c0 -67.333 -22 -121.833 -66 -163.5s-101.667 -62.5 -173 -62.5c-68 0 -125.167 21 -171.5 63s-69.5 94.333 -69.5 157zM283 409
c-39.333 0 -67.6689 -16.333 -85.002 -49s-26 -86 -26 -160c0 -71.333 8.5 -122 25.5 -152s45.833 -45 86.5 -45c21.333 0 39.333 4.5 54 13.5s25.834 19.833 33.501 32.5s13.667 29.667 18 51s6.83301 39.833 7.5 55.5s1 35.5 1 59.5c0 51.333 -4 90.333 -12 117
c-7.33301 22 -20.666 40.333 -39.999 55s-40.333 22 -63 22zM387.997 619l-110.999 -86.001c-4.66699 -4.66699 -9.33398 -7 -14.001 -7c-4 0 -8 1.83301 -12 5.5s-6 7.16699 -6 10.5c0 2.66699 2 7.33398 6 14.001l76 122c14 16.667 27.667 25 41 25
c12 0 22.333 -4.5 31 -13.5s13 -18.833 13 -29.5c0 -11.333 -8 -25 -24 -41z" />
    <glyph glyph-name="ocircumflex" unicode="&#xf4;" horiz-adv-x="570" 
d="M45 197c0 68.667 22.833 125.5 68.5 170.5s103.5 67.5 173.5 67.5c64.667 0 120.5 -21.667 167.5 -65s70.5 -99 70.5 -167c0 -67.333 -22 -121.833 -66 -163.5s-101.667 -62.5 -173 -62.5c-68 0 -125.167 21 -171.5 63s-69.5 94.333 -69.5 157zM283 409
c-39.333 0 -67.6689 -16.333 -85.002 -49s-26 -86 -26 -160c0 -71.333 8.5 -122 25.5 -152s45.833 -45 86.5 -45c21.333 0 39.333 4.5 54 13.5s25.834 19.833 33.501 32.5s13.667 29.667 18 51s6.83301 39.833 7.5 55.5s1 35.5 1 59.5c0 51.333 -4 90.333 -12 117
c-7.33301 22 -20.666 40.333 -39.999 55s-40.333 22 -63 22zM374.997 536l-89.998 71l-90 -71c-6.66699 -4.66699 -11.667 -7 -15 -7c-2.66699 0 -6.33398 2.16699 -11.001 6.5s-7 7.83301 -7 10.5c0 3.33301 1.33301 6.66602 4 9.99902l89 126c11.333 16 21.333 24 30 24
s18.667 -8 30 -24l89 -126c2.66699 -3.33301 4 -6.66602 4 -9.99902c0 -2.66699 -2.33301 -6.16699 -7 -10.5s-8.33398 -6.5 -11.001 -6.5c-3.33301 0 -8.33301 2.33301 -15 7z" />
    <glyph glyph-name="otilde" unicode="&#xf5;" horiz-adv-x="570" 
d="M45 197c0 68.667 22.833 125.5 68.5 170.5s103.5 67.5 173.5 67.5c64.667 0 120.5 -21.667 167.5 -65s70.5 -99 70.5 -167c0 -67.333 -22 -121.833 -66 -163.5s-101.667 -62.5 -173 -62.5c-68 0 -125.167 21 -171.5 63s-69.5 94.333 -69.5 157zM283 409
c-39.333 0 -67.6689 -16.333 -85.002 -49s-26 -86 -26 -160c0 -71.333 8.5 -122 25.5 -152s45.833 -45 86.5 -45c21.333 0 39.333 4.5 54 13.5s25.834 19.833 33.501 32.5s13.667 29.667 18 51s6.83301 39.833 7.5 55.5s1 35.5 1 59.5c0 51.333 -4 90.333 -12 117
c-7.33301 22 -20.666 40.333 -39.999 55s-40.333 22 -63 22zM434.997 679c0 -27.333 -8.66504 -51.167 -25.998 -71.5s-39 -30.5 -65 -30.5c-17.333 0 -40.5 7.5 -69.5 22.5s-48.833 22.5 -59.5 22.5c-20.667 0 -36.334 -10 -47.001 -30
c-6.66699 -11.333 -12.667 -17 -18 -17c-6 0 -10 1 -12 3s-3 7 -3 15c0 23.333 8.66699 45.833 26 67.5s38.666 32.5 63.999 32.5c17.333 0 40.5 -7.5 69.5 -22.5s48.833 -22.5 59.5 -22.5c24 0 40 10.667 48 32c6.66699 11.333 12.667 17 18 17c6 0 10 -1 12 -3s3 -7 3 -15
z" />
    <glyph glyph-name="odieresis" unicode="&#xf6;" horiz-adv-x="570" 
d="M45 197c0 68.667 22.833 125.5 68.5 170.5s103.5 67.5 173.5 67.5c64.667 0 120.5 -21.667 167.5 -65s70.5 -99 70.5 -167c0 -67.333 -22 -121.833 -66 -163.5s-101.667 -62.5 -173 -62.5c-68 0 -125.167 21 -171.5 63s-69.5 94.333 -69.5 157zM283 409
c-39.333 0 -67.6689 -16.333 -85.002 -49s-26 -86 -26 -160c0 -71.333 8.5 -122 25.5 -152s45.833 -45 86.5 -45c21.333 0 39.333 4.5 54 13.5s25.834 19.833 33.501 32.5s13.667 29.667 18 51s6.83301 39.833 7.5 55.5s1 35.5 1 59.5c0 51.333 -4 90.333 -12 117
c-7.33301 22 -20.666 40.333 -39.999 55s-40.333 22 -63 22zM109.997 627c0 18 6.16699 33.333 18.5 46s27.5 19 45.5 19s33.333 -6.33301 46 -19s19 -28 19 -46s-6.33301 -33.167 -19 -45.5s-28 -18.5 -46 -18.5s-33.167 6.16699 -45.5 18.5s-18.5 27.5 -18.5 45.5z
M329.997 627c0 18 6.16699 33.333 18.5 46s27.5 19 45.5 19s33.333 -6.33301 46 -19s19 -28 19 -46s-6.33301 -33.167 -19 -45.5s-28 -18.5 -46 -18.5s-33.167 6.16699 -45.5 18.5s-18.5 27.5 -18.5 45.5z" />
    <glyph glyph-name="divide" unicode="&#xf7;" 
d="M35 306v59h431v-59h-431zM197 179c0 20 7 37 21 51s31 21 51 21s37 -7 51 -21s21 -31 21 -51s-7 -37 -21 -51s-31 -21 -51 -21s-37 7 -51 21s-21 31 -21 51zM197 499c0 20 7 37 21 51s31 21 51 21s37 -7 51 -21s21 -31 21 -51s-7 -37 -21 -51s-31 -21 -51 -21
s-37 7 -51 21s-21 31 -21 51z" />
    <glyph glyph-name="oslash" unicode="&#xf8;" horiz-adv-x="570" 
d="M48 197c0 68.667 22.833 125.499 68.5 170.499s103.5 67.5 173.5 67.5c58.667 0 109.667 -17.667 153 -53l68 64c2 2 4.33301 2.33301 7 1l21 -23c2.66699 -2.66699 2.66699 -5 0 -7l-67 -63c37.333 -42.667 56 -93 56 -151c0 -67.333 -22 -121.833 -66 -163.5
s-101.667 -62.5 -173 -62.5c-60.667 0 -113.667 17.333 -159 52l-66 -63c-2 -2 -4.33301 -2.33301 -7 -1l-21 23c-2 2.66699 -2 5 0 7l65 62c-35.333 38.667 -53 85.334 -53 140.001zM401 214.999c0 27.333 -1.00098 50 -3.00098 68l-212 -201
c15.333 -52.667 49 -79 101 -79c21.333 0 39.333 4.5 54 13.5s25.834 19.833 33.501 32.5s13.667 29.667 18 51s6.83301 39.833 7.5 55.5s1 35.5 1 59.5zM285.999 408.999c-39.333 0 -67.668 -16.334 -85.001 -49.001s-26 -86 -26 -160c0 -25.333 1 -48.666 3 -69.999
l211 200v2c-7.33301 22 -20.666 40.333 -39.999 55s-40.333 22 -63 22z" />
    <glyph glyph-name="ugrave" unicode="&#xf9;" horiz-adv-x="590" 
d="M238 -11c-40 0 -72.999 10.667 -98.999 32s-39 49 -39 83v213c0 42 -15 63 -45 63h-13c-3.33301 0 -5 1.66699 -5 5v26c0 2.66699 1.66699 4 5 4h163c3.33301 0 5 -1.33301 5 -4v-309c0 -21.333 7 -39.333 21 -54s31 -22 51 -22c18.667 0 35.5 5.83301 50.5 17.5
s31.167 31.167 48.5 58.5v215c0 42 -15 63 -45 63h-13c-3.33301 0 -5 1.66699 -5 5v26c0 2.66699 1.66699 4 5 4h163c3.33301 0 5 -1.33301 5 -4v-292c0 -27.333 3.16699 -46 9.5 -56s19.166 -16.667 38.499 -20c3.33301 -1.33301 5 -3 5 -5v-16
c0 -3.33301 -1.66699 -5.33301 -5 -6c-74.667 -11.333 -120 -20 -136 -26c-4 -1.33301 -8.66699 -2 -14 -2c-4.66699 0 -7 4.66699 -7 14v55c-36.667 -45.333 -84.667 -68 -144 -68zM272.001 533l-110.999 86.001c-16 16 -24 29.667 -24 41c0 10.667 4.33301 20.5 13 29.5
s19 13.5 31 13.5c13.333 0 27 -8.33301 41 -25l76 -122c4 -6.66699 6 -11.334 6 -14.001c0 -3.33301 -2 -6.83301 -6 -10.5s-8 -5.5 -12 -5.5c-4.66699 0 -9.33398 2.33301 -14.001 7z" />
    <glyph glyph-name="uacute" unicode="&#xfa;" horiz-adv-x="590" 
d="M238 -11c-40 0 -72.999 10.667 -98.999 32s-39 49 -39 83v213c0 42 -15 63 -45 63h-13c-3.33301 0 -5 1.66699 -5 5v26c0 2.66699 1.66699 4 5 4h163c3.33301 0 5 -1.33301 5 -4v-309c0 -21.333 7 -39.333 21 -54s31 -22 51 -22c18.667 0 35.5 5.83301 50.5 17.5
s31.167 31.167 48.5 58.5v215c0 42 -15 63 -45 63h-13c-3.33301 0 -5 1.66699 -5 5v26c0 2.66699 1.66699 4 5 4h163c3.33301 0 5 -1.33301 5 -4v-292c0 -27.333 3.16699 -46 9.5 -56s19.166 -16.667 38.499 -20c3.33301 -1.33301 5 -3 5 -5v-16
c0 -3.33301 -1.66699 -5.33301 -5 -6c-74.667 -11.333 -120 -20 -136 -26c-4 -1.33301 -8.66699 -2 -14 -2c-4.66699 0 -7 4.66699 -7 14v55c-36.667 -45.333 -84.667 -68 -144 -68zM378.001 619l-110.999 -86.001c-4.66699 -4.66699 -9.33398 -7 -14.001 -7
c-4 0 -8 1.83301 -12 5.5s-6 7.16699 -6 10.5c0 2.66699 2 7.33398 6 14.001l76 122c14 16.667 27.667 25 41 25c12 0 22.333 -4.5 31 -13.5s13 -18.833 13 -29.5c0 -11.333 -8 -25 -24 -41z" />
    <glyph glyph-name="ucircumflex" unicode="&#xfb;" horiz-adv-x="590" 
d="M238 -11c-40 0 -72.999 10.667 -98.999 32s-39 49 -39 83v213c0 42 -15 63 -45 63h-13c-3.33301 0 -5 1.66699 -5 5v26c0 2.66699 1.66699 4 5 4h163c3.33301 0 5 -1.33301 5 -4v-309c0 -21.333 7 -39.333 21 -54s31 -22 51 -22c18.667 0 35.5 5.83301 50.5 17.5
s31.167 31.167 48.5 58.5v215c0 42 -15 63 -45 63h-13c-3.33301 0 -5 1.66699 -5 5v26c0 2.66699 1.66699 4 5 4h163c3.33301 0 5 -1.33301 5 -4v-292c0 -27.333 3.16699 -46 9.5 -56s19.166 -16.667 38.499 -20c3.33301 -1.33301 5 -3 5 -5v-16
c0 -3.33301 -1.66699 -5.33301 -5 -6c-74.667 -11.333 -120 -20 -136 -26c-4 -1.33301 -8.66699 -2 -14 -2c-4.66699 0 -7 4.66699 -7 14v55c-36.667 -45.333 -84.667 -68 -144 -68zM369.001 536l-89.998 71l-90 -71c-6.66699 -4.66699 -11.667 -7 -15 -7
c-2.66699 0 -6.33398 2.16699 -11.001 6.5s-7 7.83301 -7 10.5c0 3.33301 1.33301 6.66602 4 9.99902l89 126c11.333 16 21.333 24 30 24s18.667 -8 30 -24l89 -126c2.66699 -3.33301 4 -6.66602 4 -9.99902c0 -2.66699 -2.33301 -6.16699 -7 -10.5
s-8.33398 -6.5 -11.001 -6.5c-3.33301 0 -8.33301 2.33301 -15 7z" />
    <glyph glyph-name="udieresis" unicode="&#xfc;" horiz-adv-x="590" 
d="M238 -11c-40 0 -72.999 10.667 -98.999 32s-39 49 -39 83v213c0 42 -15 63 -45 63h-13c-3.33301 0 -5 1.66699 -5 5v26c0 2.66699 1.66699 4 5 4h163c3.33301 0 5 -1.33301 5 -4v-309c0 -21.333 7 -39.333 21 -54s31 -22 51 -22c18.667 0 35.5 5.83301 50.5 17.5
s31.167 31.167 48.5 58.5v215c0 42 -15 63 -45 63h-13c-3.33301 0 -5 1.66699 -5 5v26c0 2.66699 1.66699 4 5 4h163c3.33301 0 5 -1.33301 5 -4v-292c0 -27.333 3.16699 -46 9.5 -56s19.166 -16.667 38.499 -20c3.33301 -1.33301 5 -3 5 -5v-16
c0 -3.33301 -1.66699 -5.33301 -5 -6c-74.667 -11.333 -120 -20 -136 -26c-4 -1.33301 -8.66699 -2 -14 -2c-4.66699 0 -7 4.66699 -7 14v55c-36.667 -45.333 -84.667 -68 -144 -68zM101.001 627c0 18 6.16699 33.333 18.5 46s27.5 19 45.5 19s33.333 -6.33301 46 -19
s19 -28 19 -46s-6.33301 -33.167 -19 -45.5s-28 -18.5 -46 -18.5s-33.167 6.16699 -45.5 18.5s-18.5 27.5 -18.5 45.5zM321.001 627c0 18 6.16699 33.333 18.5 46s27.5 19 45.5 19s33.333 -6.33301 46 -19s19 -28 19 -46s-6.33301 -33.167 -19 -45.5s-28 -18.5 -46 -18.5
s-33.167 6.16699 -45.5 18.5s-18.5 27.5 -18.5 45.5z" />
    <glyph glyph-name="yacute" unicode="&#xfd;" horiz-adv-x="569" 
d="M261 -18l-150 352.998c-6.66699 16.667 -14 28.334 -22 35.001s-19.667 10 -35 10h-13c-3.33301 0 -5 1.66699 -5 5v26c0 2.66699 1.66699 4 5 4h234c3.33301 0 5 -1.33301 5 -4v-26c0 -3.33301 -1.66699 -5 -5 -5h-13c-25.333 0 -38 -6.33301 -38 -19
c0 -7.33301 2.66699 -16 8 -26l92 -209l90 195c4 9.33301 6 19.333 6 30c0 16.667 -11.667 26.334 -35 29.001h-13c-3.33301 0 -5 1.66699 -5 5v26c0 2.66699 1.66699 4 5 4h162c3.33301 0 5 -1.33301 5 -4v-26c0 -3.33301 -1.66699 -5 -5 -5h-13
c-32 -1.33301 -59 -26.333 -81 -75l-196 -430c-16 -36 -32 -61.667 -48 -77s-34.667 -23 -56 -23c-16 0 -29 4.5 -39 13.5s-15 20.5 -15 34.5c0 39.333 28 59 84 59h10c24 0 41 12.333 51 37zM428 618.998l-110.999 -86.001c-4.66699 -4.66699 -9.33398 -7 -14.001 -7
c-4 0 -8 1.83301 -12 5.5s-6 7.16699 -6 10.5c0 2.66699 2 7.33398 6 14.001l76 122c14 16.667 27.667 25 41 25c12 0 22.333 -4.5 31 -13.5s13 -18.833 13 -29.5c0 -11.333 -8 -25 -24 -41z" />
    <glyph glyph-name="thorn" unicode="&#xfe;" horiz-adv-x="569" 
d="M205 682l-0.00195312 -309c39.333 36 85 54 137 54c49.333 0 91.666 -20.5 126.999 -61.5s53 -89.833 53 -146.5c0 -65.333 -20.667 -121.5 -62 -168.5s-90.666 -70.5 -147.999 -70.5c-28 0 -63.667 8 -107 24v-121c0 -42 15 -63 45 -63h13c3.33301 0 5 -1.66699 5 -5
v-26c0 -2.66699 -1.66699 -4 -5 -4h-226c-3.33301 0 -5 1.33301 -5 4v26c0 3.33301 1.66699 5 5 5h13c30 0 45 21 45 63v682c0 6.66699 -0.166992 12.5 -0.5 17.5s-0.666016 9.33301 -0.999023 13s-1.5 6.66699 -3.5 9s-3.33301 4.33301 -4 6s-3 3 -7 4l-8 2
c-1.33301 0.333008 -5 1 -11 2s-10.333 1.83301 -13 2.5c-3.33301 1.33301 -5 3 -5 5v16c0 3.33301 1.66699 5.33301 5 6c30.667 8 76.334 23.333 137.001 46c4 1.33301 8.66699 2 14 2c4.66699 0 7 -4.66699 7 -14zM204.998 333l0.000976562 -230.002
c0 -27.333 10 -50.166 30 -68.499s44.333 -27.5 73 -27.5c31.333 0 57.166 15.333 77.499 46s30.5 70.334 30.5 119.001c0 56.667 -12.833 103.5 -38.5 140.5s-58.167 55.5 -97.5 55.5c-19.333 0 -44.333 -11.667 -75 -35z" />
    <glyph glyph-name="ydieresis" unicode="&#xff;" horiz-adv-x="569" 
d="M261 -18l-150 352.998c-6.66699 16.667 -14 28.334 -22 35.001s-19.667 10 -35 10h-13c-3.33301 0 -5 1.66699 -5 5v26c0 2.66699 1.66699 4 5 4h234c3.33301 0 5 -1.33301 5 -4v-26c0 -3.33301 -1.66699 -5 -5 -5h-13c-25.333 0 -38 -6.33301 -38 -19
c0 -7.33301 2.66699 -16 8 -26l92 -209l90 195c4 9.33301 6 19.333 6 30c0 16.667 -11.667 26.334 -35 29.001h-13c-3.33301 0 -5 1.66699 -5 5v26c0 2.66699 1.66699 4 5 4h162c3.33301 0 5 -1.33301 5 -4v-26c0 -3.33301 -1.66699 -5 -5 -5h-13
c-32 -1.33301 -59 -26.333 -81 -75l-196 -430c-16 -36 -32 -61.667 -48 -77s-34.667 -23 -56 -23c-16 0 -29 4.5 -39 13.5s-15 20.5 -15 34.5c0 39.333 28 59 84 59h10c24 0 41 12.333 51 37zM125 626.998c0 18 6.16699 33.333 18.5 46s27.5 19 45.5 19
s33.333 -6.33301 46 -19s19 -28 19 -46s-6.33301 -33.167 -19 -45.5s-28 -18.5 -46 -18.5s-33.167 6.16699 -45.5 18.5s-18.5 27.5 -18.5 45.5zM345 626.998c0 18 6.16699 33.333 18.5 46s27.5 19 45.5 19s33.333 -6.33301 46 -19s19 -28 19 -46s-6.33301 -33.167 -19 -45.5
s-28 -18.5 -46 -18.5s-33.167 6.16699 -45.5 18.5s-18.5 27.5 -18.5 45.5z" />
    <glyph glyph-name="Amacron" unicode="&#x100;" horiz-adv-x="884" 
d="M452 702l285.999 -605.001c19.333 -41.333 50.333 -62 93 -62h13c3.33301 0 5 -1.66699 5 -5v-26c0 -2.66699 -1.66699 -4 -5 -4h-337c-3.33301 0 -5 1.33301 -5 4v26c0 3.33301 1.66699 5 5 5h13c42.667 0 64 14.667 64 44c0 10 -2 18.667 -6 26l-38 77h-297l-31 -72
l-18 -42c0 -10.667 3.66699 -18.834 11 -24.501s22.333 -8.5 45 -8.5h13c3.33301 0 5 -1.66699 5 -5v-26c0 -2.66699 -1.66699 -4 -5 -4h-223c-3.33301 0 -5 1.33301 -5 4v26c0 3.33301 1.66699 5 5 5h13c31.333 1.33301 54.333 7 69 17s28.334 29.667 41.001 59l202 453
l-17 35c0 0.666992 -0.5 1.83398 -1.5 3.50098s-1.5 2.83398 -1.5 3.50098c0 4 1.5 7.33301 4.5 10l31.5 28c23.333 19.333 39 38 47 56c3.33301 8 8.66602 12 15.999 12c2.66699 0 5.33398 -3.33301 8.00098 -10zM383.999 501.999l-122 -278h258zM295.999 768.999l5 48
c2 9.33301 7.33301 14 16 14h262c8 0 12 -4 12 -12l-4 -46c-1.33301 -8.66699 -9 -13 -23 -13h-259c-6 0 -9 3 -9 9z" />
    <glyph glyph-name="amacron" unicode="&#x101;" horiz-adv-x="507" 
d="M295 274c0.666992 10 1.16699 19.5029 1.5 28.5029s0.666016 15 0.999023 18s0.5 5.16699 0.5 6.5c0 17.333 -7.5 32.666 -22.5 45.999s-32.167 20 -51.5 20c-25.333 0 -45.166 -5.83301 -59.499 -17.5s-21.5 -27.834 -21.5 -48.501v-10c2.66699 -21.333 4 -34.333 4 -39
c0 -11.333 -5 -21.666 -15 -30.999s-21.667 -14 -35 -14c-14.667 0 -28 6.16699 -40 18.5s-18 26.166 -18 41.499c0 34.667 23.333 65.667 70 93s98.667 41 156 41c50.667 0 87.334 -10 110.001 -30s34 -52 34 -96c0 -24 -1.83301 -61.833 -5.5 -113.5
s-5.5 -86.834 -5.5 -105.501c0 -28 8 -42 24 -42c10 0 17.667 5 23 15c6 10.667 11.667 16 17 16c10.667 0 16 -6 16 -18c0 -16.667 -8.5 -31 -25.5 -43s-37.167 -18 -60.5 -18c-22.667 0 -41.667 3.5 -57 10.5s-31 19.5 -47 37.5c-52.667 -32 -98.334 -48 -137.001 -48
c-30 0 -54.5 10.667 -73.5 32s-28.5 49.333 -28.5 84c0 38.667 34 73 102 103zM293 237.003c-44.667 -14 -79.833 -32.835 -105.5 -56.502s-38.5 -49.5 -38.5 -77.5c0.666992 -17.333 7.5 -32.166 20.5 -44.499s28.167 -18.5 45.5 -18.5c12.667 0 25.834 5.33301 39.501 16
s24.5 22.334 32.5 35.001c1.33301 4 2.66602 11.333 3.99902 22c0 22.667 0.666992 64 2 124zM101.001 609.001l5 48c2 9.33301 7.33301 14 16 14h242c8 0 12 -4 12 -12l-4 -46c-1.33301 -8.66699 -9 -13 -23 -13h-239c-6 0 -9 3 -9 9z" />
    <glyph glyph-name="Abreve" unicode="&#x102;" horiz-adv-x="884" 
d="M452 702l285.999 -605.001c19.333 -41.333 50.333 -62 93 -62h13c3.33301 0 5 -1.66699 5 -5v-26c0 -2.66699 -1.66699 -4 -5 -4h-337c-3.33301 0 -5 1.33301 -5 4v26c0 3.33301 1.66699 5 5 5h13c42.667 0 64 14.667 64 44c0 10 -2 18.667 -6 26l-38 77h-297l-31 -72
l-18 -42c0 -10.667 3.66699 -18.834 11 -24.501s22.333 -8.5 45 -8.5h13c3.33301 0 5 -1.66699 5 -5v-26c0 -2.66699 -1.66699 -4 -5 -4h-223c-3.33301 0 -5 1.33301 -5 4v26c0 3.33301 1.66699 5 5 5h13c31.333 1.33301 54.333 7 69 17s28.334 29.667 41.001 59l202 453
l-17 35c0 0.666992 -0.5 1.83398 -1.5 3.50098s-1.5 2.83398 -1.5 3.50098c0 4 1.5 7.33301 4.5 10l31.5 28c23.333 19.333 39 38 47 56c3.33301 8 8.66602 12 15.999 12c2.66699 0 5.33398 -3.33301 8.00098 -10zM383.999 501.999l-122 -278h258zM412.999 739.999
c-38.667 0 -69.167 10.5 -91.5 31.5s-33.5 48.167 -33.5 81.5c0 11.333 5.33301 17 16 17c4.66699 0 8.33398 -2 11.001 -6l4 -7c15.333 -28 46.666 -42 93.999 -42s78.666 14 93.999 42l4 7c2.66699 4 6.33398 6 11.001 6c10.667 0 16 -5.66699 16 -17
c0 -33.333 -11.167 -60.5 -33.5 -81.5s-52.833 -31.5 -91.5 -31.5z" />
    <glyph glyph-name="abreve" unicode="&#x103;" horiz-adv-x="507" 
d="M295 274c0.666992 10 1.16699 19.5029 1.5 28.5029s0.666016 15 0.999023 18s0.5 5.16699 0.5 6.5c0 17.333 -7.5 32.666 -22.5 45.999s-32.167 20 -51.5 20c-25.333 0 -45.166 -5.83301 -59.499 -17.5s-21.5 -27.834 -21.5 -48.501v-10c2.66699 -21.333 4 -34.333 4 -39
c0 -11.333 -5 -21.666 -15 -30.999s-21.667 -14 -35 -14c-14.667 0 -28 6.16699 -40 18.5s-18 26.166 -18 41.499c0 34.667 23.333 65.667 70 93s98.667 41 156 41c50.667 0 87.334 -10 110.001 -30s34 -52 34 -96c0 -24 -1.83301 -61.833 -5.5 -113.5
s-5.5 -86.834 -5.5 -105.501c0 -28 8 -42 24 -42c10 0 17.667 5 23 15c6 10.667 11.667 16 17 16c10.667 0 16 -6 16 -18c0 -16.667 -8.5 -31 -25.5 -43s-37.167 -18 -60.5 -18c-22.667 0 -41.667 3.5 -57 10.5s-31 19.5 -47 37.5c-52.667 -32 -98.334 -48 -137.001 -48
c-30 0 -54.5 10.667 -73.5 32s-28.5 49.333 -28.5 84c0 38.667 34 73 102 103zM293 237.003c-44.667 -14 -79.833 -32.835 -105.5 -56.502s-38.5 -49.5 -38.5 -77.5c0.666992 -17.333 7.5 -32.166 20.5 -44.499s28.167 -18.5 45.5 -18.5c12.667 0 25.834 5.33301 39.501 16
s24.5 22.334 32.5 35.001c1.33301 4 2.66602 11.333 3.99902 22c0 22.667 0.666992 64 2 124zM235.001 622.001c24.667 0 44 5.16699 58 15.5s26.333 25.166 37 44.499c3.33301 6.66699 8.33301 10 15 10c10 0 15 -4.66699 15 -14c0 -35.333 -11.333 -64.833 -34 -88.5
s-53 -35.5 -91 -35.5s-68.333 11.833 -91 35.5s-34 53.167 -34 88.5c0 9.33301 5 14 15 14c6.66699 0 11.667 -3.33301 15 -10c10.667 -19.333 23 -34.166 37 -44.499s33.333 -15.5 58 -15.5z" />
    <glyph glyph-name="Aogonek" unicode="&#x104;" horiz-adv-x="884" 
d="M452 702l285.999 -605.001c19.333 -41.333 50.333 -62 93 -62h13c3.33301 0 5 -1.66699 5 -5v-26c0 -2.66699 -1.66699 -4 -5 -4h-135c-36.667 -35.333 -55 -72.333 -55 -111c0 -15.333 5.5 -28.333 16.5 -39s24.167 -16 39.5 -16c18.667 0 37 8.33301 55 25c4 4 7 6 9 6
c1.33301 0 3.33301 -1 6 -3s4 -3.66699 4 -5c0 -10.667 -12.833 -26.167 -38.5 -46.5s-52.5 -30.5 -80.5 -30.5c-23.333 0 -43.333 8.5 -60 25.5s-25 37.833 -25 62.5c0 46.667 27.667 90.667 83 132h-156c-3.33301 0 -5 1.33301 -5 4v26c0 3.33301 1.66699 5 5 5h13
c42.667 0 64 14.667 64 44c0 10 -2 18.667 -6 26l-38 77h-297l-31 -72l-18 -42c0 -10.667 3.66699 -18.834 11 -24.501s22.333 -8.5 45 -8.5h13c3.33301 0 5 -1.66699 5 -5v-26c0 -2.66699 -1.66699 -4 -5 -4h-223c-3.33301 0 -5 1.33301 -5 4v26c0 3.33301 1.66699 5 5 5
h13c31.333 1.33301 54.333 7 69 17s28.334 29.667 41.001 59l202 453l-17 35c0 0.666992 -0.5 1.83398 -1.5 3.50098s-1.5 2.83398 -1.5 3.50098c0 4 1.5 7.33301 4.5 10l31.5 28c23.333 19.333 39 38 47 56c3.33301 8 8.66602 12 15.999 12
c2.66699 0 5.33398 -3.33301 8.00098 -10zM383.999 501.999l-122 -278h258z" />
    <glyph glyph-name="aogonek" unicode="&#x105;" horiz-adv-x="507" 
d="M295 274c0.666992 10 1.16699 19.501 1.5 28.501s0.666016 15 0.999023 18s0.5 5.16699 0.5 6.5c0 17.333 -7.5 32.666 -22.5 45.999s-32.167 20 -51.5 20c-25.333 0 -45.166 -5.83301 -59.499 -17.5s-21.5 -27.834 -21.5 -48.501v-10c2.66699 -21.333 4 -34.333 4 -39
c0 -11.333 -5 -21.666 -15 -30.999s-21.667 -14 -35 -14c-14.667 0 -28 6.16699 -40 18.5s-18 26.166 -18 41.499c0 34.667 23.333 65.667 70 93s98.667 41 156 41c50.667 0 87.334 -10 110.001 -30s34 -52 34 -96c0 -24 -1.83301 -61.833 -5.5 -113.5
s-5.5 -86.834 -5.5 -105.501c0 -28 8 -42 24 -42c10 0 17.667 5 23 15c6 10.667 11.667 16 17 16c10.667 0 16 -6 16 -18c0 -16.667 -8 -30.667 -24 -42s-35.667 -17.666 -59 -18.999c-31.333 -33.333 -47 -67.666 -47 -102.999c0 -15.333 5.5 -28.333 16.5 -39
s24.167 -16 39.5 -16c18.667 0 37 8.33301 55 25c4 4 7 6 9 6c1.33301 0 3.33301 -1 6 -3s4 -3.66699 4 -5c0 -10.667 -12.833 -26.167 -38.5 -46.5s-52.5 -30.5 -80.5 -30.5c-23.333 0 -43.333 8.5 -60 25.5s-25 37.833 -25 62.5c0 44 26 86.667 78 128
c-22 6 -43.333 20.667 -64 44c-52.667 -32 -98.334 -48 -137.001 -48c-30 0 -54.5 10.667 -73.5 32s-28.5 49.333 -28.5 84c0 38.667 34 73 102 103zM293 237.001c-44.667 -14 -79.833 -32.835 -105.5 -56.502s-38.5 -49.5 -38.5 -77.5
c0.666992 -17.333 7.5 -32.166 20.5 -44.499s28.167 -18.5 45.5 -18.5c12.667 0 25.834 5.33301 39.501 16s24.5 22.334 32.5 35.001c1.33301 4 2.66602 11.333 3.99902 22c0 22.667 0.666992 64 2 124z" />
    <glyph glyph-name="Cacute" unicode="&#x106;" horiz-adv-x="823" 
d="M694 33c-55.333 -18.667 -98.8311 -31.168 -130.498 -37.501s-69.5 -9.5 -113.5 -9.5c-120 0 -214.167 32.833 -282.5 98.5s-102.5 155.5 -102.5 269.5s34.5 202.667 103.5 266s165.833 95 290.5 95c21.333 0 42 -1 62 -3c28 -2 76.667 -10.333 146 -25l29 13
c24 10 39 15 45 15c5.33301 0 9 -1.5 11 -4.5s3.33301 -9.16699 4 -18.5l11 -184c0.666992 -5.33301 1 -10.333 1 -15c0 -10 -3.66699 -15 -11 -15c-8.66699 0 -16 10 -22 30c-14.667 48 -48.334 88.333 -101.001 121s-108.667 49 -168 49
c-45.333 0 -84.5 -8.66699 -117.5 -26s-58.833 -41.5 -77.5 -72.5s-32.167 -65.333 -40.5 -103s-12.5 -79.167 -12.5 -124.5c0 -108.667 21.167 -190.667 63.5 -246s101.5 -83 177.5 -83c57.333 0 110.833 15.667 160.5 47s86.167 74 109.5 128l10 24
c4 10.667 9.66699 16 17 16c5.33301 0 8.66602 -1.5 9.99902 -4.5s2 -11.5 2 -25.5v-171l1 -13c0 -6.66699 -3 -10 -9 -10c-0.666992 0 -3.66699 0.666992 -9 2c-10 4.66699 -29 10.334 -57 17.001zM584.002 781.999l-178.001 -41.9971c-4 -1.33301 -6.66699 -2 -8 -2
c-3.33301 0 -7.16602 2.83301 -11.499 8.5s-6.5 10.167 -6.5 13.5c0 2 3.66699 6 11 12l163 89c11.333 6 21.333 9 30 9c12 0 22.333 -4.33301 31 -13s13 -19.334 13 -32.001c0 -10.667 -4.33301 -19.834 -13 -27.501s-19 -12.834 -31 -15.501z" />
    <glyph glyph-name="cacute" unicode="&#x107;" horiz-adv-x="507" 
d="M270 440c52 0 95.668 -12.834 131.001 -38.501s53 -54.167 53 -85.5c0 -16 -6.33301 -29.833 -19 -41.5s-27.667 -17.5 -45 -17.5s-32.333 7.83301 -45 23.5s-20.667 36.167 -24 61.5c-1.33301 11.333 -2.66602 20.333 -3.99902 27s-3.83301 13.834 -7.5 21.501
s-9.33398 13.334 -17.001 17.001s-17.167 5.5 -28.5 5.5c-30.667 0 -54.667 -14.5 -72 -43.5s-26 -68.833 -26 -119.5c0 -60 12.5 -107.5 37.5 -142.5s58.833 -52.5 101.5 -52.5c56 0 97 33 123 99c4 10.667 7.5 17.5 10.5 20.5s6.5 4.5 10.5 4.5s7.33301 -1.5 10 -4.5
s4 -6.5 4 -10.5c0 -5.33301 -2.33301 -13.666 -7 -24.999c-16.667 -42.667 -42.834 -77.834 -78.501 -105.501s-77.5 -41.5 -125.5 -41.5c-61.333 0 -111.5 19.667 -150.5 59s-58.5 89.666 -58.5 150.999c0 63.333 22.333 118.833 67 166.5s98 71.5 160 71.5z
M343.001 618.999l-110.999 -86.001c-4.66699 -4.66699 -9.33398 -7 -14.001 -7c-4 0 -8 1.83301 -12 5.5s-6 7.16699 -6 10.5c0 2.66699 2 7.33398 6 14.001l76 122c14 16.667 27.667 25 41 25c12 0 22.333 -4.5 31 -13.5s13 -18.833 13 -29.5c0 -11.333 -8 -25 -24 -41z
" />
    <glyph glyph-name="Ccircumflex" unicode="&#x108;" horiz-adv-x="823" 
d="M694 33c-55.333 -18.667 -98.8311 -31.168 -130.498 -37.501s-69.5 -9.5 -113.5 -9.5c-120 0 -214.167 32.833 -282.5 98.5s-102.5 155.5 -102.5 269.5s34.5 202.667 103.5 266s165.833 95 290.5 95c21.333 0 42 -1 62 -3c28 -2 76.667 -10.333 146 -25l29 13
c24 10 39 15 45 15c5.33301 0 9 -1.5 11 -4.5s3.33301 -9.16699 4 -18.5l11 -184c0.666992 -5.33301 1 -10.333 1 -15c0 -10 -3.66699 -15 -11 -15c-8.66699 0 -16 10 -22 30c-14.667 48 -48.334 88.333 -101.001 121s-108.667 49 -168 49
c-45.333 0 -84.5 -8.66699 -117.5 -26s-58.833 -41.5 -77.5 -72.5s-32.167 -65.333 -40.5 -103s-12.5 -79.167 -12.5 -124.5c0 -108.667 21.167 -190.667 63.5 -246s101.5 -83 177.5 -83c57.333 0 110.833 15.667 160.5 47s86.167 74 109.5 128l10 24
c4 10.667 9.66699 16 17 16c5.33301 0 8.66602 -1.5 9.99902 -4.5s2 -11.5 2 -25.5v-171l1 -13c0 -6.66699 -3 -10 -9 -10c-0.666992 0 -3.66699 0.666992 -9 2c-10 4.66699 -29 10.334 -57 17.001zM588.002 740.999l-134.998 39l-135 -39c-6 -2 -10 -3 -12 -3
c-2.66699 0 -5.66699 2.66699 -9 8s-5 10 -5 14c0 3.33301 2.66699 7 8 11l125 83c13.333 9.33301 22.666 14 27.999 14s14.666 -4.66699 27.999 -14l125 -83c5.33301 -4 8 -7.66699 8 -11c0 -4 -1.66699 -8.66699 -5 -14s-6.33301 -8 -9 -8c-2 0 -6 1 -12 3z" />
    <glyph glyph-name="ccircumflex" unicode="&#x109;" horiz-adv-x="507" 
d="M270 440c52 0 95.668 -12.834 131.001 -38.501s53 -54.167 53 -85.5c0 -16 -6.33301 -29.833 -19 -41.5s-27.667 -17.5 -45 -17.5s-32.333 7.83301 -45 23.5s-20.667 36.167 -24 61.5c-1.33301 11.333 -2.66602 20.333 -3.99902 27s-3.83301 13.834 -7.5 21.501
s-9.33398 13.334 -17.001 17.001s-17.167 5.5 -28.5 5.5c-30.667 0 -54.667 -14.5 -72 -43.5s-26 -68.833 -26 -119.5c0 -60 12.5 -107.5 37.5 -142.5s58.833 -52.5 101.5 -52.5c56 0 97 33 123 99c4 10.667 7.5 17.5 10.5 20.5s6.5 4.5 10.5 4.5s7.33301 -1.5 10 -4.5
s4 -6.5 4 -10.5c0 -5.33301 -2.33301 -13.666 -7 -24.999c-16.667 -42.667 -42.834 -77.834 -78.501 -105.501s-77.5 -41.5 -125.5 -41.5c-61.333 0 -111.5 19.667 -150.5 59s-58.5 89.666 -58.5 150.999c0 63.333 22.333 118.833 67 166.5s98 71.5 160 71.5z
M343.001 535.999l-89.998 71l-90 -71c-6.66699 -4.66699 -11.667 -7 -15 -7c-2.66699 0 -6.33398 2.16699 -11.001 6.5s-7 7.83301 -7 10.5c0 3.33301 1.33301 6.66602 4 9.99902l89 126c11.333 16 21.333 24 30 24s18.667 -8 30 -24l89 -126
c2.66699 -3.33301 4 -6.66602 4 -9.99902c0 -2.66699 -2.33301 -6.16699 -7 -10.5s-8.33398 -6.5 -11.001 -6.5c-3.33301 0 -8.33301 2.33301 -15 7z" />
    <glyph glyph-name="Cdotaccent" unicode="&#x10a;" horiz-adv-x="823" 
d="M694 33c-55.333 -18.667 -98.8311 -31.168 -130.498 -37.501s-69.5 -9.5 -113.5 -9.5c-120 0 -214.167 32.833 -282.5 98.5s-102.5 155.5 -102.5 269.5s34.5 202.667 103.5 266s165.833 95 290.5 95c21.333 0 42 -1 62 -3c28 -2 76.667 -10.333 146 -25l29 13
c24 10 39 15 45 15c5.33301 0 9 -1.5 11 -4.5s3.33301 -9.16699 4 -18.5l11 -184c0.666992 -5.33301 1 -10.333 1 -15c0 -10 -3.66699 -15 -11 -15c-8.66699 0 -16 10 -22 30c-14.667 48 -48.334 88.333 -101.001 121s-108.667 49 -168 49
c-45.333 0 -84.5 -8.66699 -117.5 -26s-58.833 -41.5 -77.5 -72.5s-32.167 -65.333 -40.5 -103s-12.5 -79.167 -12.5 -124.5c0 -108.667 21.167 -190.667 63.5 -246s101.5 -83 177.5 -83c57.333 0 110.833 15.667 160.5 47s86.167 74 109.5 128l10 24
c4 10.667 9.66699 16 17 16c5.33301 0 8.66602 -1.5 9.99902 -4.5s2 -11.5 2 -25.5v-171l1 -13c0 -6.66699 -3 -10 -9 -10c-0.666992 0 -3.66699 0.666992 -9 2c-10 4.66699 -29 10.334 -57 17.001zM389.002 804.999c0 18 6.16699 33.333 18.5 46s27.5 19 45.5 19
s33.333 -6.33301 46 -19s19 -28 19 -46s-6.33301 -33.167 -19 -45.5s-28 -18.5 -46 -18.5s-33.167 6.16699 -45.5 18.5s-18.5 27.5 -18.5 45.5z" />
    <glyph glyph-name="cdotaccent" unicode="&#x10b;" horiz-adv-x="507" 
d="M270 440c52 0 95.668 -12.834 131.001 -38.501s53 -54.167 53 -85.5c0 -16 -6.33301 -29.833 -19 -41.5s-27.667 -17.5 -45 -17.5s-32.333 7.83301 -45 23.5s-20.667 36.167 -24 61.5c-1.33301 11.333 -2.66602 20.333 -3.99902 27s-3.83301 13.834 -7.5 21.501
s-9.33398 13.334 -17.001 17.001s-17.167 5.5 -28.5 5.5c-30.667 0 -54.667 -14.5 -72 -43.5s-26 -68.833 -26 -119.5c0 -60 12.5 -107.5 37.5 -142.5s58.833 -52.5 101.5 -52.5c56 0 97 33 123 99c4 10.667 7.5 17.5 10.5 20.5s6.5 4.5 10.5 4.5s7.33301 -1.5 10 -4.5
s4 -6.5 4 -10.5c0 -5.33301 -2.33301 -13.666 -7 -24.999c-16.667 -42.667 -42.834 -77.834 -78.501 -105.501s-77.5 -41.5 -125.5 -41.5c-61.333 0 -111.5 19.667 -150.5 59s-58.5 89.666 -58.5 150.999c0 63.333 22.333 118.833 67 166.5s98 71.5 160 71.5z
M189.001 626.999c0 18 6.16699 33.333 18.5 46s27.5 19 45.5 19s33.333 -6.33301 46 -19s19 -28 19 -46s-6.33301 -33.167 -19 -45.5s-28 -18.5 -46 -18.5s-33.167 6.16699 -45.5 18.5s-18.5 27.5 -18.5 45.5z" />
    <glyph glyph-name="Ccaron" unicode="&#x10c;" horiz-adv-x="823" 
d="M694 33c-55.333 -18.667 -98.8311 -31.168 -130.498 -37.501s-69.5 -9.5 -113.5 -9.5c-120 0 -214.167 32.833 -282.5 98.5s-102.5 155.5 -102.5 269.5s34.5 202.667 103.5 266s165.833 95 290.5 95c21.333 0 42 -1 62 -3c28 -2 76.667 -10.333 146 -25l29 13
c24 10 39 15 45 15c5.33301 0 9 -1.5 11 -4.5s3.33301 -9.16699 4 -18.5l11 -184c0.666992 -5.33301 1 -10.333 1 -15c0 -10 -3.66699 -15 -11 -15c-8.66699 0 -16 10 -22 30c-14.667 48 -48.334 88.333 -101.001 121s-108.667 49 -168 49
c-45.333 0 -84.5 -8.66699 -117.5 -26s-58.833 -41.5 -77.5 -72.5s-32.167 -65.333 -40.5 -103s-12.5 -79.167 -12.5 -124.5c0 -108.667 21.167 -190.667 63.5 -246s101.5 -83 177.5 -83c57.333 0 110.833 15.667 160.5 47s86.167 74 109.5 128l10 24
c4 10.667 9.66699 16 17 16c5.33301 0 8.66602 -1.5 9.99902 -4.5s2 -11.5 2 -25.5v-171l1 -13c0 -6.66699 -3 -10 -9 -10c-0.666992 0 -3.66699 0.666992 -9 2c-10 4.66699 -29 10.334 -57 17.001zM318.002 864.999l134.998 -39l135 39c6 2 10 3 12 3
c2.66699 0 5.66699 -2.66699 9 -8s5 -10 5 -14c0 -3.33301 -2.66699 -7 -8 -11l-125 -83c-13.333 -9.33301 -22.666 -14 -27.999 -14s-14.666 4.66699 -27.999 14l-125 83c-5.33301 4 -8 7.66699 -8 11c0 4 1.66699 8.66699 5 14s6.33301 8 9 8c2 0 6 -1 12 -3z" />
    <glyph glyph-name="ccaron" unicode="&#x10d;" horiz-adv-x="507" 
d="M270 440c52 0 95.668 -12.834 131.001 -38.501s53 -54.167 53 -85.5c0 -16 -6.33301 -29.833 -19 -41.5s-27.667 -17.5 -45 -17.5s-32.333 7.83301 -45 23.5s-20.667 36.167 -24 61.5c-1.33301 11.333 -2.66602 20.333 -3.99902 27s-3.83301 13.834 -7.5 21.501
s-9.33398 13.334 -17.001 17.001s-17.167 5.5 -28.5 5.5c-30.667 0 -54.667 -14.5 -72 -43.5s-26 -68.833 -26 -119.5c0 -60 12.5 -107.5 37.5 -142.5s58.833 -52.5 101.5 -52.5c56 0 97 33 123 99c4 10.667 7.5 17.5 10.5 20.5s6.5 4.5 10.5 4.5s7.33301 -1.5 10 -4.5
s4 -6.5 4 -10.5c0 -5.33301 -2.33301 -13.666 -7 -24.999c-16.667 -42.667 -42.834 -77.834 -78.501 -105.501s-77.5 -41.5 -125.5 -41.5c-61.333 0 -111.5 19.667 -150.5 59s-58.5 89.666 -58.5 150.999c0 63.333 22.333 118.833 67 166.5s98 71.5 160 71.5z
M163.001 698.999l89.998 -71l90 71c6.66699 4.66699 11.667 7 15 7c2.66699 0 6.33398 -2.16699 11.001 -6.5s7 -7.83301 7 -10.5c0 -3.33301 -1.33301 -6.66602 -4 -9.99902l-89 -126c-11.333 -16 -21.333 -24 -30 -24s-18.667 8 -30 24l-89 126
c-2.66699 3.33301 -4 6.66602 -4 9.99902c0 2.66699 2.33301 6.16699 7 10.5s8.33398 6.5 11.001 6.5c3.33301 0 8.33301 -2.33301 15 -7z" />
    <glyph glyph-name="Dcaron" unicode="&#x10e;" horiz-adv-x="823" 
d="M270 114c0 -36 5.16895 -58 15.502 -66s38.833 -12 85.5 -12c50 0 92.667 8.16699 128 24.5s62.666 40 81.999 71s33.333 65.333 42 103s13 81.167 13 130.5c0 60 -6.16699 110.167 -18.5 150.5s-31.333 71.333 -57 93s-55 36.667 -88 45s-73.5 12.5 -121.5 12.5
c-36.667 0 -59.334 -4.16699 -68.001 -12.5s-13 -29.5 -13 -63.5v-476zM44.002 700l332 0.000976562c274 0 411 -117.333 411 -352c0 -103.333 -34.667 -190.333 -104 -261c-34 -34.667 -74.833 -57.834 -122.5 -69.501s-117.167 -17.5 -208.5 -17.5h-308
c-3.33301 -0 -5 1.33301 -5 4v26c0 3.33301 1.66699 5 5 5h13c28.667 0 48.334 5.5 59.001 16.5s16 33.167 16 66.5v464c0 33.333 -5.33301 55.5 -16 66.5s-30.334 16.5 -59.001 16.5h-13c-3.33301 0 -5 1.66699 -5 5v26c0 2.66699 1.66699 4 5 4zM248.002 865.001
l134.998 -39l135 39c6 2 10 3 12 3c2.66699 0 5.66699 -2.66699 9 -8s5 -10 5 -14c0 -3.33301 -2.66699 -7 -8 -11l-125 -83c-13.333 -9.33301 -22.666 -14 -27.999 -14s-14.666 4.66699 -27.999 14l-125 83c-5.33301 4 -8 7.66699 -8 11c0 4 1.66699 8.66699 5 14
s6.33301 8 9 8c2 0 6 -1 12 -3z" />
    <glyph glyph-name="dcaron" unicode="&#x10f;" horiz-adv-x="569" 
d="M362 75l0.000976562 244c-14.667 56.667 -47.334 85 -98.001 85c-32.667 0 -58.667 -16.167 -78 -48.5s-29 -75.833 -29 -130.5c0 -58 12.167 -104.333 36.5 -139s57.5 -52 99.5 -52c16 0 28.5 2.66699 37.5 8s19.5 16.333 31.5 33zM362.001 -14v40
c-12.667 -12 -31.667 -22.667 -57 -32s-48.333 -14 -69 -14c-55.333 0 -101 19.833 -137 59.5s-54 90.167 -54 151.5c0 73.333 20.333 131.5 61 174.5s96 64.5 166 64.5c22 0 52 -7.66699 90 -23v158c0 27.333 -3.16699 46 -9.5 56s-19.166 16.667 -38.499 20
c-3.33301 1.33301 -5 3 -5 5v16c0 3.33301 1.66699 5.33301 5 6c75.333 11.333 121 20 137 26c4 1.33301 8.66699 2 14 2c4.66699 0 7 -4.66699 7 -14v-579c0 -27.333 3.16699 -46 9.5 -56s19.166 -16.667 38.499 -20c3.33301 -1.33301 5 -3 5 -5v-16
c0 -3.33301 -1.66699 -5.33301 -5 -6c-75.333 -11.333 -121 -20 -137 -26c-4 -1.33301 -8.66699 -2 -14 -2c-4.66699 0 -7 4.66699 -7 14zM533.001 729c16.667 0 31.001 -7.33203 43.001 -21.999s18 -32.334 18 -53.001c0 -46 -24 -83.667 -72 -113
c-6.66699 -4 -11.334 -6 -14.001 -6c-2 0 -4 1.83301 -6 5.5s-3 7.5 -3 11.5c0 2.66699 2.33301 5.66699 7 9c15.333 12.667 23 26.334 23 41.001c0 9.33301 -6.33301 21.666 -19 36.999c-15.333 16.667 -23 32 -23 46c0 12.667 4.33301 23.167 13 31.5s19.667 12.5 33 12.5
z" />
    <glyph glyph-name="Dcroat" unicode="&#x110;" horiz-adv-x="823" 
d="M44 700l332 0.000976562c274 0 411 -117.333 411 -352c0 -103.333 -34.667 -190.333 -104 -261c-34 -34.667 -74.833 -57.834 -122.5 -69.501s-117.167 -17.5 -208.5 -17.5h-308c-3.33301 -0 -5 1.33301 -5 4v26c0 3.33301 1.66699 5 5 5h13
c28.667 0 48.334 5.5 59.001 16.5s16 33.167 16 66.5v212h-88c-3.33301 0 -5 1.33301 -5 4v36c0 3.33301 1.66699 5 5 5h88v207c0 33.333 -5.33301 55.5 -16 66.5s-30.334 16.5 -59.001 16.5h-13c-3.33301 0 -5 1.66699 -5 5v26c0 2.66699 1.66699 4 5 4zM270 114.001
c0 -36 5.16895 -58 15.502 -66s38.833 -12 85.5 -12c50 0 92.667 8.16699 128 24.5s62.666 40 81.999 71s33.333 65.333 42 103s13 81.167 13 130.5c0 60 -6.16699 110.167 -18.5 150.5s-31.333 71.333 -57 93s-55 36.667 -88 45s-73.5 12.5 -121.5 12.5
c-36.667 0 -59.334 -4.16699 -68.001 -12.5s-13 -29.5 -13 -63.5v-215h130c3.33301 0 5 -1.66699 5 -5v-36c0 -2.66699 -1.66699 -4 -5 -4h-130v-216z" />
    <glyph glyph-name="dcroat" unicode="&#x111;" horiz-adv-x="569" 
d="M362 -14v40c-12.667 -12 -31.667 -22.667 -57 -32s-48.333 -14 -69 -14c-55.333 0 -101 19.833 -137 59.5s-54 90.167 -54 151.5c0 73.333 20.333 131.5 61 174.5s96 64.5 166 64.5c22 0 52 -7.66699 90 -23v108h-143c-3.33301 0 -5 1.33301 -5 4v36
c0 3.33301 1.66699 5 5 5h143v5c0 27.333 -3.16699 46 -9.5 56s-19.166 16.667 -38.499 20c-3.33301 1.33301 -5 3 -5 5v16c0 3.33301 1.66699 5.33301 5 6c75.333 11.333 121 20 137 26c4 1.33301 8.66699 2 14 2c4.66699 0 7 -4.66699 7 -14v-122h47
c3.33301 0 5 -1.66699 5 -5v-36c0 -2.66699 -1.66699 -4 -5 -4h-47v-412c0 -27.333 3.16699 -46 9.5 -56s19.166 -16.667 38.499 -20c3.33301 -1.33301 5 -3 5 -5v-16c0 -3.33301 -1.66699 -5.33301 -5 -6c-75.333 -11.333 -121 -20 -137 -26
c-4 -1.33301 -8.66699 -2 -14 -2c-4.66699 0 -7 4.66699 -7 14zM362 75l0.000976562 244c-14.667 56.667 -47.334 85 -98.001 85c-32.667 0 -58.667 -16.167 -78 -48.5s-29 -75.833 -29 -130.5c0 -58 12.167 -104.333 36.5 -139s57.5 -52 99.5 -52c16 0 28.5 2.66699 37.5 8
s19.5 16.333 31.5 33z" />
    <glyph glyph-name="Emacron" unicode="&#x112;" horiz-adv-x="759" 
d="M294 335l0.00390625 -262c0 -25.333 35 -38 105 -38c78 0 133.5 7.33301 166.5 22s65.833 45 98.5 91l7.5 10l7 9.5l6 8l5.5 7c1.33301 1.66699 2.83301 3.66699 4.5 6s3.16699 4 4.5 5l4 3c1.33301 1 2.66602 1.66699 3.99902 2s2.66602 0.5 3.99902 0.5
c4.66699 0 7 -4.33301 7 -13c0 -6.66699 -1.66699 -15 -5 -25l-45 -148c-2.66699 -8.66699 -9.33398 -13 -20.001 -13h-577c-3.33301 -0 -5 1.33301 -5 4v26c0 3.33301 1.66699 5 5 5h13c28.667 0 48.334 5.5 59.001 16.5s16 33.167 16 66.5v464
c0 33.333 -5.33301 55.5 -16 66.5s-30.334 16.5 -59.001 16.5h-13c-3.33301 0 -5 1.66699 -5 5v26c0 2.66699 1.66699 4 5 4h561c8.66699 0 14.167 -0.666992 16.5 -2s5.16602 -5.33301 8.49902 -12l57 -132c4 -9.33301 6 -17 6 -23c0 -8.66699 -3.33301 -13 -10 -13
c-8 0 -21.667 13.333 -41 40c-52.667 72 -142.667 108 -270 108c-48 0 -77.5 -5.5 -88.5 -16.5s-16.5 -37.5 -16.5 -79.5v-190h148c32.667 0 59.667 12.5 81 37.5s32 52.5 32 82.5v13c0 3.33301 1.66699 5 5 5h26c2.66699 0 4 -1.66699 4 -5v-311
c0 -3.33301 -1.33301 -5 -4 -5h-26c-3.33301 0 -5 1.66699 -5 5v13c0 30 -10.667 57.5 -32 82.5s-48.333 37.5 -81 37.5h-148zM236.004 769l5 48c2 9.33301 7.33301 14 16 14h262c8 0 12 -4 12 -12l-4 -46c-1.33301 -8.66699 -9 -13 -23 -13h-259c-6 0 -9 3 -9 9z" />
    <glyph glyph-name="emacron" unicode="&#x113;" horiz-adv-x="507" 
d="M160 235c-0.666992 -4.66699 -1 -9.33496 -1 -14.002c0 -48 13 -88.333 39 -121s58 -49 96 -49c24.667 0 49.834 6.66699 75.501 20s46.834 31.333 63.501 54c3.33301 3.33301 6 5 8 5c8.66699 0 13 -3 13 -9s-2 -12.667 -6 -20c-22 -36 -51.5 -65.333 -88.5 -88
s-76.833 -34 -119.5 -34c-52.667 0 -98.834 21.833 -138.501 65.5s-59.5 94.167 -59.5 151.5c0 64.667 20.667 119.334 62 164.001s91.666 67 150.999 67c44 0 83.333 -12.167 118 -36.5s59 -56.5 73 -96.5c3.33301 -9.33301 5 -18.666 5 -27.999c0 -20 -11.667 -30 -35 -30
h-68zM247 400.999c-50 0 -78 -43.667 -84 -131l90 1h63c13.333 0 20 5.33301 20 16c0 72.667 -29.667 110.667 -89 114zM116 608.999l5 48c2 9.33301 7.33301 14 16 14h242c8 0 12 -4 12 -12l-4 -46c-1.33301 -8.66699 -9 -13 -23 -13h-239c-6 0 -9 3 -9 9z" />
    <glyph glyph-name="Ebreve" unicode="&#x114;" horiz-adv-x="759" 
d="M294 335l0.00390625 -262c0 -25.333 35 -38 105 -38c78 0 133.5 7.33301 166.5 22s65.833 45 98.5 91l7.5 10l7 9.5l6 8l5.5 7c1.33301 1.66699 2.83301 3.66699 4.5 6s3.16699 4 4.5 5l4 3c1.33301 1 2.66602 1.66699 3.99902 2s2.66602 0.5 3.99902 0.5
c4.66699 0 7 -4.33301 7 -13c0 -6.66699 -1.66699 -15 -5 -25l-45 -148c-2.66699 -8.66699 -9.33398 -13 -20.001 -13h-577c-3.33301 -0 -5 1.33301 -5 4v26c0 3.33301 1.66699 5 5 5h13c28.667 0 48.334 5.5 59.001 16.5s16 33.167 16 66.5v464
c0 33.333 -5.33301 55.5 -16 66.5s-30.334 16.5 -59.001 16.5h-13c-3.33301 0 -5 1.66699 -5 5v26c0 2.66699 1.66699 4 5 4h561c8.66699 0 14.167 -0.666992 16.5 -2s5.16602 -5.33301 8.49902 -12l57 -132c4 -9.33301 6 -17 6 -23c0 -8.66699 -3.33301 -13 -10 -13
c-8 0 -21.667 13.333 -41 40c-52.667 72 -142.667 108 -270 108c-48 0 -77.5 -5.5 -88.5 -16.5s-16.5 -37.5 -16.5 -79.5v-190h148c32.667 0 59.667 12.5 81 37.5s32 52.5 32 82.5v13c0 3.33301 1.66699 5 5 5h26c2.66699 0 4 -1.66699 4 -5v-311
c0 -3.33301 -1.33301 -5 -4 -5h-26c-3.33301 0 -5 1.66699 -5 5v13c0 30 -10.667 57.5 -32 82.5s-48.333 37.5 -81 37.5h-148zM393.004 740c-38.667 0 -69.167 10.5 -91.5 31.5s-33.5 48.167 -33.5 81.5c0 11.333 5.33301 17 16 17c4.66699 0 8.33398 -2 11.001 -6l4 -7
c15.333 -28 46.666 -42 93.999 -42s78.666 14 93.999 42l4 7c2.66699 4 6.33398 6 11.001 6c10.667 0 16 -5.66699 16 -17c0 -33.333 -11.167 -60.5 -33.5 -81.5s-52.833 -31.5 -91.5 -31.5z" />
    <glyph glyph-name="ebreve" unicode="&#x115;" horiz-adv-x="507" 
d="M160 235c-0.666992 -4.66699 -1 -9.33496 -1 -14.002c0 -48 13 -88.333 39 -121s58 -49 96 -49c24.667 0 49.834 6.66699 75.501 20s46.834 31.333 63.501 54c3.33301 3.33301 6 5 8 5c8.66699 0 13 -3 13 -9s-2 -12.667 -6 -20c-22 -36 -51.5 -65.333 -88.5 -88
s-76.833 -34 -119.5 -34c-52.667 0 -98.834 21.833 -138.501 65.5s-59.5 94.167 -59.5 151.5c0 64.667 20.667 119.334 62 164.001s91.666 67 150.999 67c44 0 83.333 -12.167 118 -36.5s59 -56.5 73 -96.5c3.33301 -9.33301 5 -18.666 5 -27.999c0 -20 -11.667 -30 -35 -30
h-68zM247 400.999c-50 0 -78 -43.667 -84 -131l90 1h63c13.333 0 20 5.33301 20 16c0 72.667 -29.667 110.667 -89 114zM250 621.999c24.667 0 44 5.16699 58 15.5s26.333 25.166 37 44.499c3.33301 6.66699 8.33301 10 15 10c10 0 15 -4.66699 15 -14
c0 -35.333 -11.333 -64.833 -34 -88.5s-53 -35.5 -91 -35.5s-68.333 11.833 -91 35.5s-34 53.167 -34 88.5c0 9.33301 5 14 15 14c6.66699 0 11.667 -3.33301 15 -10c10.667 -19.333 23 -34.166 37 -44.499s33.333 -15.5 58 -15.5z" />
    <glyph glyph-name="Edotaccent" unicode="&#x116;" horiz-adv-x="759" 
d="M294 335l0.00390625 -262c0 -25.333 35 -38 105 -38c78 0 133.5 7.33301 166.5 22s65.833 45 98.5 91l7.5 10l7 9.5l6 8l5.5 7c1.33301 1.66699 2.83301 3.66699 4.5 6s3.16699 4 4.5 5l4 3c1.33301 1 2.66602 1.66699 3.99902 2s2.66602 0.5 3.99902 0.5
c4.66699 0 7 -4.33301 7 -13c0 -6.66699 -1.66699 -15 -5 -25l-45 -148c-2.66699 -8.66699 -9.33398 -13 -20.001 -13h-577c-3.33301 -0 -5 1.33301 -5 4v26c0 3.33301 1.66699 5 5 5h13c28.667 0 48.334 5.5 59.001 16.5s16 33.167 16 66.5v464
c0 33.333 -5.33301 55.5 -16 66.5s-30.334 16.5 -59.001 16.5h-13c-3.33301 0 -5 1.66699 -5 5v26c0 2.66699 1.66699 4 5 4h561c8.66699 0 14.167 -0.666992 16.5 -2s5.16602 -5.33301 8.49902 -12l57 -132c4 -9.33301 6 -17 6 -23c0 -8.66699 -3.33301 -13 -10 -13
c-8 0 -21.667 13.333 -41 40c-52.667 72 -142.667 108 -270 108c-48 0 -77.5 -5.5 -88.5 -16.5s-16.5 -37.5 -16.5 -79.5v-190h148c32.667 0 59.667 12.5 81 37.5s32 52.5 32 82.5v13c0 3.33301 1.66699 5 5 5h26c2.66699 0 4 -1.66699 4 -5v-311
c0 -3.33301 -1.33301 -5 -4 -5h-26c-3.33301 0 -5 1.66699 -5 5v13c0 30 -10.667 57.5 -32 82.5s-48.333 37.5 -81 37.5h-148zM339.004 805c0 18 6.16699 33.333 18.5 46s27.5 19 45.5 19s33.333 -6.33301 46 -19s19 -28 19 -46s-6.33301 -33.167 -19 -45.5
s-28 -18.5 -46 -18.5s-33.167 6.16699 -45.5 18.5s-18.5 27.5 -18.5 45.5z" />
    <glyph glyph-name="edotaccent" unicode="&#x117;" horiz-adv-x="507" 
d="M160 235c-0.666992 -4.66699 -1 -9.33496 -1 -14.002c0 -48 13 -88.333 39 -121s58 -49 96 -49c24.667 0 49.834 6.66699 75.501 20s46.834 31.333 63.501 54c3.33301 3.33301 6 5 8 5c8.66699 0 13 -3 13 -9s-2 -12.667 -6 -20c-22 -36 -51.5 -65.333 -88.5 -88
s-76.833 -34 -119.5 -34c-52.667 0 -98.834 21.833 -138.501 65.5s-59.5 94.167 -59.5 151.5c0 64.667 20.667 119.334 62 164.001s91.666 67 150.999 67c44 0 83.333 -12.167 118 -36.5s59 -56.5 73 -96.5c3.33301 -9.33301 5 -18.666 5 -27.999c0 -20 -11.667 -30 -35 -30
h-68zM247 400.999c-50 0 -78 -43.667 -84 -131l90 1h63c13.333 0 20 5.33301 20 16c0 72.667 -29.667 110.667 -89 114zM186 626.999c0 18 6.16699 33.333 18.5 46s27.5 19 45.5 19s33.333 -6.33301 46 -19s19 -28 19 -46s-6.33301 -33.167 -19 -45.5s-28 -18.5 -46 -18.5
s-33.167 6.16699 -45.5 18.5s-18.5 27.5 -18.5 45.5z" />
    <glyph glyph-name="Eogonek" unicode="&#x118;" horiz-adv-x="759" 
d="M294 335l0.00390625 -262c0 -25.333 35 -38 105 -38c78 0 133.5 7.33301 166.5 22s65.833 45 98.5 91l7.5 10l7 9.5l6 8l5.5 7c1.33301 1.66699 2.83301 3.66699 4.5 6s3.16699 4 4.5 5l4 3c1.33301 1 2.66602 1.66699 3.99902 2s2.66602 0.5 3.99902 0.5
c4.66699 0 7 -4.33301 7 -13c0 -6.66699 -1.66699 -15 -5 -25l-45 -148c-2.66699 -8.66699 -9.33398 -13 -20.001 -13h-56c-37.333 -35.333 -56 -72.333 -56 -111c0 -15.333 5.5 -28.333 16.5 -39s24.167 -16 39.5 -16c18.667 0 37 8.33301 55 25c4 4 7 6 9 6
c1.33301 0 3.33301 -1 6 -3s4 -3.66699 4 -5c0 -10.667 -12.833 -26.167 -38.5 -46.5s-52.5 -30.5 -80.5 -30.5c-23.333 0 -43.333 8.5 -60 25.5s-25 37.833 -25 62.5c0 46.667 27.667 90.667 83 132h-474c-3.33301 -0 -5 1.33301 -5 4v26c0 3.33301 1.66699 5 5 5h13
c28.667 0 48.334 5.5 59.001 16.5s16 33.167 16 66.5v464c0 33.333 -5.33301 55.5 -16 66.5s-30.334 16.5 -59.001 16.5h-13c-3.33301 0 -5 1.66699 -5 5v26c0 2.66699 1.66699 4 5 4h561c8.66699 0 14.167 -0.666992 16.5 -2s5.16602 -5.33301 8.49902 -12l57 -132
c4 -9.33301 6 -17 6 -23c0 -8.66699 -3.33301 -13 -10 -13c-8 0 -21.667 13.333 -41 40c-52.667 72 -142.667 108 -270 108c-48 0 -77.5 -5.5 -88.5 -16.5s-16.5 -37.5 -16.5 -79.5v-190h148c32.667 0 59.667 12.5 81 37.5s32 52.5 32 82.5v13c0 3.33301 1.66699 5 5 5h26
c2.66699 0 4 -1.66699 4 -5v-311c0 -3.33301 -1.33301 -5 -4 -5h-26c-3.33301 0 -5 1.66699 -5 5v13c0 30 -10.667 57.5 -32 82.5s-48.333 37.5 -81 37.5h-148z" />
    <glyph glyph-name="eogonek" unicode="&#x119;" horiz-adv-x="507" 
d="M160 235c-0.666992 -4.66699 -1 -9.33594 -1 -14.0029c0 -48 13 -88.333 39 -121s58 -49 96 -49c24.667 0 49.834 6.66699 75.501 20s46.834 31.333 63.501 54c3.33301 3.33301 6 5 8 5c8.66699 0 13 -3 13 -9s-2 -12.667 -6 -20c-15.333 -25.333 -32 -47 -50 -65
c-27.333 -28 -47.833 -53.167 -61.5 -75.5s-20.5 -46.166 -20.5 -71.499c0 -15.333 5.5 -28.333 16.5 -39s24.167 -16 39.5 -16c18.667 0 37 8.33301 55 25c4 4 7 6 9 6c1.33301 0 3.33301 -1 6 -3s4 -3.66699 4 -5c0 -10.667 -12.833 -26.167 -38.5 -46.5
s-52.5 -30.5 -80.5 -30.5c-23.333 0 -43.333 8.5 -60 25.5s-25 37.833 -25 62.5c0 44 24.333 85.667 73 125c-24.667 -9.33301 -49.667 -14 -75 -14c-52.667 0 -98.834 21.833 -138.501 65.5s-59.5 94.167 -59.5 151.5c0 64.667 20.667 119.334 62 164.001
s91.666 67 150.999 67c44 0 83.333 -12.167 118 -36.5s59 -56.5 73 -96.5c3.33301 -9.33301 5 -18.666 5 -27.999c0 -20 -11.667 -30 -35 -30h-68zM247 400.998c-50 0 -78 -43.667 -84 -131l153 1c13.333 0 20 5.33301 20 16c0 72.667 -29.667 110.667 -89 114z" />
    <glyph glyph-name="Ecaron" unicode="&#x11a;" horiz-adv-x="759" 
d="M294 335l0.00390625 -262c0 -25.333 35 -38 105 -38c78 0 133.5 7.33301 166.5 22s65.833 45 98.5 91l7.5 10l7 9.5l6 8l5.5 7c1.33301 1.66699 2.83301 3.66699 4.5 6s3.16699 4 4.5 5l4 3c1.33301 1 2.66602 1.66699 3.99902 2s2.66602 0.5 3.99902 0.5
c4.66699 0 7 -4.33301 7 -13c0 -6.66699 -1.66699 -15 -5 -25l-45 -148c-2.66699 -8.66699 -9.33398 -13 -20.001 -13h-577c-3.33301 -0 -5 1.33301 -5 4v26c0 3.33301 1.66699 5 5 5h13c28.667 0 48.334 5.5 59.001 16.5s16 33.167 16 66.5v464
c0 33.333 -5.33301 55.5 -16 66.5s-30.334 16.5 -59.001 16.5h-13c-3.33301 0 -5 1.66699 -5 5v26c0 2.66699 1.66699 4 5 4h561c8.66699 0 14.167 -0.666992 16.5 -2s5.16602 -5.33301 8.49902 -12l57 -132c4 -9.33301 6 -17 6 -23c0 -8.66699 -3.33301 -13 -10 -13
c-8 0 -21.667 13.333 -41 40c-52.667 72 -142.667 108 -270 108c-48 0 -77.5 -5.5 -88.5 -16.5s-16.5 -37.5 -16.5 -79.5v-190h148c32.667 0 59.667 12.5 81 37.5s32 52.5 32 82.5v13c0 3.33301 1.66699 5 5 5h26c2.66699 0 4 -1.66699 4 -5v-311
c0 -3.33301 -1.33301 -5 -4 -5h-26c-3.33301 0 -5 1.66699 -5 5v13c0 30 -10.667 57.5 -32 82.5s-48.333 37.5 -81 37.5h-148zM248.004 865l134.998 -39l135 39c6 2 10 3 12 3c2.66699 0 5.66699 -2.66699 9 -8s5 -10 5 -14c0 -3.33301 -2.66699 -7 -8 -11l-125 -83
c-13.333 -9.33301 -22.666 -14 -27.999 -14s-14.666 4.66699 -27.999 14l-125 83c-5.33301 4 -8 7.66699 -8 11c0 4 1.66699 8.66699 5 14s6.33301 8 9 8c2 0 6 -1 12 -3z" />
    <glyph glyph-name="ecaron" unicode="&#x11b;" horiz-adv-x="507" 
d="M160 235c-0.666992 -4.66699 -1 -9.33496 -1 -14.002c0 -48 13 -88.333 39 -121s58 -49 96 -49c24.667 0 49.834 6.66699 75.501 20s46.834 31.333 63.501 54c3.33301 3.33301 6 5 8 5c8.66699 0 13 -3 13 -9s-2 -12.667 -6 -20c-22 -36 -51.5 -65.333 -88.5 -88
s-76.833 -34 -119.5 -34c-52.667 0 -98.834 21.833 -138.501 65.5s-59.5 94.167 -59.5 151.5c0 64.667 20.667 119.334 62 164.001s91.666 67 150.999 67c44 0 83.333 -12.167 118 -36.5s59 -56.5 73 -96.5c3.33301 -9.33301 5 -18.666 5 -27.999c0 -20 -11.667 -30 -35 -30
h-68zM247 400.999c-50 0 -78 -43.667 -84 -131l90 1h63c13.333 0 20 5.33301 20 16c0 72.667 -29.667 110.667 -89 114zM163 698.999l89.998 -71l90 71c6.66699 4.66699 11.667 7 15 7c2.66699 0 6.33398 -2.16699 11.001 -6.5s7 -7.83301 7 -10.5
c0 -3.33301 -1.33301 -6.66602 -4 -9.99902l-89 -126c-11.333 -16 -21.333 -24 -30 -24s-18.667 8 -30 24l-89 126c-2.66699 3.33301 -4 6.66602 -4 9.99902c0 2.66699 2.33301 6.16699 7 10.5s8.33398 6.5 11.001 6.5c3.33301 0 8.33301 -2.33301 15 -7z" />
    <glyph glyph-name="Gcircumflex" unicode="&#x11c;" horiz-adv-x="888" 
d="M174 611c73.333 65.333 175 98.002 305 98.002c58.667 0 136.667 -15.667 234 -47l29 13c24 10 39 15 45 15s10 -1.5 12 -4.5s3 -9.16699 3 -18.5v-187c0 -10 -4 -15 -12 -15s-15 10 -21 30c-14.667 48 -50.667 89.5 -108 124.5s-115.666 52.5 -174.999 52.5
c-72.667 0 -127.667 -16.667 -165 -50c-32.667 -28.667 -56.167 -65.334 -70.5 -110.001s-21.5 -102.667 -21.5 -174c0 -38 4.83301 -75.333 14.5 -112s24 -71 43 -103s45 -57.667 78 -77s70.833 -29 113.5 -29c54 0 102 15.333 144 46c22 17.333 33 31.333 33 42v92
c0 32.667 -4.33301 54.667 -13 66s-22.667 17 -42 17h-13c-3.33301 0 -5 1.66699 -5 5v26c0 2.66699 1.66699 4 5 4h271c3.33301 0 5 -1.33301 5 -4v-26c0 -3.33301 -1.66699 -5 -5 -5h-13c-19.333 0 -33.333 -5.66699 -42 -17s-13 -33.333 -13 -66
c0 -78 1.33301 -124.333 4 -139c-88.667 -46.667 -197.667 -70 -327 -70c-118.667 0 -215.834 32.5 -291.501 97.5s-113.5 150.167 -113.5 255.5c0 61.333 8.5 112.666 25.5 153.999s45.833 80 86.5 116zM608 741.002l-134.998 39l-135 -39c-6 -2 -10 -3 -12 -3
c-2.66699 0 -5.66699 2.66699 -9 8s-5 10 -5 14c0 3.33301 2.66699 7 8 11l125 83c13.333 9.33301 22.666 14 27.999 14s14.666 -4.66699 27.999 -14l125 -83c5.33301 -4 8 -7.66699 8 -11c0 -4 -1.66699 -8.66699 -5 -14s-6.33301 -8 -9 -8c-2 0 -6 1 -12 3z" />
    </font>
</defs>
</svg>
