<?xml version="1.0" encoding="utf-8"?>
<!-- Generator: Adobe Illustrator 24.3.0, SVG Export Plug-In . SVG Version: 6.00 Build 0)  -->
<svg version="1.1" id="Layer_1" xmlns="http://www.w3.org/2000/svg" xmlns:xlink="http://www.w3.org/1999/xlink" x="0px" y="0px"
	 viewBox="0 0 57.4 54.8" style="enable-background:new 0 0 57.4 54.8;" xml:space="preserve">
<path d="M32.8,27.7c-2.5,9.5,6.2,24.9,15.4,24.9c3,0,6.4-1.7,8-4.6c1.6-2.8,1.9-7.6-1-9.9c-2.3-1.8-6-1.5-8,0.2
	c-0.3,0.2-1.3,1.2-1.4,2.7c-0.1,2.1,1.6,3.5,1.8,3.6c0.2,0.2,1.1,0.8,2.1,0.7c0.2,0,0.5-0.1,0.8-0.4c0.1-0.1,0.4-0.4,0.4-0.7
	c0.1-0.7-1.2-0.9-1.6-2c-0.3-0.8,0.1-1.8,0.6-2.3c0.7-0.8,1.8-1,2.6-0.8c1.4,0.4,1.9,2.1,2,2.7c0.5,2.1-0.1,4.6-1.6,6.2
	c-5.4,5.7-12.7-0.3-15.6-5.3c-2.9-4.9-4.8-12.6-1.2-17c1.5-1.8,4.5-3.8,7-3c0.4,0.1,1.6,0.6,2.3,1.8c0.2,0.3,0.9,1.8,0.2,3.3
	c-0.5,1-1.7,1.8-2.8,1.7c-1.3-0.1-2.2-1.4-2.3-1.5c-0.4-0.6-0.5-1.2-0.9-1.2c-0.4-0.1-0.8,0.3-0.9,0.5c-0.1,0.2-0.1,0.3-0.1,0.3
	s0,0.1,0,0.1c1.2,2.8,4.9,4.8,7.7,2.7c2.2-1.6,1.9-7-1.1-9.3c-3-2.3-7.4-0.4-9.5,1.5C35.3,23.1,33.6,24.6,32.8,27.7z M32.6,16
	c0.2-0.6,2.1-5.5-0.8-8.3c-1.5-1.5-3.7-1.9-5.6-1.5c-0.6,0.1-2.8,0.6-3.7,2.6c-0.7,1.7,0.1,3.5,0.3,3.9c0.4,0.8,0.9,1.3,1.3,1.6
	c0,0,1.2,1.2,2.8,1.4c0.1,0,0.1,0,0.1,0s0.2,0,0.3-0.1c0.2-0.1,0.4-0.6,0.3-1c-0.2-0.4-0.7-0.3-1.4-0.6c-0.1,0-1.5-0.6-2-1.9
	c-0.4-1.1,0.1-2.4,1-3.1c1.3-1.2,3.1-0.6,3.2-0.6c2.2,0.7,3.2,3.7,2.9,6c-0.1,0.5-0.4,2-2.1,3.7c-3.7,3.7-10.8,4.6-16.7,2.4
	c-3.9-1.4-9.5-5-10-10.1C2.4,9.7,2.3,7.5,3.6,5.6c1-1.6,3.1-3.2,5.5-2.9c0.4,0,2.4,0.3,3.4,2.1c0.1,0.2,1.1,1.9,0.2,3.3
	c-0.4,0.6-1.3,1.3-2.1,1.2C9.3,9,8.5,7.3,8,7.5C7.6,7.7,7.4,8,7.4,8c0,0,0,0,0,0C7.2,8.5,7.2,8.8,7.2,9c0.1,1,1,1.7,1.2,1.9
	c0.2,0.1,1.9,1.5,3.9,0.9c1.4-0.5,2.2-1.7,2.3-2C16,7.3,15,3.9,13,1.9c-2.6-2.6-6.8-2.5-9.7-0.3c-3.5,2.6-3.5,7.6-2.7,10.5
	C2.7,19.9,13,22,14.9,22.4c1.5,0.3,10,1.9,15.2-2.8C31.6,18.2,32.3,16.7,32.6,16z M0.3,54.4c0.3,0.3,0.9,0.4,1,0.4
	c2.1,0,4.1-3.8,6.2-6.7c0.1-0.1,0.4-0.5,0.3-0.6c-0.1-0.1-0.4,0-0.7,0.1C6,48,0.1,50.6,0,53.2C0,53.4,0,54,0.3,54.4z M8.4,32.2
	c-0.3,0.9,0,1.7,0.1,1.9c0.6,1.6,2.3,2,2.9,2.2c0.4,0.1,1.1,0.3,1.4-0.1c0.2-0.2,0.2-0.5,0-0.8c-0.3-0.6-1.3-0.2-2-0.8
	c-0.5-0.4-0.7-1.3-0.6-2c0-0.1,0.2-0.7,0.8-1.1c0.9-0.6,2.1-0.3,2.7,0.3c0.3,0.3,0.9,0.8,1.1,2.4c0.3,2-0.1,3.8-0.6,5.2l-0.8,0.8
	c-0.3,0.3-0.3,0.8,0,1.1c0.2,0.2,0.3,0.2,0.5,0.2c0.2,0,0.4-0.1,0.5-0.2l1.4-1.4c1.1-0.6,2.5-1.2,4.2-1.3c1.7-0.1,2.3,0.5,2.6,0.6
	c0.7,0.5,1.2,1.6,0.8,2.6c-0.3,0.6-0.8,0.9-0.9,1c-0.6,0.3-1.5,0.3-2-0.2c-0.7-0.6-0.5-1.6-1.1-1.8c-0.3-0.1-0.6,0-0.8,0.2
	c-0.3,0.4,0,1.1,0.2,1.4c0.2,0.5,1,2.2,2.7,2.4c0.3,0,1.1,0.1,1.9-0.3c1.4-0.7,1.9-2.4,1.8-3.7c0-0.1-0.2-1.4-1.1-2.3
	c-1.3-1.3-3.5-1.5-5.6-1.3L39,16.7c2.9,0.2,9.8,0.6,10.9-0.7c0.7-0.8,0.6-1.4,0.6-1.4c-0.1-0.6-0.6-1-0.7-1.1
	c-1.4-1.1-4.2-0.4-7.3,0.6c4.1-2.4,10.4-6.6,10.3-10.5c0-0.4,0-1.6-0.8-2.4c-0.7-0.6-1.8-0.6-2.1-0.6c-3.6,0.2-6.7,6-9.9,11.5
	c0.9-2.7,1.5-6,0.2-7.6c-0.2-0.2-0.7-0.8-1.3-0.8c0,0-0.6,0-1.2,0.6c-1.3,1.2-0.4,8.9,0,11.5L16.5,37.3c0.2-2.6-0.4-5.7-2.3-6.9
	c-1.1-0.7-2.3-0.6-2.5-0.6C10.4,29.9,8.9,30.7,8.4,32.2z M8.9,44c0,0.9,0.8,1.7,1.7,1.7c0.9,0,1.7-0.8,1.7-1.7
	c0-0.9-0.8-1.7-1.7-1.7C9.7,42.3,8.9,43.1,8.9,44z"/>
</svg>
