<?xml version="1.0" encoding="utf-8"?>
<!-- Generator: Adobe Illustrator 24.3.0, SVG Export Plug-In . SVG Version: 6.00 Build 0)  -->
<svg version="1.1" id="Layer_1" xmlns="http://www.w3.org/2000/svg" xmlns:xlink="http://www.w3.org/1999/xlink" x="0px" y="0px"
	 viewBox="0 0 57.4 54.8" style="enable-background:new 0 0 57.4 54.8;" xml:space="preserve">
<path d="M35.7,32c2.2,1.9,6.6,3.8,9.5,1.5c3-2.3,3.2-7.6,1.1-9.3c-2.8-2.1-6.5-0.2-7.7,2.7c0,0.1,0,0.1,0,0.1s0,0.2,0.1,0.3
	c0.1,0.2,0.5,0.6,0.9,0.5c0.4-0.1,0.5-0.6,0.9-1.2c0.1-0.1,1-1.3,2.3-1.5c1.1-0.1,2.3,0.7,2.8,1.7c0.8,1.5,0,3-0.2,3.3
	c-0.7,1.2-1.9,1.7-2.3,1.8c-2.5,0.8-5.5-1.2-7-3c-3.7-4.4-1.7-12.1,1.2-17c2.9-5,10.2-11,15.6-5.3c1.5,1.6,2.1,4,1.6,6.2
	c-0.2,0.7-0.6,2.3-2,2.7c-0.9,0.3-1.9,0-2.6-0.8c-0.5-0.6-0.9-1.5-0.6-2.3c0.4-1,1.7-1.2,1.6-2c0-0.4-0.4-0.7-0.4-0.7
	c-0.3-0.3-0.7-0.3-0.8-0.4c-1-0.1-1.9,0.5-2.1,0.7c-0.2,0.1-1.9,1.5-1.8,3.6c0.1,1.5,1.1,2.5,1.4,2.7c2,1.8,5.7,2,8,0.2
	c3-2.3,2.6-7,1-9.9c-1.6-2.9-5-4.6-8-4.6c-9.1,0-17.9,15.4-15.4,24.9C33.6,30.1,35.3,31.7,35.7,32z M30.1,35.1
	c-5.2-4.7-13.6-3.1-15.2-2.8C13,32.7,2.7,34.9,0.6,42.6c-0.8,2.9-0.8,7.9,2.7,10.5c2.9,2.1,7.1,2.2,9.7-0.3c2-1.9,3-5.3,1.6-7.9
	c-0.2-0.3-0.9-1.5-2.3-2c-2-0.6-3.7,0.8-3.9,0.9c-0.2,0.2-1.1,0.9-1.2,1.9c0,0.2,0,0.5,0.2,0.9c0,0,0,0,0,0c0,0,0.2,0.4,0.6,0.5
	c0.5,0.2,1.3-1.5,2.6-1.6c0.9-0.1,1.7,0.5,2.1,1.2c0.9,1.4,0,3-0.2,3.3c-1,1.7-3.1,2-3.4,2.1c-2.4,0.3-4.5-1.4-5.5-2.9
	c-1.3-2-1.1-4.1-1.1-4.7c0.5-5.1,6.1-8.7,10-10.1c5.9-2.2,12.9-1.2,16.7,2.4c1.7,1.6,2,3.1,2.1,3.7c0.3,2.3-0.7,5.3-2.9,6
	c-0.1,0-1.9,0.6-3.2-0.6c-0.9-0.8-1.3-2.1-1-3.1c0.4-1.2,1.8-1.8,2-1.9c0.7-0.3,1.2-0.2,1.4-0.6c0.2-0.4-0.1-0.9-0.3-1
	c-0.1-0.1-0.3-0.1-0.3-0.1s0,0-0.1,0c-1.6,0.2-2.8,1.4-2.8,1.4c-0.4,0.3-0.9,0.8-1.3,1.6c-0.2,0.3-1,2.1-0.3,3.9
	c0.8,2,3.1,2.5,3.7,2.6c1.9,0.4,4.1-0.1,5.6-1.5c2.9-2.9,1.1-7.7,0.8-8.3C32.3,38,31.6,36.6,30.1,35.1z M0,1.6
	c0.1,2.6,6,5.2,7.1,5.7c0.3,0.1,0.6,0.2,0.7,0.1c0.1-0.1-0.2-0.5-0.3-0.6C5.5,3.8,3.5,0,1.4,0c-0.2,0-0.7,0-1,0.4C0,0.7,0,1.3,0,1.6
	z M11.7,25c0.1,0,1.4,0.1,2.5-0.6c1.9-1.3,2.5-4.4,2.3-6.9l21.3,21.5c-0.4,2.6-1.3,10.3,0,11.5C38.4,51,39,51,39,51
	c0.7,0,1.2-0.6,1.3-0.8c1.3-1.5,0.6-4.9-0.2-7.6c3.2,5.5,6.3,11.3,9.9,11.5c0.4,0,1.4,0.1,2.1-0.6c0.8-0.7,0.8-1.9,0.8-2.4
	c0-3.9-6.2-8.1-10.3-10.5c3,1,5.8,1.7,7.3,0.6c0.2-0.1,0.7-0.5,0.7-1.1c0,0,0.1-0.7-0.6-1.4c-1.2-1.3-8-0.9-10.9-0.7L18.5,17.3
	c2.1,0.3,4.4,0,5.6-1.3c0.9-0.9,1.1-2.2,1.1-2.3c0.1-1.3-0.4-3-1.8-3.7c-0.8-0.4-1.7-0.3-1.9-0.3c-1.7,0.3-2.4,1.9-2.7,2.4
	c-0.2,0.4-0.5,1.1-0.2,1.4c0.2,0.2,0.5,0.3,0.8,0.2c0.6-0.2,0.4-1.2,1.1-1.8c0.5-0.4,1.4-0.5,2-0.2c0.1,0,0.6,0.3,0.9,1
	c0.4,1-0.1,2.2-0.8,2.6c-0.3,0.2-0.9,0.7-2.6,0.6c-1.7-0.1-3.1-0.6-4.2-1.3l-1.4-1.4c-0.2-0.2-0.4-0.2-0.5-0.2
	c-0.2,0-0.4,0.1-0.5,0.2c-0.3,0.3-0.3,0.8,0,1.1l0.8,0.8c0.5,1.4,0.9,3.2,0.6,5.2c-0.2,1.6-0.8,2.1-1.1,2.4
	c-0.6,0.6-1.8,0.8-2.7,0.3c-0.6-0.4-0.8-1-0.8-1.1c-0.2-0.7,0-1.5,0.6-2c0.7-0.6,1.6-0.2,2-0.8c0.1-0.2,0.1-0.6,0-0.8
	c-0.3-0.4-1-0.2-1.4-0.1c-0.6,0.1-2.3,0.5-2.9,2.2c-0.1,0.2-0.3,1-0.1,1.9C8.9,24.1,10.4,24.9,11.7,25z M10.6,12.4
	c0.9,0,1.7-0.8,1.7-1.7c0-0.9-0.8-1.7-1.7-1.7c-0.9,0-1.7,0.8-1.7,1.7C8.9,11.7,9.7,12.4,10.6,12.4z"/>
</svg>
