<?xml version="1.0" encoding="utf-8"?>
<!-- Generator: Adobe Illustrator 24.3.0, SVG Export Plug-In . SVG Version: 6.00 Build 0)  -->
<svg version="1.1" id="Layer_1" xmlns="http://www.w3.org/2000/svg" xmlns:xlink="http://www.w3.org/1999/xlink" x="0px" y="0px"
	 viewBox="0 0 57.4 54.8" style="enable-background:new 0 0 57.4 54.8;" xml:space="preserve">
<path d="M21.7,22.7c-2.2-1.9-6.6-3.8-9.5-1.5c-3,2.3-3.2,7.6-1.1,9.3c2.8,2.1,6.5,0.2,7.7-2.7c0-0.1,0-0.1,0-0.1s0-0.2-0.1-0.3
	c-0.1-0.2-0.5-0.6-0.9-0.5c-0.4,0.1-0.5,0.6-0.9,1.2c-0.1,0.1-1,1.3-2.3,1.5c-1.1,0.1-2.3-0.7-2.8-1.7c-0.8-1.5,0-3,0.2-3.3
	c0.7-1.2,1.9-1.7,2.3-1.8c2.5-0.8,5.5,1.2,7,3c3.7,4.4,1.7,12.1-1.2,17c-2.9,5-10.2,11-15.6,5.3c-1.5-1.6-2.1-4-1.6-6.2
	c0.2-0.7,0.6-2.3,2-2.7c0.9-0.3,1.9,0,2.6,0.8c0.5,0.6,0.9,1.5,0.6,2.3c-0.4,1-1.7,1.2-1.6,2c0,0.4,0.4,0.7,0.4,0.7
	c0.3,0.3,0.7,0.3,0.8,0.4c1,0.1,1.9-0.5,2.1-0.7c0.2-0.1,1.9-1.5,1.8-3.6c-0.1-1.5-1.1-2.5-1.4-2.7c-2-1.8-5.7-2-8-0.2
	c-3,2.3-2.6,7-1,9.9c1.6,2.9,5,4.6,8,4.6c9.1,0,17.9-15.4,15.4-24.9C23.8,24.6,22.1,23.1,21.7,22.7z M27.3,19.6
	c5.2,4.7,13.6,3.1,15.2,2.8c1.9-0.4,12.2-2.5,14.3-10.3c0.8-2.9,0.8-7.9-2.7-10.5c-2.9-2.1-7.1-2.2-9.7,0.3c-2,1.9-3,5.3-1.6,7.9
	c0.2,0.3,0.9,1.5,2.3,2c2,0.6,3.7-0.8,3.9-0.9c0.2-0.2,1.1-0.9,1.2-1.9c0-0.2,0-0.5-0.2-0.9c0,0,0,0,0,0c0,0-0.2-0.4-0.6-0.5
	c-0.5-0.2-1.3,1.5-2.6,1.6C46,9.3,45.1,8.6,44.7,8c-0.9-1.4,0-3,0.2-3.3c1-1.7,3.1-2,3.4-2.1c2.4-0.3,4.5,1.4,5.5,2.9
	c1.3,2,1.1,4.1,1.1,4.7c-0.5,5.1-6.1,8.7-10,10.1c-5.9,2.2-12.9,1.2-16.7-2.4c-1.7-1.6-2-3.1-2.1-3.7C25.7,12,26.8,9,29,8.3
	c0.1,0,1.9-0.6,3.2,0.6c0.9,0.8,1.3,2.1,1,3.1c-0.4,1.2-1.8,1.8-2,1.9c-0.7,0.3-1.2,0.2-1.4,0.6c-0.2,0.4,0.1,0.9,0.3,1
	c0.1,0.1,0.3,0.1,0.3,0.1s0,0,0.1,0c1.6-0.2,2.8-1.4,2.8-1.4c0.4-0.3,0.9-0.8,1.3-1.6c0.2-0.3,1-2.1,0.3-3.9c-0.8-2-3.1-2.5-3.7-2.6
	c-1.9-0.4-4.1,0.1-5.6,1.5c-2.9,2.9-1.1,7.7-0.8,8.3C25.1,16.7,25.8,18.2,27.3,19.6z M57.4,53.2c-0.1-2.6-6-5.2-7.1-5.7
	c-0.3-0.1-0.6-0.2-0.7-0.1c-0.1,0.1,0.2,0.5,0.3,0.6c2.1,2.9,4.1,6.7,6.2,6.7c0.2,0,0.7,0,1-0.4C57.4,54,57.4,53.4,57.4,53.2z
	 M45.6,29.8c-0.1,0-1.4-0.1-2.5,0.6c-1.9,1.3-2.5,4.4-2.3,6.9L19.6,15.8c0.4-2.6,1.3-10.3,0-11.5c-0.6-0.6-1.2-0.6-1.2-0.6
	c-0.7,0-1.2,0.6-1.3,0.8c-1.3,1.5-0.6,4.9,0.2,7.6C14.1,6.6,11,0.8,7.4,0.6c-0.4,0-1.4-0.1-2.1,0.6C4.5,1.9,4.5,3.1,4.5,3.5
	c0,3.9,6.2,8.1,10.3,10.5c-3-1-5.8-1.7-7.3-0.6c-0.2,0.1-0.7,0.5-0.7,1.1c0,0-0.1,0.7,0.6,1.4c1.2,1.3,8,0.9,10.9,0.7l20.6,20.8
	c-2.1-0.3-4.4,0-5.6,1.3c-0.9,0.9-1.1,2.2-1.1,2.3c-0.1,1.3,0.4,3,1.8,3.7c0.8,0.4,1.7,0.3,1.9,0.3c1.7-0.3,2.4-1.9,2.7-2.4
	c0.2-0.4,0.5-1.1,0.2-1.4c-0.2-0.2-0.5-0.3-0.8-0.2c-0.6,0.2-0.4,1.2-1.1,1.8c-0.5,0.4-1.4,0.5-2,0.2c-0.1,0-0.6-0.3-0.9-1
	c-0.4-1,0.1-2.2,0.8-2.6c0.3-0.2,0.9-0.7,2.6-0.6c1.7,0.1,3.1,0.6,4.2,1.3l1.4,1.4c0.2,0.2,0.4,0.2,0.5,0.2c0.2,0,0.4-0.1,0.5-0.2
	c0.3-0.3,0.3-0.8,0-1.1l-0.8-0.8c-0.5-1.4-0.9-3.2-0.6-5.2c0.2-1.6,0.8-2.1,1.1-2.4c0.6-0.6,1.8-0.8,2.7-0.3c0.6,0.4,0.8,1,0.8,1.1
	c0.2,0.7,0,1.5-0.6,2c-0.7,0.6-1.6,0.2-2,0.8c-0.1,0.2-0.1,0.6,0,0.8c0.3,0.4,1,0.2,1.4,0.1c0.6-0.1,2.3-0.5,2.9-2.2
	c0.1-0.2,0.3-1,0.1-1.9C48.5,30.7,46.9,29.9,45.6,29.8z M46.7,42.3c-0.9,0-1.7,0.8-1.7,1.7c0,0.9,0.8,1.7,1.7,1.7
	c0.9,0,1.7-0.8,1.7-1.7C48.5,43.1,47.7,42.3,46.7,42.3z"/>
</svg>
