<svg xmlns="http://www.w3.org/2000/svg" xml:space="preserve" width="59.200649" height="48.169334" viewBox="0 0 59.200648 48.169335">
  <path d="M19.653833 29.21969385c2.4 1.6 4.3 2.8 6.3 3.9.3.2.6.3.9.5 5.4 3.1 10.3 5.5 15.1 7.4 1.7.7 3.4 1.3 4.9 1.8.9-2.5 2.3-5.8 4.2-9.1 2.9-5 6.4-9.1 7.9-10.7.4-.4.3-1-.2-1.2l-37.7-21.7c-.5-.3-1 0-1.2.5-.6 2.1-2.4 7.2-5.3 12.2-1.9 3.3-4.1 6.1-5.8 8.2 1.2 1.1 2.6 2.2 4 3.3 2.1 1.6 4.5 3.4 6.9 4.9z"/>
  <path d="M55.153833 48.01969385c-5.1.5-10.3-.3-15.3-1.7-5.8-1.6-11.3-4-16.4-7-5.1-3-10-6.6-14.3-10.8-3.6-3.6-7-7.7-9.1-12.4-.2-.3.2-.6.5-.5 0 0 .1 0 .1.1 3.3 3.8 6.9 7.1 10.8 10.1 2.3 1.7 4.5 3.4 6.9 5 2.1 1.4 4.2 2.8 6.4 4 .3.2.6.3.9.5 4.9 2.8 10 5.4 15.3 7.5 4.6 1.8 9.2 3.4 14.2 4.3h.1c.3.4.3.9-.1.9z"/>
</svg>
