<svg xmlns="http://www.w3.org/2000/svg" viewBox="0 0 279.09328 71.770356" width="279.09329" height="71.770355">
  <g
     id="g29"
     transform="translate(-2.3918759,-36.815192)">
          <path
     d="m 238.46679,81.2 c 0,-0.1 -0.2,-0.3 -0.4,-0.4 -1.2,-0.5 -3.7,-0.9 -5.7,-0.9 -3.8,0 -6.5,2.3 -6.5,5.4 0,3 2.2,4.9 4.7,5.9 2,0.8 5.6,1.6 5.6,4.2 0,1.4 -1.6,2.8 -3.2,2.8 -2.2,0 -4.4,-1.8 -5.6,-4.6 -0.4,-1 -0.6,-1.2 -0.9,-1.2 -0.3,0 -0.4,0.3 -0.4,0.7 l 0.3,3.9 c 0,0.7 0.2,1 0.9,1.2 1.9,0.4 3.7,1 5.4,1 4,0 7.5,-3 7.5,-6.5 0,-3.7 -3.5,-5.1 -6.3,-6.3 -2.8,-1.2 -4,-2.1 -4,-3.3 0,-1.3 1.5,-2.4 3.3,-2.4 2,0 4.2,1.8 4.9,4 0.3,0.8 0.4,0.9 0.8,0.9 0.3,0 0.4,-0.1 0.4,-0.4 v -0.3 z"
     id="path2" />
          <path
     d="m 214.16679,84.2 v -3.3 c 0,-0.4 0,-0.6 -0.3,-0.6 -0.2,0 -0.7,0.3 -0.8,0.3 -1.3,0.5 -2.9,1.2 -5.7,2 -0.2,0 -0.2,0.1 -0.2,0.3 v 0.7 c 0,0.1 0.1,0.2 0.2,0.2 1.7,0.3 2.1,1 2.1,3.3 v 7.5 c 0,2 -0.9,2.7 -2,2.7 h -0.6 c -0.2,0 -0.2,0 -0.2,0.2 v 1.1 c 0,0.1 0,0.2 0.2,0.2 h 9.8 c 0.2,0 0.2,0 0.2,-0.2 v -1.1 c 0,-0.2 0,-0.2 -0.2,-0.2 h -0.6 c -1.1,0 -2,-0.7 -2,-2.7 v -8.2 c 1.2,-1.7 1.8,-2.3 2.6,-2.3 0.3,0 0.7,0.2 1.2,0.4 0.9,0.4 1.6,0.6 2.1,0.6 1.5,0 2.6,-1 2.6,-2.4 0,-1.3 -1.1,-2.3 -2.6,-2.3 -1.7,-0.2 -4,1.6 -5.8,3.8"
     id="path4" />
          <path
     d="m 202.96679,93.1 c -0.1,0 -0.2,0.1 -0.3,0.2 -1.5,2 -3.9,3.2 -6,3.2 -3.3,0 -5.9,-3.2 -5.9,-7.4 0,-0.1 0,-0.3 0,-0.6 h 8.2 2.9 c 1.1,0 1.5,-0.5 1.5,-1.3 0,-0.3 0,-0.7 -0.2,-1.2 -1.2,-3.4 -4.4,-5.8 -8.3,-5.8 -5.2,0 -9.2,4.4 -9.2,10 0,5 4,9.4 8.6,9.4 3.9,0 7.2,-2.3 9,-5.3 0.2,-0.3 0.3,-0.6 0.3,-0.9 -0.1,-0.1 -0.3,-0.3 -0.6,-0.3 z m -8.4,-11.7 c 2.5,0.1 3.9,1.9 3.9,4.9 0,0.3 -0.1,0.7 -0.9,0.7 h -2.8 -3.9 c 0.3,-3.7 1.5,-5.6 3.7,-5.6 z"
     id="path6" />
          <path
     d="m 182.26679,97.6 c -1.7,-0.3 -2.1,-1 -2.1,-3.3 V 69.2 c 0,-0.4 0,-0.6 -0.3,-0.6 -0.2,0 -0.5,0 -0.6,0.1 -0.8,0.3 -3.4,0.7 -5.9,1.1 -0.2,0 -0.2,0.1 -0.2,0.3 v 0.7 c 0,0.1 0.1,0.2 0.2,0.2 1.7,0.3 2.1,1 2.1,3.3 v 6.9 c -1.4,-0.6 -2.6,-1 -3.9,-1 -6.1,0 -9.8,4 -9.8,10.4 0,5.3 3.5,9.2 8.3,9.2 1.8,0 4.4,-1 5.5,-2 v 1.7 c 0,0.4 0,0.6 0.3,0.6 0.2,0 0.5,0 0.6,-0.1 0.8,-0.3 3.4,-0.7 5.9,-1.1 0.2,0 0.2,-0.1 0.2,-0.3 v -0.7 c -0.1,-0.2 -0.2,-0.2 -0.3,-0.3 z m -6.9,-2.1 c -1,1.4 -1.6,1.8 -3,1.8 -3.6,0 -5.9,-3.3 -5.9,-8.3 0,-4.7 1.8,-7.8 4.6,-7.8 2.2,0 3.6,1.4 4.2,3.7 z"
     id="path8" />
          <path
     d="m 155.76679,69.3 c 0,-0.4 0,-0.6 -0.3,-0.6 -0.2,0 -0.5,0 -0.6,0.1 -0.8,0.3 -3.4,0.7 -5.9,1.1 -0.2,0 -0.2,0.1 -0.2,0.3 v 0.7 c 0,0.1 0.1,0.2 0.2,0.2 1.7,0.3 2.1,1 2.1,3.3 v 20.2 c 0,2 -0.9,2.7 -2,2.7 h -0.6 c -0.2,0 -0.2,0 -0.2,0.2 v 1.1 c 0,0.1 0,0.2 0.2,0.2 h 9.8 c 0.2,0 0.2,0 0.2,-0.2 v -1.1 c 0,-0.2 0,-0.2 -0.2,-0.2 h -0.5 c -1.1,0 -2,-0.7 -2,-2.7 z"
     id="path10" />
          <path
     d="m 125.66679,84.3 h 6.4 c 3,0 4.9,2.8 4.9,5.2 v 0.6 c 0,0.2 0,0.2 0.2,0.2 h 1.1 c 0.1,0 0.2,0 0.2,-0.2 V 76.6 c 0,-0.2 0,-0.2 -0.2,-0.2 h -1.1 c -0.2,0 -0.2,0 -0.2,0.2 v 0.6 c 0,2.4 -1.9,5.2 -4.9,5.2 h -6.4 v -8.2 c 0,-3.6 0.3,-4.2 4.6,-4.2 4.5,0 9.1,1.1 11.7,4.7 0.8,1.1 1.3,1.7 1.8,1.7 0.3,0 0.4,-0.2 0.4,-0.6 0,-0.2 -0.1,-0.6 -0.3,-1 l -2.5,-5.7 c -0.3,-0.6 -0.3,-0.6 -1.1,-0.6 h -24.3 c -0.2,0 -0.2,0 -0.2,0.2 v 1.1 c 0,0.2 0,0.2 0.2,0.2 h 0.6 c 2.4,0 3.3,0.6 3.3,3.6 v 20.1 c 0,3 -0.9,3.6 -3.3,3.6 h -0.6 c -0.2,0 -0.2,0 -0.2,0.2 v 1.1 c 0,0.1 0,0.2 0.2,0.2 h 25 c 0.6,0 0.7,-0.2 0.9,-0.6 l 2,-6.4 c 0.2,-0.5 0.2,-0.9 0.2,-1.1 0,-0.3 -0.1,-0.6 -0.3,-0.6 -0.5,0 -1,0.8 -2,2.2 -2.7,3.9 -4.6,4.9 -11.5,4.9 -3.3,0 -4.6,-0.5 -4.6,-1.6 z"
     id="path12" />
          <path
     d="m 93.591876,99.585542 -1.3,2.700008 c -0.3,0.9 -1.1,1.6 -2.2,1.6 h -0.4 c -2.4,0 -3.6,0.9 -3.6,2.6 0,1.2 1,2.1 2.3,2.1 1.8,0 3.1,-1.2 4.5,-4.3 l 8.500004,-18.600008 c 1.1,-2.5 2.3,-3.2 3.5,-3.3 h 0.6 c 0.2,0 0.2,0 0.2,-0.2 v -1.2 c 0,-0.1 0,-0.2 -0.2,-0.2 h -7.000004 c -0.2,0 -0.2,0 -0.2,0.2 v 1.1 c 0,0.2 0,0.2 0.2,0.2 h 0.6 c 1.100004,0.1 1.500004,0.5 1.500004,1.3 0,0.4 -0.1,1 -0.3,1.3 l -3.900004,8.5 -4,-9.1 c -0.3,-0.5 -0.3,-0.9 -0.3,-1.1 0,-0.6 0.6,-0.8 1.6,-0.8 h 0.6 c 0.2,0 0.2,0 0.2,-0.2 v -1.2 c 0,-0.1 0,-0.2 -0.2,-0.2 h -10.1 c -0.2,0 -0.2,0 -0.2,0.2 v 1.1 c 0,0.2 0,0.2 0.2,0.2 h 0.6 c 1.3,0 1.9,0.6 2.5,2 z"
     id="path14" />
          <path
     d="m 73.091876,79.885542 c -2.3,0 -4.4,1.1 -6,2.4 v -13 c 0,-0.4 0,-0.6 -0.3,-0.6 -0.2,0 -0.5,0 -0.6,0.1 -0.8,0.3 -3.4,0.7 -5.9,1.1 -0.2,0 -0.2,0.1 -0.2,0.3 v 0.7 c 0,0.1 0.1,0.2 0.2,0.2 1.7,0.3 2.1,1 2.1,3.3 v 25.1 l 0.7,-0.1 1.7,-1.6 0.5,-0.3 c 2.6,1.4 4.2,1.9 6.2,1.9 5.2,0 9.4,-4.6 9.4,-10.2 0,-5.4 -3.3,-9.3 -7.8,-9.3 z m -1.5,18.3 c -0.9,0 -2,-0.4 -2.8,-1 -1.4,-1.1 -1.6,-1.6 -1.6,-4 v -9.6 c 1.2,-0.9 1.7,-1.1 3,-1.1 3.7,0 6.3,3.5 6.3,8.2 0,4.2 -2.1,7.5 -4.9,7.5 z"
     id="path16" />
          <path
     d="m 44.391876,99.285542 c 2.5,0 4.4,-0.7 6.2,-2.9 v 2.4 c 0,0.4 0,0.6 0.3,0.6 0.2,0 0.5,0 0.6,-0.1 0.8,-0.3 3.3,-0.7 5.9,-1.1 0.2,0 0.2,-0.1 0.2,-0.3 v -0.7 c 0,-0.1 -0.1,-0.2 -0.2,-0.2 -1.7,-0.3 -2.1,-1 -2.1,-3.3 v -12.7 c 0,-0.1 0,-0.2 -0.2,-0.2 h -7.1 c -0.2,0 -0.2,0 -0.2,0.2 v 1.1 c 0,0.2 0,0.2 0.2,0.2 h 0.6 c 1.1,0 2,0.7 2,2.7 v 9.3 c -1.5,2.3 -2.6,3.3 -4.3,3.3 -1.7,0 -3.1,-1.5 -3.1,-3.3 v -13.3 c 0,-0.1 0,-0.2 -0.2,-0.2 h -7.1 c -0.2,0 -0.2,0 -0.2,0.2 v 1.1 c 0,0.2 0,0.2 0.2,0.2 h 0.6 c 1.1,0 2,0.7 2,2.7 v 9.2 c -0.1,3.1 2.5,5.1 5.9,5.1"
     id="path18" />
          <path
     d="m 33.591876,97.285542 h -0.8 c -1.3,0 -2.5,-0.5 -3.3,-1.7 -0.9,-1.3 -1.3,-2.7 -3,-6.2 -1.5,-2.9 -2.4,-4.5 -3.9,-5.9 -0.2,-0.2 -0.3,-0.3 -0.3,-0.4 0,-0.1 0.1,-0.2 0.4,-0.2 4.2,-1 6.4,-3.3 6.4,-6.7 0,-4.8 -4.6,-7.7 -12.1,-7.7 H 2.5918759 c -0.2,0 -0.2,0 -0.2,0.2 v 1.1 c 0,0.2 0,0.2 0.2,0.2 h 0.6 c 2.4,0 3.3,0.6 3.3,3.6 v 20.1 c 0,3 -0.9,3.6 -3.3,3.6 h -0.6 c -0.2,0 -0.2,0 -0.2,0.2 v 1.1 c 0,0.1 0,0.2 0.2,0.2 H 16.191876 c 0.2,0 0.2,0 0.2,-0.2 v -1.1 c 0,-0.2 0,-0.2 -0.2,-0.2 h -0.6 c -2.4,0 -3.3,-0.6 -3.3,-3.6 v -9.8 h 4.1 c 1.1,0.8 1.6,1.5 2.8,3.8 1.5,2.9 3.1,6.3 4.9,10.8 0.1,0.2 0.2,0.3 0.5,0.3 h 9 c 0.2,0 0.2,0 0.2,-0.2 v -1.1 c 0,-0.1 0,-0.2 -0.2,-0.2 z m -19.1,-14.6 c -0.5,0 -1.2,0 -2.2,-0.1 v -9.6 c 0,-2.9 0.7,-3.4 3.2,-3.4 5.3,0 7.9,2 7.9,5.9 0.1,4.4 -3.4,7.2 -8.9,7.2 z"
     id="path20" />
          <g
     id="hat"
     transform="translate(124.13834,36.834886)">
                  <g
     id="g24">
                          <path
     d="m 117.8,29.2 c 2.4,1.6 4.3,2.8 6.3,3.9 0.3,0.2 0.6,0.3 0.9,0.5 5.4,3.1 10.3,5.5 15.1,7.4 1.7,0.7 3.4,1.3 4.9,1.8 0.9,-2.5 2.3,-5.8 4.2,-9.1 2.9,-5 6.4,-9.1 7.9,-10.7 0.4,-0.4 0.3,-1 -0.2,-1.2 L 119.2,0.1 c -0.5,-0.3 -1,0 -1.2,0.5 -0.6,2.1 -2.4,7.2 -5.3,12.2 -1.9,3.3 -4.1,6.1 -5.8,8.2 1.2,1.1 2.6,2.2 4,3.3 2.1,1.6 4.5,3.4 6.9,4.9 z"
     id="path22" />
                  </g>
                  <path
     d="m 153.3,48 c -5.1,0.5 -10.3,-0.3 -15.3,-1.7 -5.8,-1.6 -11.3,-4 -16.4,-7 -5.1,-3 -10,-6.6 -14.3,-10.8 -3.6,-3.6 -7,-7.7 -9.1,-12.4 -0.2,-0.3 0.2,-0.6 0.5,-0.5 0,0 0.1,0 0.1,0.1 3.3,3.8 6.9,7.1 10.8,10.1 2.3,1.7 4.5,3.4 6.9,5 2.1,1.4 4.2,2.8 6.4,4 0.3,0.2 0.6,0.3 0.9,0.5 4.9,2.8 10,5.4 15.3,7.5 4.6,1.8 9.2,3.4 14.2,4.3 h 0.1 c 0.3,0.4 0.3,0.9 -0.1,0.9 z"
     id="path26" />
          </g>
  </g>
</svg>
