<?xml version="1.0" encoding="utf-8"?>
<!-- Generator: Adobe Illustrator 24.3.0, SVG Export Plug-In . SVG Version: 6.00 Build 0)  -->
<svg version="1.1" id="Layer_1" xmlns="http://www.w3.org/2000/svg" xmlns:xlink="http://www.w3.org/1999/xlink" x="0px" y="0px"
	 viewBox="0 0 24.2 30.5" style="enable-background:new 0 0 24.2 30.5;" xml:space="preserve">
<g>
	<path d="M12.1,14c-1.2,0-2.3-1-2.3-2.3c0-1.2,1-2.2,2.3-2.2s2.2,1,2.2,2.2C14.3,13,13.3,14,12.1,14z"/>
	<path d="M12.1,5.5c-1.5,0-2.8-1.2-2.8-2.8c0-1.5,1.2-2.7,2.8-2.7s2.7,1.2,2.7,2.7C14.8,4.3,13.6,5.5,12.1,5.5z"/>
	<path d="M12.1,21.1c-0.8,0-1.5-0.7-1.5-1.5s0.7-1.5,1.5-1.5c0.8,0,1.5,0.7,1.5,1.5S12.9,21.1,12.1,21.1z"/>
	<path d="M18.1,21.8c-1.5,1.7-3.2,4.1-6,8.7c0.1-1,2-7.5,4.8-10.4c2.6-2.8,5.3-3.5,7.3-3.3C21.3,18.4,19.8,19.9,18.1,21.8z"/>
	<path d="M6.2,21.8c1.5,1.7,3.2,4.1,6,8.7c-0.1-1-2-7.5-4.8-10.4c-2.6-2.8-5.3-3.5-7.3-3.3C2.9,18.4,4.5,19.9,6.2,21.8z"/>
</g>
</svg>
