<?xml version="1.0" encoding="utf-8"?>
<!-- Generator: Adobe Illustrator 24.3.0, SVG Export Plug-In . SVG Version: 6.00 Build 0)  -->
<svg version="1.1" id="Layer_1" xmlns="http://www.w3.org/2000/svg" xmlns:xlink="http://www.w3.org/1999/xlink" x="0px" y="0px"
	 viewBox="0 0 57.4 54.8" style="enable-background:new 0 0 57.4 54.8;" xml:space="preserve">
<path d="M24.6,27.1c2.5-9.5-6.2-24.9-15.4-24.9c-3,0-6.4,1.7-8,4.6c-1.6,2.8-1.9,7.6,1,9.9c2.3,1.8,6,1.5,8-0.2
	c0.3-0.2,1.3-1.2,1.4-2.7c0.1-2.1-1.6-3.5-1.8-3.6C9.7,9.9,8.7,9.2,7.8,9.4c-0.2,0-0.5,0.1-0.8,0.4c-0.1,0.1-0.4,0.4-0.4,0.7
	c-0.1,0.7,1.2,0.9,1.6,2c0.3,0.8-0.1,1.8-0.6,2.3c-0.7,0.8-1.8,1-2.6,0.8c-1.4-0.4-1.9-2.1-2-2.7c-0.5-2.1,0.1-4.6,1.6-6.2
	C9.8,0.9,17.1,6.9,20,11.9c2.9,4.9,4.8,12.6,1.2,17c-1.5,1.8-4.5,3.8-7,3c-0.4-0.1-1.6-0.6-2.3-1.8c-0.2-0.3-0.9-1.8-0.2-3.3
	c0.5-1,1.7-1.8,2.8-1.7c1.3,0.1,2.2,1.4,2.3,1.5c0.4,0.6,0.5,1.2,0.9,1.2c0.4,0.1,0.8-0.3,0.9-0.5c0.1-0.2,0.1-0.3,0.1-0.3
	s0-0.1,0-0.1c-1.2-2.8-4.9-4.8-7.7-2.7c-2.2,1.6-1.9,7,1.1,9.3c3,2.3,7.4,0.4,9.5-1.5C22.1,31.7,23.8,30.1,24.6,27.1z M24.8,38.7
	c-0.2,0.6-2.1,5.5,0.8,8.3c1.5,1.5,3.7,1.9,5.6,1.5c0.6-0.1,2.8-0.6,3.7-2.6c0.7-1.7-0.1-3.5-0.3-3.9c-0.4-0.8-0.9-1.3-1.3-1.6
	c0,0-1.2-1.2-2.8-1.4c-0.1,0-0.1,0-0.1,0s-0.2,0-0.3,0.1c-0.2,0.1-0.4,0.6-0.3,1c0.2,0.4,0.7,0.3,1.4,0.6c0.1,0,1.5,0.6,2,1.9
	c0.4,1.1-0.1,2.4-1,3.1c-1.3,1.2-3.1,0.6-3.2,0.6c-2.2-0.7-3.2-3.7-2.9-6c0.1-0.5,0.4-2,2.1-3.7c3.7-3.7,10.8-4.6,16.7-2.4
	c3.9,1.4,9.5,5,10,10.1c0.1,0.6,0.2,2.7-1.1,4.7c-1,1.6-3.1,3.2-5.5,2.9c-0.4,0-2.4-0.3-3.4-2.1c-0.1-0.2-1.1-1.9-0.2-3.3
	c0.4-0.6,1.3-1.3,2.1-1.2c1.2,0.2,2.1,1.9,2.6,1.6c0.4-0.2,0.6-0.5,0.6-0.5c0,0,0,0,0,0c0.2-0.4,0.2-0.7,0.2-0.9
	c-0.1-1-1-1.7-1.2-1.9c-0.2-0.1-1.9-1.5-3.9-0.9c-1.4,0.5-2.2,1.7-2.3,2c-1.4,2.6-0.4,6,1.6,7.9c2.6,2.6,6.8,2.5,9.7,0.3
	c3.5-2.6,3.5-7.6,2.7-10.5c-2.1-7.8-12.4-9.9-14.3-10.3c-1.5-0.3-10-1.9-15.2,2.8C25.8,36.6,25.1,38,24.8,38.7z M57,0.4
	C56.7,0,56.2,0,56,0c-2.1,0-4.1,3.8-6.2,6.7c-0.1,0.1-0.4,0.5-0.3,0.6c0.1,0.1,0.4,0,0.7-0.1c1.1-0.5,7-3.1,7.1-5.7
	C57.4,1.3,57.4,0.7,57,0.4z M48.9,22.6c0.3-0.9,0-1.7-0.1-1.9c-0.6-1.6-2.3-2-2.9-2.2c-0.4-0.1-1.1-0.3-1.4,0.1
	c-0.2,0.2-0.2,0.5,0,0.8c0.3,0.6,1.3,0.2,2,0.8c0.5,0.4,0.7,1.3,0.6,2c0,0.1-0.2,0.7-0.8,1.1c-0.9,0.6-2.1,0.3-2.7-0.3
	c-0.3-0.3-0.9-0.8-1.1-2.4c-0.3-2,0.1-3.8,0.6-5.2l0.8-0.8c0.3-0.3,0.3-0.8,0-1.1c-0.2-0.2-0.3-0.2-0.5-0.2c-0.2,0-0.4,0.1-0.5,0.2
	l-1.4,1.4c-1.1,0.6-2.5,1.2-4.2,1.3c-1.7,0.1-2.3-0.5-2.6-0.6c-0.7-0.5-1.2-1.6-0.8-2.6c0.3-0.6,0.8-0.9,0.9-1
	c0.6-0.3,1.5-0.3,2,0.2c0.7,0.6,0.5,1.6,1.1,1.8c0.3,0.1,0.6,0,0.8-0.2c0.3-0.4,0-1.1-0.2-1.4c-0.2-0.5-1-2.2-2.7-2.4
	c-0.3,0-1.1-0.1-1.9,0.3c-1.4,0.7-1.9,2.4-1.8,3.7c0,0.1,0.2,1.4,1.1,2.3c1.3,1.3,3.5,1.5,5.6,1.3L18.3,38
	c-2.9-0.2-9.8-0.6-10.9,0.7c-0.7,0.8-0.6,1.4-0.6,1.4c0.1,0.6,0.6,1,0.7,1.1c1.4,1.1,4.2,0.4,7.3-0.6c-4.1,2.4-10.4,6.6-10.3,10.5
	c0,0.4,0,1.6,0.8,2.4c0.7,0.6,1.8,0.6,2.1,0.6c3.6-0.2,6.7-6,9.9-11.5c-0.9,2.7-1.5,6-0.2,7.6c0.2,0.2,0.7,0.8,1.3,0.8
	c0,0,0.6,0,1.2-0.6c1.3-1.2,0.4-8.9,0-11.5l21.3-21.5c-0.2,2.6,0.4,5.7,2.3,6.9c1.1,0.7,2.3,0.6,2.5,0.6
	C46.9,24.9,48.5,24.1,48.9,22.6z M48.5,10.7c0-0.9-0.8-1.7-1.7-1.7C45.8,9,45,9.8,45,10.7c0,0.9,0.8,1.7,1.7,1.7
	C47.7,12.4,48.5,11.7,48.5,10.7z"/>
</svg>
