<?xml version="1.0" encoding="utf-8"?>
<!-- Generator: Adobe Illustrator 24.3.0, SVG Export Plug-In . SVG Version: 6.00 Build 0)  -->
<svg version="1.1" id="Layer_1" xmlns="http://www.w3.org/2000/svg" xmlns:xlink="http://www.w3.org/1999/xlink" x="0px" y="0px"
	 viewBox="0 0 104 28.1" style="enable-background:new 0 0 104 28.1;" xml:space="preserve">
<path d="M29.2,13.1h-8.2c-1.7-0.8-3.6-1.9-5.2-3.7c-1.5-1.7-1.5-2.8-1.5-3.4c-0.1-1.1,0.8-2.7,2.2-3.1c0.9-0.3,1.7,0.1,1.8,0.1
	C19.3,3.5,20,4.5,20,5.5c0,1.3-1.4,1.9-1,2.8c0.1,0.4,0.5,0.7,0.9,0.7C20.5,9,21,8,21.2,7.5c0.4-0.7,1.6-2.9,0.4-5
	c-0.2-0.3-0.8-1.3-2-1.8c-2-0.9-4.4,0-5.7,1.2c-0.1,0.1-1.4,1.3-1.6,3.2c-0.4,2.8,1.8,5.9,4.4,8H7.5c-0.4-1.7-1.9-3-3.7-3
	c-2.1,0-3.8,1.7-3.8,3.7c0,2.1,1.7,3.7,3.8,3.7c1.6,0,2.9-0.9,3.5-2.3h9.4c-2.7,2-5,4.9-4.8,7.7c0.1,1.8,1.3,3.1,1.4,3.2
	c1.2,1.3,3.5,2.3,5.6,1.5c1.2-0.5,1.9-1.4,2.1-1.7c1.3-2,0.2-4.3-0.1-5c-0.2-0.5-0.7-1.5-1.4-1.5c-0.4,0-0.7,0.3-0.9,0.6
	c-0.4,0.9,0.9,1.5,0.9,2.8c0,1-0.8,1.9-1.7,2.3c-0.1,0-0.9,0.4-1.8,0c-1.4-0.5-2.2-2-2.1-3.2c0.1-0.4,0.1-1.6,1.7-3.3
	c2-2.1,4.5-3.1,6.5-3.6h7c0.6,0,1.1-0.5,1.1-1.1C30.4,13.6,29.8,13.1,29.2,13.1z M100.2,10.5c-1.7,0-3.1,1.1-3.6,2.6h-8.2
	c2.7-2.1,5.2-5.4,4.8-8.3c-0.2-1.8-1.5-3-1.6-3.2c-1.3-1.3-3.7-2.1-5.7-1.2c-1.2,0.5-1.8,1.5-2,1.8c-1.2,2.1,0,4.3,0.4,5
	c0.3,0.5,0.8,1.4,1.4,1.4c0.4,0,0.7-0.3,0.9-0.7c0.3-0.9-1-1.5-1-2.8c0-1,0.7-1.9,1.6-2.4c0.1-0.1,0.9-0.4,1.8-0.1
	c1.4,0.4,2.3,1.9,2.2,3.1c-0.1,0.6,0,1.6-1.5,3.4c-1.8,2.1-4.1,3.3-6,4h-7.8c-0.6,0-1.1,0.5-1.1,1.1c0,0.6,0.5,1.1,1.1,1.1h8.7
	c1.7,0.6,3.7,1.6,5.3,3.2c1.7,1.7,1.7,2.8,1.7,3.3c0.2,1.1-0.7,2.7-2.1,3.2c-0.9,0.3-1.7,0-1.8,0c-0.9-0.4-1.7-1.3-1.7-2.3
	c0-1.3,1.3-1.9,0.9-2.8c-0.2-0.4-0.5-0.6-0.9-0.6c-0.7,0-1.1,1-1.4,1.5c-0.3,0.7-1.4,3-0.1,5c0.2,0.3,0.8,1.2,2.1,1.7
	c2.1,0.8,4.4-0.2,5.6-1.5c0.1-0.1,1.3-1.4,1.4-3.2c0.2-2.7-1.9-5.4-4.3-7.4h7.3c0.5,1.5,1.9,2.6,3.6,2.6c2.1,0,3.8-1.7,3.8-3.7
	C104,12.1,102.3,10.5,100.2,10.5z"/>
<path d="M66.2,13.3c-0.5,0.6-1.8,2.3-3,3.6c-0.8,0.8-1.6,1.4-2.2,1.4c-0.3,0-0.5-0.2-0.5-0.5c0-1.2,2.6-3.3,2.6-5.1
	c0-1.1-0.8-1.6-1.8-1.6c-2,0-4.1,2.6-5.5,4.4l0,0c0.9-1.4,1.8-2.7,2.8-4.1l-2.8,0.1l-2.9,5c-0.9,1-1.9,1.8-2.6,1.8
	c-0.3,0-0.5-0.3-0.5-0.7c0-1,1.7-3.5,3.4-6.3c-1.1,0.1-2.1,0.2-3.2,0.2h-3c2-3.7,4-6.6,5.5-6.6c0.7,0,1,0.6,1,1.3c0,0.7-0.4,1.3-1,2
	c0.3,0.2,0.7,0.2,0.9,0.2c1,0,2.2-0.6,2.2-1.8c0-1.4-1.2-2-2.7-2c-4.1,0-6.8,3.7-8.5,6.9H43l-0.2,0.3h1.7
	c-2.9,4.7-5.6,12.9-9.9,12.9c-1.5,0-2.2-1.3-2.2-2.6c0-1.4,1-2.4,2.4-2.4v-0.2c-0.3-0.1-0.8-0.2-1.2-0.2c-1.7,0-3.6,0.6-3.6,2.7
	c0,1.9,2.1,2.9,4.2,2.9c7,0,10-7.7,12.8-13.2l3.2,0c-1.4,2.4-2.5,3.9-2.5,5.3c0,0.8,0.6,1.6,1.6,1.6c1.3,0,2.1-0.6,3.2-1.7l-0.8,1.4
	l2.7-0.1c0.8-1.7,4.6-6.6,6-6.6c0.4,0,0.5,0.2,0.5,0.6c0,1.1-2.5,2.6-2.5,4.5c0,1.1,0.6,1.9,1.8,1.9c1.1,0,2.1-0.7,3.2-1.8
	c1-1.1,2.1-2.4,3-3.6L66.2,13.3z"/>
</svg>
