<?xml version="1.0" encoding="utf-8"?>
<!-- Generator: Adobe Illustrator 24.3.0, SVG Export Plug-In . SVG Version: 6.00 Build 0)  -->
<svg version="1.1" id="Layer_1" xmlns="http://www.w3.org/2000/svg" xmlns:xlink="http://www.w3.org/1999/xlink" x="0px" y="0px"
	 viewBox="0 0 104 28.1" style="enable-background:new 0 0 104 28.1;" xml:space="preserve">
<path d="M39.2,13.1H21.1c-1.7-0.8-3.6-1.9-5.2-3.7c-1.5-1.7-1.5-2.8-1.5-3.4c-0.1-1.1,0.8-2.7,2.2-3.1c0.9-0.3,1.7,0.1,1.8,0.1
	C19.3,3.5,20,4.5,20,5.5c0,1.3-1.4,1.9-1,2.8c0.1,0.4,0.5,0.7,0.9,0.7C20.5,9,21,8,21.2,7.5c0.4-0.7,1.6-2.9,0.4-5
	c-0.2-0.3-0.8-1.3-2-1.8c-2-0.9-4.4,0-5.7,1.2c-0.1,0.1-1.4,1.3-1.6,3.2c-0.4,2.8,1.8,5.9,4.4,8H7.5c-0.4-1.7-1.9-3-3.7-3
	c-2.1,0-3.8,1.7-3.8,3.7c0,2.1,1.7,3.7,3.8,3.7c1.6,0,2.9-0.9,3.5-2.3h9.4c-2.7,2-5,4.9-4.8,7.7c0.1,1.8,1.3,3.1,1.4,3.2
	c1.2,1.3,3.5,2.3,5.6,1.5c1.2-0.5,1.9-1.4,2.1-1.7c1.3-2,0.2-4.3-0.1-5c-0.2-0.5-0.7-1.5-1.4-1.5c-0.4,0-0.7,0.3-0.9,0.6
	c-0.4,0.9,0.9,1.5,0.9,2.8c0,1-0.8,1.9-1.7,2.3c-0.1,0-0.9,0.4-1.8,0c-1.4-0.5-2.2-2-2.1-3.2c0.1-0.4,0.1-1.6,1.7-3.3
	c2-2.1,4.5-3.1,6.5-3.6h17c0.6,0,1.1-0.5,1.1-1.1C40.4,13.6,39.8,13.1,39.2,13.1z M52.1,9.8c-2.1,0-3.8,1.7-3.8,3.7
	c0,2.1,1.7,3.7,3.8,3.7c2.1,0,3.8-1.7,3.8-3.7C55.9,11.5,54.2,9.8,52.1,9.8z M60.1,12.3c-1.1,0-1.9,0.8-1.9,1.9c0,1,0.9,1.9,1.9,1.9
	c1.1,0,1.9-0.8,1.9-1.9C62,13.2,61.1,12.3,60.1,12.3z M44.2,12.3c-1.1,0-1.9,0.8-1.9,1.9c0,1,0.9,1.9,1.9,1.9c1.1,0,1.9-0.8,1.9-1.9
	C46.1,13.2,45.3,12.3,44.2,12.3z M100.2,10.5c-1.7,0-3.1,1.1-3.6,2.6h-8.2c2.7-2.1,5.2-5.4,4.8-8.3c-0.2-1.8-1.5-3-1.6-3.2
	c-1.3-1.3-3.7-2.1-5.7-1.2c-1.2,0.5-1.8,1.5-2,1.8c-1.2,2.1,0,4.3,0.4,5c0.3,0.5,0.8,1.4,1.4,1.4c0.4,0,0.7-0.3,0.9-0.7
	c0.3-0.9-1-1.5-1-2.8c0-1,0.7-1.9,1.6-2.4c0.1-0.1,0.9-0.4,1.8-0.1c1.4,0.4,2.3,1.9,2.2,3.1c-0.1,0.6,0,1.6-1.5,3.4
	c-1.8,2.1-4.1,3.3-6,4H65.8c-0.6,0-1.1,0.5-1.1,1.1c0,0.6,0.5,1.1,1.1,1.1h18.7c1.7,0.6,3.7,1.6,5.3,3.2c1.7,1.7,1.7,2.8,1.7,3.3
	c0.2,1.1-0.7,2.7-2.1,3.2c-0.9,0.3-1.7,0-1.8,0c-0.9-0.4-1.7-1.3-1.7-2.3c0-1.3,1.3-1.9,0.9-2.8c-0.2-0.4-0.5-0.6-0.9-0.6
	c-0.7,0-1.1,1-1.4,1.5c-0.3,0.7-1.4,3-0.1,5c0.2,0.3,0.8,1.2,2.1,1.7c2.1,0.8,4.4-0.2,5.6-1.5c0.1-0.1,1.3-1.4,1.4-3.2
	c0.2-2.7-1.9-5.4-4.3-7.4h7.3c0.5,1.5,1.9,2.6,3.6,2.6c2.1,0,3.8-1.7,3.8-3.7C104,12.1,102.3,10.5,100.2,10.5z"/>
</svg>
